<svg xmlns="http://www.w3.org/2000/svg" viewBox="0 0 57.87 56.26"><defs><style>.cls-1{fill:#fff;}</style></defs><g id="Layer_2" data-name="Layer 2"><g id="Spain"><path id="Castille_La_Mancha" data-name="Castille La Mancha" class="cls-1" d="M49.79,19.78c-1,.09-1.93.24-2.9.24,0-8.13,0-14.54-.72-20C42.67,3,38.89,5.89,35,8.63,32.07,15.74,27,22.84,27,30c-6.89,6.88-9-5.3-13-10.13A44,44,0,0,1,1,22.59c10.25,9.27-7.16,24.3,1.53,33.67,14.19-.47,31-5.73,42.45-1.19,1.19-3.81,9.93-5.74,12.9-9.11C51.27,36.91,45.63,29.35,49.79,19.78Z"/></g></g></svg>