<svg xmlns="http://www.w3.org/2000/svg" viewBox="0 0 88.88 106"><defs><style>.cls-1{fill:#969696;}</style></defs><g id="Layer_2" data-name="Layer 2"><g id="Basemap"><path class="cls-1" d="M34.23.32a2.06,2.06,0,0,1-1.85.09.24.24,0,0,0-.32.08c-.08.15-.24.15-.59,0s-.5-.16-.56,0a.39.39,0,0,1-.36.21.86.86,0,0,0-.49.2c-.17.17-.29.17-.54,0-.46-.27-.94-.25-3.23.12-1.91.32-3.05.71-3.05,1.07,0,.08-.12.14-.26.08a.26.26,0,0,0-.33.06.45.45,0,0,1-.36.16,1.42,1.42,0,0,0-.68.43,1.7,1.7,0,0,1-.63.44,2.46,2.46,0,0,1-1.18-.17,2.66,2.66,0,0,0-1.11,0c-1.07.15-1.69-.1-1.85-.71-.1-.34-.34-.41-.66-.19a4.05,4.05,0,0,0-.59,1.05,3.55,3.55,0,0,1-2,2.33c-1,.49-2,1.39-2,1.81a1.82,1.82,0,0,1-.37.8,2.29,2.29,0,0,0-.39,1.59,2.65,2.65,0,0,1-.2,1.29.76.76,0,0,0-.22.41,2,2,0,0,1-.61.68c-.34.29-.77.64-1,.81a3.82,3.82,0,0,1-1.75.8c-.37,0-.61.27-1,1.22a2.27,2.27,0,0,1-.53.82c-.46,0-1.39,1.39-1.39,2.08A3.13,3.13,0,0,1,3,19.59,4.87,4.87,0,0,0,2.19,21a3.3,3.3,0,0,1-.68,1.22A1.68,1.68,0,0,0,1.1,23c-.05.36-.15.83-.2,1.05s0,.37.13.32a.94.94,0,0,1,.62.34c.39.43.5.88.23.88s-.37.85-.1,1.24a4.1,4.1,0,0,1-.08,3,4.76,4.76,0,0,0-.34,1.31c0,.51-.83,1.92-1.14,1.92-.12,0-.22.07-.22.17s.12.17.25.17.34.2.45.46a7.69,7.69,0,0,0,.33.76c.09.17.09.32,0,.39s-.17.46-.17.9a1.49,1.49,0,0,0,.51,1.29c.56.54.66.83.23.66-.22-.09-.25,0-.15.3.19.6.31.67.68.38s.27-.29.14-.34-.31-.56-.07-.56c.08,0,.24.22.34.51s.25.51.34.51.18.11.18.25a.26.26,0,0,0,.26.25c.13,0,.25.06.25.14a6.45,6.45,0,0,0,.85,1,3.06,3.06,0,0,1,.87,1.36c0,.71.11,1.09.33,1.21a.25.25,0,0,1,.09.32c-.07.1,0,.19,0,.19s.14.1.1.2.21.34.63.52c.71.29,1.31.77,3.34,2.6s2.56,2,4.11,1.26a7.39,7.39,0,0,1,5.61-.16.9.9,0,0,0,.76-.1,13.2,13.2,0,0,1,3.08-1.27.56.56,0,0,0,.47-.24c.12-.32,1.49-.61,3.07-.64,1,0,1.27,0,1.58.28a4.25,4.25,0,0,1,1,1.85,1.07,1.07,0,0,0,.39.61.89.89,0,0,0,1,.26c.32-.05.9-.14,1.27-.17l1.23-.14c.44-.06.56,0,.62.33a.77.77,0,0,0,.44.49c.19,0,.34.2.34.32a.61.61,0,0,0,.24.42c.32.28.17,1.92-.25,2.77-.22.42-.26.64-.12.68s.15.18,0,.4a4.74,4.74,0,0,0-.2,1.09c-.09.73-.31,1.09-.6.92s-.15.34.1.88c.14.27.38.8.55,1.17A5.41,5.41,0,0,0,35.45,59c1.21,1.17,2.72,3.41,2.72,4a.6.6,0,0,0,.17.46.18.18,0,0,1,.08.25,2.42,2.42,0,0,0,.32,1c.22.49.55,1.31.73,1.8.31.88.31.92,0,1.14s-.31.29.23,1.64a5.73,5.73,0,0,1,.53,2.17c0,.89-.31,1.7-.59,1.7s-1.11,1.43-1.23,2.22A7.5,7.5,0,0,1,37.69,78c-.22,0-.12,3.12.12,3.68a1.27,1.27,0,0,0,.34.56,13.35,13.35,0,0,1,1.63,3.31A11.5,11.5,0,0,0,40.51,87,3.32,3.32,0,0,1,41,89a13.09,13.09,0,0,0,.21,2c.1.45.3,1.52.45,2.35a5.23,5.23,0,0,0,1.45,3.26,5.24,5.24,0,0,1,1,1.87,8.64,8.64,0,0,0,1.21,2.63,1.9,1.9,0,0,1,.25.88c.1.66.07.8-.15.8a.42.42,0,0,0-.34.2,1.31,1.31,0,0,0,.46,1,.67.67,0,0,1,.07.54c-.12.58.13,1,.37.63.1-.17.17-.19.17,0a.22.22,0,0,0,.22.22.94.94,0,0,1,.54.34.7.7,0,0,0,1.14,0,1.43,1.43,0,0,1,1-.27,2.16,2.16,0,0,0,1.1-.24,4.18,4.18,0,0,1,2.65-.19c.44.11.73.11.88,0a.91.91,0,0,1,.63-.13c.22,0,.37,0,.35-.14s.29-.24.7-.27A7.69,7.69,0,0,0,59,102.15a11.41,11.41,0,0,1,1-1,9.94,9.94,0,0,0,1.8-2.56A4,4,0,0,1,63.1,97.2c.19,0,.49-.63.92-2,.3-1,.37-2.21.1-2s-.17-.22.22-.68a5.69,5.69,0,0,1,1.56-.91,3.14,3.14,0,0,0,1.58-1c.24-.35.32-.63.22-.73s-.1-.32,0-.61a3.41,3.41,0,0,0,0-2.12.58.58,0,0,1-.17-.34c0-.1.09-.07.17.07s.17.19.17-.14-.08-.35-.2-.33-.21-.19-.22-.55-.12-.61-.24-.64a.51.51,0,0,1-.19-.44,4.75,4.75,0,0,1,1.94-2.14c.15,0,.27-.07.27-.14a1.68,1.68,0,0,1,.3-.54,4.78,4.78,0,0,1,2.19-1.71,6.56,6.56,0,0,0,1.07-.49,1.31,1.31,0,0,1,.36-.28A7.14,7.14,0,0,0,74.94,77a2.1,2.1,0,0,0,0-1.36,14.59,14.59,0,0,1-.17-2.93c0-2.84.06-2.72-.39-2.92s-.48-.44-.68-1.36c-.38-1.47-.36-1.69.05-1.8.19,0,.34-.18.34-.28s-.12-.17-.26-.11c-.34.12-.54-.35-.3-.73.13-.22.07-.42-.31-.88a2,2,0,0,1-.49-.83,6.58,6.58,0,0,1,.73-2.05,11.62,11.62,0,0,0,1.09-2.5,1,1,0,0,1,.44-.55,5.93,5.93,0,0,0,1.74-1.87A16.46,16.46,0,0,1,81.18,52c.92-.58,3.62-3.53,3.63-4a7,7,0,0,1,.6-1.07A4.13,4.13,0,0,0,86,45.77a9.83,9.83,0,0,1,1.24-2.65.27.27,0,0,0,.12-.24,6.08,6.08,0,0,1,.42-1,3.8,3.8,0,0,0,.43-1.44c0-.44.08-.61.34-.68s.45-.32.17-.42-.24-1-.14-1.56-.63-.68-1-.29a3.88,3.88,0,0,1-2.19.75,1,1,0,0,0-.66.12,1.29,1.29,0,0,1-.78.12,1,1,0,0,0-.83.25,1.37,1.37,0,0,1-1,.27A1.66,1.66,0,0,0,81,39.2c-.88.54-1.53.32-2.21-.74a1.34,1.34,0,0,0-.71-.56l-.41-.11.39-.2c.65-.32.58-.81-.23-1.66a13.9,13.9,0,0,1-1-1.14c-.13-.19-.32-.36-.42-.36s-.31-.23-.46-.5a1.65,1.65,0,0,0-.59-.63,1.93,1.93,0,0,1-.53-.34.5.5,0,0,0-.44-.12c-.15,0-.25-.07-.31-.34s0-.44.16-.44.2,0,0-.25-.39-.33-.51.11-.12.39-.36.06a3.26,3.26,0,0,1-.42-1c-.47-1.95-.71-2.45-1.54-3.09s-1.19-1.29-1.24-2.93a3.92,3.92,0,0,0-.26-1.43,1.62,1.62,0,0,1-.25-.69c0-.24-.05-.43-.1-.43a5.78,5.78,0,0,1-.82-.64c-.79-.72-1.27-1.9-.74-1.9.18,0,.13-.12-.19-.41a6.74,6.74,0,0,1-.93-1.39c-.27-.56-.66-1.29-.87-1.65a3.54,3.54,0,0,1-.35-.84,1.67,1.67,0,0,0-.29-.63A2,2,0,0,1,65,14.2a3.24,3.24,0,0,0-.65-1,2.41,2.41,0,0,1-.59-1.07.73.73,0,0,0-.15-.49,3.18,3.18,0,0,1-.29-1.27A4.31,4.31,0,0,0,63,8.87c-.44-.59-2.46-.39-3.21.32a.82.82,0,0,1-.69.24c-.19,0-.68-.17-1.11-.25a8.87,8.87,0,0,1-1.1-.34,5.29,5.29,0,0,0-2.17-.41c-.32.07-.46,0-.54-.27s-.26-.36-.65-.36c-.91,0-1.76-.32-1.86-.68a.45.45,0,0,0-.43-.33.66.66,0,0,1-.46-.17c-.25-.41-1.86,0-2.63.61A1.41,1.41,0,0,0,47.82,9c.27.44-.41,1.36-1,1.38a2.87,2.87,0,0,1-.93-.48A4.85,4.85,0,0,0,43.41,9a1.3,1.3,0,0,1-1.26-1,.94.94,0,0,0-.56-.7,9.88,9.88,0,0,1-1-.44,3.27,3.27,0,0,0-1.39-.24,3.71,3.71,0,0,1-1.58-.3c-.67-.34-1.13-.87-.91-1.09.05-.05,0-.1-.17-.1s-.29.07-.29.17c0,.29-.49.19-.68-.15s-.07-.41.34-.77.63-.39.76-.34S37,4,37,3.9s-.09-.13-.17-.08-.14-.12-.07-.56,0-.72-.25-.87-.46-.61-.09-1A.58.58,0,0,0,36.57.9c0-.14,0-.19.07-.14s.17,0,.17-.05c0-.32-.24-.35-.54-.08s-.33.27-.41-.07A1,1,0,0,0,34.94,0,5.07,5.07,0,0,0,34.23.32ZM66.6,55.1a.37.37,0,0,1,0,.49.37.37,0,0,0-.07.35c.1.19-.25,1.06-.44,1.06s-.13.08-.13.18a.73.73,0,0,1-.29.43c-.29.22-.29.25,0,.47s.17.44-.73.27a1.69,1.69,0,0,0-1,0c-.32.27-.41-.1-.3-1.32.17-1.82.18-1.87.88-2.09a4.31,4.31,0,0,0,.8-.34C65.56,54.43,66.33,54.72,66.6,55.1Zm-5.87,6.51c0,.25.08.51.18.56a.32.32,0,0,1,.09.37.91.91,0,0,0,.08.61c.16.27.16.38,0,.43-.34.12-.2.71.22.86a1,1,0,0,1,.61,1,3.7,3.7,0,0,0,.43,1.17c.52,1,.52,1.06,0,.82-.27-.12-.41-.29-.34-.44a.83.83,0,0,0-.17-.6,1.39,1.39,0,0,1-.25-.59,2,2,0,0,0-.51-.83,2.53,2.53,0,0,1-.55-.87c0-.15,0-.52-.06-.79s-.09-1.12-.12-1.87c-.05-1.22,0-1.31.15-.85A3.62,3.62,0,0,1,60.73,61.61Zm6.1,7.77a3.34,3.34,0,0,1,.24,1.1,2,2,0,0,0,.24,1c.25.25.27.93,0,1.07a4.64,4.64,0,0,0,.16,2.59.28.28,0,0,1,.18.22c0,.1-.07.12-.17.07s-.17,0-.17.07a.18.18,0,0,1-.18.18c-.11,0-.14-.15-.07-.33a.69.69,0,0,0,0-.56,5.57,5.57,0,0,1-.39-2.07c.12-2,.08-2.6-.1-3a2.15,2.15,0,0,1-.22-.56C66.33,68.9,66.66,69.06,66.83,69.38Z"/><path class="cls-1" d="M85.66,72.81a2.93,2.93,0,0,0-.29,1c-.05.71-.15.82-.56.56s-.33-.17-.33,0a.42.42,0,0,0,.22.34c.1.05,0,.05-.17,0-.39-.09-.46,0-.41.64a.44.44,0,0,1-.15.39.55.55,0,0,0-.17.42c0,.22-.09.29-.26.24s-.25,0-.25.15c0,.34-1.21,1.19-2.12,1.5a4.15,4.15,0,0,0-.83.35,1.18,1.18,0,0,1-.56.14c-.31,0-.39.08-.39.46a2.16,2.16,0,0,1-.33,1c-.33.51-.33.92,0,2.87A2.25,2.25,0,0,1,78.78,85,7.42,7.42,0,0,1,78.15,86a2.61,2.61,0,0,0-.39,2.76A2.43,2.43,0,0,1,77.91,90c0,.44,0,.78.1.85a.56.56,0,0,1,.19.42,1.06,1.06,0,0,0,.9.87c.15,0,.29.07.29.17,0,.25.88.19,1.25-.09a1.64,1.64,0,0,1,.8-.25,1.42,1.42,0,0,0,1.17-1.17,1.21,1.21,0,0,1,.24-.61,5.61,5.61,0,0,0,.44-1.27,12.15,12.15,0,0,1,.52-1.55,7.34,7.34,0,0,0,.51-1.44c.12-.46.49-1.56.85-2.48a14.77,14.77,0,0,0,.75-2.29c.2-1.22.25-1.4.47-1.35s.22-.12,0-1.41l-.12-.76.34.4.34.43.29-.55c.2-.4.24-.62.1-.86a3.26,3.26,0,0,1-.17-1.09A5,5,0,0,0,87,74.62a10,10,0,0,0-1-2.19S85.8,72.6,85.66,72.81Z"/></g></g></svg>