<svg xmlns="http://www.w3.org/2000/svg" viewBox="0 0 157.39 127.79"><defs><style>.cls-1{fill:#969696;}</style></defs><g id="Layer_2" data-name="Layer 2"><g id="Basemap"><path class="cls-1" d="M47.92.13c-1.15.28-1.24.32-.85.47s.32.15,0,.15c-.56,0-.65.34-.21.8s.77.53.89.19c.06-.17.1-.17.1,0a.27.27,0,0,0,.27.22.24.24,0,0,0,.25-.22c0-.14.06-.14.16,0a.36.36,0,0,0,.42.14,2,2,0,0,1,1,.13,20.55,20.55,0,0,0,4.31.6c.76,0,1.15-.31.58-.46a.44.44,0,0,1-.36-.39c0-.39-.41-.53-1.73-.61S51,1,51.21.7s-.08-.25-.88-.42C48.67-.06,48.63-.06,47.92.13Z"/><path class="cls-1" d="M58.93,3.81c-.46.2-.65.66-.39,1S58.59,5,58,5a1.49,1.49,0,0,0-.83.15c0,.09-.34.21-.69.26s-.61,0-.53-.09c.17-.29-3.12,0-3.41.26a3.44,3.44,0,0,1-1.37.32,4.68,4.68,0,0,0-1.55.39,1.25,1.25,0,0,1-.83.17c-.24-.07-.41,0-.41.07s-.11.17-.25.17a.3.3,0,0,0-.27.29c0,.18,0,.22-.1.08-.12-.31-.68-.25-.8.07a.43.43,0,0,0,0,.39c.07,0,.15,0,.19-.1s.17-.16.47,0a1.28,1.28,0,0,0,.7.2.32.32,0,0,1,.35.15c.1.27-1.24.31-1.39,0a.48.48,0,0,0-.39-.17c-.24,0-.24,0-.05.16.36.22-.17.34-1.83.39l-1.43,0,.5.39a11.22,11.22,0,0,1,.84.75A2.07,2.07,0,0,0,46,9.88c.42,0,.78.15.78.24s.13.17.3.2,0,.08-.27.1a2.39,2.39,0,0,1-1-.22,13,13,0,0,0-3.19-.73.74.74,0,0,0-.72.19c-.21.24-.17.27.17.29s.33.06-.43.23c-.47.11-.47.12-.15.34a4.13,4.13,0,0,0,.91.41c.56.19.56.19-.23.12s-1.29-.41-1.31-1a1.64,1.64,0,0,0-1-1,1.62,1.62,0,0,1-.55-.2c-.23-.15-.37-.17-.52,0s0,.24.35.37a1.1,1.1,0,0,0,.73.07c.09-.05.12,0,.05.09a.22.22,0,0,0,.07.29c.31.18.17.39-.34.5-.27.07-.51.22-.51.34a.3.3,0,0,1-.2.29c-.1,0,.24.29.78.56.92.46,1,.51.85,1s0,.59.25.78a.67.67,0,0,1,.36.45c0,.19.25.21,1.24.14s1.13-.07.58.09c-.87.23-1,.57-.36,1.06.39.33.46.44.29.61a1,1,0,0,0-.22.6c0,.29-.14.41-.51.49s-.51.22-.51.37-.12.24-.54.16a1.64,1.64,0,0,1-.73-.29c-.12-.12-.09-.14.1-.07s.35-.09.58-.59.35-.68.42-.68.12-.26.1-.56c0-.48-.12-.6-.73-.87-.41-.17-.73-.4-.73-.51a2.85,2.85,0,0,0-.37-.78,3.56,3.56,0,0,1-.42-.9,1.21,1.21,0,0,0-1-.89c-.32-.09-.39-.17-.27-.29a1,1,0,0,0,0-1.19c-.17-.22-.59-.36-1.41-.44s-.92-.15-.56-.17c.56,0,.58,0,.27-.27s-1.69-.36-1.59-.05a.45.45,0,0,1-.15.44,1.55,1.55,0,0,0-.23.88c0,.58-.06.71-.5.93-.63.32-.67.72-.09.94.32.11.43.28.43.66,0,.54.37.95.72.81a1.16,1.16,0,0,1,.73.24,5.08,5.08,0,0,0,.89.49c.37.15.49.42.25.56a4.21,4.21,0,0,1-1.32-.41c-1.72-.69-2-.66-1.22.16a3,3,0,0,1,.62.79c0,.6-1.88,1.9-3.59,2.55a3.72,3.72,0,0,0-1,.51c-.11.13.12.83.78,2.3a14.48,14.48,0,0,1,1.43,6,2.64,2.64,0,0,0,.86,2.2,1.19,1.19,0,0,1-.66,2.17,1.22,1.22,0,0,0-.79.34c-.29.31-.29.34.1.83.22.28.59.78.83,1.11.57.81,1.13.81,1.85,0s1.18-.78,1.61-.06c.27.44.27.62.1,1.3s-.17.82.15,1c1.12.84,1.12.84.9,1s.07.51.94.8c1.13.39.86,1.37-.34,1.22-.46-.07-.68,0-.75.15s-.53.3-.83,0a1.07,1.07,0,0,0-.6-.25c-.17,0-.32-.09-.32-.19s-.25-.17-.81-.08A3.43,3.43,0,0,1,33,37.72c-1.1-.4-3.19-.5-3.53-.16a2.14,2.14,0,0,1-1,.19,6.29,6.29,0,0,0-1.51.19c-.63.17-.63.17-.53.88a3.16,3.16,0,0,0,1,2A1.46,1.46,0,0,1,28,42.09a.86.86,0,0,0,.42.95c.25.19.46.44.46.56,0,.31.57.48,1.18.34a.59.59,0,0,1,.77.32c.27.39.49,2,.25,1.89a4.8,4.8,0,0,0-1-.16c-.78-.06-.89,0-1.06.36a.91.91,0,0,0-.1.58c.07.08-.13.15-.42.15-.48,0-.51,0-.34.34a.63.63,0,0,0,.42.34c.14,0,.38.22.55.51s.35.5.42.5.14.16.14.36.06.31.2.22.27,0,.37.14a1.15,1.15,0,0,0,.61.34c.58.06.66.23.56,1-.05.37,0,.66.07.66.27,0,.76,1,.66,1.41s.27,1.24.6,1.17.23.08.18.51,0,.51.19.42c.42-.15.75.41.93,1.58a13.06,13.06,0,0,0,.27,1.35c.09.23-.13.33-1,.56a2.89,2.89,0,0,1-3-.56,2.34,2.34,0,0,0-1-.5c-.51,0-.93-.51-1.05-1.28-.07-.44,0-.67.14-.76a1.51,1.51,0,0,0,.23-1c0-.78,0-.81.48-.81.25,0,.46-.07.46-.17s-.24-.15-.56-.12c-.82.09-4.26-1.68-5.72-2.93l-1.1-1-.92.1a1.94,1.94,0,0,1-1.7-.39,5.27,5.27,0,0,0-1.37-.61A4.26,4.26,0,0,1,17,48.08a1,1,0,0,0-1-.14l-.44.17.39.41a5.74,5.74,0,0,0,1.34.87,2.31,2.31,0,0,1,1.27,1.08c.57,1.19-.17,1.7-2.53,1.78a3.92,3.92,0,0,1-1.61-.1c0-.08-.22-.15-.49-.15a.92.92,0,0,1-.61-.17.41.41,0,0,0-.43-.09c-.22.07-.37,0-.51-.25a.39.39,0,0,0-.54-.24.56.56,0,0,1-.63-.22c-.25-.3-.39-.32-1.66-.22a4.36,4.36,0,0,0-2.87,1.12c-.13.17-.47.19-1.4.08-1.26-.11-1.77,0-1.34.46s-.24.65-1.82.68a4.5,4.5,0,0,0-1.58.19c0,.1-.17.12-.3.07s-.24,0-.24.1.12.18.25.18.26.16.26.43.13.49.63.44c.1,0,.17.1.13.27a.9.9,0,0,0,.07.48,2.42,2.42,0,0,1,.14.5c0,.19,0,.24-.06.12-.15-.34-.52-.22-.49.17s.21.44.61.58.48.22.36.22-.17.09,0,.39a1.73,1.73,0,0,0,.37.49c.07.07,0,.21-.17.31-.34.18-.27.22.53.24.27,0,.29,0,.05.06s-.31.16-.31.26.12.13.26.07.25,0,.25.06S3,59,3.14,59s.25-.08.25-.18c0-.28.8,0,1.19.35a1.15,1.15,0,0,0,1,.31c.66,0,.76-.17.69-.78s1.31,0,2.09.68A2,2,0,0,0,10.74,59a.71.71,0,0,1,1.13-.2c.26.17.39.15.68-.12s.66-.22.27.18c-.2.19-.23.34-.11.46s.1.31,0,.55a.62.62,0,0,0,0,.52,2.39,2.39,0,0,1,.2,1.53,14.15,14.15,0,0,0-1,3.14c-.2,1-.57,1.52-1.2,1.52-.22,0-.66.05-.95.09-.49.07-.56.15-.56.59a4.3,4.3,0,0,0,.7,2.34,1.26,1.26,0,0,1,.32.58,4.87,4.87,0,0,0,1.44,1.64,1,1,0,0,0,.36-.25,1,1,0,0,1,.59-.25.29.29,0,0,1,.32.25c0,.14.09.25.17.25a.18.18,0,0,1,.17.17,1.07,1.07,0,0,0,.31.51,5.67,5.67,0,0,1,.62,1,5.52,5.52,0,0,0,.65,1c.41.44.85,1.28.73,1.39s.46,1.07.69,1.07a.4.4,0,0,1,.33.26c.06.13.18.2.28.13s.12,0,.07.07,0,.37.22.61a1.57,1.57,0,0,1,.34.68.52.52,0,0,0,.19.39c.12.07.15.36.08.75s0,.69.17.86a.63.63,0,0,1,.19.53c-.07.2,0,.41.3.57a1.41,1.41,0,0,1,.51.55,1.57,1.57,0,0,0,.58.63c.27.17.48.37.44.44s.12.18.34.28a.67.67,0,0,1,.42.73,1,1,0,0,0,.31.77c.15.12.29.29.29.37a2.77,2.77,0,0,0,.64.78,2.57,2.57,0,0,1,.63.88c0,.14.07.24.15.24s.24.24.34.54c.19.53.19.53-.15.22-.19-.17-.29-.37-.24-.44s0-.1-.18,0-.26,0-.22-.12-.09-.25-.24-.29-.27,0-.21.26.09.29-.15,0-.3-.24-.34-.15.8,1.59.94,1.46.86.62.89.93a1.09,1.09,0,0,0,.12.44A15.21,15.21,0,0,1,24,92.71c.05.81.29,1.15.88,1.27a1.16,1.16,0,0,0,.79-.07.4.4,0,0,1,.37-.08c.12,0,.47-.15.78-.43a1.63,1.63,0,0,1,1.1-.52,3.31,3.31,0,0,0,1.85-.68,1.1,1.1,0,0,1,.68-.17,1,1,0,0,0,.91-.44,4.29,4.29,0,0,1,1.75-.93c1.65-.6,2.44-1,2.38-1.34-.11-.46.17-.82.86-1.11a4.51,4.51,0,0,1,2-.59c.63,0,.89-.22,1-.85,0-.32.17-.44.56-.47.63-.09.93-.33.93-.73s.61-.83,1.12-.83c.32,0,.36-.09.34-1,0-1.1.17-1.39.61-.93.22.22.29.2.51,0s.22-.77-.05-.6-.15-.25.25-.73a4.27,4.27,0,0,0,1-1.83c0-.15-.15-.25-.35-.25a.45.45,0,0,1-.44-.34c-.06-.19-.16-.34-.24-.34s-.15-.08-.15-.19c0-.35-.55-.71-1.33-.84a2.59,2.59,0,0,1-2.27-2.89c0-1-.2-1.25-.56-.54a10.08,10.08,0,0,1-2.6,2.63c-.11,0-.2,0-.2.08s-.27.12-.59.09-.6-.14-.6-.22a.16.16,0,0,0-.17-.16c-.08,0-.17.11-.17.24,0,.39-.34.49-.66.21a1,1,0,0,0-.51-.28c-.13,0-.17-.11-.06-.39a3.66,3.66,0,0,0-.17-2.18c-.41-.26-.61-.12-.82.54l-.2.68L32.2,75c-.34-.54-.39-.73-.14-.73.1,0,.17.12.17.27s.08.2.17.15a.39.39,0,0,0-.17-.71c-.19-.05-.36-.15-.36-.24s0-.22-.05-.32-.17-.27-.35-.41a.74.74,0,0,1-.34-.47.2.2,0,0,0-.22-.19c-.12,0-.21,0-.21-.1s-.15-.22-.34-.27a.46.46,0,0,1-.34-.36c0-.13-.06-.23-.13-.23-.24,0-.9-1.63-.78-2s.05-.26-.05-.12a.26.26,0,0,1-.39,0c-.22-.14-.22-.17,0-.17a.93.93,0,0,0,.54-.3c.56-.58.75-.68,1.05-.51a.83.83,0,0,0,.58.06c.2-.06.41.09.68.46a2.55,2.55,0,0,1,.37.75.29.29,0,0,0,.15.25,2.92,2.92,0,0,1,.63.89,2,2,0,0,0,1.09,1,3.92,3.92,0,0,1,1.08.66,1.58,1.58,0,0,0,.77.46c.22,0,.22,0,0,.16s0,.16.37.25.58.19.53.29,0,.15.06.15a.19.19,0,0,0,.19-.17c0-.12.12-.12.34,0a.71.71,0,0,0,.52.09,2.18,2.18,0,0,1,.79-.19c.67-.09,1.11-.36,1-.59s.58-.17.73.05a4.42,4.42,0,0,1,.31.9c.22.83.86,1.18,2.44,1.35a18.41,18.41,0,0,1,2.39.36,4.89,4.89,0,0,0,2.21.07c0-.07.3-.11.67,0s.68,0,.68-.09.22-.12.61,0a5.64,5.64,0,0,0,1.72,0c1.25-.18,1.57-.12,1.57.38a.3.3,0,0,0,.33.34c.2,0,.35.17.44.45.13.58.56,1.07.9,1.07a1.57,1.57,0,0,1,.73.51A2.37,2.37,0,0,0,57.2,79c.53-.09.54-.09.24.17a1.34,1.34,0,0,1-1.16.28c-.17,0-.3.06-.3.17a9.86,9.86,0,0,0,2.66,2.53c.88,0,2.16-1.19,1.77-1.58-.17-.17-.06-.79.15-.79s.08.18,0,.42,0,.43.12.43.15.08.1.17,0,.4.16.71a1.73,1.73,0,0,1,.16,1.12,3,3,0,0,0,.07,1.18c.44,1.55.77,2.74,1,3.63A12.9,12.9,0,0,0,63,89.69c.35.68.78,1.51.93,1.83a8.84,8.84,0,0,1,.56,1.6A8,8,0,0,0,65.36,95a11.3,11.3,0,0,1,1.47,3.45,4.4,4.4,0,0,0,1.36,2.08c.49.26,1.1-.13,1.24-.81a1,1,0,0,1,1.34-.61c.25.07.32,0,.27-.12a.36.36,0,0,0-.32-.24c-.27,0-.27-.13-.09-.81.11-.34.26-.46.56-.46s.41,0,.31-.49a5.06,5.06,0,0,1,0-2.43,5.41,5.41,0,0,0,0-3c-.32-1.81-.23-2.31.44-2.14.33.09.43,0,.51-.32s.21-.42.34-.42A1,1,0,0,0,74,87.76c0-.26.07-.48.15-.48a10.65,10.65,0,0,0,2.51-2.54,3.54,3.54,0,0,1,1.19-1.11,5,5,0,0,0,1-.71c.39-.35.43-.56.34-1.39a.54.54,0,0,1,.21-.53l.64-.32c.31-.15.41-.15.48,0s.74.22,1.66-.06a2.91,2.91,0,0,1,.93-.17c.6,0,1.29-.56,1.16-.9-.06-.16,0-.33,0-.38s.19.09.24.27.17.31.25.26.37.27.37.76a3.72,3.72,0,0,0,1.14,1.9,2.53,2.53,0,0,1,.56.82c0,.1.14.15.31.12.34-.11.78.28.66.59a.74.74,0,0,0,.08.49c.1.22.09.31-.07.31s-.15.05,0,.2.26.17.34,0q.31-.46.87.81a3.48,3.48,0,0,1,.25,2l-.1,1.28.48.13c1,.26,1.25.24,1.49-.12a3.89,3.89,0,0,1,.85-.74c.39-.27.61-.56.61-.8,0-.53,1.13,1.83,1.29,2.68a4.79,4.79,0,0,0,.34,1.14,2.26,2.26,0,0,1,.23.9c0,.25.11.42.24.42s.32.24.43.52c.25.72.23.84-.07.73s-.22,0-.16.17.17.28.26.28,0,.23-.05.52-.22.46-.32.29-.16-.15-.16,0a.54.54,0,0,0,.6.54c.37,0,.56.49.27.78-.12.12-.26.1-.44,0s-.26-.13-.26,0,.14.25.29.35c.32.17.41,1.33.17,2.31-.17.71,0,2.19.27,2s.8-.22.8.18,0,.34.17.14.17-.2.17,0a2.86,2.86,0,0,0,.51.87c.46.58.49.68.25.81s-.25.17,0,.36.27.19.27-.09,0-.28.25,0a2.07,2.07,0,0,1,.2,1.07,1.35,1.35,0,0,0,.16.83,1.7,1.7,0,0,1,.3.83,2.34,2.34,0,0,0,.53,1.17,1.52,1.52,0,0,1,.42.83c0,.27.33.59,1.24,1.21,1.34.89,1.65,1.18,1.58,1.47,0,.12,0,.15,0,.07.15-.26.59-.12.49.15s0,.26.15.17.25,0,.25.24.09.34.19.34.15-.15.1-.36,0-.3.14-.15.25.13.34,0-.07-.51-.56-.53c-.29,0-.36,0-.15-.1a.37.37,0,0,0,.28-.32c0-.14,0-.22-.11-.19s-.16-.1-.16-.32a2.44,2.44,0,0,0-.49-1c-.41-.52-.46-.74-.46-1.81a5.74,5.74,0,0,0-.18-1.73,6.12,6.12,0,0,0-1.79-2,1.43,1.43,0,0,1-.44-.53c-.22-.36-.4-.49-.61-.44-.52.14-1-.34-1.2-1.27a2.83,2.83,0,0,0-.41-1.07c-.25-.21-.47-1.27-.27-1.27s.15-.44,0-.61-.12,0-.12.25c0,.44-.48.68-.7.34a5.52,5.52,0,0,1,.26-2.87,8.37,8.37,0,0,0,.32-2c0-1,0-1,.51-1.07s.46,0,.46.61,0,.67.59.68c.73,0,1.27.31,1.27.65,0,.15.12.23.31.2s.37.14.57.54a4.1,4.1,0,0,1,.31.8,1.48,1.48,0,0,0,.86.9c.09,0,.12-.1.06-.22s-.06-.15,0-.07.17.22.22.71.36.31.36-.12,0-.33.3-.1a2.25,2.25,0,0,0,.63.38c.24.08.27.15.12.25-.31.19-.24,2,.08,2a.68.68,0,0,0,.43-.34,3.39,3.39,0,0,1,.93-.78,1.67,1.67,0,0,0,1-1.51c0-.1.1-.15.22-.11a3.53,3.53,0,0,0,1.72-.92,1.49,1.49,0,0,1,.64-.41c.24,0,.43-.88.32-1.56,0-.25,0-.42.09-.37s.15-.07.15-.26a.57.57,0,0,0-.15-.42,2.22,2.22,0,0,1-.24-.9,4.74,4.74,0,0,0-.36-1.32,2.32,2.32,0,0,1-.27-.78,1.6,1.6,0,0,0-.51-.75,1.84,1.84,0,0,1-.5-.69c0-.12-.14-.26-.33-.33a10.23,10.23,0,0,1-2.39-2.27,2.38,2.38,0,0,0-.58-.78,1.51,1.51,0,0,1-.57-1.37c0-.5.08-.8.22-.85a1.8,1.8,0,0,0,.51-.68c.15-.32.34-.54.42-.49s.19,0,.24-.17a.31.31,0,0,1,.3-.22c.12,0,.21-.07.21-.22,0-.36,1.12-.77,1.58-.58a1.8,1.8,0,0,0,.71.1c.32,0,.37,0,.29.24-.16.42.42,1.59.79,1.61s.53-.39.29-.85c-.13-.25-.13-.34,0-.27s.18,0,.18-.22.1-.37.22-.37.29,0,.38-.07a2.3,2.3,0,0,1,.39,0,.15.15,0,0,0,.1-.24c-.07-.1,0-.13.07-.07a.21.21,0,0,0,.28,0c.07-.12.26-.12.53,0,.61.23.8.2.68-.11,0-.13,0-.2.07-.15s.17,0,.17-.08.08-.14.18-.07c.27.15.49-.27.41-.78s-.07-.41.12,0,.81.68.81.32c0-.08.31-.32.7-.5s.64-.29.57-.19,0,.17.07.17a.19.19,0,0,0,.19-.17c0-.1,0-.15.13-.15.6.1.94-.07,1.11-.51a1,1,0,0,1,.52-.6,1.5,1.5,0,0,0,.7-.61c.18-.27.42-.51.54-.51s.61-.62.46-.88c-.07-.1,0-.15,0-.1s.6-.29.46-.44.05-.1.26-.1.37-.1.37-.27-.07-.22-.15-.17-.38-.61-.19-.83.12-.26,0-.31,0-.12.09-.12.2-.15.2-.32a.56.56,0,0,1,.17-.44c.1,0,.17-.29.17-.51,0-.58.17-.93.44-.93a.25.25,0,0,0,.25-.22,2,2,0,0,0-.06-1.19c-.09-.19-.07-.27.06-.26s.21-.3.24-1,0-1.06-.12-1.06a.17.17,0,0,0-.15.17c0,.09,0,.24-.05.33,0,.34-.27.39-.54.1a.77.77,0,0,0-.68-.19c-.58.15-.36-.32.29-.61.5-.24.61-.39.32-.56-.1-.07-.14-.17-.09-.24s-.13-.18-.4-.23c-.55-.12-.82-.55-.43-.7.12,0,.22,0,.19.1a.26.26,0,0,0,.19.26c.1,0,.2,0,.2-.16s-.58-.71-1.44-1.29a2.31,2.31,0,0,1-.43-.56,5.58,5.58,0,0,0-2.2-2.34c-.77-.35-.83-.44-.73-.83a2.41,2.41,0,0,1,.59-.91c.49-.5.63-.75.27-.55-.12.07,0-.11.34-.42a1.69,1.69,0,0,1,1.07-.53c.41,0,.49-.06.49-.4,0-.53-.1-.58-1-.68a3.62,3.62,0,0,1-1.12-.26c-.35-.18-1.29-.08-1.15.14,0,0,0,.25-.17.42s-.31.31-.66.14a.69.69,0,0,1-.43-.49.9.9,0,0,0-1-.87c-.78,0-1.39-.44-1.39-1,0-.34.07-.43.27-.34a.89.89,0,0,0,1.19-.56,1.43,1.43,0,0,1,.59-.78c.27-.19.49-.44.49-.56a.71.71,0,0,1,.9-.59c.68.13.9.47.63,1s-.31.76,0,1,.29.25,0,.5-.2.53.09.53a3.51,3.51,0,0,0,.81-.7,2,2,0,0,1,1.44-.78,2.88,2.88,0,0,1,1.07,0,.88.88,0,0,0,.44.1,1.18,1.18,0,0,1,.46.15c.29.16.34.36.34,1.33,0,.79,0,1.06.17.88s.17-.19.17-.09.83.6.95.41.22-.08.42,0,.32.13.32.08.19,0,.43.19c.42.27.58.74.25.74s-.18.29.31.82c.71.78.86,1,.76,1.12s-.17,1,0,1.15a.69.69,0,0,1,.19.51c0,.36.06.39.76.34.42,0,.8-.12.81-.2s.21-.17.39-.17.33-.07.33-.17.1-.12.23-.07c.34.14,1-.53,1-1a6.91,6.91,0,0,0-1.81-3.21c-.43-.4-.94-.9-1.14-1.12a4.43,4.43,0,0,0-1-.76,2.81,2.81,0,0,1-.88-.75c-.26-.37-.24-.4.2-.68a3.19,3.19,0,0,0,.92-.89c.41-.58.42-.67.2-1.09s-.24-1.39.09-1.34c.1,0,.2-.1.2-.31s.07-.3.15-.25.24-.1.32-.36.19-.37.19-.23.09.17.27-.09.24-.27.26-.05c0,.37,1.18.71,1.73.51a3.27,3.27,0,0,0,1.49-1.71,9.31,9.31,0,0,1,.66-2.45,5.8,5.8,0,0,0,.15-1.71,8,8,0,0,1,.17-1.95c.12-.34.07-.63-.25-1.36a3.42,3.42,0,0,0-.61-1.05c-.1-.07-.14-.17-.07-.24s0-.23-.24-.37c-.62-.42-1.29-2.24-.83-2.24A4.32,4.32,0,0,1,129,38.17a3.25,3.25,0,0,0,.66.94,6.6,6.6,0,0,1,.93,1.37,4.43,4.43,0,0,0,.87,1.22,2.91,2.91,0,0,1,.69,1c.1.34.26.61.34.61s.22.25.32.56a3.42,3.42,0,0,0,.72,1.07l.52.49-.12-.61c-.12-.61-.1-.61.36-.53a1.68,1.68,0,0,1,.78.44c.24.29.29.31.3.09s-.56-1-.81-1a1.37,1.37,0,0,1-.59-.39,10,10,0,0,0-.85-.67,2.43,2.43,0,0,1-.68-1c-.14-.41-.31-.87-.37-1-.19-.44.62-.37,1.44.14s.85.49.85.29-.26-.28-.55-.46a8.49,8.49,0,0,1-1.25-1c-.37-.39-1.36-1.31-2.17-2.06a12.27,12.27,0,0,1-1.73-1.81c-.31-.58-1-1.32-1.21-1.32s-.35-.21-.57-.48c-.61-.69-.94-.9-1.24-.78s-.19.17.25.44.53.32.22.66-.29.38,0,.55.9,1.12.8,1.23-1-.83-1-1.12a3.35,3.35,0,0,0-1.06-.69c-.59-.27-1.29-.63-1.54-.76-.56-.31-2-.44-1.83-.17s-.07,1-.32,1c-.09,0-.17-.16-.17-.34a.31.31,0,0,0-.26-.34c-.13,0-.25-.15-.25-.34s-.09-.34-.19-.34-.15-.1-.1-.24c.13-.35-.48-.85-.85-.69a1,1,0,0,1-.51.1.32.32,0,0,0-.3.15c-.11.15.37.24,1.18.2.19,0,.24,0,.12.09s-.15.15.07.41.2.32.1.32-.13.17-.08.37,0,.19-.26-.2-.42-.61-1.2-.7c-1.46-.18-1.48-.22-.83-1s1-1.46.78-1.53.52-1.66.74-1.66.06-.19,0-.43-.1-.45.09-.52a.62.62,0,0,0,.25-.51.54.54,0,0,1,.36-.54,7.67,7.67,0,0,1,3.12-.05.54.54,0,0,0,.44.18c.18,0,.3,0,.25-.13a3.4,3.4,0,0,1,1.29-.09c1.29.05,1.36,0,1.27-.3s0-.33.19-.26a6,6,0,0,0,1.63.29,1.49,1.49,0,0,1,.58.07c.32.08.35.15.2.34s0,.42.54.42c1.34,0,1.66,0,1.66-.18s.19-.14.48-.07a2.13,2.13,0,0,0,1-.09c.59-.22.4-.4-.7-.69-.75-.19-.85-.43-.54-1.21a4.15,4.15,0,0,0,.18-1c0-.52.09-.56.72-.63.37,0,.83-.05,1-.05s.55,0,.82,0,.46.08.46.24c0,.33.64,1,.86.84s.31.07.49.29.33.31.34.15.05-.18.12-.11.21-.14.29-.45.29-.57.66-.61.68-.37.29-.37a1.72,1.72,0,0,1-.61-.46c-.44-.44-.44-.46-.09-.57s.92,0,.77.2.8,1.34,1.05,1.34.19.56-.22.93a.77.77,0,0,0-.31.75.92.92,0,0,1-.1.64.9.9,0,0,0-.08.73c.12.63-.14,1.36-.49,1.36-.14,0-.26.07-.26.17s-.17.17-.37.17c-.39,0-.39,0,.05.41a.87.87,0,0,1,.37.83c-.13.71.75,1.86,2.72,3.56.45.39,1.15,1,1.52,1.37s1.05.94,1.48,1.28A12.92,12.92,0,0,1,144,36.93a6.74,6.74,0,0,0,.88.82l.5.36.27-.53a1.48,1.48,0,0,0-.19-1.71c-.3-.26-.3-.77,0-.89a1.41,1.41,0,0,1,.65,0c.32.07.25,0-.36-.57s-.71-.75-.61-1,.19-.36.71-.26.59.07.53-.2a1.94,1.94,0,0,0-.72-.75c-1-.71-1.44-1.75-.52-1.32a.78.78,0,0,0,.54.08c.15-.17-.63-1-.95-1s-1.2-.77-1.2-1.09-.63-.66-1.12-.54a1.07,1.07,0,0,1-1.16-1.22c.09-.39,0-.6-.34-1s-.42-.53,0-.46a1.29,1.29,0,0,0,.5-.17c.18-.1.3-.12.23,0s0,.21.16.27a.27.27,0,0,0,.35-.39c-.22-.35.41-.29.75.07s.68.42.68-.07,1.57-.69,2.86-.1c1,.46,1.17.46.9,0-.12-.22-.07-.39.24-.69a2.1,2.1,0,0,0,.51-.82.88.88,0,0,1,.59-.57c.27-.09.49-.26.49-.34a.22.22,0,0,1,.24-.19.75.75,0,0,0,.46-.27c.22-.27.88-.25,2.24,0,.39.09.46.06.46-.23a.54.54,0,0,0-.38-.48,1.75,1.75,0,0,1-.64-.32,2.69,2.69,0,0,0-.68-.36,10.77,10.77,0,0,1-2.54-1.47,1.51,1.51,0,0,1,.32-.49c.44-.46.19-.89-.7-1.14-.35-.12-.61-.27-.56-.36s.55.05,1.07.33a3.73,3.73,0,0,0,2.16.47,3.46,3.46,0,0,1,2,.44,3.63,3.63,0,0,0,1.22.46,7.86,7.86,0,0,1,1.39.32c1,.31,1.06.31,1.23,0s.17-.24.08,0,.32.41.75.14c.22-.14.18-.19-.12-.27s-.34-.17-.29-.26a.09.09,0,0,0-.08-.15,1.07,1.07,0,0,1-.51-.32c-.34-.34-.34-.34.1-.39.25,0,.49-.16.52-.29s0-.2-.18-.14-.24,0-.19-.1-.14-.34-.41-.49a15.07,15.07,0,0,0-4.92-1.15,4.13,4.13,0,0,1-2-.41,98.57,98.57,0,0,0-11-2.77c-.83-.13-2.17-.27-3-.3a39.12,39.12,0,0,1-4.5-.37c-.27-.07-.25,0,.14.35a1.85,1.85,0,0,0,.62.44,3.27,3.27,0,0,1,.8.38l.65.39-.48.05a1.11,1.11,0,0,1-.7-.12,2.55,2.55,0,0,0-1-.29,2.31,2.31,0,0,1-.87-.24c0-.08.07-.1.26-.05s.34,0,.34-.1-.06-.17-.12-.17a5,5,0,0,1-.73,0l-.6-.05.6-.12.59-.12-.54,0c-1.05-.1-1.16-.08-1.16.17s-.18.26-.76.24c-1.37-.05-4.49-.07-4.75,0-.59.08-2-.24-2-.48s-.8-.69-2.16-1a13,13,0,0,0-3.8-.17c-2.12.09-2.75.07-3.24-.13a6.88,6.88,0,0,0-1.41-.36c-1.17-.13-1.62-.27-1.51-.44.28-.44-3.1-.88-3.61-.47-.15.13-.24.15-.17,0,.19-.29-.18-.36-3.36-.64-3.44-.31-3.32-.31-2.8,0l.43.23-.63,0c-.49,0-.61.05-.54.25a.63.63,0,0,0,.54.26c.24,0,.37.05.31.12s.1.22.35.34l.48.22-.51-.1a4.13,4.13,0,0,0-.85-.11c-.19,0-.81,0-1.41,0a6.27,6.27,0,0,0-1.44.15,2.24,2.24,0,0,1-1.15,0c-.41-.08-.92-.17-1.12-.18s-.32-.09-.27-.17,0-.12-.14-.12-.15.13-.1.29c.35,1.13.37,1.07-.24,1a6.91,6.91,0,0,1-2.83-1.4A2,2,0,0,0,89,9.59a.22.22,0,0,1-.23-.22c0-.48-3.07-1.34-3.33-.93a.23.23,0,0,1-.29,0,2,2,0,0,0-.62-.17c-.24,0-.77-.13-1.19-.23s-.78-.12-.82,0a.14.14,0,0,1-.22.08c-.08-.05-.15,0-.15.09s.15.27.34.39.34.25.34.3a13.59,13.59,0,0,1-3-.07l-1.28-.08c-.25,0-.28,0-.1-.17s.15-.19.05-.25a25.74,25.74,0,0,0-4.56-.06c-.25.16-1.41-.52-1.41-.83s-.22-.23-.78-.23-.8.06-.86.32-.19.29-.41.24a1.07,1.07,0,0,0-.59,0c-.22.09-.24.16-.07.34s.08.29-.46.43c-.81.23-1.63.23-1.49,0s.29-.17.51-.17a.7.7,0,0,0,.54-.22,4.69,4.69,0,0,1,1.61-1,2.22,2.22,0,0,0,.9-.61c.15-.39-.59-1-1.1-1-.24,0-.33,0-.21,0s.16-.14-.08-.32-.63-.31-.48-.07-.12.2-.45-.12-.7-.29-2.4-.29a12.5,12.5,0,0,0-2.47.14c-.31.1-.38.08-.33-.09.12-.34-.16-.83-.47-.83-.14,0-.2.07-.15.17.17.26-.56.21-1-.08A6.8,6.8,0,0,0,58.93,3.81ZM72.09,7.89c.19.12.12.17-.29.17s-.56-.08-.56-.17S71.75,7.67,72.09,7.89Zm-26.7,6.47c.41.46.21.56-.27.15a1.36,1.36,0,0,0-.61-.34.41.41,0,0,1-.3-.14C44,13.75,45.1,14.05,45.39,14.36Zm105.84,2.35c.05.11,0,.12-.16.07-.3-.12-.35-.23-.12-.23A.33.33,0,0,1,151.23,16.71ZM148,19.6c.14.22-.25.22-.59,0s-.19-.17.12-.17S148,19.5,148,19.6ZM89,31.93c.68,1.58.77,1.9.56,2.21s-.18.27-.1,0,0-.29-.06-.29-.17.15-.17.34a.3.3,0,0,0,.3.34c.17,0,.22,0,.1.13a1.11,1.11,0,0,0-.3.46c0,.22-.39.46-.83.61-.61.24-.72.32-.67.71s0,.46-.62.65a1.35,1.35,0,0,1-1.07,0c-.38-.17-.38-.18.1-.18s1.12-.43,1.12-.73a1.25,1.25,0,0,1,.36-.49.75.75,0,0,0,.25-.6.29.29,0,0,1,.12-.35c.56-.36.71-1.7.36-3C88.29,31.29,88.78,31.42,89,31.93ZM56.39,44.18c0,.08,0,.18-.16.25a.42.42,0,0,0-.25.36.26.26,0,0,1-.26.25c-.17,0-.25.17-.25.53s0,.51-.26.32-.33-1-.05-1c.11,0,.16,0,.11-.1s.42-.71.74-.73A.46.46,0,0,1,56.39,44.18Zm1,0a.78.78,0,0,1-.43,0c-.12,0,0-.08.21-.08S57.49,44.09,57.39,44.14Zm2.32.22c.19.14.12.16-.25.07-.63-.13-.77-.24-.33-.24A1.44,1.44,0,0,1,59.71,44.36Zm1,0c0,.1-.16.15-.34.13s-.34-.08-.34-.15.15-.14.34-.14S60.73,44.26,60.73,44.35Zm-20.41.29a.35.35,0,0,1-.32,0c-.14,0-.09-.1.1-.1S40.39,44.59,40.32,44.64ZM39,45.38a.18.18,0,0,1-.18.17c-.09,0-.12.09-.07.17a.42.42,0,0,0,.44.09c.24-.09.34,0,.43.32a1.35,1.35,0,0,0,.33.63c.19.15.19.27,0,.69s-.34.48-.51.41a1.92,1.92,0,0,0-.51-.1c-.17,0-.23-.24-.23-.92a1.93,1.93,0,0,0-.17-1c-.11-.07-.09-.19.05-.34S39,45.14,39,45.38Zm-.59.85c.17.56-.1.75-.36.25s-.28-.59,0-.59S38.35,46,38.42,46.23Zm-.51,1.32c-.1.11-.42-.76-.4-1.12,0-.15.11,0,.25.38A1.39,1.39,0,0,1,37.91,47.55Zm-4.65,3.8a3.57,3.57,0,0,0,.73.87c.29.27.43.44.31.37a.43.43,0,0,0-.48.19c-.18.24-.28.25-.34.1a.54.54,0,0,0-.44-.2c-.44,0-.79-.46-.81-1.06S32.94,50.74,33.26,51.35Zm-21,19.39c0,.14-.06.26-.17.26s-.12-.12-.06-.26.13-.25.17-.25S12.21,70.61,12.21,70.74ZM77.52,83.55c0,.08,0,.17-.07.17s-.13-.09-.18-.17,0-.17.06-.17A.17.17,0,0,1,77.52,83.55ZM22.46,88.26c.05.09,0,.16-.15.16s-.21-.07-.16-.16.12-.13.16-.13S22.41,88.2,22.46,88.26ZM102,96.42a.22.22,0,0,1-.08.28c-.09,0-.17,0-.17-.16C101.78,96.24,101.88,96.19,102,96.42ZM105.59,98c.17.18.23.34.12.34s-.27-.16-.37-.34-.15-.34-.12-.34A1.3,1.3,0,0,1,105.59,98Z"/><path class="cls-1" d="M96.18,7.54c0,.29.49.56.81.46s.38,0,.45.15,0,.25-.26.25-.29.07-.22.19.27.14.49.08a8.23,8.23,0,0,1,1.78.09c1.39.17,1.84.1,1.36-.19A7.72,7.72,0,0,0,98,7.89a1.66,1.66,0,0,1-.88-.25C96.76,7.37,96.18,7.3,96.18,7.54Z"/><path class="cls-1" d="M133.84,46c0,.14-.07.21-.17.16s-.17,0-.17.08.1.17.24.12c.42-.17,1.54,1.48,1.35,2a.29.29,0,0,0,.09.34c.37.22.17.39-.31.25s-.78,0-.42.36.25.32,0,.41-.25.32-.25.64,0,.44.07.34c.11-.32.84.22,1,.73s.56.54.72.15a.42.42,0,0,1,.33-.25c.46,0,.24-.32-.44-.61-.37-.17-.67-.36-.67-.44s.23-.17.45,0,.27.12.53,0,.49-.15,1.27.17a2.15,2.15,0,0,0,1.15.26c.14-.07.16-.05.09.07s0,.2.07.2.17-.15.1-.41c-.15-.64,0-1,.64-1s1.12-.34,1.12-.64c0-.1-.12-.15-.27-.09s-.25,0-.22-.67.1-.75.27-.68.22,0,.22-.09-.15-.2-.34-.25-.35,0-.44.57-.4.75-.4.06c0-.5-.28-.55-.43-.07-.1.32-.13.32-1.32-.12a6.66,6.66,0,0,1-2.16-1.07,5.46,5.46,0,0,0-1.51-.85C133.92,45.72,133.84,45.84,133.84,46Z"/><path class="cls-1" d="M136.38,51.74c0,.16-.08.22-.18.16s-.17,0-.09.32,0,.49-.08.54-.09.22.1.43a.62.62,0,0,1,.15.57c-.07.19,0,.27.17.27a.64.64,0,0,1,.44.34,3.76,3.76,0,0,1,.07,2.38c-.22.25-.24.32-.24.76,0,.15-.2.36-.46.48a1.49,1.49,0,0,0-.59.37c-.19.24-.49-.27-.37-.63s-.12-.49-.48-.24-.24.26,0,.61.22.33.24.19,0-.2.08-.15-.31,1-.46,1-.17.65,0,.71.1.16,0,.29-.19.21-.41,0-.44-.19-1.1,0a5.93,5.93,0,0,1-1.24.17c-.71-.07-1,0-1,.2a3,3,0,0,1-1.22,1.38.47.47,0,0,0-.3.44.82.82,0,0,1-.21.52c-.11.11-.39.33-.61.5l-.39.34.46.5c.26.29.53.48.63.41s.12,0,.07.07.1.47.35.83a2.52,2.52,0,0,1,.46.92c0,.13.17.27.39.3s.37.15.37.26.17,0,.39-.22.38-.6.34-1.53a10.51,10.51,0,0,0-.06-1.27c-.07-.43,0-.41.54.06s1.1.72.93.26.19-.92.49-.92c.14,0,.26.07.26.17,0,.33.25.17.46-.27a1.06,1.06,0,0,0,.11-.66.29.29,0,0,1,.09-.34c.1,0,.19,0,.19.14,0,.3.67.91,1.08,1,.26,0,.36-.09.48-.51s.25-.54.39-.54c.37,0,.3-.48-.09-.6-.18,0-.34-.17-.34-.25s.16-.1.34,0,.34.13.34.2a1.6,1.6,0,0,0,.76.1c.7,0,.77,0,.77-.42l0-.43.25.48c.29.54.64.44.53-.15s.23-.55.62-.14c.26.24.29.24.55,0s.2-.36.15-.44a.36.36,0,0,1,.07-.41c.13-.17.1-.32-.16-.61a1.46,1.46,0,0,1-.35-.75c0-.2,0-.47-.07-.61s-.05-.37-.07-.52a1.47,1.47,0,0,0-.35-.66,1.35,1.35,0,0,1-.34-.63c0-.17.1-.2.34-.14s.33,0,.33-.06-.06-.19-.16-.19-.17-.37-.17-.83c0-.8-.06-.9-1.11-2a5.68,5.68,0,0,1-1.1-1.37.23.23,0,0,0-.24-.22,2.08,2.08,0,0,1-.51-.1C136.47,51.49,136.38,51.54,136.38,51.74Zm.85.5s-.12.1-.25.17-.26,0-.26-.07.12-.17.26-.17S137.23,52.2,137.23,52.24Zm-3.1,9.51c.13.37,0,.46-.53.32-.36-.08-.41-.15-.25-.34S134,61.43,134.13,61.75Zm-1.24.51a.38.38,0,0,1-.66.1c-.07-.13.15-.25.62-.34C132.92,62,132.94,62.12,132.89,62.26Zm-1.48.29c0,.13-.1.08-.1-.1s0-.29.09-.22A.35.35,0,0,1,131.41,62.55Zm.49.08c-.11.46-.52.9-.81.9-.07,0-.12-.1-.08-.22s-.19-.22-.51-.25-.56-.14-.56-.24.28-.14.83-.07c.74.1.85.07.95-.24C131.89,62,132,62.11,131.9,62.63Z"/><path class="cls-1" d="M10.75,60.22a1.81,1.81,0,0,1-.95.26c-.35,0-.64.07-.64.17s-.15.17-.36.17c-.51,0-.34.54.26.81.42.22.52.21,1-.12a1.71,1.71,0,0,1,.64-.35c.1,0,.14-.1.08-.24s.06-.34.26-.47c.36-.23.47-.48.22-.48A1.37,1.37,0,0,0,10.75,60.22Z"/><path class="cls-1" d="M122.52,85.28a12,12,0,0,0,0,3.26c.1.32.08.34-.14,0-.54-.66-.61-.12-.17,1.25.29.88.73,1.51,1.07,1.51.1,0,.17-.13.17-.29s.05-.22.12-.17a.64.64,0,0,1-.12.53c-.24.44-.12,1,.17.87.09-.06.17,0,.17.06,0,.29-.51.22-.61-.06a.45.45,0,0,0-.36-.26c-.17,0-.1.19.26.63a8.6,8.6,0,0,1,.78,1.19c.35.71.61.84.88.47a1.19,1.19,0,0,0-.27-1.46c-.31-.27-.31-.29.08-.49s1-.07.58.17c-.17.12-.17.2,0,.42s.25.27.44,0,.22-.25.37,0,.24.23.31.17,0-.29-.09-.48c-.39-.64-.08-.49.7.34s.83,1,.44,1c-.07,0-.12,0-.1-.14a1.47,1.47,0,0,0-.58-.88c-.24,0-.14.52.12.61s.25.34.25.81,0,.61.16.46.22-.19.54,0c.59.41.69.34.39-.25-.15-.32-.21-.58-.1-.65a1.1,1.1,0,0,0,.23-.56c.07-.37,0-.49-.39-.66s-.66-.49-.23-.49c.13,0,.25.07.25.17s.17.22.49,0,.19-.22,0-.51-.53-.48-.53-.1c0,.23-.05.23-.51,0a1,1,0,0,0-.66-.17c-.08,0-.2,0-.25-.19s-.26-.25-.85-.17-.77.07-.83-.15.08-.33.69-.31c.1,0,.21,0,.21-.08s-.6-.53-.89-.55-.42-.23-.34-.88c.06-.3.17-.47.38-.47.42,0,.61-1.43.24-2a2.42,2.42,0,0,1-.28-1.08c0-.66,0-.66-.56-.56-.32.05-.59,0-.66-.09A.84.84,0,0,0,122.52,85.28Z"/><path class="cls-1" d="M128.41,94.25a1.17,1.17,0,0,0,.49.68c.29.2.46.46.41.61s-.14.17-.31-.07c-.32-.42-.45-.18-.34.53.07.36.22.61.36.61s.24.19.24.49a.62.62,0,0,0,.47.68c.27.12.49.29.49.41a2.47,2.47,0,0,0,.12.56c.09.3,0,.35-.32.35s-.42,0-.42-.13a.15.15,0,0,0-.17-.15c-.09,0-.12.22-.05.54s.05.49-.1.41-.24,0-.31.22c-.12.44-.19.44-.56,0s-.36-.36-.75-.17c-.23.1-.44.3-.44.46s-.15.25-.42.25-.46.1-.49.21-.12.45-.22.73a1.46,1.46,0,0,0-.09.72.28.28,0,0,0,.54-.1,1.23,1.23,0,0,1,.26-.61c.25-.32.25-.32.25,0s.24.5.43.2a.26.26,0,0,1,.34,0c.17,0,.25,0,.25-.27s.05-.34.32-.19.34.34.33,1,0,.92.45,1.26a2.39,2.39,0,0,0,.85.44.48.48,0,0,1,.39.44c.07.41.44.42.48,0a1.74,1.74,0,0,1,.13-.55,1,1,0,0,0-.08-.76c-.31-.61-.29-.76.07-.81a.23.23,0,0,1,.28.25,1.36,1.36,0,0,0,.26.63c.22.3.24.29.25-.31a1.24,1.24,0,0,1,.17-.73.54.54,0,0,0,.17-.45,8.59,8.59,0,0,0-.88-2.92c-.1.07-.1-.17,0-.54.1-.56.08-.62-.19-.53s-.31,0-.37-.22-.39-.46-.39-.09a.27.27,0,0,1-.28.26c-.2,0-.23-.07-.1-.22a.6.6,0,0,0,0-.54c-.22-.56-.17-.63.36-.56l.49.06-.32-.52a2.28,2.28,0,0,1-.34-.95c0-.65-.28-.9-1-.94S128.41,94,128.41,94.25Z"/><path class="cls-1" d="M125.36,95.07a.35.35,0,0,0,.17.27c.11.07.15.51.11,1-.06.95,0,1.07.38.7.17-.15.25-.15.3,0s.19.15.33.1c.35-.14.28.34-.11.68s-.3.34-.13.63.3.34.41.34a.4.4,0,0,1,.3.25c.15.42.41.29.61-.34.1-.32.27-.59.36-.59s.12.07.07.17.4.22.83.06.32-.66-.16-.91-.42-.36-.42-.88,0-.65-.34-.65-.34.07-.34.17-.13.17-.32.17-.29-.1-.22-.42,0-.43-.32-.43a2.25,2.25,0,0,1-.83-.25C125.53,94.88,125.36,94.86,125.36,95.07ZM128,96.64c-.05.14-.1.09-.1-.1s0-.29.08-.22A.35.35,0,0,1,128,96.64Zm-.12,1.24c0,.09-.08.05-.17-.08a1.26,1.26,0,0,1-.17-.43c0-.1.09-.05.17.09A1,1,0,0,1,127.9,97.88Zm.29,0c-.05.14-.1.09-.1-.1s0-.29.08-.22A.34.34,0,0,1,128.19,97.83Zm-.68.34c-.05.14-.1.09-.1-.1s0-.29.08-.22A.34.34,0,0,1,127.51,98.17Z"/><path class="cls-1" d="M122.2,96.27a3.16,3.16,0,0,1-.44,1,.89.89,0,0,0-.22.65c.07.1,0,.15,0,.13s-1.53,1.29-1.67,1.72a.66.66,0,0,0,.07.57c.14.14.19.14.19,0a5,5,0,0,1,.85-1,4,4,0,0,0,.84-1c0-.27.73-1,1.09-1s.53-.42.1-.54c-.24,0-.34-.22-.34-.54s.07-.41.17-.34.17,0,.17-.07-.15-.15-.34-.14S122.27,95.83,122.2,96.27Z"/><path class="cls-1" d="M71.48,98.17a.18.18,0,0,0,.07.27.4.4,0,0,1,.2.39c0,.21-.08.27-.25.22s-.26,0-.26.09a.18.18,0,0,0,.17.18c.22,0,.22.73,0,.94a10.62,10.62,0,0,0,.41,3.1c.15.39.81.53,1.36.26.88-.44,1.1-.73,1.1-1.46a5.37,5.37,0,0,0-1.12-2.68.6.6,0,0,1-.24-.39A2.38,2.38,0,0,0,71.8,98,.41.41,0,0,0,71.48,98.17Z"/><path class="cls-1" d="M119.64,101.67a2.72,2.72,0,0,0-.41.74c-.12.36-.29.65-.37.65s-.22.22-.31.49a1.93,1.93,0,0,1-.59.78c-.34.22-.39.32-.22.52s.12.24-.25.24a1.16,1.16,0,0,0-.72.26,1,1,0,0,1-.59.25c-.22,0-.32.12-.32.36a3,3,0,0,1-.68,1.17c-.56.68-.8.83-1.44.91a1.75,1.75,0,0,0-.85.29.21.21,0,0,1-.27.07c-.14-.08-.24.54-.17,1a1.17,1.17,0,0,1-.15.48c-.16.27-.24.3-.56.12a1.21,1.21,0,0,0-.68-.16.38.38,0,0,1-.39-.22c-.16-.37-.63-.06-1,.6s-.27,1.19,0,2.64c.23,1.21.45,1.56.88,1.46s.34,0,.32.48c0,.32,0,.93.1,1.37.14.85.12.83,1.41.82.59,0,.71,0,.71.32s.27.61.43.35a.36.36,0,0,1,.4-.08.87.87,0,0,0,.67-.25c.2-.21.37-.28.37-.17s.12.17.25.17.26.08.26.18.15.15.35.1c.56-.15.84,0,.84.58s.1.61,1,.07l.75-.41.2.37c.19.38.2.38.39-.11a1.58,1.58,0,0,0,.09-.8,1.69,1.69,0,0,1,.18-1c.21-.41.24-.65.12-.68-.32-.12,0-.8.58-1.37a2.59,2.59,0,0,1,.74-.55c.09,0,.12-.37,0-.9-.11-1.13.16-1.56,1-1.51s1-.27.13-1c-.58-.49-.71-.69-.61-1a1,1,0,0,0-.24-.85c-.3-.42-.34-.56-.15-1s.14-.49,0-.63.08-.57.71-.74.72-.38.19-.51-.56-.41-.07-.41,1-.29,1-.52-.17-.24-.37-.33a4.17,4.17,0,0,1-1.17-.73.4.4,0,0,0-.34-.08c-.15,0-.22-.07-.19-.29a1,1,0,0,0-.39-.73c-.22-.2-.37-.47-.32-.61S119.91,101.5,119.64,101.67Z"/><path class="cls-1" d="M91.69,104.24c-.34.55.18,1.29,2.17,3.16a3,3,0,0,1,1,1.31c0,.11.34.45.77.76a2.28,2.28,0,0,1,.73.66,4.28,4.28,0,0,0,.84,2.17c.48.15,1.73,2.41,1.84,3.26a4.3,4.3,0,0,0,1.3,1.92,1.64,1.64,0,0,1,.46.61,16.26,16.26,0,0,0,1.51,1.61c1.49,1.47,1.53,1.49,2,1.3s.6-.13.78.07.22.34.05.7-.49.61-.49.25-.22,0-.27.29.14.25.61.25,1.19.38,1,.67c0,0,.24.15.6.23a6.53,6.53,0,0,1,1,.27c.59.28.9.34,1,.22a3.56,3.56,0,0,1,2.16.31,10,10,0,0,0,3.63.58c.13-.07.25,0,.25.1a.15.15,0,0,0,.22.12,1.47,1.47,0,0,1,.75.17c.74.3.93.29.81-.1s0-.31.26-.24a.46.46,0,0,1,.33.46c0,.35,0,.35.26,0s.25-.25.25-.14.29.24.65.29a5.62,5.62,0,0,1,1,.26,2.24,2.24,0,0,0,1.19-.09c.46-.12.73-.24.59-.24s-.18-.06-.13-.11.2,0,.32.05a1,1,0,0,0,1.17-.05c.15-.19.25-.19.42,0,.39.32,2.77.33,3.8,0a5,5,0,0,1,1.16-.24.62.62,0,0,0,.44-.13.4.4,0,0,1,.42,0,2.31,2.31,0,0,0,1.5-.22c.27-.27-.17-.32-1.73-.22a1.92,1.92,0,0,1-1-.12c-.08-.12-.25,0-.47.29s-.43.41-.53.36a7.49,7.49,0,0,0-2.22-.31c-.56,0-.87.07-1,.24s-.17.2-.17,0-.12-.18-.32-.12a.42.42,0,0,1-.44-.08c0-.09,0-.17.08-.17s.14-.09.07-.19-.13-.13-.22,0-.76.17-1,0-.93-.12-1,.15a.25.25,0,0,1-.32.17.21.21,0,0,0-.29.12c0,.14-.15.1-.36-.1-.37-.37-.64-.31-.86.18-.09.21-.26.38-.38.38s-.28-.27,0-.43-.48-.64-.78-.52-.76,0-.76-.34,0-.27-1.19-.31c-.56,0-.76-.08-.82-.3s0-.27.29-.22c.48.08,1.41-.24,1.33-.48s-.53-.15-1.26-.13a3.75,3.75,0,0,1-1.71-.22c-.27-.14-.55-.21-.61-.16s-.21,0-.34-.2-.24-.29-.51.14a.68.68,0,0,1-.75.37l-1.13-.07c-.53,0-.73-.1-.85-.39a.82.82,0,0,0-.56-.42,4,4,0,0,1-.94-.33c-.32-.18-.54-.22-.59-.1s-.24.12-.58,0a1.38,1.38,0,0,0-.67,0c-.09.07-.12-.14,0-.48s.11-1.13.16-1.83c.09-1.73.21-2.07.62-1.85s1-.06,1-.4c0-.14,0-.14-.16,0s-.18.17-.25,0a.33.33,0,0,1,0-.34c0-.08-.06-.18-.24-.23-.34-.09-.41-.19-.58-1-.13-.56-.46-.58-1-.07s-.42.63.1.63c.17,0,.31.08.31.19s-.15.15-.37.08a4.23,4.23,0,0,0-.51-.1c-.09,0-.14-.09-.14-.19a.83.83,0,0,0-.25-.42,1.29,1.29,0,0,1-.26-.77c0-.4-.06-.49-.39-.49a1.36,1.36,0,0,1-.71-.23c-.29-.21-.3-.28-.08-.53.34-.41.39-1,.1-1.26a.44.44,0,0,1-.15-.47c.08-.2,0-.26-.17-.17s-.29,0-.29-.14-.19-.28-.43-.35-.42-.21-.42-.34-.09-.27-.68-.31a.33.33,0,0,1-.25-.35.38.38,0,0,0-.34-.39,1.54,1.54,0,0,1-.53-.22.66.66,0,0,0-.52-.05c-.26.06-.39,0-.48-.26s-.19-.36-.27-.36a.16.16,0,0,1-.15-.18c0-.22-.26-.48-1-1a8.17,8.17,0,0,1-.82-.63.71.71,0,0,0-.39-.22c-.08,0-.15-.12-.15-.26a.9.9,0,0,0-.17-.47l-.51-.61c-.27-.32-.49-.39-1.17-.39a1.8,1.8,0,0,1-1.22-.32C92.19,104,91.84,104,91.69,104.24ZM121,125s-.12.07-.26.07-.25-.07-.25-.17.12-.12.25-.07S121,125,121,125Z"/><path class="cls-1" d="M62.42,106.77a.85.85,0,0,0,.17.61.27.27,0,0,1,.07.32.3.3,0,0,0,.09.36.39.39,0,0,1,.18.31c0,.11-.07.1-.18-.05s-.17-.21-.09.05a2.67,2.67,0,0,1,.1.64c0,.39.39.42.68,0,.19-.22.17-.27-.13-.35s-.33-.17-.28-.26c.17-.27-.1-1.34-.3-1.22s-.15-.07-.1-.42,0-.53-.07-.53S62.42,106.5,62.42,106.77Zm.85,2.22a.17.17,0,0,1-.17.17.18.18,0,0,1-.17-.17.18.18,0,0,1,.17-.17A.16.16,0,0,1,63.27,109Z"/><path class="cls-1" d="M133.84,109.6a2.93,2.93,0,0,0-.26,1.11c0,.35-.06.66-.17.66s0,.08.09.19.19.2.07.25-.16.25-.11.44c.09.36.11.36.23,0s.13-.23.13.17,0,.46-.32.39-.58.11-.43.55,1.11.59,1.11.2c0-.22,0-.22.18,0,.34.58.44.12.14-.52-.44-.88-.31-1.26.37-1s.77.1.26-.39-.41-.41-.09-.63.46-1,.19-1a1.47,1.47,0,0,0-.51.27c-.37.26-.37.24-.37-.42S134.16,109,133.84,109.6Z"/><path class="cls-1" d="M129.7,110.52c-.39.41-.76.66-.93.61s-.87-.13-1.58-.2a3.39,3.39,0,0,1-1.32-.24c0-.17-.62-.32-.8-.19a.89.89,0,0,0-.27.41c-.07.17-.21.25-.29.2-.24-.15-.85.55-.85,1,0,.17-.07.31-.14.31s-.11.22-.06.49a1.49,1.49,0,0,1-.21.9,1.8,1.8,0,0,0-.27.91c0,.58-.44,1.6-.69,1.6-.09,0-.14.2-.09.46a7.24,7.24,0,0,1,.09.74c0,.19.13.26.4.21s.39,0,.43.56a5.32,5.32,0,0,1-.16,1.47c-.23,1-.1,1.17.72,1,.54-.11.59-.16.61-.72,0-2.66.13-3.42.44-3.52s.56,0,.32.64-.15.58.29,1,.44.52.36.78a.54.54,0,0,0,.4.76,1,1,0,0,0,.49-.34.94.94,0,0,1,.48-.34c.14,0,.12.1,0,.29-.43.49-.48,1-.12,1.34s.34.27.66,0a.64.64,0,0,0,.26-.61c0-.15,0-.34,0-.37a1.39,1.39,0,0,0,.14-.75c0-.52-.07-.62-.33-.59s-.76-.42-.66-.83a2.47,2.47,0,0,0-.44-1.19c-.42-.68-.49-.92-.34-1.1a.63.63,0,0,1,.43-.24c.11,0,.4-.24.61-.53s.47-.49.76-.4.39,0,.39-.26c0-.45-.42-.61-1-.34a2.55,2.55,0,0,1-1,.24,1.15,1.15,0,0,0-.93.43c-.31.37-.83.39-.83,0a1.21,1.21,0,0,0-.36-.52.81.81,0,0,1-.25-.89c.17-.86.32-.91,2.47-.76,2.89.19,3.4.17,3.4-.22a2.15,2.15,0,0,1,.42-.73c.26-.34.39-.68.32-.85C130.53,109.72,130.45,109.76,129.7,110.52Z"/><path class="cls-1" d="M134.94,116.59a1.16,1.16,0,0,0-.63.26c-.1.15-.13.15-.13,0s-.12-.12-.34.07c-.41.33-.44.64-.09.49.19-.07.26,0,.26.3s0,.41.59.22c.32-.1.6-.29.6-.4s.06-.19.33,0a1.08,1.08,0,0,0,.67.08,1.41,1.41,0,0,1,.89.25c.72.45.82.43.82,0C137.91,116.9,136.64,116.41,134.94,116.59Z"/><path class="cls-1" d="M132.29,124.67a6.05,6.05,0,0,1-1.08.18c-.71.07-1.1.21-1.27.43a3.65,3.65,0,0,1-1.06.68,1.66,1.66,0,0,0-.91.73,2,2,0,0,1-.36.66c-.18.2-.18.3,0,.39.36.22,1.48-.29,2.09-.92A3.66,3.66,0,0,1,131,126c.95-.31,2-1,1.92-1.19A.51.51,0,0,0,132.29,124.67Z"/></g></g></svg>