<svg xmlns="http://www.w3.org/2000/svg" viewBox="0 0 53.55 63.49"><defs><style>.cls-1{fill:#969696;}</style></defs><g id="Layer_2" data-name="Layer 2"><g id="Basemap"><path class="cls-1" d="M29.33.31a8.15,8.15,0,0,0-.79.49c-.14.12-.24.12-.31,0s-.76-.24-.76-.07.74,1.08,1,1.08c.47,0,.84.19.84.43,0,.49.58.73,1.58.66.71,0,1,0,.88.1s-.29.15-.51.1a.56.56,0,0,0-.59.16.52.52,0,0,1-.51.17c-.34-.11-.85,0-.85.27s.19.23.43.32.42.27.42.42.09.26.19.26.12.08.07.17c-.16.25.08.86.27.74a.43.43,0,0,1,.42.12c.14.1.31.16.36.09s0-.17-.07-.24a.24.24,0,0,1-.05-.36c.12-.2.24-.18.76,0a7.49,7.49,0,0,1,.94.56,1.52,1.52,0,0,0,.81.33A9.63,9.63,0,0,1,37,7.69a1.26,1.26,0,0,0,.21.51,1.27,1.27,0,0,1,.24.62c0,.17.05.31.13.31s.12.27.14.59,0,.6-.29.6-1.17,1.08-1.17,1.49c0,.24,1.52.24,1.71,0a1.39,1.39,0,0,1,.68-.2c.54-.07.64,0,1.22.74s.65.84,1.56.84a3.15,3.15,0,0,1,1,.08c.05.07.24,0,.41-.05s.29-.12.24.17a2.31,2.31,0,0,1-.17.51c-.05.1,0,.17,0,.17s.37-.41.37-.87c0-.17.09-.32.17-.32s.17-.12.17-.27.07-.22.15-.17.16-.09.16-.31c0-.67,1.24-1.56,1.63-1.15a2.38,2.38,0,0,0,.74.29,1.19,1.19,0,0,1,.8.56c.08.2.22.37.29.37s.13.14.13.32a.81.81,0,0,0,.26.53c.13.12.2.27.15.36s0,.15.17.15.31.19.37.41.29.45.89.62a5,5,0,0,0,1.3.19,1.77,1.77,0,0,1,.88.24c.44.27,1.68.32,1.84.07s.05-.17,0-.16a1.25,1.25,0,0,1-.39,0c-.2,0-.2-.05,0-.15s0-.22-.48-.37-.93-.51-.51-.51.14-.32-.28-.38-.46-.11-.43-.45,0-.39-.44-.31-.51,0-.73-.61a4.1,4.1,0,0,0-.86-1.32,2.06,2.06,0,0,1-.65-1c0-.3.1-.37.6-.37s.59-.07.59-.31a1.36,1.36,0,0,0-1-1,1.2,1.2,0,0,1-.54-.29,2.49,2.49,0,0,0-.73-.36c-.38-.08-.43-.17-.36-.52s.14-.43.22-.43.15-.11.15-.27,0-.24-.25-.07-.32.16-.59-.13a1.22,1.22,0,0,1-.34-.54c0-.11-.07-.16-.16-.09s-.27,0-.4-.17a1.09,1.09,0,0,0-.6-.25.82.82,0,0,1-.54-.26,3.52,3.52,0,0,0-1.15-.51A8.58,8.58,0,0,1,42,3.63a1.93,1.93,0,0,0-.88-.32c-.12,0-.22,0-.22-.08S40.55,3,40.17,3a7.57,7.57,0,0,1-1.85-.73c-1.06-.56-1.18-.59-1.66-.37-.29.12-.56.36-.59.53a.51.51,0,0,1-.53.3c-.24,0-.44.07-.44.14a1.46,1.46,0,0,1-.29.51c-.17.18-.42.51-.56.69a.8.8,0,0,1-.61.36c-.29,0-.41-.15-.57-.82-.12-.44-.26-.69-.29-.57-.12.3-.39.07-.39-.36s0-.34.18-.12.17.19.07-.08a5.69,5.69,0,0,1-.17-1c-.08-.78-.22-1-.51-.9a1.54,1.54,0,0,1-.83-.25A1.5,1.5,0,0,0,29.33.31Z"/><path class="cls-1" d="M41.92,15.44a3,3,0,0,0-.29.64,4.57,4.57,0,0,1-.47,1,3.44,3.44,0,0,0-.39,1.25,2.26,2.26,0,0,1-.24.9,4.43,4.43,0,0,0-.26,1.29,8.65,8.65,0,0,1-1.11,3.65,1.05,1.05,0,0,0-.33.52c0,.34-.52.73-.95.73a1.89,1.89,0,0,1-1.08-.68,2.42,2.42,0,0,0-1-.67.76.76,0,0,1-.54-.43c-.12-.24-.32-.42-.44-.42s-.27-.19-.34-.43c-.12-.45-.41-.57-.41-.17,0,.17-.3,0-.83-.52l-.83-.8.34-.36a2.57,2.57,0,0,0,.49-.74c.09-.22.24-.34.34-.29a.29.29,0,0,1,.09.34c-.09.22.52.47.78.32s.06-.88-.11-1-.2,0-.35.14-.26.15-.26-.24c0-.24.09-.43.19-.41s.37-.29.61-.71c.34-.63.36-.78.17-.93a.42.42,0,0,1-.17-.39c.05-.11,0-.21-.1-.21a.18.18,0,0,0-.19.15c0,.09-.15.19-.35.24s-.33,0-.26-.15,0-.31-.57.13c-.39.29-.56.33-.72.17a1,1,0,0,0-.57-.2,1,1,0,0,1-.61-.22.45.45,0,0,0-.45-.15c-.1,0-.2-.09-.2-.26s0-.27-.17,0-.2.22-.35-.05-.24-.25-.34-.2-.16-.05-.16-.24-.05-.32-.42-.19-.43.11-.43,0-.08,0-.2.09.12.73.44.61.49.42.24.73-.44.24-1.1.17-.9,0-.9.07-.09.15-.21.15c-.3,0-1.13,1-1.05,1.27s-.06.31-.25.43-.36.27-.36.37a1.35,1.35,0,0,1-.37.59c-.31.33-.34.44-.15.55.39.25,0,.5-.6.42a1.53,1.53,0,0,0-.85.12c-.2.17-.22.15-.13-.09A.26.26,0,0,0,23,20.9a.39.39,0,0,1-.27-.32c0-.14-.24-.41-.53-.61-.49-.34-.56-.36-.74-.1s-.24.25-.28.2S20,19.81,20,20a.18.18,0,0,0,.17.17c.11,0,.17.17.17.38,0,.37,0,.39-.25.07s-.26-.31-.26,0-.08.27-.34.19-.33,0-.33.35-.06.43-.11.38-1,.74-1,1.18c0,.26-.05.53-.05.62s-.29.08-.63,0-.58-.05-.51.07a.18.18,0,0,1-.07.27c-.12.07-.12.21,0,.44s.12.32,0,.32-.19.14-.24.29-.14,0-.2-.42a1.54,1.54,0,0,0-.24-.71,3.2,3.2,0,0,0-.75.64,1.56,1.56,0,0,0-.62,1.24,1.66,1.66,0,0,1-.55,1.2,12.22,12.22,0,0,0-.86,1.06,2.75,2.75,0,0,1-2.19,1A2,2,0,0,0,10,29a1.33,1.33,0,0,1-.75.28,1,1,0,0,0-.64.26c-.15.19-.43.24-.87.19a1.22,1.22,0,0,0-.76.08.44.44,0,0,1-.34.15,2.06,2.06,0,0,0-.8.49,4.33,4.33,0,0,1-1.15.78,2.25,2.25,0,0,0-.85.75l-.2.44-.1-.51c-.09-.4-.14-.45-.27-.25a2.77,2.77,0,0,0-.6,1.56,2.52,2.52,0,0,1-.42,1.12c-.51.75-.51.9-.12,2.19s.3,1.91-.14,1l-.3-.66-.17.43-.17.42-.19-.42c-.17-.38-.18-.33-.1.32a4.44,4.44,0,0,0,.36,1.24,4.45,4.45,0,0,1,.32,1.39c0,.47.12,1.08.17,1.37a3.84,3.84,0,0,1,.1,1c0,.27,0,1.43-.05,2.53,0,1.44-.12,2.05-.26,2.08a.55.55,0,0,0-.22.46c0,.51-.45,1.12-.86,1.12a.58.58,0,0,0-.49.44c-.24.61-.22.75.15.75a.45.45,0,0,1,.42.3c.14.41.68.67,1.67.78.76.09,1.66-.13,1.66-.4s.54-.36,1-.43a1.19,1.19,0,0,0,.61-.37c.43-.42,1.65-.59,3.65-.49l1.46.08.75-.76a2.68,2.68,0,0,1,1-.75.47.47,0,0,0,.38-.15,1.24,1.24,0,0,1,.56-.27,1.69,1.69,0,0,0,.76-.37.93.93,0,0,1,.85-.16,8.21,8.21,0,0,0,3.27-.74A6.41,6.41,0,0,1,20.14,46c1.48-.12,1.59-.11,2,.27.22.2.51.34.63.3a1.51,1.51,0,0,1,.85.32,3,3,0,0,0,.85.39c.15,0,.15.06,0,.21s-.26.81,0,.81.58,1.55.22,1.77-.2.23.27.66.55.47.6.1,1.15-1.51,1.51-1.51a3.17,3.17,0,0,0,1-.76c.42-.43.81-.73.88-.66s0,.15-.1.18a.44.44,0,0,0-.23.39,1,1,0,0,1-.44.6,2.19,2.19,0,0,0-.67.86,1.5,1.5,0,0,1-.63.73,1.83,1.83,0,0,0-.63.46c-.24.27-.22.29.17.19a3.15,3.15,0,0,1,.73-.12c.17,0,.46-.27.64-.6s.43-.59.51-.59c.34,0,.12.85-.35,1.32s-.51.75.17.61c.39-.08.49,0,.67.46s.21.61-.1,1.15a1.14,1.14,0,0,0-.15,1.19,1.22,1.22,0,0,0,.58.71c.18.09.35.21.35.29s.31.16.7.16a1.53,1.53,0,0,1,.81.16,1.35,1.35,0,0,0,.48.38c.32.17.51.13,1.19-.22.44-.24.84-.38.89-.31a3.53,3.53,0,0,0,.73.44c.34.19.63.44.63.58s.07.2.36-.07A7.42,7.42,0,0,1,39,55.1C40,55.1,41,54.56,41,54a1.48,1.48,0,0,1,.42-.66,1.53,1.53,0,0,0,.43-.66,3.15,3.15,0,0,1,.76-.9A16.4,16.4,0,0,0,44.21,50a9.22,9.22,0,0,1,2.65-2.49c.34-.19.62-.42.62-.53a2,2,0,0,1,.48-.69c.76-.83,1-1.24,1-1.44a2.29,2.29,0,0,1,.39-.8,10.56,10.56,0,0,0,1.58-3,8.23,8.23,0,0,1,.34-1.19c.27-.69.18-1.1-.09-.42-.08.22-.17.32-.17.24A10.37,10.37,0,0,1,51.5,38a.8.8,0,0,0,.07-.39,2.52,2.52,0,0,1,.32-.72,2,2,0,0,0,.33-.86c0-.24,0-.26-.11-.07-.25.7-.89.81-.89.15,0-.17-.07-.32-.16-.32s-.18-.24-.23-.51-.22-.51-.36-.51-.27-.17-.31-.39S50,34,49.89,34s-.2-.17-.1-.92c.1-.91.1-1-.24-.88s-.39,0-.44-.15-.15-.22-.37,0-.26.11-.22-.48a2,2,0,0,0-.24-1.14c-.36-.52-.36-.61,0-.61q.26,0,.18-.39c0-.2-.15-.35-.27-.32a2.43,2.43,0,0,1-1.46-1,.24.24,0,0,0-.34-.18c-.11.05-.23,0-.23-.12s-.07-.16-.16-.1c-.25.17-.57-.39-.49-.84.05-.23,0-.47-.07-.52a.23.23,0,0,1,0-.27,3,3,0,0,0-.19-2,4.18,4.18,0,0,1,0-2.48c.07-.12-.07-.32-.34-.49s-.42-.33-.17-.51.24-.24.09-.39a.64.64,0,0,0-.46-.19c-.19,0-.17.05.07.15s.33.16,0,.17a1.25,1.25,0,0,1-.46,0c-.09,0-.14.05-.14.15s-.12.17-.27.17-.24-.17-.2-.85.12-.83.27-.76.22-.08.2-.56,0-.66,0-.71c.12-.36.12-.68,0-.68s-.23.34-.17,1.17c0,.34,0,.53-.12.46s-.16-.24-.12-.41a.81.81,0,0,0-.12-.47.61.61,0,0,1,.12-.8c.1-.08.05-.12-.12-.05s-.73-.42-.54-.63a1,1,0,0,0,0-.61C42.53,15.22,42.23,15.08,41.92,15.44ZM1.85,38.22c0,.14,0,.25-.06.25s-.11-.11-.17-.25,0-.25.06-.25S1.85,38.08,1.85,38.22Zm32.23,17.3c-.12.15-.25.22-.29.19s.12-.44.33-.44S34.22,55.37,34.08,55.52Z"/><path class="cls-1" d="M31.64,59.3a3.59,3.59,0,0,0-.51,1.36,4,4,0,0,1-.27,1,2.33,2.33,0,0,0-.14,1c0,.6.09.68.53.77s1.65-.32,1.65-.61c0-.12.08-.12.22,0s.34.06.67-.31a1.48,1.48,0,0,0,.46-.74.3.3,0,0,1,.33-.28.48.48,0,0,0,.45-.39,5.86,5.86,0,0,1,.51-1c.53-.83.31-1-.83-.7-1.49.41-1.54.41-1.9.09a2.63,2.63,0,0,0-.51-.41.26.26,0,0,1-.12-.29C32.27,58.51,32.12,58.64,31.64,59.3Z"/></g></g></svg>