<svg xmlns="http://www.w3.org/2000/svg" viewBox="0 0 633.19 251.49"><defs><style>.cls-1{fill:#fff;}</style></defs><g id="Layer_2" data-name="Layer 2"><g id="Layer_2-2" data-name="Layer 2"><polygon class="cls-1" points="527.49 163.15 525.96 148.85 530.81 143.49 530.81 140.17 532.6 140.17 532.6 130.21 540.51 126.89 546.13 115.15 549.96 108.87 552 94.47 553.79 92.43 553.79 88.08 571.91 82.98 578.55 90.38 578.55 113.62 572.94 122.04 573.19 138.64 566.81 157.53 556.85 160.6 552.25 166.72 547.91 168.77 525.96 169.79 514.47 188.17 488.94 184.85 487.4 178.98 505.28 180.25 527.49 163.15"/><polygon class="cls-1" points="578.55 55.15 570.64 61.28 574.6 66.38 582.13 66.38 589.02 59.23 601.28 57.7 626.3 45.45 629.62 34.21 625.53 24.77 631.15 20.68 633.19 15.06 627.83 10.47 624.77 10.47 619.15 22.98 604.85 25.02 592.09 31.15 578.55 40.34 578.55 55.15"/><polygon class="cls-1" points="620.17 0 618.38 10.47 625.28 3.06 623.49 0 620.17 0"/><polygon class="cls-1" points="325.45 182.72 326.81 172.17 350.98 172.17 360.51 177.45 365.62 177.45 365.62 188.17 371.4 196.68 369.7 212.34 371.4 217.79 363.23 225.28 346.89 230.72 346.55 237.19 338.04 235.15 325.45 228.68 315.23 223.57 312.51 216.09 308.43 207.23 311.15 204.68 310.47 192.94 321.36 192.94 325.45 182.72"/><polygon class="cls-1" points="161.36 140.17 173.96 157.53 178.38 169.11 189.96 186.81 208 191.23 221.62 183.75 230.47 173.87 230.47 162.98 238.98 151.4 238.98 140.17 270.64 109.37 243.06 109.37 222.3 126.21 179.06 139.49 173.62 143.23 161.36 140.17"/><polygon class="cls-1" points="112 162.3 107.57 174.21 107.57 183.75 118.81 192.6 125.28 192.6 134.47 191.23 140.25 180.68 140.25 173.53 130.38 166.72 112 162.3"/><polygon class="cls-1" points="26.21 219.83 13.28 234.81 2.04 233.45 0 237.19 5.11 242.64 13.11 242.64 21.45 251.49 26.21 250.13 26.21 241.28 33.7 232.77 33.7 224.6 26.21 219.83"/><polygon class="cls-1" points="19.4 77.87 26.55 100 35.4 112.6 35.4 125.19 42.89 125.19 52.43 110.89 52.43 93.53 55.49 86.04 49.36 68 33.7 69.7 30.98 68 19.4 77.87"/></g></g></svg>