<svg xmlns="http://www.w3.org/2000/svg" viewBox="0 0 91.68 61.84"><defs><style>.cls-1{fill:#969696;}</style></defs><g id="Layer_2" data-name="Layer 2"><g id="Basemap"><path class="cls-1" d="M71.26.15a1.79,1.79,0,0,1-.83.27,6.28,6.28,0,0,0-2.34,1,.25.25,0,0,1-.31,0c-.1-.07-.18,0-.18.05a.22.22,0,0,0,.22.2l.59.07a1,1,0,0,0,.75-.32c.2-.19.3-.27.25-.17s0,.24.27.3c.53.14.67.12.55-.06s0-.12.15-.07.22.19.15.29.34.13,1.33.07,1.29,0,1.08.05-.19.15.36.15.74-.07.81-.24a.48.48,0,0,1,.43-.25c.44,0,.86-.17.86-.36S75.25,1,75.08,1,74.72,1,74.69.85A5.8,5.8,0,0,0,72.45.51c-.25,0-.27,0-.1-.26S72.47,0,72,0A1.16,1.16,0,0,0,71.26.15Zm2,.87a1.09,1.09,0,0,1-.75.32l-.44,0,.43-.13c.23-.07.3-.16.17-.17s-.07-.1.17-.17C73.54.63,73.6.66,73.28,1ZM69,1.26c0,.05-.07.13-.17.18s-.17,0-.17-.07a.18.18,0,0,1,.17-.18C68.89,1.19,69,1.22,69,1.26Z"/><path class="cls-1" d="M65.43.92c-.31.1-.51.25-.44.32s0,.12-.07.12a.2.2,0,0,1-.21-.17c0-.21-1.22-.21-2.46,0-.84.12-.61.22.55.22.3,0,.51.07.46.15s-.07.14,0,.15c.9.16,2,.16,1.94,0s0-.18.27-.18.32.05.17.15S66.11,2,67,2c.4,0,.47-.06.27-.17a1.14,1.14,0,0,0-.76-.07c-.46.1-.48.08-.28-.17a.83.83,0,0,1,.56-.27c.17,0,.28-.09.22-.17A.53.53,0,0,0,66.56,1c-.17,0-.32-.09-.32-.17S66.14.64,65.43.92Z"/><path class="cls-1" d="M40.12,1.66c-.15.17-.43.21-.88.14s-.68-.05-.77.17a.36.36,0,0,0,.14.42c.13.09.15.15,0,.15a.71.71,0,0,1-.42-.27.66.66,0,0,0-.62-.18.67.67,0,0,1-.47,0,2.63,2.63,0,0,0-1-.07L34.66,2c-.38,0-.44.06-.36.28a2.74,2.74,0,0,0,.54.72l.44.4-.45-.27c-.28-.17-.5-.22-.56-.12s.22.31.62.51c.85.41.92.43.65.09s.86.3,1.32.79a1.22,1.22,0,0,0,.68.48,3.76,3.76,0,0,1,1,.34c1,.49,1.39.44,1.52-.17.07-.29.22-.51.34-.51s1.24-.85,1-.85c-.08,0,0-.08.16-.18.34-.21.88-.07,1.44.37.35.27.37.3.08.47s-.22.24.56.19c.31,0,.6,0,.66.15s.9.09,1.19-.17a.81.81,0,0,1,.48-.15c.17,0,.25-.08.2-.17s-.32-.17-.59-.17A.64.64,0,0,1,45,3.8c-.07-.19-.24-.25-.53-.2s-.42,0-.42-.05c0-.24-1.54-.87-1.83-.75s-.24.05-.09-.1.53-.16,1.28-.09c1.81.21,3.37.1,3.49-.24,0-.1.2-.16.37-.16.44,0,.58-.29.22-.48a5.36,5.36,0,0,0-2.68-.14c-.05.14-.12.12-.18,0-.16-.3-.92-.25-.92.07s0,.24-.25.07A6.21,6.21,0,0,0,40.12,1.66Zm1.49.85c0,.15,0,.22-.24.17A.53.53,0,0,1,41,2.41c0-.15,0-.22.24-.17A.53.53,0,0,1,41.61,2.51ZM38.25,3.65c0,.05-.13.08-.3.08s-.33-.12-.33-.24.09-.22.33-.08S38.25,3.61,38.25,3.65Zm-1.19.42a.16.16,0,0,1-.16.17.18.18,0,0,1-.17-.17.17.17,0,0,1,.17-.17A.16.16,0,0,1,37.06,4.07Z"/><path class="cls-1" d="M82,5a3,3,0,0,0-.81.34,7.54,7.54,0,0,1-2.53.4c-2,.14-2.76.26-3,.48A4.06,4.06,0,0,1,74,7c-.22,0-.3,0-.27.27A1.17,1.17,0,0,1,73,8.52l-.55.27.43.17c.25.12.32.18.15.18a2.07,2.07,0,0,0-.76.44c-.39.33-.43.43-.19.43.42,0,.36.32-.14.51-.23.08-.42.27-.42.4a.68.68,0,0,0,.85.56c.18-.05.3,0,.24.07s.11.24.37.32.49.14.61,0,.13-.15.13.05c0,.37.36.49,1.7.61,2,.15,2.26.15,2.34-.1s0-.2-.2-.14-.26.06-.21,0-.22-.24-.57-.36a1.61,1.61,0,0,1-.68-.32c0-.07-.2-.24-.48-.39-.45-.27-.74-1.15-.37-1.15a.18.18,0,0,0,.17-.17,8.16,8.16,0,0,1,2-2,1,1,0,0,0,.49-.3c.39-.39,1.12-.61,3.34-1,3-.6,3.55-1,2.16-1.36A2.24,2.24,0,0,0,82,5ZM73.31,8.75a.34.34,0,0,1-.32,0c-.13,0-.08-.1.1-.1S73.38,8.7,73.31,8.75Z"/><path class="cls-1" d="M48,11.89a.32.32,0,0,1-.39.07.87.87,0,0,0-.68.29c-.24.22-.38.29-.31.17s0-.21-.44-.21c-.73,0-1.34.17-1.24.34s-.73.41-1.25.36c-.29,0-.36,0-.27.19s.08.18-.11,0c-.4-.38-1.51-.21-1.51.23,0,.26,0,.26-.62.33s-.94.23-.85.59a.48.48,0,0,1-.09.46c-.11.06-.13,0,0-.12s0-.19-.34-.1-.45.08-.27-.14,0-.36-.9.09c-.56.25-.73.42-.66.61s0,.23-.08.15-1.39.32-1.39.56.06.24.76,0a1.65,1.65,0,0,1,.59-.19s.24,0,.51-.08.51-.09.51,0-.12.16-.25.16a.3.3,0,0,0-.26.32c0,.18-.34.57-.85.93a3.5,3.5,0,0,0-.84.76c0,.09-.16.19-.34.24s-.34.24-.34.53a1.2,1.2,0,0,1-1.14,1.12c-.39,0-.42,0-.22.18s.22.19,0,.28a5.45,5.45,0,0,0-.89.74c-.59.6-.69.65-1,.46s-.38-.17-.55,0a.43.43,0,0,1-.44.19c-.17-.05-.2,0-.13.18s0,.29-.41.38-.49.18-.49.27-.19.19-.43.25-.42.17-.42.27-.07.12-.14.07-.37.05-.66.24c-.51.31-.52.36-.54,1.59,0,1.07,0,1.26.24,1.19s.35.19.12.34-.22,1.12,0,1.12.15.15.15.34.26.49.68.76a2.16,2.16,0,0,0,2.56,0,14.17,14.17,0,0,1,1.31-.78c.39-.2.71-.49.73-.64s0-.24.1,0a.88.88,0,0,0,.32.39A.72.72,0,0,1,35,28a1.67,1.67,0,0,0,.34.88,1.69,1.69,0,0,1,.34.56,3,3,0,0,0,.59.76c.32.34.51.64.43.68a.3.3,0,0,0-.17.3c0,.14-.05.22-.12.22a2.34,2.34,0,0,0-1.24.36c0,.17-1,.41-1.14.29a.59.59,0,0,1,.1-.41c.17-.29.17-.29.19,0s.09.26.17.21a.2.2,0,0,0,.09-.26.17.17,0,0,1,.08-.25.32.32,0,0,0-.17-.6.32.32,0,0,1-.19-.59c.21-.12.19-1.1,0-1.1a.15.15,0,0,0-.14.17c0,.08-.1.17-.24.17a.72.72,0,0,0-.44.25,1,1,0,0,1-.69.25c-.92,0-1.55,1.82-.87,2.52.24.27.26.49,0,.62a.28.28,0,0,0-.05.36c.06.19.15.2.32,0s.23-.14.23.08-.08.28-.18.28-.14.08,0,.25c.37.44-.09.78-.87.66a1.35,1.35,0,0,0-1,.14,1.52,1.52,0,0,1-.92.18,1.42,1.42,0,0,0-1.66,1,3.83,3.83,0,0,1-2.56,2.34c-.75.24-.87.34-1,.89s-.24.64-.81.79a1.76,1.76,0,0,0-.88.51.79.79,0,0,1-1.18.12,1.58,1.58,0,0,0-.71-.36c-.44-.1-.47-.08-.35.28.35,1.15.32,1.23-.38,1.23a2.31,2.31,0,0,1-.85-.13,3.74,3.74,0,0,0-1.91.24c-.32.15-.36,1,0,1,.12,0,.22.06.22.17s.1.11.22.06c.39-.15,1.13.24,1,.53s0,.25.1.25.14-.08.09-.17c-.19-.3.42-.17.8.17.22.19.27.34.15.34s-.14.09,0,.27a.85.85,0,0,1,.27.43c0,.08.12.15.27.15s.21.07.16.17,0,.17,0,.17.15.1.15.2a1.23,1.23,0,0,0,.07.39,10.5,10.5,0,0,1-.38,2.6c-.2.61-.67,1-1.17.8a45,45,0,0,0-4.7-.33,2.57,2.57,0,0,1-1-.15c-.23-.24-.86-.12-1.17.22a1,1,0,0,1-.59.34c-.48,0-.71.41-.53.9A6.49,6.49,0,0,1,11.47,52a4.49,4.49,0,0,1-.85,3.07c-.14.12-.2.22-.15.22s0,.22,0,.51-.08.51,0,.51.15.12.15.25.1.24.22.21.26.83,0,1.57c-.11.41-.08.43.61.41a4.52,4.52,0,0,0,1.12-.14c.61-.2,1.06.06,1.34.77s.94,1,1.29.61a3.51,3.51,0,0,1,2.41-.8c.56,0,1.16,0,1.33,0s.4-.23.54-.5a1.12,1.12,0,0,1,.78-.62c.39-.06.58-.25.78-.74s.35-.66.47-.66A.72.72,0,0,0,22,56.4c.18-.22.17-.3,0-.47a.8.8,0,0,1-.17-1.17,6.94,6.94,0,0,1,1.89-2,4.65,4.65,0,0,0,1.13-.45c.92-.46,1.43-1.14,1.09-1.48a.89.89,0,0,1-.17-.54c0-.83,1.8-1.14,2.83-.48.56.36.95.29,1.56-.25a2.77,2.77,0,0,1,1.05-.61,1.16,1.16,0,0,0,.67-.43.88.88,0,0,1,.4-.39c.36-.13,1.8.53,1.8.84a1.49,1.49,0,0,0,.22.59c.17.29.15.37-.1.58s-.25.25-.1.33a.22.22,0,0,0,.32-.1c.12-.17.19-.17.41,0a.8.8,0,0,1,.27.46c0,.14.15.24.34.24s.34,0,.34.13a5.22,5.22,0,0,0,2.08,1.48,1.42,1.42,0,0,1,.84.46,1.32,1.32,0,0,0,.71.47.27.27,0,0,1,.27.27c0,.16.22.36.51.46s.56.38.76,1,.21.78.09.81a.43.43,0,0,0-.17.36c0,.39-1.56.75-2.79.63-1-.09-1.28,0-1.28.4s1.52,1.19,2,1.19a.45.45,0,0,1,.32.22.93.93,0,0,0,.53.34.57.57,0,0,0,.61-.8,1.68,1.68,0,0,1,0-.71c.08-.34.18-.41.45-.32.43.14,1.17-.49,1.17-1a.48.48,0,0,1,.34-.41c.48-.12.44-.76-.08-1.07-.37-.24-.39-.31-.2-.68s.32-.41.71-.37.54.13.56.22a1.37,1.37,0,0,0,.34.42c.25.26.29.26.44-.08.22-.51-.29-1-1.77-1.73-1-.48-1.13-.61-1-.87s.1-.3,0-.32l-.85,0A1.66,1.66,0,0,1,39,50.84a2.12,2.12,0,0,1-.6-.92c0-.42-.3-.76-1.05-1.2s-.95-.94-.64-1.31c.11-.15.13-.25,0-.34-.34-.2-.17-.52.39-.73s1.17-.27.83-.06c-.16.1-.17.27-.05.57.2.56.52.77.71.46s.15-.14.15.14a.67.67,0,0,0,.17.47c.1,0,.17-.05.17-.24a.6.6,0,0,1,.2-.46c.14-.08.16,0,.09.17a.52.52,0,0,0,.15.56c.19.21.2.31.07.39s.58.85,1,.85a1,1,0,0,1,.53.34,1.21,1.21,0,0,0,.72.36l.43,0-.43.13c-.4.14-.4.14.12.15.29,0,.6.09.65.19a.55.55,0,0,0,.4.17,3.76,3.76,0,0,1,1.16.63l.88.64-.1,1c-.09,1-.07,1.06.37,1.34.27.17.38.34.26.41s0,.68.25.68a.79.79,0,0,1,.49.27c.27.26.27.56,0,1.15-.07.17-.07.36,0,.43a.93.93,0,0,1,.27.39c.12.34.46.41.46.1s.65.42.77,1,.15.58.52.49.41,0,.41.16.08.25.17.25a.17.17,0,0,0,.17-.17.17.17,0,0,1,.17-.17c.1,0,.17.19.17.42s.08.43.17.43c.32,0,.25-.87-.12-1.61-.19-.36-.19-.44,0-.31a.88.88,0,0,0,.55.22c.24,0,.29-.08.2-.35s-.05-.34.29-.29.37,0,.34-.27,0-.31.2-.12.27.17.27.1.12,0,.26.08a.85.85,0,0,1,.25.55c0,.3,0,.3.27.07s.22-.31-.08-.65-.36-.3-.36-.24c0,.26-.54-.3-.69-.69a.56.56,0,0,0-.49-.39c-.24,0-.41-.17-.53-.51s-.25-.51-.34-.51-.7-1-.63-1.22.31,0,.6.27c.52.44.83.58.64.27-.07-.1,0-.12.19-.05s.27.05.17-.22-.09-.29.08-.12c.41.41.56.22.17-.19s-.39-.4,0-.59.39-.13.48,0,0,.13-.07.07-.21,0-.21.05c0,.32.46.2.56-.14s.14-.3.65-.12a6.43,6.43,0,0,1,1,.41,1.07,1.07,0,0,0,1.42-.24,1,1,0,0,1,.92-.34,1.09,1.09,0,0,0,.78-.2c.2-.24.2-.24-.39-.49s-1.26-1.56-1-1.82a.87.87,0,0,0,.17-.54.46.46,0,0,1,.32-.46c.27-.07.34-.25.39-.9s.12-.86.52-1a.66.66,0,0,0,.46-.64,1.77,1.77,0,0,1,.51-1,2.33,2.33,0,0,0,.51-.76c0-.11.19-.21.42-.21s.43.1.43.26.88.49,1.81.47c.31,0,.51,0,.46.14a.35.35,0,0,1-.25.15c-.22,0-.94.68-.73.7a4.39,4.39,0,0,1,.88.23c.3.1.37.24.34.58s0,.44.44.49.54,0,.64-.2a.71.71,0,0,1,.56-.27.74.74,0,0,0,.51-.17c0-.11.38-.17.7-.17s.57-.09.57-.26.09-.23.87.46a1.05,1.05,0,0,0,.54.31,1.21,1.21,0,0,1,.56.25,1.13,1.13,0,0,0,.56.25,1,1,0,0,1,.55.28c.25.22.4.23.83.1a1,1,0,0,1,1.07.12,4.21,4.21,0,0,0,1.13.44,5.46,5.46,0,0,1,1.38.61,1.92,1.92,0,0,0,1.69.39l.92-.1,1.1,1c1.87,1.62,6.36,3.67,6.06,2.75a.39.39,0,0,0-.34-.2,8.85,8.85,0,0,1-1.9-1.77C78.17,50.26,78,49.92,78,49.43a1.83,1.83,0,0,0-1.07-1.49c-.14,0-.16-.12,0-.22a1.49,1.49,0,0,0,.34-.63c.17-.53,1-1.12,1.41-1a.16.16,0,0,0,.2-.17c0-.34.43-.7,1.53-1.26l1-.54s-.14-.24-.43-.46a1,1,0,0,1-.45-1,1.5,1.5,0,0,0-.53-1.24,3.12,3.12,0,0,1-1-2c-.11-.72-.11-.72.52-.89a6.87,6.87,0,0,1,1.51-.18,2.22,2.22,0,0,0,1-.19c.34-.34,2.42-.24,3.52.15a3.24,3.24,0,0,0,1.82.27c.56-.08.81,0,.81.09s.16.19.33.19a1,1,0,0,1,.59.25c.3.32.71.32.83,0s.29-.22.75-.16c1.2.16,1.47-.83.34-1.22-.87-.29-1.23-.59-.94-.79s.11-.28-.88-1c-.34-.24-.36-.3-.17-1.05s.17-.85-.1-1.31c-.42-.71-1-.69-1.61.07s-1.27.8-1.85,0c-.24-.32-.61-.83-.83-1.1-.39-.49-.39-.52-.1-.83a1.19,1.19,0,0,1,.79-.34,1.2,1.2,0,0,0,.67-2.17,2.64,2.64,0,0,1-.87-2.2,14.61,14.61,0,0,0-1.42-6c-.67-1.47-.9-2.17-.79-2.31a3.78,3.78,0,0,1,1-.5c1.73-.65,3.56-2,3.59-2.55a3.2,3.2,0,0,0-.71-.88c-.83-.8-1.86-1.15-3.87-1.32A6.55,6.55,0,0,1,80,12.87c-.66-.27-.93-.32-1.07-.18s-.1.29.17.54.44.32.52.27a4.34,4.34,0,0,1,1.84.83c.32.33.27.43-.21.43-.3,0-.39.07-.32.25s0,.22-.17.15-.25-.15-.25-.2A1,1,0,0,0,80,14c-.35-.1-.45.15-.1.27.1,0-.1.14-.47.2a3.07,3.07,0,0,0-.85.26,2.69,2.69,0,0,1-1,.12,2.24,2.24,0,0,0-1.06.22.86.86,0,0,1-.62.13c-.48-.07-.61-.57-.19-.69.17,0,0-.09-.37-.1a2.41,2.41,0,0,0-1.06.23,2,2,0,0,1-.91.29,3.7,3.7,0,0,0-1.26.43,2.79,2.79,0,0,1-1,.39c-.53,0-1,.39-1,.76a.55.55,0,0,1-.26.46,1.73,1.73,0,0,1-1.52-.12.75.75,0,0,0-.46-.26c-.48,0-.1-.4.54-.57l.65-.19-.58-.44a2.81,2.81,0,0,0-1.82-.53c-1.25-.08-1.79.09-.88.29.48.1.51.17.51.83s.07.77.43.92.52.46.27.86c-.11.17-.22.19-.5,0a1.74,1.74,0,0,0-.69-.19c-.2,0-.36-.12-.36-.27s-.17-.1-.54.25a2.07,2.07,0,0,1-.81.53,2,2,0,0,0-.75.39l-.49.39.39.37c.63.58.25.78-.9.48A11.73,11.73,0,0,1,61,19.34a.68.68,0,0,0-.75,0c-.41.22-.39.68,0,.68.13,0,.23.06.23.17s.22.17.5.17a.66.66,0,0,1,.59.25c.15.44-.87.37-1.75-.1a3,3,0,0,0-.9-.32c-.17,0-.3-.11-.3-.22a1,1,0,0,0-.34-.55c-.26-.23-.29-.37-.15-.62.2-.4-.14-.73-.9-.9a.83.83,0,0,1-.53-.33c-.07-.15.24-.13,1.31.07,3.53.73,4.51.73,5.56,0a.76.76,0,0,0,.17-1.28c-.29-.36-1.54-1-1.7-.84s-.32,0-.61-.18a2.53,2.53,0,0,0-.61-.27,5.57,5.57,0,0,1-1.35-.5,11.24,11.24,0,0,0-2.33-.5c-1-.12-1.58-.26-1.58-.39s-1.17-.48-1.42-.29a2.38,2.38,0,0,1-1,0l-.76-.08.56-.21c.32-.12.52-.27.47-.35a5.54,5.54,0,0,0-2.31-.63c-.1,0-.17,0-.17-.07s-.25-.19-.57-.19a.92.92,0,0,0-.83.38c-.19.27-.27.3-.29.13s-.21-.35-.46-.47C48.26,11.65,48.14,11.65,48,11.89Zm.76.32a.19.19,0,0,1-.19.17c-.08,0-.12-.08-.07-.17s.14-.17.19-.17S48.77,12.11,48.77,12.21Zm1.87-.1c0,.15-.51.24-.6.1s.05-.17.24-.17S50.64,12.08,50.64,12.11Zm-7.81,1.63c0,.08-.12.12-.25.07s-.26-.14-.26-.17.12-.07.26-.07S42.83,13.64,42.83,13.74Zm-1.69.34c0,.08-.14.17-.29.17s-.27,0-.05-.17S41.14,13.88,41.14,14.08Zm-1.8,1.12c0,.13,0,.2-.07.15a.33.33,0,0,1-.17-.27C39.1,14.84,39.22,14.89,39.34,15.2Zm1.34-.15a1,1,0,0,1-.43,0c-.11-.05,0-.09.21-.09S40.78,15,40.68,15.05Zm7.56,3.71c.36.07.53.2.53.41s-.09.29-.36.22-.34,0-.29.13-.95,1.34-1.32,1.34c-.13,0-.24.07-.24.14,0,.24-1,.71-1.23.61a.33.33,0,0,0-.38.09c-.05.1,0,.23.16.28s.23.14,0,.34a.43.43,0,0,0-.08.58c.1.19.23.48.3.63a3.28,3.28,0,0,1,.1,1.17c0,.73,0,.86.24.85s.27.06.26.17.22.25.54.3.59.19.63.29.51.05,1.3-.15a5.14,5.14,0,0,1,1.5-.26.33.33,0,0,0,.37-.08,3,3,0,0,1,1.29-.27c1-.07,1.25,0,1.61.23s.42.5-.22.55c-.26,0-.46.13-.46.27s-.85.2-2.54,0c-.8-.1-2.79.8-2.24,1,.29.12.25.41,0,.29a.44.44,0,0,1-.26-.34c0-.14-.1-.24-.2-.22-.32,0-.93.29-.68.3s.25.36-.07.36-.25.1-.15.46c.14.56.27.71.37.42a.48.48,0,0,1,.41-.2c.17,0,.32-.07.32-.16s.66-.35.78-.16a.5.5,0,0,0,.38.15c.57,0,.4,1.68-.16,1.69a4.07,4.07,0,0,1-.73-.57c-.57-.51-.69-.55-1.12-.39a2.21,2.21,0,0,0-1,2.32c.1.87-.19,1.36-.78,1.36a.28.28,0,0,0-.29.25c0,.16-.19.34-.41.46-.46.2-1,.07-.86-.2.3-.49-2.11-.27-2.55.25a4,4,0,0,1-1.22.43c-1.1.22-1.58.1-1.58-.43s-.47-.41-2.1.32a1.42,1.42,0,0,1-.76.19c-.14-.15.66-.78.83-.68s.17,0,.23-.17a.46.46,0,0,1,.36-.25c.15,0,.22-.09.17-.17a.21.21,0,0,0-.3,0c-.14.08-.14,0,0-.16s.17-.3.1-.35,0-.12.08-.12.21-.14.22-.31.07-.13.14.14.22.42.86.42.77-.06.83-.34c.09-.49.53-.74,1.26-.76.47,0,.63-.07.63-.3s0-.26.17,0,.18.21.22.17a3.67,3.67,0,0,0,.52-1.51c-.06-.05-.15,0-.18.1-.14.39-.41.24-.31-.17a8.89,8.89,0,0,0,.24-1.49c0-.07.19-.17.41-.24l.45-.15c.05,0,.26-.08.48-.17s.37-.24.37-.39a.68.68,0,0,1,.26-.46c.2-.15.2-.25,0-.59s-.34-.51-1.22-.9a.78.78,0,0,1-.49-1.12,2.18,2.18,0,0,0,.12-.73.91.91,0,0,1,.47-.76c.27-.17.49-.41.49-.49A3.22,3.22,0,0,1,44,21.37a2.89,2.89,0,0,0,.79-.61c.46-.44.56-.62.39-.73s-.15-.25.16-.66.45-.49.54-.44.14,0,.14-.08S47.4,18.59,48.24,18.76ZM35,20.39c0,.24-.81,1-1.07,1-.08,0-.07-.12,0-.25s.15-.26.09-.26,0-.15.25-.33C34.79,20.14,35,20.1,35,20.39Zm-3.1,1.93a.37.37,0,0,1-.33,0c-.13-.05-.08-.1.1-.1S32,22.27,31.93,22.32Zm3.61,10.59c0,.07-.12.18-.27.24s-.21,0-.16-.07,0-.17-.06-.17a.17.17,0,0,1-.19-.15c0-.09.15-.12.34-.07S35.54,32.84,35.54,32.91Zm10.21,0c-.12.12-.2.14-.2,0s.2-.44.32-.33S45.85,32.84,45.75,32.94Zm-11.06.29c0-.08.1-.07.24.05.35.32-.16.58-.68.32s-.54-.56,0-.35C34.54,33.35,34.69,33.35,34.69,33.23Zm-5.85,3.05a.36.36,0,0,1-.27.19c-.09,0-.07-.1.05-.24S29,36,28.84,36.28Zm37.74,8.15c-.32.17-.64.28-.71.23s-.14,0-.14.17.17.31.39.36.34.14.1.27a1.05,1.05,0,0,0-.39.61c-.11.43-.15.44-1.12.36a2.73,2.73,0,0,0-1.15.08c-.1.1-.3,0-.51-.29l-.35-.45.45-.5a2.26,2.26,0,0,1,1-.56,3.84,3.84,0,0,0,.83-.18,6.46,6.46,0,0,1,1.8-.41C67.12,44.1,67.11,44.14,66.58,44.43ZM47.41,56.88c.09,0,.12.06.07.2s-.17.25-.25.25a1.18,1.18,0,0,0-.28,0c-.06,0-.13-.22-.17-.54-.05-.58-.05-.58.23-.26S47.33,56.89,47.41,56.88Zm3.23-.39c.22.13.22.17,0,.17a.55.55,0,0,1-.39-.17C50.08,56.27,50.3,56.27,50.64,56.49Zm-1.07.61a.34.34,0,0,1-.33,0c-.13,0-.08-.1.11-.1S49.63,57.05,49.57,57.1Zm.34.61c-.06.13-.11.08-.11-.1s0-.29.09-.22A.34.34,0,0,1,49.91,57.71Z"/><path class="cls-1" d="M1.71,17.74A1.23,1.23,0,0,1,1.1,18c-.18,0-.34.12-.34.24s-.06.22-.13.22a1.37,1.37,0,0,0-.48.25C-.14,19-.08,19,.9,19c1.34-.09,1.48.3.15.49-.79.12-1,.22-.88.41A.42.42,0,0,0,.44,20c.1,0,.14-.07.09-.14s1.15,0,1.29.2c.25.38.13.61-.29.61-.26,0-.43.11-.43.24s.21.22.82.19a3.08,3.08,0,0,1,1.34.2,4.85,4.85,0,0,0,2.85.1c.95-.35,1.69-.59,2.47-.81,1.07-.31,2.19-1,2.19-1.42,0-.19-.2-.39-.51-.53s-.45-.27-.4-.36,0-.15-.14-.15-.08-.12.12-.27.3-.27-.29-.17c-.36.07-.66,0-.73-.07-.17-.27-.76-.2-.76.09s-.15.25-.38.25H6.24c-.81,0-1.08.07-1.22.31s-.17.27-.27,0-.59-.36-.59.07c0,.23-.09.32-.26.27a.26.26,0,0,0-.34.05c-.18.29-.39.19-.3-.15s-.1-.41-.55-.68C2,17.4,2,17.4,1.71,17.74Z"/><path class="cls-1" d="M16.32,23c-.19.17-.14.59,0,.47a.23.23,0,0,1,.29.11.27.27,0,0,1-.08.32c-.16.08-.12.18.08.35s.29.21.19-.05,0-.34.07-.39a.19.19,0,0,0,.06-.25.2.2,0,0,1,.09-.26.44.44,0,0,0,.17-.3c0-.14,0-.14-.15,0s-.19.17-.26,0A.29.29,0,0,0,16.32,23Z"/><path class="cls-1" d="M20,27.19a.7.7,0,0,0-.19.41c0,.25-.71.46-1.27.36a.55.55,0,0,0-.68.32c-.44.66-.93,1.08-1.12,1s-.27,0-.42.09-.21.27,0,.47.21.29.19.32a.26.26,0,0,0-.05.17c0,.09.07,0,.15-.1s.19-.15.26-.05-.16.27-.49.37-.6.27-.6.36.14.08.34,0,.34-.13.34.07.14.27.31.32.18.1-.17.26-.48.27-.48.35a.35.35,0,0,0,.58.21c.23-.19.44-.09.44.22,0,.1-.09.07-.17-.07s-.17-.2-.17.05.08.29.51.2.49-.06.41.16-.17.27-.26.27-.08.17,0,.35.24.31.31.22,1.37-.23,1.27,0a.73.73,0,0,0,.24.53.78.78,0,0,1,0,1.14,1.7,1.7,0,0,1-.82,0c-.39,0-.64,0-.64.1s.08.14.17.09c.3-.19.18.07-.21.42l-.39.38.43-.07c.74-.1.62.46-.17.78-.95.37-.88.83.15.88.81,0,1.42.41.68.41-.41,0-1.17.54-1.17.83,0,.07-.27.27-.6.44s-.54.36-.49.41a.93.93,0,0,0,1-.11,1.27,1.27,0,0,1,.86-.17.73.73,0,0,0,.77-.22c.22-.27.45-.3,1.45-.25.67,0,1.21,0,1.21-.09s.32-.11.73-.1c.74.05,2.15-.44,2.15-.73,0-.1-.12-.18-.25-.18-.32,0-.34-.44,0-.56a1.13,1.13,0,0,0,.63-1.29,1.19,1.19,0,0,0-1.51-.32c-.26.18-.27.18-.07-.06s.17-.37,0-.76a3.71,3.71,0,0,1-.2-.66c0-.22-.49-.68-.94-.93a1.09,1.09,0,0,1-.45-.65c-.17-.64-.61-1.2-1-1.22s-.39-.54,0-.85a.78.78,0,0,0,.34-.44.8.8,0,0,1,.27-.47c.41-.43.12-.61-.95-.61a2.45,2.45,0,0,1-1.1-.17c-.05-.11,0-.17.08-.17a1.64,1.64,0,0,0,.63-.34c.24-.19.37-.34.31-.34s0-.17.2-.39a3.89,3.89,0,0,0,.44-.56C21,27,20.19,27,20,27.19Zm-3.24,2.33a.19.19,0,0,1-.19.17c-.08,0-.12-.09-.07-.17s.14-.17.19-.17S16.71,29.41,16.71,29.52Z"/><path class="cls-1" d="M14.39,32.54c-.41.13-1.21,1.05-.9,1.05.1,0,.13.08.08.17s-.44.13-.86.1c-.6-.07-.78,0-.92.24s-.1.33.05.39.15.11,0,.3c-.32.32-.27.44.2.56s.53.44-.25,1c-.63.47-.92,1.12-.49,1.12.08,0,.12.08,0,.2s0,.15.15.09.29,0,.29.06c0,.29,1.31,0,2.17-.45A3.61,3.61,0,0,1,15.27,37c.47,0,.56-.07.73-.66A5,5,0,0,0,16.2,35c0-.56.07-.71.42-.86s.55-.65.12-1.15A3,3,0,0,0,14.39,32.54Z"/><path class="cls-1" d="M33.1,50.07a.83.83,0,0,1-.53.38.64.64,0,0,0-.46.41,1.78,1.78,0,0,0,.48,1.47c.27.19.25.24-.17.51s-.49.27-.6.1-.17-.12-.22.1a.9.9,0,0,0,.14.65.88.88,0,0,1,.15.66c-.25,1.34-.25,1.44.12,1.64s.41.14.58-.1a.46.46,0,0,1,.47-.2c.32.14.43-.19.48-1.63.05-1,0-1.2-.26-1.39s-.29-.31-.12-.88S33.33,49.58,33.1,50.07Z"/><path class="cls-1" d="M50.41,60.68a.62.62,0,0,0-.11.39c0,.22.2.32.71.4a1.63,1.63,0,0,1,.81.29c.07.1.46.1,1,0,.87-.14,1.19-.36.7-.53-.16-.05-.19,0-.11.15s0,.16-.18,0a2.39,2.39,0,0,0-1.17-.31c-.46,0-.89-.11-.9-.2a.17.17,0,0,0-.24-.05.2.2,0,0,1-.29-.09C50.58,60.64,50.48,60.61,50.41,60.68Z"/></g></g></svg>