<svg xmlns="http://www.w3.org/2000/svg" viewBox="0 0 172.94 104.12"><defs><style>.cls-1{fill:#969696;}</style></defs><g id="Layer_2" data-name="Layer 2"><g id="Basemap"><path class="cls-1" d="M153.91.09c-1.25.06-3.32.17-4.58.22a25.86,25.86,0,0,0-2.8.22,4.27,4.27,0,0,1-.93.06l-.42,0,.42.36c.34.27.37.34.14.36a.55.55,0,0,1-.41-.19.38.38,0,0,0-.42-.1.62.62,0,0,1-.56-.15c-.29-.28-.51-.33-.36-.07.07.1-.15.17-.51.17s-.61,0-.52.27,0,.25-.28.15c-1-.27-1.56-.27-1.78,0s-.22.29-.22,0-.13-.3-1.91-.2c-1.06.07-2.41.15-3,.2s-1,0-.88,0c.41-.2.19-.4-.44-.4a1.46,1.46,0,0,1-.85-.21c-.13-.13-1.86-.2-6-.22-5.92,0-7.84.07-9,.48a2.46,2.46,0,0,1-1.4.08,3.73,3.73,0,0,0-1.62,0,18.31,18.31,0,0,1-2.26.25c-2,.1-3.12.27-3.12.44s.15.15.34.15.34.11.34.24.25.31.56.41.44.17.2.19A1.07,1.07,0,0,0,111,3c-.17.18-.2.17-.15,0s-.12-.26-.35-.29a1.52,1.52,0,0,1-.73-.41,1.44,1.44,0,0,0-1.16-.34c-.46,0-.88.07-.93.17a1.08,1.08,0,0,1-.7.17c-.32,0-.57.07-.57.17s-.17.17-.38.19a4.15,4.15,0,0,0-1.15.31c-.59.25-.75.39-.75.71s.11.42.5.47.42.09.22.17-.27.14,0,.53.37.42,2.58.44,3.46.24,2.78.51c-.22.08-.36.05-.41-.07s-1.32-.29-1.78-.1c-.15.05-.22.22-.15.44s0,.34-.27.25a4.11,4.11,0,0,0-1.31.14,3.53,3.53,0,0,1-1,.14c-.13-.14-.78.13-.78.3s.09.12.2,0,.14,0,.07.09-.2.13-.44-.07-.49-.26-1.07-.17-.79.05-.86-.07a.74.74,0,0,0-.53-.19c-.22,0-.44-.06-.49-.15a3.21,3.21,0,0,0-1.8.15,1,1,0,0,1-.34.23c-.2.06-.2.1,0,.1s.61.78.42,1A5.27,5.27,0,0,1,98.51,8L97.34,8l.49-.44c.44-.41.44-.47.21-.73s-.34-.22-.61,0-.56.25-.43,0-1-.2-2,.11c-.58.17-.92.35-.92.5s-.08.21-.17.16a.19.19,0,0,1-.08-.26c.14-.22-.71-.68-1-.56s-1,.73-.72.73c.1,0,.14,0,.09.12-.22.2.49.54,1.17.56s.71,0,.68.29.13.3,1.23.25c.94,0,1.31-.11,1.46-.32a.38.38,0,0,1,.53-.13c.22.08.25.15.1.2s-.13.15.09.32.22.22.1.24c-.31,0-.27.34,0,.34.14,0,.26-.07.26-.15s.37-.11.83-.06c.74.07.9,0,1.3-.39s.41-.49.22-.62-.18-.19,0-.26a.36.36,0,0,0,.2-.32c0-.36,1.46-.32,1.6,0a.59.59,0,0,1,.06.31l-.49.22c-.41.17-.8.87-.52.92a34.27,34.27,0,0,0,4,.25c2.17.09,3.07.05,3.24-.08s.27-.16.36,0a6.55,6.55,0,0,0,3-.19c.54-.15,1-.54,1-.83,0-.53-2.34-.65-4.64-.26a6.25,6.25,0,0,1-1.5.14,3.24,3.24,0,0,0-.91-.14c-.77,0-1.51-.44-.82-.44a.73.73,0,0,0,.48-.13,10.94,10.94,0,0,1,2.27-.14c1.19,0,2.61,0,3.17,0s1.17,0,1.36,0,.34,0,0,.19,0,.14.68.07.91,0,.64.08c-.51.21-.49.34,0,.34.29,0,.48-.1.53-.34a.47.47,0,0,1,.48-.34c.62,0,1.44-.35,1.44-.62s-.12-.24-.44-.16-.39,0-.33-.06a.63.63,0,0,1,.48-.17,2.17,2.17,0,0,0,.88-.28,4.43,4.43,0,0,1,1.36-.34c1.19-.1,1.56-.23,1.25-.42-.15-.1,0-.12.29,0s.58,0,.65-.09a.54.54,0,0,1,.42-.18,1.26,1.26,0,0,0,.68-.41c.39-.41.83-.52,2.71-.71a5.39,5.39,0,0,0,1.48-.34,3.7,3.7,0,0,1,.78-.31c3.54-.64,4.51-.86,4.32-1s.09-.08.43,0a1.41,1.41,0,0,0,.85-.08,9.74,9.74,0,0,1,2.8-.48s-.06.19-.21.34-.59.27-1.24.27c-1.29,0-4.81.72-4.92,1s.17.2.72.2.78.07.78.17c0,.32-.8.56-2.38.7a27.6,27.6,0,0,0-5.65.88l-.45.24.44.18a1.94,1.94,0,0,0,.74.21.6.6,0,0,1,.41.13c0,.07-.34.12-.85.1a2.23,2.23,0,0,0-1,.12c0,.09.11.16.34.16s.41.06.34.22c-.15.39,1.19,1.17,2.17,1.27.6,0,.83,0,.75-.1s0-.14.42,0a1.28,1.28,0,0,0,.68.07,10.43,10.43,0,0,1,4.12.12c1.34.32,1.77.49,1.24.49s-.18.46.27.58.36.12.07.34-.3.23,0,.32.22.08-.08.1-.36.09-.29.19a.37.37,0,0,0,.39.07c.19-.07.15,0-.14.28l-.42.38.39-.1c.39-.09.39-.09.1.23s-.27.38-.07.49.17.17-.12.17-.52.26-.16.41c.13.05.05.22-.28.48s-.44.44-.23.73.37.28.84.2.67,0,.72.07,0,.1-.16,0-.27,0-.27.08.16.19.36.19.32-.1.29-.31,0-.28.12-.28a.14.14,0,0,1,.11.2c0,.14.12.22.34.22s.41.1.43.34-.19.46-.37.17a3.89,3.89,0,0,0-2.19,0c-.07.09,0,.21.1.26s0,.06-.26,0-.44,0-.39,0,0,.36-.23.58l-.33.42.55.31c.49.25.64.25,1.46.05,1-.25,1.23-.49.59-.8-.25-.1-.41-.25-.34-.3s.2,0,.31.08a.88.88,0,0,0,.57.21c.48,0,.49.54,0,1.22-.29.42-.39.44-1.12.35s-.85-.05-1.26.45a2.14,2.14,0,0,1-.56.52,2.58,2.58,0,0,0-.93,1.12c0,.14.13.24.3.26s.21,0-.08.15-.81.78-.58.91.12.28.05.48,0,.34.22.25.28-.05.19.14,0,.25,0,.25.05.29-.07.63c-.18.56-.18.66,0,.8s.2.17.07.25,0,1,.33,1c.12,0,.16.18.11.51s-.05.51,0,.51.22.3.34.66a1.37,1.37,0,0,0,.44.76.49.49,0,0,1,.26.44c0,.37.2.43.64.19s1.9.25,1.9.59a.41.41,0,0,0,.3.34,6.26,6.26,0,0,1,.67.27,1.23,1.23,0,0,0,1.49-.51c.08-.2.25-.37.37-.37s.24-.15.31-.34a3,3,0,0,1,.66-.88,3.12,3.12,0,0,0,.68-1,.89.89,0,0,1,.54-.62,3.53,3.53,0,0,0,.88-.6,2.87,2.87,0,0,1,.77-.52.42.42,0,0,0,.28-.33,1.13,1.13,0,0,1,.36-.57.67.67,0,0,0,.27-.68c-.05-.19,0-.32,0-.31.22.07,1.2-.44,1.1-.57s.27-.16.69-.16c.58,0,.75-.05.67-.22s-.07-.15.11,0c.36.27,1.17.44,1.17.23s.12-.16.26-.16.25-.09.25-.19.09-.12.17-.07a.37.37,0,0,0,.39,0,6.64,6.64,0,0,1,1.14-.46,5.75,5.75,0,0,0,1.78-1.05,4.79,4.79,0,0,1,1.31-.85,1.08,1.08,0,0,0,.64-.37c.14-.24.19-.26.32-.06s.36.21.9.12a29.42,29.42,0,0,0,5.7-1.29,5.3,5.3,0,0,1,.83-.33,9.52,9.52,0,0,0,1.29-.5l1.16-.47-1-.12c-1.37-.15-2.59-.39-2.12-.42.31,0,.39-.11.34-.41s0-.37.44-.37.51.08.55.3a.64.64,0,0,0,.15.42,5,5,0,0,0,2.14.19,1.41,1.41,0,0,0,.23-.85c0-.69,0-.74-.57-1s-.55-.27-.14-.19,1.12-.25.76-.47c-.17-.12-.13-.16.09-.16s.29-.08.2-.32.27-.52,1.12-.52c.7,0,1.12-.58.54-.73q-.33-.07.12-.12a3.12,3.12,0,0,1,.58,0,4,4,0,0,0,1.73-.81.43.43,0,0,1,.46-.14c.15.05.32,0,.37,0s0-.17-.17-.17-.22-.08-.17-.17-.1-.17-.39-.17c-.49,0-.81.37-.61.7.1.17-.66.22-.83,0s0-.22.22-.34a1,1,0,0,0-.14-1.54c-.49-.32-.25-.49.55-.41.44,0,.56.14.49.34s0,.22.07.15.15,0,.1.22c-.14.53.12.39.3-.17.11-.29.31-.51.45-.51s.22-.11.18-.3-.24-.29-.69-.32a1.6,1.6,0,0,1-.77-.14c-.06-.08.05-.1.24,0a.87.87,0,0,0,.59,0c.17-.1.11-.17-.22-.31a1.42,1.42,0,0,1-.56-.35c-.08-.14-.18-.14-.35,0-.41.34-.49,0-.09-.33a1.08,1.08,0,0,1,1.09-.24c.58.07.66.05.58-.19s0-.27.18-.29.24,0-.05-.15-.19-.27.92-.39a2,2,0,0,0,.85-.25c0-.11.39-.22.72-.29s.6-.19.55-.27.18-.16.51-.16a1.29,1.29,0,0,0,.68-.13,3.87,3.87,0,0,1,1.28-.36c1.72-.3,1.31-.54-1.08-.66a5.32,5.32,0,0,0-2.21.12c-.28.24-1,.08-.86-.17.07-.09,0-.15-.15-.15s-.26.08-.22.2-.11.24-.28.27-.27,0-.25-.15-.1-.26-.29-.29-.29,0-.2.07-.24.27-.68.44c-1,.37-1.07.37-.65.08.17-.13.26-.32.19-.44s0-.22.14-.27l.54-.17c.46-.15.22-.22-1-.34a10.55,10.55,0,0,1-1.8-.34A50.62,50.62,0,0,0,153.91.09Zm-6.66,1.25c0,.29,0,.29-.39.14s-.27-.12,0-.24l.34-.14A1.35,1.35,0,0,1,147.25,1.34Zm16.33.09a1.35,1.35,0,0,1-.59.15c-.27,0-.27,0,.08-.15C163.67,1.24,163.89,1.24,163.58,1.43ZM112.3,1.7a.32.32,0,0,1-.32,0c-.13-.05-.08-.1.1-.1S112.37,1.65,112.3,1.7Zm.85,1.22a1.06,1.06,0,0,0-.85.39c-.27.44-.42.41-.34-.09s.6-.61,1.41-.44C113.71,2.85,113.68,2.88,113.15,2.92Zm2.68-.14c0,.09,0,.17-.18.17s-.28,0,0,.26.29.23-.14.06-.42-.25-.29-.44S115.7,2.55,115.83,2.78ZM113,3.92c0,.15,0,.2-.12.12a1.53,1.53,0,0,0-.3-.27c-.1-.07,0-.14.13-.14A.28.28,0,0,1,113,3.92Zm-.34.29s-.06.13-.17.18-.17,0-.17-.06a.19.19,0,0,1,.17-.19C112.63,4.14,112.69,4.17,112.69,4.21Zm-3.22.69a.7.7,0,0,1-.39.26c-.1,0,0-.12.15-.26Q109.88,4.42,109.47,4.9ZM126,6a.78.78,0,0,1-.43,0c-.12,0,0-.08.21-.08S126.08,5.9,126,6Zm-2.55.17a.75.75,0,0,1-.42,0c-.12,0,0-.08.2-.08S123.53,6.07,123.43,6.12ZM95.48,7.21c.18.29,0,.36-.26.07s-.13-.26,0-.26A.38.38,0,0,1,95.48,7.21Zm-2.68.25a.34.34,0,0,1-.33,0c-.13-.05-.08-.1.11-.1S92.86,7.41,92.8,7.46Zm67.14,3c.05.08,0,.17-.07.17a.19.19,0,0,1-.19-.17c0-.11,0-.17.07-.17S159.88,10.31,159.94,10.42Zm-.38.51c-.49.2-.51.62,0,.76s.34.27-.15.13a.45.45,0,0,1-.38-.4.62.62,0,0,0-.29-.48c-.23-.13-.13-.17.46-.17S159.87,10.81,159.56,10.93Zm1.53-.06a1.1,1.1,0,0,1-.51,0c-.17,0-.07-.08.2-.08S161.19,10.82,161.09,10.87Zm.07.33a.37.37,0,0,1-.33,0c-.13-.05-.08-.1.11-.1S161.22,11.15,161.16,11.2ZM129.23,21.92s-.18,0-.3-.12-.14-.19.1-.09S129.28,21.87,129.23,21.92Z"/><path class="cls-1" d="M96.41,4c-.43,0-.76.19-.76.31a.83.83,0,0,1-.34.46c-.19.13-.31.28-.26.34a7.72,7.72,0,0,0,1.34.17,3.85,3.85,0,0,1,1.43.25,1.49,1.49,0,0,0,.81.19c.54,0,.68-.09.88-.51s.26-.51-.27-.75a6.07,6.07,0,0,0-1-.32l-.76-.17A4.72,4.72,0,0,0,96.41,4Z"/><path class="cls-1" d="M89.34,4.72c-1.33.2-1.8.44-.89.44a2.06,2.06,0,0,1,.77.13c.12.07-.33.12-1,.12-.87,0-1.22.07-1.34.26-.24.39.27.56,1.39.44s1.88-.49,1.46-.66c-.12,0,0,0,.36,0s.54,0,.45-.09,0-.2.28-.2A1.51,1.51,0,0,0,91.49,5c.22-.15.22-.19,0-.34S91,4.46,89.34,4.72Z"/><path class="cls-1" d="M82.16,6a16.59,16.59,0,0,0-3.83.88,3.88,3.88,0,0,1-1,.15,3.84,3.84,0,0,0-1,.19c-.64.24-.73.64-.09.53.28,0,.5,0,.58.15s.22.17.49-.09.36-.25.36-.1.15.19.54.1.53-.08.22.14-.32.25.12.27A2.6,2.6,0,0,0,79.51,8C79.75,8,80,7.92,80,8s-.2.17-.45.27c-.41.15-.44.2-.19.34a3.76,3.76,0,0,0,1,.22c.44,0,.71.12.68.25-.11.48.84.54,2.91.21,1.14-.19,2.75-.38,3.58-.43a5,5,0,0,0,2.43-.54c1-.54.95-.83-.24-.76l-.8,0,.28-.41c.25-.4.22-.63-.09-.63-.08,0-.1.09,0,.21s0,.13-.09.07a1.47,1.47,0,0,0-.83.06c-1.22.38-1.15.34-.88.51s.17.17-.12.17c-.46,0-.53.29-.08.39.15,0-.16.09-.7.1s-.95,0-.9-.13c.2-.32-.56-.7-1.61-.82s-1.09-.11-.58-.32c.29-.12.44-.24.34-.25s.05-.07.32-.14.51-.18.51-.27S83.79,5.85,82.16,6ZM81.8,7.55l.78.14-.79-.06a2.32,2.32,0,0,0-1,.09c-.17.12-.14.15.12.17s.25.05.15.08a1,1,0,0,1-.59-.08c-.29-.12-.33-.17-.1-.17s.28-.1.28-.2-.2-.14-.54-.07c-.56.1-.56.1-.14-.14a.79.79,0,0,1,.75-.07A5.79,5.79,0,0,0,81.8,7.55Zm.61-.36a.56.56,0,0,1-.44.17c-.18,0-.28-.08-.23-.17A.53.53,0,0,1,82.18,7C82.36,7,82.47,7.09,82.41,7.19Zm-.17,1.53c.07.1-.11.17-.45.15-.53,0-.55,0-.14-.15l.46-.15S82.19,8.62,82.24,8.72Z"/><path class="cls-1" d="M71.93,9.35a.88.88,0,0,0-.66.49c-.1.22-.29.41-.39.41a3.76,3.76,0,0,0-1,.42,4,4,0,0,1-1,.42.86.86,0,0,0-.46.24,5.82,5.82,0,0,1-1.07.53c-.44.17-.76.35-.71.44s.17.1.28.07c.33-.12.85.37.73.68s.26.47,1.11.2a5.75,5.75,0,0,1,1.4-.27,2.46,2.46,0,0,0,1.11-.34,6.05,6.05,0,0,1,2.64-.87c0,.07-.17.19-.47.24a2.68,2.68,0,0,0-.87.36c-.32.25-.32.25,0,.47s.27.26-.22.43-.65.25-.28.61c.22.23.53.25,1.82.17a14,14,0,0,1,2.39-.11c.27,0,.46.09.39.14a12.59,12.59,0,0,1-2,.15c-2.54,0-3.36.21-3.36.61,0,.56.48.83,1.5.83.73,0,.9.06.74.21a.73.73,0,0,0-.2.47c0,.26.2.27,1.49.24a17,17,0,0,0,2.33-.24,14,14,0,0,1,1.61-.25l.76-.07-.68.14c-1.39.28-1.71.51-1.61,1.18,0,.17-.12.21-.63.11-.69-.12-.84-.21-.69-.36s.25,0,.44.08c.41.22.61.06.29-.25s-.34-.2-.72-.05a7.45,7.45,0,0,1-3.68.25c-.23-.12-.28-.1-.2,0s-.1.2-.66.17c-.9,0-.71-.24.39-.41.88-.14,1-.37.56-.76A1.93,1.93,0,0,0,71,15.88a5.68,5.68,0,0,1-1.78-.26,5.92,5.92,0,0,0-1-.28.71.71,0,0,1-.44-.26,2.71,2.71,0,0,0-2.34,0,1.5,1.5,0,0,1-.88.15c-.36-.12-.48-.42-.17-.42a.16.16,0,0,1,.17.17.19.19,0,0,0,.19.17c.08,0,.13-.07.08-.16s0-.18.15-.25.26-.17.26-.27-.82-.05-1.19.23a4.3,4.3,0,0,1-1.29.62,2,2,0,0,1,0-.68c.09-.55.06-.7-.18-.78a.36.36,0,0,0-.43.08,2.27,2.27,0,0,1-1.37.7c-.22,0-.29-.09-.2-.29s0-.26-.22-.15a2.22,2.22,0,0,1-.67.18,21.17,21.17,0,0,0-3.44.77c-.22.13-.17.15.22.08s.46-.08.19.09-.41.15-.77,0-2.05-.32-2.05-.12-.15.14-.32.14a1,1,0,0,0-.61.28c-.49.5-2.39.21-2.19-.34,0-.15-.17-.22-.81-.25-1.17,0-1.84-.19-1.84-.41s-.5-.15-1.22-.13a17.52,17.52,0,0,1-2.34-.17c-.61-.1-1.74-.24-2.54-.31-1.07-.08-1.43-.17-1.39-.34s-.17-.22-.9-.17-1,0-1-.18a.25.25,0,0,0-.34-.12.34.34,0,0,1-.39-.17c-.12-.21-.27-.19-1.14.12a9.93,9.93,0,0,1-2.12.4,12.17,12.17,0,0,0-2.12.33,7.45,7.45,0,0,1-1.54.27,10.57,10.57,0,0,0-3.31,1.08,8.34,8.34,0,0,1-2.37.63,7.83,7.83,0,0,0-1.9.43,2.33,2.33,0,0,1-.82.23c-.42,0-.4.29,0,.43s.78.73.53,1-.22.46.15.46.3.08.22.29a1.48,1.48,0,0,1-1.05.88c-.48,0-1.31-.29-1-.31a.78.78,0,0,0,.49-.27c.27-.34.09-.34-1.44,0s-2.27.51-3.48.75c-1,.22-1.39.44-1,.61.25.1.25.15-.06.57-.45.63-.27.73,1.24.72a3.94,3.94,0,0,1,1.39.13c.14.12.41.09.82-.08.71-.29,1.2-.34.8-.09-.21.14-.21.17,0,.17.35,0-.6.83-1.09.95a3.47,3.47,0,0,1-1,0c-.33-.07-.59-.05-.59.05,0,.27-1.05.55-1.66.43s-1,0-1.94.64a1.56,1.56,0,0,1-.71.31,5,5,0,0,0-1.63.69,2,2,0,0,1-.56.22c-.47.12-.89.82-.69,1.14.05.08-.1.22-.32.3s-.43.28-.41.77.07.61.44.61a5.82,5.82,0,0,0,1.07-.15c.58-.14.63-.12.47.15a1.17,1.17,0,0,1-.49.42,1.39,1.39,0,0,0-.59.51.89.89,0,0,1-.56.43c-.2,0-.24.05-.1.18s.29.14.56,0,.34-.13.27,0,0,.24.57-.07,1.43-.17,1.29.19.41.3.65,0c.15-.18.3-.22.61-.1s.41.15-.34.71a9.62,9.62,0,0,1-1.53.89l-1.1.47c-.19.09-.92.34-1.61.56-1.54.51-2.21.8-2.21,1s-.15.07-.32,0c-.32-.18-.86,0-2.81.72a6.15,6.15,0,0,1-2,.56c-.81.08-2.09.73-1.86.95s.28.1.5,0A2.12,2.12,0,0,1,1.37,35a2.59,2.59,0,0,0,1-.27,1.57,1.57,0,0,1,.85-.17.94.94,0,0,0,.66-.15.61.61,0,0,1,.46-.17c.06,0,.17,0,.23-.09.19-.32,1-.18,1.06.17s.23.43.52.14c.14-.14.26-.14.44,0s.29.13.44-.14S7.15,34,6.93,34a.26.26,0,0,1-.26-.27c0-.2.11-.25.43-.17A1.11,1.11,0,0,0,8,33.38c.22-.13.49-.22.57-.15a2.89,2.89,0,0,0,1.68-.71c.14-.12.31-.19.39-.14s.16,0,.16-.08.2-.14.52-.09.48,0,.43-.06.2-.21.57-.28a2.53,2.53,0,0,0,1.05-.4,6.35,6.35,0,0,1,2-.78l.56-.22a2.44,2.44,0,0,1,.76-.21,2.78,2.78,0,0,0,1-.42,3,3,0,0,1,1-.43c.51,0,.9-.47.56-.69s-.17-.15.1-.17a2.31,2.31,0,0,1,.53,0c.12,0,.24-.09.3-.24a.6.6,0,0,1,.53-.25c.24,0,.42-.09.42-.17s.14-.17.31-.17A1.41,1.41,0,0,0,22,27.5c.47-.32.93-.48.93-.31s-.2.22-.44.32-.37.29-.32.38-.12.25-.41.35-.53.26-.53.34c0,.27.9.16,2.09-.25A4.27,4.27,0,0,1,24.49,28s.1,0,.22-.09a2.44,2.44,0,0,1,1.68-.12,1.77,1.77,0,0,0,1.06-.25c.7-.34,1-.68.6-.68a.17.17,0,0,0-.17.17.17.17,0,0,1-.15.17c-.09,0-.14-.14-.11-.31s.17-.27.41-.25.36,0,.36-.12.18-.17.42-.17c.49,0,.51.37,0,.51a.59.59,0,0,0-.39.29c-.05.15.08.15.51,0a1.63,1.63,0,0,1,1.07,0c.47.17.47.18.11.28s-.39.21-.39.29.12.12.31,0a7.8,7.8,0,0,1,1.49-.21,3.18,3.18,0,0,1,1.77.22,1.7,1.7,0,0,0,1,.19c.29-.08.37-.07.2.05s-.15.22.2.53a1.78,1.78,0,0,1,.53.78c.07.22.19.4.27.4.27,0,0,1.26-.41,1.68s-.27.38-.1.33.26,0,.26.28,0,.36-.12.31-.14,0-.14.19c0,.39.27.34.58-.11.15-.2.31-.32.36-.27s-.14.29-.43.53c-.61.52-.63.63-.12.64h.38l-.38.16c-.32.13-.37.27-.32.71s.12.56.56.59a.88.88,0,0,0,.81-.29c.29-.32.33-.32.53,0s.22.25.41-.14l.17-.42-.09.46c-.05.25,0,.51.09.56a.44.44,0,0,1,.17.3c0,.14,0,.12-.16,0s-.18-.17-.32.08-.24.28-.29.21-.64.32-.51.52a.19.19,0,0,1-.08.27c-.25.17-.2.38.2.77.21.18.27.34.16.34s-.19.15-.16.37.16.37.29.34.12.14-.12.54-.29.65-.17.72.11.15,0,.23-.09.26.27.61.41.43.15.33a1.61,1.61,0,0,0-1.22,0c-.24.07-.39.05-.39,0s.17-.21.39-.24.32-.07,0,0-.42.1-.39.47,0,.48-.17.48,0,.1.22.22.44.31.44.42,0,.28,0,.36.17.22.36.27.31.19.25.27,0,.21.16.26.22.17.17.25,0,.15.13.15a1.27,1.27,0,0,1,.55.26c.28.22.28.24-.16.2s-.57,0-1,1.38a12.62,12.62,0,0,1-1.68,3.12,8,8,0,0,0-.62.81,17.07,17.07,0,0,1-1.09,1.32,5.52,5.52,0,0,0-1.54,2.5,5.73,5.73,0,0,1-.92,1.66c-.58.68-.64.87-.49,1.14s.12.44-.1.93-.28.71-.12,1a1.16,1.16,0,0,1,.1.73c0,.17,0,.36.07.41a1,1,0,0,1,.06.71c-.06.43,0,.66.14.76s.2.17,0,.31-.22.31,0,1.15a8.1,8.1,0,0,1,.24,1.58c0,.56.05.59.66.65.41,0,.63.13.63.3s.32.32.75.26c.08,0,.1.08,0,.23s0,.26.12.26c.42,0,.76.59.76,1.35a25.07,25.07,0,0,0,.19,2.8s.05.41.08.92.15,1,.41,1.14a3.43,3.43,0,0,1,.69.83c.36.56.36.62.11,1s-.43.5-1,.45c-.17,0-.3,0-.3.1,0,.29,1.39,1.74,1.56,1.64s1.32,1,1.32,1.36a2.16,2.16,0,0,1-.25.71,2.3,2.3,0,0,0-.26.75.71.71,0,0,0,.65.68c.39,0,1.56,1.35,1.56,1.81,0,.27.06.39.22.32a3.57,3.57,0,0,1,.52-.2c.26-.1.29-.24.21-.73s-.11-.74-.11-.91-.08-.29-.18-.29-.12.1-.07.2,0,0-.22-.19c-.32-.39-.34-.39-.42-.08s-.09.2-.11-.14.07-.51.16-.56c.25-.15.2-.42-.07-.42s-.48-1-.24-1.12a.38.38,0,0,0,.14-.25c0-.11-.07-.12-.17-.07s-.17-.09-.17-.31a4.51,4.51,0,0,0-.88-2c-.21-.1-.16-1,.06-1.19s.14-.25.07-.32-.19,0-.27.12-.17.17-.17-.12-.07-.42-.17-.47A.42.42,0,0,1,36,71.6c0-.1.12,0,.27.15s.26.31.15-.18-.23-.73-.4-.44-.22.06-.48-.33-.3-.61-.12-1.54c.24-1.19.29-1.25.7-1.08a1,1,0,0,0,.44.1c.24,0,.85.64.76.86a4,4,0,0,0,0,1.16,2.27,2.27,0,0,1-.1,1.37c-.21.42-.17.66.11.66.07,0,.09-.17,0-.39s0-.13.22.22a4.68,4.68,0,0,0,.53.82.74.74,0,0,1,.22.37c0,.08.13.19.32.25s.29.21.22.53,0,.44.29.53a.47.47,0,0,1,.35.39c0,.16.17.33.38.39s.34.11.08.52a1.61,1.61,0,0,0-.29.63c0,.22.65.83.88.83s.24.2.36.46a2.81,2.81,0,0,0,.65.9,5.16,5.16,0,0,1,.74,1,8.34,8.34,0,0,0,.68,1.12c.37.48.44.85.44,2.28,0,1,0,1.18-.29,1.18s-.29.75.16,1.41a2.94,2.94,0,0,0,1,.9,1.9,1.9,0,0,1,.75.7,2.51,2.51,0,0,0,1.73.78,1.84,1.84,0,0,1,.81.54,7.11,7.11,0,0,0,2.73,1.44.87.87,0,0,1,.46.21,3.81,3.81,0,0,0,1.55.81,2,2,0,0,1,.71.24c.49.25,1,.17,2-.31a2.41,2.41,0,0,1,.82-.27,3.1,3.1,0,0,1,2.19,1.41c1,1.41,1.56,1.81,2.49,2a4.5,4.5,0,0,1,1.17.3,4.23,4.23,0,0,0,2.36.65c.63,0,.74,0,.54.15s-.19.29.37.9c1.55,1.76,1.85,2.34,1.51,2.9-.22.34,0,.85.56,1.12s.53.22.68,0,.15-.27.17,0,.26.41.58.56c.59.29.88.68.61.85s0,.6.22.6a1.46,1.46,0,0,1,.58.37c.35.32.39.34.39.07s.08-.27.27-.21a2.13,2.13,0,0,0,.57.11.46.46,0,0,1,.34.74c-.23.24-.2.44.09.44s.2-.1.15-.25c-.15-.41.37-.14.68.35s.29.39.86.12.72-.49.34-1-.32-.46.26-.71c.29-.14.51-.34.51-.46a.44.44,0,0,1,.25-.32c.24-.09.37-1.12.15-1.12a11.34,11.34,0,0,0-1.18.59c-1.22.68-1.36.7-1.8.31-.22-.19-.31-.2-.31,0s0,.17-.23,0a.39.39,0,0,1-.17-.41c.05-.12-.12-.3-.36-.41s-.42-.3-.42-.45-.09-.26-.17-.26-.26-.2-.34-.47-.26-.63-.36-.82a.69.69,0,0,1,0-.71,2,2,0,0,0,.19-.78c0-.24.08-.44.17-.44s.17-.41.17-.9A3.32,3.32,0,0,1,70.27,94a1.8,1.8,0,0,0,.25-1,.42.42,0,0,1,.11-.46c.11-.07,0-.25-.29-.52s-.6-.53-.75-.67A4.63,4.63,0,0,0,66.94,91a3.53,3.53,0,0,1-1.91.06.42.42,0,0,0-.43.08c-.2.17-.3.17-.51,0a.45.45,0,0,0-.45-.07c-.12.07,0-.1.25-.39a2.58,2.58,0,0,0,.58-1.17,2.4,2.4,0,0,1,.27-.88c.08-.1.12-.2.07-.2s.08-.19.3-.43a1.3,1.3,0,0,0,.43-.66,2.31,2.31,0,0,1,.2-.73,2.86,2.86,0,0,0,.2-.76.67.67,0,0,1,.16-.41.74.74,0,0,0,.11-.41.77.77,0,0,1,.26-.51c.22-.18.24-.17.15.07-.15.39.15.34.41-.07.13-.22.13-.33,0-.33s-.12-.12,0-.36a1.08,1.08,0,0,0,.1-.75c-.1-.37-.16-.39-1.15-.34a12.09,12.09,0,0,0-2.19.33c-.88.23-1.17.37-1.32.71a2.65,2.65,0,0,0-.19.59,5.26,5.26,0,0,1-.4,1A2.59,2.59,0,0,1,59.77,87a10.32,10.32,0,0,0-2.55.58c-.3.17-.42.13-.78-.22a1.9,1.9,0,0,0-.88-.51c-.46-.1-.73-.51-1-1.56a2.09,2.09,0,0,0-.39-.82,1.89,1.89,0,0,1-.31-1,4.73,4.73,0,0,0-.19-1.14,1.67,1.67,0,0,1-.12-.76A13.11,13.11,0,0,1,55,77.25a3,3,0,0,0,.42-1.54c.11-1.55.48-2,2.7-3.33,2.48-1.49,3.36-1.81,3.78-1.39a2.24,2.24,0,0,0,1,.19c.6,0,.87.1.87.25a.28.28,0,0,0,.22.26c.71.08,1.24,0,1.34-.11s.68-.3.58-.13a.61.61,0,0,0,0,.42c.1.27.13.27.44,0s.34-.26,0-.56-.37-.31,0-.58a1.69,1.69,0,0,0,.39-.47c.1-.33,3.66-.38,4.17-.07a.8.8,0,0,1,.37.47c0,.43.56.48,1.06.1s1-.39,1.25.14a3.87,3.87,0,0,0,.46.68c.35.39.35.76,0,1.37a1.83,1.83,0,0,0-.18.88,3.91,3.91,0,0,0,.45,1.85c.09,0,.16.12.16.26a.92.92,0,0,0,.34.54,1.21,1.21,0,0,1,.34.76c0,.36.06.45.27.36a.36.36,0,0,1,.42.14c.14.2.19.2.31,0a1.69,1.69,0,0,0,.18-.42,1.33,1.33,0,0,1,.24-.51,3.89,3.89,0,0,0,.42-2.77A4.29,4.29,0,0,1,77,72.84a3.72,3.72,0,0,0-.19-1.2,4.26,4.26,0,0,1,2.56-5.08,5.62,5.62,0,0,0,1.21-1,1.8,1.8,0,0,1,1.13-.71.79.79,0,0,0,.54-.17,4,4,0,0,1,1.85-1c.51,0,1-.47.63-.66-.15-.1,0-.26.48-.48.64-.32.68-.32.51,0a.63.63,0,0,1-.46.34c-.16,0-.21,0-.09.08a.78.78,0,0,0,.55-.1c.3-.15.35-.34.35-1.32a3.33,3.33,0,0,0-.17-1.32c-.13-.14-.12-.34,0-.68a6.42,6.42,0,0,0,.25-.82c.11-.57.36-.64.33-.1a1.38,1.38,0,0,1-.22.71.87.87,0,0,0-.21.55c0,.32,0,.28.41-.16.22-.27.37-.57.32-.66s0-.1.09,0,.39-.09.64-.36a1.05,1.05,0,0,0,.36-1c0-.3,0-.59.06-.64s.16,0,.16.15c0,.39.1.34.91-.32A3.58,3.58,0,0,0,90,55.64c.22-.53.34-.59,1.18-.76,1.19-.26,2.14-.67,1.63-.7-.18,0,0-.14.48-.25a3.05,3.05,0,0,1,1.12-.14.38.38,0,0,0,.42-.1.59.59,0,0,1,.44-.19.46.46,0,0,0,.34-.74c-.12-.12-.17-.09-.17.11,0,.41-.32.36-.49-.1a.41.41,0,0,1,.08-.56.61.61,0,0,0,.24-.44c0-.51,1.1-1.25,2.55-1.75a15.73,15.73,0,0,0,1.81-.71,1.89,1.89,0,0,1,.88-.25c.5,0,.77-.29.33-.32s.39-.28,1-.38a6.41,6.41,0,0,0,1-.27c.27-.1.51-.12.56,0s-.43.41-1,.72c-1,.47-1.15.62-1.18,1.05a.92.92,0,0,0,.18.71c.27.27.77.32.77.07,0-.1.15-.17.34-.17s.34-.07.34-.15c0-.24,1.32-1.07,1.51-.95a.45.45,0,0,0,.39,0,16.14,16.14,0,0,1,3-1c0,.05.17-.07.3-.26a.83.83,0,0,1,.51-.34c.38,0,1.24-.54,1.24-.79a.24.24,0,0,0-.25-.22c-.31,0-.33-.07-.06-.51.17-.26.17-.38,0-.54s-.42,0-1.22.84c-.56.58-1,1-1,.89s-.16-.11-.38,0c-.46.15-1.88-.1-1.74-.32s.93-.16.93,0,.15.14.34.14.34-.07.34-.17.2-.28.47-.41c.46-.26.44-.26-.47-.27-1.09,0-1.41-.15-1.26-.6.09-.22,0-.27-.12-.22a.28.28,0,0,0-.2.27c0,.11-.07.16-.2.11-.33-.14-.33.17,0,.51s.32.42-.09.32-.54-.58-.46-1.14a2.57,2.57,0,0,1,.65-.9l.57-.57-.45.1c-.7.17-.58,0,.2-.36,1.36-.54,1-1.53-.56-1.47a12.35,12.35,0,0,0-4.29,1.32c-.95.56-1,.54-.37-.07a5.69,5.69,0,0,1,2.39-1.2,1.46,1.46,0,0,0,.79-.5,2.74,2.74,0,0,1,.92-.69,25.38,25.38,0,0,1,4-.15,17.88,17.88,0,0,0,3.68-.16,1.12,1.12,0,0,1,.49-.27,3.87,3.87,0,0,0,.85-.51,3.71,3.71,0,0,1,2.14-.78h.52l-.76.75a10.2,10.2,0,0,0-2,2.29c0,.1-.12.19-.25.19a.4.4,0,0,0-.36.25c-.07.14-.17.2-.25.15s-.66.31-.66.53c0,.05.17.07.39,0s0,.1-.36.36c-1.19.72-.93.91,1.41,1,4.32.18,4,.13,3.71.44s-.3.66,0,.66c.09,0,.14-.07.07-.15a.21.21,0,0,1,.08-.28c.11-.06.17,0,.16,0-.09.51,0,.68.44.59.64-.12,1.66-1.73,1.1-1.73a.18.18,0,0,0-.17.17c0,.09-.07.17-.13.17s-.16-.12-.16-.25.07-.21.14-.17.2,0,.32-.17.15-.26-.07-.26a1,1,0,0,0-.56.34,1,1,0,0,1-.45.34c-.09,0,0-.19.22-.41s.32-.42.15-.49,0-.07.29-.07.51-.05.56-.25,0-.25-.29-.19c-.43.11-.51-.35-.1-.52s.3-.43-.12-.61c-.22-.09-.29-.16-.17-.16s.17-.1.1-.22-.19-.08-.36.12-.22.22-.22.12a.23.23,0,0,0-.25-.2c-.14,0-.26.05-.26.13s-.22.14-.49.14-.47,0-.4-.2a.35.35,0,0,1,.32-.24c.46,0,.24-.31-.31-.41l-.56-.12.58-.49c.39-.32.63-.44.71-.32.15.27.36-.09.22-.43,0-.15,0-.27.07-.27s.2-.12.27-.25,0-.26-.37-.26-.39.05-.24.16,0,.13-.29.12a2.29,2.29,0,0,1-.52-.06,4.61,4.61,0,0,1,.76-.4c.71-.34.83-.48,1-1.38.28-1.08.23-1.3-.3-1.4s-.92-.77-.54-1-.22-.71-.82-.64c-.3,0-.47,0-.44-.17s-.78-.51-1.19-.38c-.17.05-.22,0-.11-.06.32-.26.27-.6-.16-1s-.4-.4-.12-.51a.71.71,0,0,0,.17-1c-.08-.05,0-.27.12-.49.24-.38.24-.41-.07-.58s-.34-.36-.34-.75a2.79,2.79,0,0,0-.25-1.07,2.45,2.45,0,0,1-.17-1.22c0-.39,0-.71,0-.71s-.59.51-.49.68,0,.12-.14.07-.66.32-1.22.86a5.17,5.17,0,0,1-1.19.94,3.74,3.74,0,0,0-.91.35c-.61.29-.77.31-1,.12-.61-.49-.9-.85-.94-1.14a3.6,3.6,0,0,1,.73-1.62.2.2,0,0,0,.07-.28c0-.08,0-.13.05-.11s.14,0,.14-.11-.22-.18-.51-.22a5.55,5.55,0,0,1-.9-.13c-.34-.09-.37-.14-.19-.36s.17-.29,0-.41a7.06,7.06,0,0,1-1.32-1.06.9.9,0,0,0-.48-.29c-.29,0-.29.34,0,.34.1,0,.07.08-.1.18s-.58.16-2.6-.22c-1-.17-1-.17-1.4.19a1.53,1.53,0,0,0-.43.78,1.51,1.51,0,0,1-1.07,1.22c-.68.27-.73.44-.12.29.41-.1.45-.09.33.29a2.1,2.1,0,0,0-.14.61c0,.12,0,.22-.12.22a4.22,4.22,0,0,0-.86.59,5,5,0,0,1-.88.6,1.18,1.18,0,0,0-.63.57c0,.05.07.1.17.1a1.69,1.69,0,0,1,1,1.06,4.74,4.74,0,0,1-1,2,10.38,10.38,0,0,1-3.6,1.68l-1,.17.08.74c0,.44,0,.75-.08.75s-.17.19-.17.41a.79.79,0,0,1-.14.51,1.11,1.11,0,0,0-.17.64,1.27,1.27,0,0,1-.54.95c-.29.22-.48.48-.42.56s0,.15-.07.15-.19-.1-.24-.22-.2-.08-.51.21c-.46.42-.8.35-.8-.16a.82.82,0,0,0-.28-.54.78.78,0,0,1-.33-.47,2.06,2.06,0,0,0-.15-.55c-.1-.25,0-.27.37-.15,1,.29,1,.29,1-.15s-.07-.43-.53-.41-.52,0-.46-.29a.86.86,0,0,1,.24-.42c.09-.05.15-.27.15-.51s.07-.41.14-.41.73-1,.56-1.08a8.2,8.2,0,0,0-1.48-.19,3.9,3.9,0,0,1-1.57-.32,4,4,0,0,0-1-.48c-.4-.12-.73-.32-.73-.42,0-.31-.57-.85-1-1-.2-.06-.64-.22-1-.35a1.44,1.44,0,0,0-1.19-.09,4.82,4.82,0,0,1-.73.19c-.13,0,.06-.88.34-1.58s.12-.79-.59-.79c-.32,0-.58-.06-.58-.11a12.85,12.85,0,0,1,1.67-2.1,7.39,7.39,0,0,0,1.12-.76,5.76,5.76,0,0,1,1.47-.85c.26-.07.51-.2.56-.34s.36-.29.68-.36.61-.17.61-.25.1-.14.22-.12.19-.05.15-.19.1-.22.9.07c.24.09.27.07.1-.05s-.08-.2.36-.36a1.81,1.81,0,0,0,.81-.52A.83.83,0,0,1,90,22.8a.74.74,0,0,0,.46-.19,2.11,2.11,0,0,1,1-.25,7.39,7.39,0,0,0,3.34-1.55,5.66,5.66,0,0,1,1.7-1.06,6.71,6.71,0,0,1-.94,1,5.73,5.73,0,0,0-1,1.16c0,.1-.34.28-.76.4-.92.27-.93.63,0,.56.58,0,.63,0,.53.29-.14.48.29.48,1.15,0a2.81,2.81,0,0,1,.88-.34,1,1,0,0,0,.55-.34c.35-.36,1.1-.31,1,.08s1.16.5,1.87.24c.49-.17.56-.27.42-.51a.34.34,0,0,0-.39-.22c-.13.05-.27-.07-.32-.3a2.78,2.78,0,0,0-1.53-1.19c-.22-.1-.27-.24-.18-.59a3.27,3.27,0,0,1,.18-.56c.11-.12.38.39.29.54s0,.15.66.2c.11,0,.21-.13.23-.32,0-1,0-1,.39-.58s.33.38.44.11a.48.48,0,0,1,.4-.29,2.24,2.24,0,0,0,.77-.26,2.31,2.31,0,0,1,.68-.25,1.35,1.35,0,0,0,.61-.43c.3-.32.34-.45.2-.64s.15-.7.92-1a1.49,1.49,0,0,0,.69-.59c.17-.37.15-.42-.12-.42-.59,0-.52-.33.1-.5a1.32,1.32,0,0,1,1.11.07,1.62,1.62,0,0,0,1,.15c.63-.12.9.22.31.38s-1,.57-.59.57c.15,0,.08.14-.17.36s-.34.39-.28.46.17,0,.21-.1a.37.37,0,0,1,.32-.21c.22,0,.31-.2.25-.56,0-.07.07-.12.16-.12A3.72,3.72,0,0,0,107.94,15c0-.1-.13-.12-.28-.05-.63.26-.9.29-.9.1s.18-.18.42-.18a.57.57,0,0,0,.59-.39c.09-.21.16-.28.16-.17a.26.26,0,0,0,.27.22c.15,0,.2.1.13.29s0,.23.09.15.2,0,.2,0,.21.27.48.42l.46.29h-.48c-.27,0-.44-.06-.37-.15.15-.27-.26-.41-.53-.18s-.19.27-.05.44a.38.38,0,0,1,.05.42c-.08.15,0,.17.48.09s.59-.06.59.15-.19.25-.71.25c-1.14,0-2.38.82-2,1.36s2.46-.12,2.46-.59a.6.6,0,0,1,.24-.41c.19-.15.24-.14.2.1s.14.32.63.36.63,0,.63-.21-.17-.27-.38-.3a.58.58,0,0,1-.44-.31c-.06-.22,0-.22.17,0s.29.17.36,0,.1-.17.1,0a.34.34,0,0,0,.36.22c.25,0,.32.09.27.38a3.77,3.77,0,0,0-.09.67.32.32,0,0,1-.3.31,1,1,0,0,0-.54.22,4.66,4.66,0,0,1-1.12.54c-1.06.38-1.24.53-1,.8s.25.46-.09.46a5.75,5.75,0,0,0-.93.15,3.81,3.81,0,0,1-1.51,0,1.89,1.89,0,0,0-1.49.15c-.9.46-1.27.87-1,1.14a1.78,1.78,0,0,0,1.76.2,4.86,4.86,0,0,1,1.31-.17l1,.05c.22,0,.34.09.29.19s0,.17.17.17.25.12.22.29a1.17,1.17,0,0,0,.32.73,1.37,1.37,0,0,1,.39.71c0,.41.26.51.75.29s.49-.14.88.17a1.8,1.8,0,0,0,.85.36,4.94,4.94,0,0,1,1.25.33,2.29,2.29,0,0,0,.85.26c0-.05.16.07.36.27.41.41.85.19.71-.36-.1-.35-.56-.47-.56-.15,0,.1-.1.15-.2.1a.33.33,0,0,1-.17-.39,1,1,0,0,0-.39-.71,1.26,1.26,0,0,1-.43-.53c0-.08-.15-.18-.33-.23a.44.44,0,0,1-.34-.39c0-.27,0-.27.34,0s.39.26.45.21.22,0,.36.24.27.3.51.11.22-.13.15,0,.05.24.29.31a.7.7,0,0,1,.49.44.4.4,0,0,0,.73.15.29.29,0,0,0-.12-.34c-.17-.1-.18-.15,0-.15s.21-.16.21-.34.08-.29.24-.24a.53.53,0,0,0,.5-.2c.26-.24.26-.33,0-.65a.6.6,0,0,1-.07-.68c.19-.34,0-.61-.56-.61-.29,0-.49-.3-.59-.9,0-.17,0-.28.18-.28.31,0,.33-.19,0-.5s-.16-.2,0-.12a.38.38,0,0,0,.43-.05c.27-.22,1,.41,1.1.92s.37.81.51.7.22,0,.39.06a.69.69,0,0,0,1-.4c.12-.31.24-.36.75-.31s.61,0,.61-.13a.9.9,0,0,1,.71-.68,1.59,1.59,0,0,0,.63-.33l.39-.3-.48-.34a1,1,0,0,0-.73-.25c-.13,0-.18,0-.11-.12s0-.19-.12-.19a1.3,1.3,0,0,1-.63-.44c-.29-.29-.53-.39-.8-.32A.48.48,0,0,1,118,17a2,2,0,0,0-.68-.42c-.32-.14-.58-.3-.58-.37s.8-.6,1-.48.56-.07.32-.37-.17-.27,0-.32c.56-.21-.15-1.14-1.07-1.39a1.59,1.59,0,0,0-.8-.09c-.07,0-.13,0-.13-.19s-.07-.23-.16-.18-.18,0-.23-.24-.24-.34-.84-.34a2.18,2.18,0,0,0-1,.2c-.2.19-.2.17,0-.08s.17-.29,0-.29-.15-.08-.1-.17,0-.17-.16-.17a.27.27,0,0,1-.27-.25c0-.14-.17-.29-.37-.32s-.54-.12-.73-.16-.2-.08.14-.1.45-.12.45-.24c0-.49-.59-.74-2-.84-1.1-.09-1.41-.06-1.64.17s-.31.25-.31,0-.83-.38-2.37,0c-1.29.29-1.61.31-1,.05l.42-.17-.42-.17c-1.15-.44-4.41.56-5.8,1.8a1.11,1.11,0,0,1-.43.27c-.15,0-.79.85-.69.92a6,6,0,0,0,1,.22l.93.19-1,0c-1.13,0-1.34.19-.76.73a.76.76,0,0,0,.71.26c.22-.07.29,0,.22.08s0,.24,1,.22c.38,0,.56,0,.43.09a1.13,1.13,0,0,0-.73.93c0,.22-.17.39-.31.39a2.54,2.54,0,0,0-.84.47c-.63.48-.94.6-.75.29,0-.1,0-.17-.14-.17s-.9.65-.73.8-.13.22-.44.34-.56.19-.68,0c-.22-.36-.06-.72.41-1,1-.48.65-1.6-.39-1.24-.47.15-.51.15-.41-.15s0-.34-.23-.34-.51-.6-.17-.72c.15,0,.15-.17,0-.45s-.17-.45,0-.62,0-.93-.3-1c-.16,0,0-.13.44-.3a2.13,2.13,0,0,0,.84-.48,2.19,2.19,0,0,1,1.06-.25c1.15-.12,3.74-1.27,3.37-1.51a2.35,2.35,0,0,0-.91-.15,12.26,12.26,0,0,1-1.36-.1c-.82-.11-2.05.13-2,.4,0,.1-.07.16-.22.09a.77.77,0,0,0-.63.24,2.42,2.42,0,0,1-.7.45.32.32,0,0,0-.22.43c.1.39-.39.88-1.18,1.2-.31.12-.56.26-.56.32s-.16.12-.36.14c-.48,0-1.17.51-1.17.8,0,.12-.19.32-.43.44s-.42.35-.39.57-.05.38-.42.41a1,1,0,0,1-.8-.22c-.25-.22-.37-.24-.78-.05a1.67,1.67,0,0,0-.62.42,1.43,1.43,0,0,1-.8.33c-.73.12-.93.51-.31.61a.54.54,0,0,1,.44.29c0,.15,0,.18-.28.1s-.46,0-.73.29-.55.4-2.31.44c-1.56,0-1.93,0-2-.24s-.2-.2-.41-.15c-.45.15-.81-.1-.39-.27s.31-.12,0-.24a.33.33,0,0,0-.44.08c-.1.16-.15.12-.2-.17a.56.56,0,0,0-.29-.47c-.14-.05-.19,0-.14.08s-.11.14-.4.09L79.6,16l.46-.24c.32-.17.52-.18.64-.07s.49.23.36,0c0-.08,0-.11.15-.06a.53.53,0,0,1,.32.3c0,.14.48.22,1.14.24a3.64,3.64,0,0,1,1.31.22c.18.15.32.12.61-.17a1.54,1.54,0,0,1,.59-.36c.24,0,.25-.1,0-.49-.12-.22-.08-.29.17-.3a.26.26,0,0,1,.32.22c0,.13,0,.24.1.24a2.44,2.44,0,0,0,1.09-.9c0-.19-.71-.58-1.56-.85-.41-.14-.39-.41,0-.63a.61.61,0,0,0,.34-.42c0-.58.75-1.38,1.63-1.77a2.9,2.9,0,0,0,.92-.52c0-.19-.46-.34-1-.34s-1.53.35-1.22.45c.1.06.2.16.2.24s-.13.1-.32,0a1.55,1.55,0,0,0-1.92.37,4.07,4.07,0,0,0-.66.93c-.08.22-.22.39-.3.39s-.16-.32,0-.64c.08-.14,0-.36-.17-.56-.36-.39-1.09-.44-1.09-.07s-.24.32-1.14,0a1.55,1.55,0,0,0-1.27-.08c-.44.15-.51.15-.34,0s.26-.47-.1-.47a.76.76,0,0,1-.54-.43c-.27-.51-.65-.64-1.87-.69-.51,0-1.66-.09-2.54-.12A13.86,13.86,0,0,0,71.93,9.35Zm32.71,1.49a2.69,2.69,0,0,0-.84.81l-.3.55-.17-.43c-.08-.22-.08-.44,0-.45l.73-.39a2.88,2.88,0,0,1,.85-.33C105,10.6,104.92,10.7,104.64,10.84Zm4.71.27c.09.32.19.36.83.27s.66-.08.31.09a5.41,5.41,0,0,1-1.19.2c-.75,0-.76,0-.46-.29s.26-.37.21-.45,0-.17,0-.17S109.3,10.93,109.35,11.11Zm-6.27,1c-.16,0-.17.17-.06.41s0,.47-.25.15,0-.68.29-.66S103.23,12,103.08,12.06Zm10,.22a.44.44,0,0,1-.39.15c-.24,0-.22,0,0-.15C113.24,12.1,113.24,12.1,113.12,12.28Zm2.46,1.36a1.44,1.44,0,0,1-.6.15c-.27,0-.27,0,.09-.15C115.66,13.45,115.88,13.45,115.58,13.64Zm1.76.71c-.08.14,0,.15.19.07a.35.35,0,0,1,.44.1c.1.17-.15.27-1,.43-1.33.23-1.62.18-.48-.11.42-.1.75-.25.75-.32s0-.37.12-.37S117.41,14.23,117.34,14.35Zm-16.91.07a.34.34,0,0,1-.32,0c-.14,0-.09-.11.1-.11S100.5,14.37,100.43,14.42Zm16.17.14s-.16.1-.34.15-.31,0-.24-.07S116.6,14.42,116.6,14.56Zm-57.22.2a.34.34,0,0,1-.32,0c-.14-.06-.09-.11.1-.11S59.45,14.71,59.38,14.76Zm44.15.07c0,.08-.17.17-.37.17s-.34,0-.14-.17S103.53,14.61,103.53,14.83Zm2.51-.05a1.94,1.94,0,0,1-.59,0c-.17-.06,0-.09.29-.09S106.2,14.72,106,14.78Zm-48,.22a1.2,1.2,0,0,1-.51.15c-.17,0-.13-.05.09-.15C58.11,14.79,58.38,14.79,58.07,15Zm37,0a.18.18,0,0,1-.17.17.19.19,0,0,1-.17-.17.17.17,0,0,1,.17-.17A.16.16,0,0,1,95.05,15Zm-2.88.37c0,.07-.19.25-.43.41-.52.34-.56.64-.06.52.2-.05.3,0,.22,0a10.53,10.53,0,0,1-2.16.76.91.91,0,0,0-.63.53c-.11.28-.23.39-.44.3s-.27-.12,0-.32.24-.31.15-.44-.06-.17,0-.1.8-.17.68-.36.27-.24.69-.34.72-.27.67-.36a.22.22,0,0,0-.29-.06c-.1.06-.14,0-.1-.21s.18-.3.42-.27.41,0,.46-.12S92.17,15.17,92.17,15.37Zm-37.83.22c-.78.31-1.22.31-.68,0a2,2,0,0,1,.85-.24C54.88,15.37,54.85,15.39,54.34,15.59ZM118,15.47c0,.07-.27.1-.59.07a1.34,1.34,0,0,1-.6-.14,1.68,1.68,0,0,1,.6-.06C117.68,15.34,118,15.4,118,15.47Zm-22.32.58c-.1.35-.43.69-.53.57a1.78,1.78,0,0,1,.51-1C95.7,15.67,95.7,15.84,95.63,16.05Zm13.25,0a.38.38,0,0,1-.27.17c-.11,0-.12-.08-.07-.17a.34.34,0,0,1,.27-.17C108.91,15.84,108.93,15.91,108.88,16Zm-5.18.17a.18.18,0,0,1-.18.17c-.09,0-.12-.08-.07-.17s.13-.17.19-.17S103.7,16.08,103.7,16.18Zm6.23-.06a.35.35,0,0,1-.32,0c-.14-.05-.09-.1.1-.1S110,16.06,109.93,16.12ZM98.19,17.18a.36.36,0,0,1-.29.19c-.1,0-.1-.1,0-.25S98.38,16.9,98.19,17.18Zm-10.6.09s-.12.1-.26.17-.25,0-.25-.07.12-.17.25-.17S87.59,17.24,87.59,17.27Zm22.69.05a1.94,1.94,0,0,1-.59,0c-.17-.05,0-.08.29-.08S110.44,17.27,110.28,17.32Zm-33.55.83s-.15.07-.35.07-.31-.07-.24-.17S76.73,18,76.73,18.15Zm11.83.17a.37.37,0,0,1-.33,0c-.13-.05-.08-.1.1-.1S88.62,18.27,88.56,18.32Zm-23.62.24c-.18.07-.59.24-.91.35-.56.21-.56.23-.17.38a3.31,3.31,0,0,0,1.25,0l.85-.1-.54.34a2.38,2.38,0,0,1-1.21.32c-.81,0-1.42.17-1.3.39s-.27.24-.65.17a2.69,2.69,0,0,0-.74.24c-.34.13-.65.22-.7.17s1.17-.63,1.43-.53a.28.28,0,0,0,.33-.1c.21-.32-1.28,0-1.83.41s-.57.3-.86.17-.32-.19-.07-.19.29-.1.29-.19.15-.17.32-.17A1,1,0,0,0,61,20a.78.78,0,0,1,.56-.22h.63c.63-.07-.07-.54-.73-.51l-.61,0,.56.07c.29,0,.54.13.54.23s0,.16,0,.16-.47-.12-1-.24L60,19.3l1.36-.22c.75-.11,1.85-.32,2.46-.44C65.13,18.37,65.42,18.35,64.94,18.56Zm47.24,0c0,.09.21.2.45.26.59.15.33.37-.56.49-.61.07-.7.05-.6-.21C111.68,18.56,112.18,18.17,112.18,18.54Zm8.72.17c.07.09-.05.12-.23.07-.39-.1-.44-.22-.11-.22A.44.44,0,0,1,120.9,18.71Zm-96,.29a.34.34,0,0,1-.32,0c-.13-.05-.08-.11.1-.11S25,19,24.94,19Zm72.61.61c0,.31,0,.46-.07.34a.52.52,0,0,0-.43-.2c-.2,0-.3-.06-.25-.12s0-.21-.07-.34-.08-.22.31-.22S97.55,19.12,97.55,19.61Zm-4.11.58c.34.25.34.27-.07.2a.65.65,0,0,1-.49-.27C92.8,19.85,93,19.86,93.44,20.19ZM21.35,21.27a.42.42,0,0,1-.31.17c-.12,0-.1-.07.05-.17C21.42,21.07,21.48,21.07,21.35,21.27Zm85.07.19c0,.08-.12.15-.26.15s-.2-.1-.15-.25S106.42,21.17,106.42,21.46Zm2.12,1.34a.38.38,0,0,1-.27.17.17.17,0,0,1-.16-.17c0-.1.12-.17.27-.17S108.59,22.7,108.54,22.8Zm-44,2c.29.25,1.15.15,2.24-.22.19-.07,0,.08-.51.34a6.14,6.14,0,0,1-1.7.59,2.1,2.1,0,0,0-1,.39,6,6,0,0,1-3.14.27c-.22-.15-.22-.17,0-.18A3.57,3.57,0,0,1,61,26a1.43,1.43,0,0,0,.76-.27,3.7,3.7,0,0,1,1-.41c.53-.08.6-.15.65-.62s.08-.55.42-.34A6.61,6.61,0,0,1,64.57,24.82Zm49.26.63a.35.35,0,0,1-.32,0c-.14-.05-.09-.1.1-.1S113.9,25.39,113.83,25.45Zm-87.48.67s-.12.07-.25.07-.26-.07-.26-.17.12-.12.26-.07S26.35,26.09,26.35,26.12Zm-1.41.17a.34.34,0,0,1-.32,0c-.13,0-.08-.1.1-.1S25,26.24,24.94,26.29Zm-.71.24c-.15.24-.76.54-.76.39s.41-.37.81-.54C24.32,26.38,24.28,26.43,24.23,26.53Zm-5.46,1.65a1.45,1.45,0,0,1-.51,0c-.17-.05-.07-.09.2-.09S18.87,28.13,18.77,28.18Zm1-.05s-.16.1-.34.15-.31,0-.24-.07S19.74,28,19.74,28.13ZM37,29.5c0,.05-.15,0-.2-.2s-.08-.26.09-.11S37.06,29.45,37,29.5Zm.29.42c.05.09,0,.17-.06.17a.38.38,0,0,1-.28-.17c-.05-.1,0-.17.07-.17A.34.34,0,0,1,37.29,29.92Zm-.85.34a.4.4,0,0,0,.07.41c.14.15.12.22-.07.22s-.2-.07-.15-.14,0-.18-.12-.25-.12-.15,0-.25S36.56,30.06,36.44,30.26Zm-21.79.17c0,.09,0,.17-.07.17s-.14-.08-.19-.17,0-.17.07-.17A.18.18,0,0,1,14.65,30.43Zm23.24.77c-.24.28-.78.34-.92.1s0-.12.22-.07a.41.41,0,0,0,.43-.1.42.42,0,0,1,.3-.19C38,30.94,38,31,37.89,31.2Zm-.24.62c.07.11.05.14-.07.07s-.25,0-.34.17-.18.22-.27.09,0-.19.07-.19.13-.09.08-.17,0-.17.16-.17A.46.46,0,0,1,37.65,31.82Zm-1.12.55a1.06,1.06,0,0,1-.29.28c-.27.23-.29.21-.07-.06S36.53,32.23,36.53,32.37Zm.68.69c0,.14,0,.26-.07.26s-.1-.12-.17-.26,0-.25.07-.25S37.21,32.93,37.21,33.06Zm1.13-.15a.34.34,0,0,1-.32,0c-.13,0-.08-.11.1-.11S38.41,32.86,38.34,32.91Zm-2,1.31-.22.4s0-.17,0-.44.07-.47.22-.41S36.48,33.94,36.33,34.22Zm35.58,2a7.06,7.06,0,0,1-.45,2.69c-.09,0-.16,0-.16-.13a.88.88,0,0,0-.15-.36c-.12-.18-.22-.2-.41-.05s-.23.15-.23,0a2.64,2.64,0,0,0-.12-.59c-.1-.29,0-.41.27-.53l.39-.16h-.37c-.51,0-.5-.12.08-.62S71.73,35.91,71.91,36.22Zm42.48-.12a1.76,1.76,0,0,1-.54.25c-.51.17-.53.16-.24-.07S114.39,36,114.39,36.1Zm-77.69.61c0,.08,0,.17-.07.17s-.13-.09-.19-.17,0-.17.07-.17A.18.18,0,0,1,36.7,36.71Zm34.77,3a3.55,3.55,0,0,1-.51.59c-.32.32-.5.43-.5.27A1.14,1.14,0,0,1,70.9,40C71.35,39.59,71.47,39.52,71.47,39.68Zm-33,2c0,.19.18.36.54.47s.51.24.34.41-.15.21,0,.21.2.17.2.37,0,.32-.15.15a.27.27,0,0,0-.36-.1c-.13.08-.18,0-.13-.1s-.12-.44-.36-.68c-.47-.46-.63-1-.27-1C38.43,41.46,38.51,41.58,38.5,41.73Zm42,1.53c.16.05.21.23.17.49a.64.64,0,0,0,.92.64c.25-.1.27-.06.1.16s-.17.3-.12.35,0,.24,0,.41a2.08,2.08,0,0,0-.24.81.25.25,0,0,1-.2.26c-.11,0-.16-.12-.09-.26S81,45.9,80.33,46a4.41,4.41,0,0,0-1.09.25,1.08,1.08,0,0,1-1.22-.3.42.42,0,0,0-.39-.24c-.2,0-.12-.12.27-.36.63-.37.6-.59-.07-.42-.27.07-.39.19-.32.3s0,.14-.07.07-.44,0-.74.17a5.2,5.2,0,0,1-1.07.43c-.27.06-.7.18-.93.25-.43.1-.43.1-.09-.17s.31-.29-.37-.22a2,2,0,0,1-.73,0,9.79,9.79,0,0,1,2.59-1.27,3.18,3.18,0,0,0,.9-.35.35.35,0,0,1,.29-.16c.1,0,0,.12-.15.26s-.24.25-.12.25c.36,0,1.07-.32,1.07-.49s-.1-.14-.24-.08a.32.32,0,0,1-.37-.12c-.07-.12,0-.17,0-.11a2.65,2.65,0,0,0,1.09-.22A2.73,2.73,0,0,1,80.51,43.26ZM39,43.85a1.07,1.07,0,0,1-.65.14c-.35,0-.42-.05-.2-.11a1.32,1.32,0,0,0,.49-.23C38.82,43.48,39.11,43.63,39,43.85Zm65.14.49c.13.22-.09.22-.43,0s-.22-.17,0-.17A.48.48,0,0,1,104.13,44.34Zm1.78,2.31s-.15.07-.36.07-.3-.07-.24-.17S105.91,46.5,105.91,46.65ZM83.6,47c.1,0-.18.07-.63.07s-.81,0-.81-.12S83.21,46.84,83.6,47Zm-3.14.19a4.89,4.89,0,0,1-1.29,1.22c-.56.15-.74.29-1.3.95a3.16,3.16,0,0,0-1,2.09c0,.28-.25.67-.74,1.17-.82.83-1.28.95-1.31.35,0-1,.69-2.39,2.14-4,.71-.8.86-1.23.25-.68-.13.12-.07,0,.17-.26s.53-.44.71-.4a.8.8,0,0,0,.6-.14C79.16,47.17,80.46,46.94,80.46,47.16Zm2.89.51c.56.23.61.23.88-.09.42-.52.92-.46,1.14.17.4,1.17-.34,1.83-1,.83-.38-.64-.72-.68-.6-.06.07.35,0,.55-.44.91a2,2,0,0,0-.63.9c-.1.37-.71,1-1,1a1.73,1.73,0,0,1,0-.73c0-.63,0-.71-.3-.66a1.45,1.45,0,0,0-.61.3.82.82,0,0,1-.41.24c-.07,0,.22-.34.66-.76s.75-.85.7-.94a.18.18,0,0,1,.08-.25c.29-.19.19-.43-.25-.63-.24-.1-.43-.3-.43-.44s.16-.22.82-.12A7,7,0,0,1,83.35,47.67Zm.4-.24a.34.34,0,0,1-.25.14.15.15,0,0,1-.15-.14c0-.09.12-.15.25-.15S83.81,47.34,83.75,47.43Zm5.53,2.63c0,.56-1,.95-2.12.81a5.14,5.14,0,0,0-1.49.05c-.81.22-.81,0,0-.42a4.21,4.21,0,0,1,1.78-.31c.63,0,1.14,0,1.14-.13s.15-.12.34-.12S89.28,50,89.28,50.06Zm-3.9,1.66a10.3,10.3,0,0,1-2.54,1.22c-1.65.63-2.34.77-2.72.56s-.44-.51,0-.51c.19,0,.34.11.34.21s0,.17.14,0a4.52,4.52,0,0,1,1.14-.71,2.59,2.59,0,0,1,1.78-.42c.54.07.69.05.52-.07s-.12-.19.34-.26.68-.08.8-.08S85.38,51.67,85.38,51.72Zm-4.32.93a.58.58,0,0,1-.44.17c-.17,0-.33-.08-.33-.17s.21-.17.45-.17S81.13,52.55,81.06,52.65Zm4.75,6.13c.18.29,0,.35-.26.07s-.13-.26,0-.26A.38.38,0,0,1,85.81,58.78Zm0,2.86c0,.11,0,.12-.16.07-.3-.12-.35-.24-.11-.24A.33.33,0,0,1,85.81,61.64Zm-20,8.49c0,.08,0,.17-.17.17s-.22-.09-.17-.17a.29.29,0,0,1,.17-.17S65.74,70,65.79,70.13Zm1.92,27.54c.17.39.15.41-.41.39s-.54-.06-.3-.23.27-.22,0-.33a.46.46,0,0,1-.29-.42c0-.31,0-.31.39-.07A1.89,1.89,0,0,1,67.71,97.67Z"/><path class="cls-1" d="M94.12,9.77a13.28,13.28,0,0,1-1.53.19,6.92,6.92,0,0,0-1.34.27c-.52.19-.61.25-.39.39.41.22.15.64-.4.64-.28,0-.5-.08-.5-.17s-.61-.22-1,0-.24.6.54,1c.43.2.58.39.56.68,0,.46,0,.46,2.1,0A2.9,2.9,0,0,0,94,11.82a2.49,2.49,0,0,0,.76-1.06.31.31,0,0,1,.26-.34c.27,0,.29-.11.12-.51C95,9.69,94.81,9.67,94.12,9.77Zm.25,1.17c.22.15.22.17,0,.1a.28.28,0,0,0-.36.11c0,.1-.1.06-.17-.11S94,10.65,94.37,10.94Z"/><path class="cls-1" d="M18.94,29.65a8.28,8.28,0,0,0-1,.49.85.85,0,0,1-.49.12.88.88,0,0,0-.6.26c-.12.13-.27.22-.34.17-.22-.14-1.18.27-1.35.57-.24.46.05.77.61.61.27-.08.61-.15.74-.18a4.19,4.19,0,0,0,.6-.22,10.53,10.53,0,0,1,1-.43c.54-.22.71-.44.66-.95,0-.05.26-.06.58,0,.53.07.58,0,.58-.37a1.19,1.19,0,0,0,0-.43S19.43,29.45,18.94,29.65Z"/><path class="cls-1" d="M73,80.49l-1.22.34a2.64,2.64,0,0,0-1.09.51.84.84,0,0,1-.56.32c-.23,0-.23,0,0,.17s.18.19-.12.27c-.51.14-.49.34,0,.44a1.09,1.09,0,0,0,.8-.22,1.51,1.51,0,0,1,.68-.32,1.34,1.34,0,0,0,.66-.34,1.44,1.44,0,0,1,1.09-.32c.39,0,.56,0,.4.1s-.3.14-.3.22,1,.51,1.53.51a4.48,4.48,0,0,1,1.1.42,2.27,2.27,0,0,0,1.24.31c.3-.07.37,0,.37.34a1,1,0,0,0,.25.63.67.67,0,0,1,.26.42.7.7,0,0,0,.25.42.44.44,0,0,1,.19.45c-.12.28,3.46.2,4.22-.09l.5-.2-.5-.41a2.06,2.06,0,0,0-1-.42c-.3,0-.44-.09-.42-.28s-.22-.35-.71-.49c-.72-.22-1.73-1.07-1.73-1.47,0-.11,0-.16-.1-.09s-.23,0-.36-.13c-.29-.31-.8-.34-.63,0,.09.13,0,.15-.17.08a1.71,1.71,0,0,0-.54-.12c-.14,0-.22-.08-.19-.2C77.05,80.78,74,80.17,73,80.49Zm6.19,3.88c.07.11-.12.17-.41.17s-.52-.08-.52-.17.19-.16.41-.16S79.14,84.27,79.19,84.37Z"/><path class="cls-1" d="M84.23,85.22c-.56.27-.58.51,0,.51.22,0,.3.14.3.48a1.12,1.12,0,0,0,.21.68c.32.32-.31.44-1.34.25-.82-.15-.93-.14-1.07.14s-.07.35.37.56.89.35.75.13c0-.07.37-.13.93-.12.94,0,1.07.05,1.38.48l.34.47.42-.59c.41-.61.64-.75.76-.44,0,.1.24.07.53-.09.49-.25,1.53-.2,1.61.09a.4.4,0,0,0,.34.17c.14,0,.2,0,.15-.12s0-.21.19-.32.24-.28-.34-.84a2.15,2.15,0,0,0-1-.59c-.2,0-.35-.1-.35-.24,0-.34-1.39-.67-2.31-.52-.56.08-.85,0-1-.14S84.7,85,84.23,85.22Z"/></g></g></svg>