<svg xmlns="http://www.w3.org/2000/svg" viewBox="0 0 1271.65 613.95"><defs><style>.cls-1{fill:#fff;}.cls-2{font-size:103.65px;}.cls-2,.cls-3{font-family:CourierNewPSMT, Courier New;}.cls-3{font-size:110.62px;}</style></defs><g id="Layer_2" data-name="Layer 2"><g id="Layer_1-2" data-name="Layer 1"><rect class="cls-1" x="9.59" y="9.52" width="1247.63" height="590"/><path d="M1271.65,614q-318-.94-634.24-4.77Q321.55,605.4,9.59,600H9.1v-.49L.14,9.52,0,0,9.59.07,1257.22,9h.48l0,.5c3.31,98.37,6.65,198,9.16,299S1271,511.57,1271.65,614Zm-28.86-28.86c.63-94.29,2.24-188.84,4.77-284.57s5.85-192.7,9.16-291l.5.5L9.59,19,19,9.52l-8.95,590-.5-.5q311.87-5,619.82-9.16Q937.42,586.07,1242.79,585.09Z"/><text class="cls-2" transform="translate(37.11 105.22)">Merchantry</text><text class="cls-3" transform="translate(29.48 257.15)">Population</text><rect x="9.59" y="153.18" width="1247.63" height="10.21"/></g></g></svg>