<svg xmlns="http://www.w3.org/2000/svg" viewBox="0 0 60.46 99.38"><defs><style>.cls-1{fill:#969696;}</style></defs><g id="Layer_2" data-name="Layer 2"><g id="Basemap"><path class="cls-1" d="M12.81.08c-.28.11-.47.29-.47.48s-.1.3-.24.3a1.71,1.71,0,0,0-.66.34,1.74,1.74,0,0,1-1,.34c-.39,0-.67.09-.72.26S9.46,2,9.22,2c-.7-.17-1.63,1.22-1.48,2.17,0,.09-.07.14-.17.14a1,1,0,0,0-.66.62c0,.09-.22.29-.51.45s-.46.39-.39.59-.22-.07-.64-.51A4.41,4.41,0,0,0,3.16,4.09c-.08,0-.15.22-.15.47a.73.73,0,0,0,.42.72A1.3,1.3,0,0,1,4,5.82c0,.18.17.25.29.18s.12,0,0,.16a1.13,1.13,0,0,0,.26,1.35,2.23,2.23,0,0,1,.44.65,10.68,10.68,0,0,1,.12,3.65c-.12.06-.11.22,0,.44S5,13.76,4.69,13.76c-.09,0-.15.1-.15.22s-.27.32-.6.46-.59.33-.59.61a.55.55,0,0,1-.26.47c-.18.07-.23.22-.16.49s0,.44-.67.7-.78.34-.78.95c0,.41-.08.68-.25.74a.59.59,0,0,0-.26.51.68.68,0,0,1-.33.61c-.19.11-.31.26-.26.36.22.34.24,1.51,0,1.51s.06.22.36.49a2,2,0,0,1,.54.68.19.19,0,0,0,.17.19c.11,0,.17-.09.17-.21s0-.15.09-.1-.1.65-.31.65a3.1,3.1,0,0,0-.85.71c-.59.66-.64.8-.54,1.41a2.31,2.31,0,0,0,.34.95c.29.3.34.66.09.66-.45,0-.09.52.57.86a2.54,2.54,0,0,1,1.22,1.24c.26.48.63,1.09.83,1.38A12.73,12.73,0,0,1,4,32.08a12.61,12.61,0,0,0,.88,1.73,1.68,1.68,0,0,1,.31.68,1,1,0,0,0,.33.56,1,1,0,0,1,.34.61.48.48,0,0,0,.16.39,5.78,5.78,0,0,1,1.3,2.24c-.15.4.21,1.06,1,1.89a14.89,14.89,0,0,0,4.09,2.6c.28.1.54.24.54.31a1.68,1.68,0,0,0,.59.45c.32.17.6.38.6.46a1.14,1.14,0,0,0,.59.63c.3,0,.86.78,1,1.49.49,1.83.87,5.8.53,5.8-.07,0-.14.19-.14.43s.05.42.14.42a38.92,38.92,0,0,1,.2,7.53,1,1,0,0,0,.12.89,2.18,2.18,0,0,1,.13,1.35,2.74,2.74,0,0,0,.26,1.66,4.24,4.24,0,0,1,.34,1.14c0,.17.08.32.17.32s.18.33.17.72,0,.88,0,1.06c0,.36-.11,2.33-.27,3.74,0,.45-.08,1-.08,1.25s-.07.37-.27.29-.26,0-.16.36a2,2,0,0,0,.36.74.89.89,0,0,1,.24.49,3.92,3.92,0,0,0,.44,1,1.75,1.75,0,0,1,.34,1.22,4,4,0,0,0,.44,2.54c.17.19.24.34.12.34s-.15.17-.09.51.16.77.21,1c.18,1,.73,1.31,1.08.63a.43.43,0,0,0,0-.59c-.11-.14-.14-.24-.07-.24s0-.12-.09-.25-.15-.26-.06-.26.05-.08-.07-.2c-.29-.29-.26-.53.07-.41s.25,0,.16-.15,0-.22.07-.17a.43.43,0,0,1,.17.35.22.22,0,0,0,.19.24c.08,0,.13.07.08.14a1.59,1.59,0,0,0,.07.73c.09.32.19,1,.26,1.41a2,2,0,0,0,.28,1c.16.1.12.17-.11.26s-.39.15-.45.17-.08-.16-.05-.41c.05-.46-.15-.71-.57-.71-.14,0-.17.08-.09.2.22.37.21.64-.05.64s-.3.16-.41.33c-.2.4-.22.71,0,.37s.86.07.86.58c0,.23-.08.42-.18.42s-.16.19-.11.51a.83.83,0,0,1-.13.75.52.52,0,0,0-.15.51c.11.32.52.35.61.08s.17-.15.44,0a.69.69,0,0,0,.54.1c.1,0,.12,0,.07.15s0,.28.07.28c.3,0-.06.91-.45,1.12-.2.1-.32.23-.23.3a.45.45,0,0,1,.12.24c0,.34.3.88.44.88s.13,0,.12.12a2.23,2.23,0,0,0,.59,1.22,1.37,1.37,0,0,1,.37.71c.07.27.19.51.27.51l.38,0c.1,0,.25.33.3.7s.12.59.14.51.18.08.39.39.44.54.73.47a.84.84,0,0,1,.78.29c.22.2.46.36.52.32s.14.05.14.16-.22.15-.93-.11c-.22-.08-.16,0,.23.41s.62.49.7.34.53,0,.39.29c0,.13,0,.24.05.22.29-.07.75.22.75.46s.18.23.51.23.47-.06.39-.27a.32.32,0,0,0-.41-.18c-.19,0-.32,0-.32-.07,0-.32.68-.14.86.22a1,1,0,0,1,.17.47c0,.06.09.16.26.26a3,3,0,0,1,.54.39c.29.27.54.27.54,0,0-.13.05-.12.17,0a.63.63,0,0,0,.29.27,3.65,3.65,0,0,1,.61.21,1,1,0,0,0,.63.12.18.18,0,0,1,.25.08.21.21,0,0,0,.27.09c.09-.07.16,0,.16.06s.34.17.76.16a2.06,2.06,0,0,1,1,.2c.15.12.32.17.39.1s0-.24-.21-.35-.2-.24.67-.17,1,0,.86-.17,0-.26.17-.26a.41.41,0,0,0,.34-.25c.07-.14.19-.26.27-.26s.09.1,0,.26-.17.25.07.25.27-.13.27-.34-.12-.34-.6-.34a7.22,7.22,0,0,1-3.71-2c-.49-.49-.85-1-.82-1.07s-.15-.3-.39-.47a4.27,4.27,0,0,1-1.44-2.09c0-.23.14-.39.43-.46.5-.11.66-.54.42-1.17s-.12-.67.8-1.49c.32-.29.51-.58.44-.69a1.46,1.46,0,0,1-.17-.51.83.83,0,0,0-.92-.78A2.87,2.87,0,0,1,29,86a1.25,1.25,0,0,1,1.12-1.72c.42,0,.66-.25.37-.44-.13-.08-.12-.15,0-.24s.15-.28-.07-.84l-.27-.73.51-.48a1.81,1.81,0,0,1,.76-.49c.27,0,.31-.39.07-.85-.15-.27-.31-.32-.92-.24l-.74.11-.41-.9c-.24-.51-.36-1-.27-1a2.11,2.11,0,0,1,.83.2,2.2,2.2,0,0,0,1.93.07c.44-.19.58-.69.24-.91-.12-.07-.14-.34-.07-.7a.91.91,0,0,0-.18-.92c-.29-.32-.29-.34,0-.22s.27.07.19-.06.1-.21.66-.21c1.82,0,4.16-.85,4.16-1.49a.72.72,0,0,1,.15-.46c.59-.66.51-2.12-.14-2.12-.34,0-.52-.3-.52-.92,0-.44-.41-.84-1.22-1.25-.31-.17-.6-.44-.63-.63s0-.32.27,0a1.5,1.5,0,0,0,.86.31c.31,0,.55.06.55.15s.79.41,2,.44c1.41.07,2-.31,2.22-1.26.07-.28.15-.52.22-.52s.65-.92.76-1.54a2.11,2.11,0,0,1,.7-1.12c.42-.38.56-.61.47-.84s-.11-.25-.23.09-.6.64-.75.49.1-.34.34-.64a2.15,2.15,0,0,0,.42-.94c0-.22.11-.37.28-.37s.23.12.18.39a.49.49,0,0,0,.15.48c.16,0,.29-.16.43-.63.44-1.6.54-1.83,1-2.34A2.79,2.79,0,0,0,45,58a5.31,5.31,0,0,1-.1-2.47A6.85,6.85,0,0,0,46.44,54c0-.09.23-.19.5-.26s.51-.18.51-.28.22-.14.6-.07.59,0,.59-.07a.19.19,0,0,0-.19-.17.09.09,0,0,1-.08-.15,7.84,7.84,0,0,1,3.21-.88c.86,0,.93,0,1-.48a1.47,1.47,0,0,1,.65-.75c.42-.23.51-.37.42-.67s.22-1.14,1.19-3A2.37,2.37,0,0,0,55,45.87c-.08-.66,0-.9.21-1.14a6.2,6.2,0,0,0,.44-3.07c0-.29,0-1.27-.07-2.2-.07-1.62,0-2.12.48-2.12.18,0,.56-.53.93-1.36.59-1.34.73-1.56,1.14-1.94a15.28,15.28,0,0,0,2.07-2.88,5.81,5.81,0,0,0-.06-3.73,11.57,11.57,0,0,0-.52-1.58,3.85,3.85,0,0,0-1.1-.24c-1.09-.11-1.11-.13-2.48-1.46a11.67,11.67,0,0,0-1.87-1.4c-.84-.49-1-.53-1.68-.38a1.58,1.58,0,0,1-1.18-.08.9.9,0,0,0-.63-.14c-.09.07-.36,0-.58-.15-.51-.34-1.51-.53-1.35-.25.08.13,0,.15-.28.06-.49-.17-.79-.45-.71-.69a.53.53,0,0,0-.2-.46.91.91,0,0,1-.26-.44.17.17,0,1,0-.34,0c0,.19-1.2-.32-1.39-.59-.06-.1-.13-.1-.13,0s-.1.05-.24-.05a3.18,3.18,0,0,0-1.41-.44,1.32,1.32,0,0,0-1.25.88c-.27.71-.33.36-.07-.37.34-1,.32-1.05-.37-1.15a1.42,1.42,0,0,1-.87-.46.65.65,0,0,0-.44-.34c-.24,0-.24-.24,0-1.22a1.07,1.07,0,0,0-.29-1C40.26,15.2,40,15,39.9,15s-.59-1.32-.59-2c0-.39-.66-1.54-.68-1.18a4.44,4.44,0,0,1-1-.8A4.86,4.86,0,0,0,36.51,10a2.25,2.25,0,0,1-.74-.27A5,5,0,0,0,33,9.52c-.18.3-1.44-.19-2.17-.87A3.53,3.53,0,0,0,30,8c-.08,0-.15-.17-.15-.39a1.67,1.67,0,0,0-.32-.75,4.47,4.47,0,0,0-2.21-1.29c-.37.11-.62-.22-.4-.51a.55.55,0,0,0-.24-.88c-.22-.08-.39-.22-.39-.29s-.14-.13-.31-.13a.79.79,0,0,1-.5-.21c-.17-.16-.26-.16-.38,0s-.17.17-.17,0a1.92,1.92,0,0,0-.1-.46c-.07-.17,0-.27.14-.27a1.31,1.31,0,0,0,.57-.25c.29-.26.19-.26-1.29-.19l-1.73.1c-.08,0-.13.1-.13.22s-.19.32-.41.44c-.51.27-1.63,0-1.63-.44,0-.22-.2-.24-1.44-.13l-1.44.11V2.32c0-.49-.82-1.12-1.48-1.12-.29,0-.39-.1-.39-.39,0-.49-.12-.62-.44-.51a.78.78,0,0,0-.24.67c0,.47-.06.59-.45.68a3.39,3.39,0,0,0-1,.45c-.42.31-.49.31-.39.07s0-.29-.05-.29-.17-.15-.17-.34.12-.34.27-.34a1,1,0,0,0,.75-.79C13.87.07,13.31-.12,12.81.08Zm.72,4c0,.4-.27.85-.51.85-.07,0-.22-.29-.34-.67-.19-.57-.17-.69.1-1l.31-.36.22.39A2.16,2.16,0,0,1,13.53,4.09Zm3.17,37.2c.24.27.32.47.22.63s-.17.18-.27-.06a.42.42,0,0,0-.32-.28c-.12,0-.26-.16-.31-.34C15.9,40.78,16.24,40.81,16.7,41.29Zm32.79,11c0,.09,0,.17-.07.17s-.13-.08-.19-.17,0-.17.07-.17A.18.18,0,0,1,49.49,52.26ZM43.16,63.32c0,.14-.1.09-.1-.1s0-.29.08-.22A.32.32,0,0,1,43.16,63.32ZM30.91,80.93c.06.08-.05.17-.23.17s-.36-.09-.36-.17.1-.17.24-.17A.43.43,0,0,1,30.91,80.93Zm-9.17,2.8c-.07.13-.17.2-.26.15s0-.41.19-.41S21.79,83.59,21.74,83.73Zm-.33.61c.17.51,0,.56-.22.07-.1-.24-.11-.43,0-.43S21.36,84.14,21.41,84.34Zm.77.56s-.12.1-.26.17-.25,0-.25-.07.12-.17.25-.17S22.18,84.87,22.18,84.9Zm7.63,10.79c0,.41.29.57.93.54s.5,0,.12.19c-.2.12-.32.29-.25.39s0,0-.19-.19-.34-.29-.4-.12-.16.07-.31-.22c-.27-.54-.32-1.17-.07-1A.54.54,0,0,1,29.81,95.69Zm-1.1,0a.49.49,0,0,1-.39.19c-.22,0-.22,0,.07-.24S28.9,95.38,28.71,95.67Z"/><path class="cls-1" d="M40.24,93.13a1,1,0,0,1-.59.05c-.2-.07-.22,0,0,.15s.25.68,0,.56c-.48-.19-.26.25.23.53s.51.23,1.05-.39c.29-.36.48-.48.41-.29-.3.81-.3.93,0,.93a3.41,3.41,0,0,0,1.14-.49c.72-.43.78-.49.52-.71a2.16,2.16,0,0,0-1.07-.28,5.05,5.05,0,0,1-1-.1A1.05,1.05,0,0,0,40.24,93.13Z"/></g></g></svg>