<svg xmlns="http://www.w3.org/2000/svg" xmlns:xlink="http://www.w3.org/1999/xlink" viewBox="0 0 91.68 61.84"><defs><style>.cls-1{fill:none;}.cls-2{clip-path:url(#clip-path);}.cls-3{fill:#e2dd2d;}</style><clipPath id="clip-path" transform="translate(9.76 48.26)"><polygon class="cls-1" points="1.24 3.33 4.04 3.86 3.14 10.43 3.93 11.71 4.29 11.8 5.1 11.95 10.41 10.87 15.99 3.88 16.59 2.63 9.29 1.08 2.98 0 0 1.05 1.24 3.33"/></clipPath></defs><g id="Layer_2" data-name="Layer 2"><g id="Spain"><g class="cls-2"><path class="cls-3" d="M61.5-48.1a2.07,2.07,0,0,1-.83.27,6.2,6.2,0,0,0-2.34,1,.27.27,0,0,1-.31,0c-.1-.07-.18,0-.18,0a.22.22,0,0,0,.22.21c.1,0,.39,0,.59.06a1,1,0,0,0,.75-.32c.2-.18.3-.27.25-.17s.05.24.27.31c.53.13.66.12.54-.07s0-.12.16-.07.22.19.15.29.34.14,1.32.07,1.29,0,1.09,0-.19.15.35.15.75-.07.82-.24a.48.48,0,0,1,.42-.25c.44,0,.87-.17.87-.36s-.15-.15-.32-.15-.36-.07-.39-.17a6.36,6.36,0,0,0-2.24-.34c-.26,0-.27,0-.11-.25s.12-.26-.39-.26C61.86-48.26,61.55-48.19,61.5-48.1Zm2,.86a1,1,0,0,1-.75.32h-.44l.42-.14c.24-.07.31-.15.17-.17s-.06-.1.17-.17C63.77-47.63,63.84-47.59,63.52-47.24ZM59.19-47s-.07.13-.17.19-.17,0-.17-.07a.19.19,0,0,1,.17-.19C59.12-47.07,59.19-47,59.19-47Z" transform="translate(9.76 48.26)"/><path class="cls-3" d="M55.66-47.34c-.3.1-.51.25-.44.32s0,.12-.07.12a.19.19,0,0,1-.2-.17c0-.2-1.22-.2-2.46,0-.85.12-.61.22.54.22.31,0,.51.07.46.15s-.07.14,0,.16c.9.15,2,.15,1.93,0s0-.19.27-.19.33,0,.17.15.51.36,1.39.36c.41,0,.48-.05.28-.17a1.23,1.23,0,0,0-.77-.07c-.46.1-.47.09-.27-.17A.81.81,0,0,1,57-46.9c.17,0,.27-.08.22-.17a.53.53,0,0,0-.44-.17c-.17,0-.32-.08-.32-.17S56.38-47.61,55.66-47.34Z" transform="translate(9.76 48.26)"/><path class="cls-3" d="M30.36-46.59c-.16.17-.43.2-.89.13s-.68,0-.76.17a.38.38,0,0,0,.14.43c.13.08.15.15,0,.15a.78.78,0,0,1-.43-.27.62.62,0,0,0-.61-.19c-.22,0-.42,0-.47,0a2.69,2.69,0,0,0-1.06-.07c-.54,0-1.18,0-1.44.07s-.44.07-.35.29a2.33,2.33,0,0,0,.54.71l.44.41-.46-.27c-.27-.17-.49-.22-.56-.12s.22.3.63.51c.85.4.92.42.65.08-.41-.49.86.31,1.32.8a1.21,1.21,0,0,0,.68.47,4,4,0,0,1,1,.34c1,.49,1.39.44,1.53-.17.07-.29.22-.51.34-.51s1.24-.84,1-.84c-.08,0,0-.09.15-.19.34-.2.89-.07,1.44.37.36.27.38.31.09.48s-.22.23.56.18c.3,0,.59,0,.66.16s.9.08,1.19-.17a.72.72,0,0,1,.47-.16c.17,0,.26-.08.21-.17s-.33-.17-.6-.17a.6.6,0,0,1-.57-.27c-.07-.18-.24-.25-.53-.2s-.42,0-.42-.05c0-.24-1.55-.87-1.84-.75s-.23.05-.08-.1.53-.15,1.27-.08c1.82.2,3.38.1,3.5-.24,0-.1.2-.17.37-.17.44,0,.58-.29.22-.48A5.34,5.34,0,0,0,35-46.66c-.05.13-.12.12-.19,0s-.91-.25-.91.07-.05.24-.26.07A6.17,6.17,0,0,0,30.36-46.59Zm1.49.84c0,.16,0,.22-.24.17a.5.5,0,0,1-.37-.27c0-.15,0-.22.23-.17A.55.55,0,0,1,31.85-45.75Zm-3.36,1.14s-.14.09-.31.09-.32-.12-.32-.24.09-.22.32-.09A.82.82,0,0,1,28.49-44.61Zm-1.19.42a.17.17,0,0,1-.17.17.18.18,0,0,1-.17-.17.17.17,0,0,1,.17-.16A.16.16,0,0,1,27.3-44.19Z" transform="translate(9.76 48.26)"/><path class="cls-3" d="M72.27-43.22a3.17,3.17,0,0,0-.81.34,7.23,7.23,0,0,1-2.53.41c-2,.13-2.77.25-3,.47a4.2,4.2,0,0,1-1.75.72q-.33-.06-.27.27a1.18,1.18,0,0,1-.75,1.27l-.54.27.42.17c.26.12.33.19.16.19a1.78,1.78,0,0,0-.77.44c-.39.32-.42.42-.18.42.42,0,.35.32-.14.51-.24.09-.42.27-.42.41a.68.68,0,0,0,.84.56c.19,0,.31,0,.24.07s.12.23.38.32.49.13.61,0,.13-.15.13.05c0,.38.36.5,1.7.62,2,.15,2.25.15,2.34-.11s0-.2-.2-.13-.26.05-.21,0-.22-.23-.57-.35a1.67,1.67,0,0,1-.68-.32c0-.07-.21-.24-.48-.39-.46-.28-.74-1.16-.37-1.16a.17.17,0,0,0,.17-.17,8.12,8.12,0,0,1,2-2,1,1,0,0,0,.49-.31c.39-.39,1.12-.61,3.34-1.05,3-.59,3.55-1,2.15-1.36A2.2,2.2,0,0,0,72.27-43.22ZM63.55-39.5a.35.35,0,0,1-.32,0c-.14,0-.09-.1.1-.1S63.62-39.55,63.55-39.5Z" transform="translate(9.76 48.26)"/><path class="cls-3" d="M38.24-36.37a.3.3,0,0,1-.39.07.89.89,0,0,0-.68.29c-.23.22-.37.29-.3.17s0-.2-.44-.2c-.73,0-1.34.17-1.24.34s-.73.4-1.26.35c-.28,0-.35,0-.27.19s.09.19-.1,0c-.41-.37-1.51-.2-1.51.24,0,.25,0,.25-.63.32s-.93.24-.84.59a.48.48,0,0,1-.09.46c-.12.07-.13,0,0-.12s0-.18-.34-.1-.46.08-.27-.14c.32-.37,0-.35-.9.09-.56.25-.73.42-.66.61s0,.24-.09.15-1.39.32-1.39.56.07.24.77,0a1.94,1.94,0,0,1,.59-.19s.24,0,.51-.08.51-.08.51,0-.12.15-.26.15a.3.3,0,0,0-.25.32c0,.19-.34.58-.85.93a3.18,3.18,0,0,0-.85.77c0,.08-.15.18-.34.24s-.34.23-.34.52a1.19,1.19,0,0,1-1.13,1.12c-.39,0-.43,0-.22.19s.22.18,0,.27a5.67,5.67,0,0,0-.88.75c-.59.59-.69.64-1,.45s-.37-.17-.54.05a.42.42,0,0,1-.44.19c-.17,0-.2,0-.14.19s0,.29-.4.37S21-26.1,21-26s-.19.19-.43.26-.42.17-.42.27a.08.08,0,0,1-.14.07c-.08-.06-.37.05-.66.23-.51.31-.53.36-.54,1.6,0,1.07,0,1.25.23,1.19s.36.18.12.33-.22,1.12,0,1.12.15.16.15.34.25.5.68.77a2.16,2.16,0,0,0,2.56,0,12.25,12.25,0,0,1,1.31-.78c.39-.21.71-.5.72-.65s0-.24.11,0a.83.83,0,0,0,.32.39.75.75,0,0,1,.24.6,1.67,1.67,0,0,0,.34.88,1.91,1.91,0,0,1,.33.56,3,3,0,0,0,.6.76c.32.34.51.65.42.68a.33.33,0,0,0-.17.31c0,.13-.05.22-.12.22a2.4,2.4,0,0,0-1.23.35c0,.17-1,.41-1.14.29a.56.56,0,0,1,.1-.4c.17-.29.17-.29.19,0s.08.25.17.2a.19.19,0,0,0,.08-.26c-.05-.08,0-.18.09-.25a.31.31,0,0,0-.17-.59.32.32,0,0,1-.19-.6c.2-.12.19-1.1,0-1.1a.16.16,0,0,0-.13.17c0,.08-.1.17-.24.17a.77.77,0,0,0-.44.25,1,1,0,0,1-.7.26c-.91,0-1.54,1.81-.86,2.51.24.27.25.49,0,.63a.28.28,0,0,0-.05.35c.07.19.15.21.32.05s.24-.13.24.09-.08.27-.18.27-.14.08,0,.25c.38.45-.08.78-.86.67a1.35,1.35,0,0,0-1,.13,1.56,1.56,0,0,1-.91.19,1.42,1.42,0,0,0-1.67,1A3.85,3.85,0,0,1,15.51-9.9c-.74.23-.86.34-1,.88s-.24.64-.82.8a1.86,1.86,0,0,0-.88.51.77.77,0,0,1-1.17.11A1.74,1.74,0,0,0,11-7.95c-.44-.1-.48-.09-.36.27.36,1.15.33,1.24-.37,1.24a2.22,2.22,0,0,1-.85-.14,3.84,3.84,0,0,0-1.91.24c-.33.15-.36,1-.06,1,.12,0,.22.07.22.17s.11.12.23.07c.39-.16,1.13.23,1,.52-.05.14,0,.26.1.26a.1.1,0,0,0,.09-.17c-.19-.31.42-.17.79.17.22.18.28.34.16.34s-.14.08.05.27a.83.83,0,0,1,.27.42c0,.09.12.16.27.16s.2.06.15.16,0,.17.05.17.16.11.16.21A1.59,1.59,0,0,0,11-2.2,10.83,10.83,0,0,1,10.66.39c-.2.61-.68,1-1.17.8C9.2,1.11,6.93.94,4.79.87a3.06,3.06,0,0,1-1-.15C3.55.48,2.93.6,2.62.94A1.07,1.07,0,0,1,2,1.28c-.48,0-.72.4-.53.89a6.26,6.26,0,0,1,.2,1.58A4.42,4.42,0,0,1,.86,6.82C.72,6.94.65,7,.7,7s.05.22,0,.51-.08.51,0,.51.15.12.15.26a.19.19,0,0,0,.22.2c.22,0,.25.83.05,1.58-.12.4-.08.42.61.4a4.59,4.59,0,0,0,1.12-.13c.61-.21,1.05.05,1.34.76s.93,1,1.29.61a3.47,3.47,0,0,1,2.41-.8H9.2c.15,0,.41-.24.55-.51a1.11,1.11,0,0,1,.78-.61c.39-.07.57-.26.78-.75s.35-.66.47-.66a.7.7,0,0,0,.42-.25c.19-.22.17-.31,0-.48A.79.79,0,0,1,12,6.5a7,7,0,0,1,1.88-2A4.69,4.69,0,0,0,15,4c.92-.46,1.43-1.14,1.09-1.48A.87.87,0,0,1,15.94,2c0-.83,1.79-1.13,2.83-.47.56.35.95.29,1.56-.26A2.7,2.7,0,0,1,21.38.68,1.12,1.12,0,0,0,22,.26a.9.9,0,0,1,.41-.39c.36-.14,1.8.52,1.8.83a1.49,1.49,0,0,0,.22.59c.17.29.15.38-.1.58s-.26.25-.1.34a.22.22,0,0,0,.32-.1c.12-.17.18-.17.4,0a.76.76,0,0,1,.28.45c0,.14.15.24.34.24s.33.05.33.14A5.24,5.24,0,0,0,28,4.41a1.46,1.46,0,0,1,.83.46,1.39,1.39,0,0,0,.71.48.27.27,0,0,1,.28.27c0,.15.22.35.51.46s.55.37.76,1,.2.78.08.82a.42.42,0,0,0-.17.35c0,.39-1.56.75-2.78.63-1-.08-1.29,0-1.29.41s1.53,1.19,2,1.19a.45.45,0,0,1,.33.22,1,1,0,0,0,.52.34.57.57,0,0,0,.61-.8,1.69,1.69,0,0,1,0-.71c.09-.34.19-.41.46-.33.42.14,1.17-.49,1.17-1a.47.47,0,0,1,.34-.41c.48-.12.44-.76-.08-1.07s-.39-.3-.21-.67.32-.41.71-.38.55.14.56.22a1.78,1.78,0,0,0,.34.43c.26.25.29.25.44-.09.23-.51-.28-1-1.76-1.73-1-.47-1.14-.61-1-.86s.1-.31,0-.33-.45,0-.84,0a1.69,1.69,0,0,1-1.33-.66,2.16,2.16,0,0,1-.59-.91c0-.43-.31-.77-1.05-1.21S26.66-.47,27-.84c.12-.16.14-.26,0-.34-.34-.21-.17-.53.39-.73s1.17-.27.83-.07c-.15.1-.17.27-.05.58.21.56.53.76.72.45s.15-.13.15.14a.62.62,0,0,0,.17.47c.1.05.17,0,.17-.23a.56.56,0,0,1,.2-.46c.14-.09.15,0,.09.17a.52.52,0,0,0,.15.56c.18.2.2.3.07.39s.57.85.95.85a.88.88,0,0,1,.52.34,1.28,1.28,0,0,0,.73.35l.43,0-.43.13c-.41.14-.41.14.12.16.29,0,.59.08.64.18a.54.54,0,0,0,.41.17,3.87,3.87,0,0,1,1.16.63l.88.65-.1,1.05c-.09,1-.07,1,.37,1.34.27.17.37.34.25.4s0,.68.26.68a.84.84,0,0,1,.49.27c.27.26.27.56,0,1.16-.07.17-.07.35,0,.42a1,1,0,0,1,.27.39c.12.34.46.41.46.1s.64.43.76,1,.16.58.53.5.41,0,.41.15.08.25.17.25a.17.17,0,0,0,.17-.17.17.17,0,0,1,.17-.17c.1,0,.16.19.16.43s.09.42.17.42c.33,0,.26-.86-.11-1.61-.19-.36-.19-.44,0-.3a.93.93,0,0,0,.54.22c.24,0,.29-.09.21-.36s-.05-.34.29-.29.37,0,.34-.27,0-.31.2-.12.27.17.27.1.12,0,.26.09a.83.83,0,0,1,.25.54c0,.31,0,.31.27.07s.22-.31-.08-.65-.36-.3-.36-.23c0,.25-.54-.31-.7-.7a.54.54,0,0,0-.49-.39c-.23,0-.4-.17-.52-.51s-.26-.51-.34-.51-.7-1-.63-1.22.31,0,.59.27c.53.44.83.58.65.27-.07-.1,0-.11.18-.05s.28.05.17-.22-.08-.29.09-.12c.41.41.56.23.17-.18S40.67,5.21,41,5s.39-.13.47,0,.05.14-.07.07-.2,0-.2,0c0,.32.46.2.56-.14s.14-.3.65-.11a6.32,6.32,0,0,1,1,.4,1.07,1.07,0,0,0,1.43-.23.94.94,0,0,1,.91-.34,1.07,1.07,0,0,0,.78-.21c.21-.24.21-.24-.39-.49s-1.25-1.56-1-1.81a.9.9,0,0,0,.17-.55.48.48,0,0,1,.32-.46c.28-.06.34-.25.39-.89s.12-.87.53-1.06A.67.67,0,0,0,47-1.37a1.8,1.8,0,0,1,.51-1A2.14,2.14,0,0,0,48-3.1c0-.1.18-.2.42-.2s.42.1.42.25.89.49,1.82.47c.31,0,.51.06.46.14a.32.32,0,0,1-.26.15c-.22,0-.93.68-.73.7a4.14,4.14,0,0,1,.89.24c.3.1.37.23.34.57s0,.44.44.49.54,0,.64-.2A.71.71,0,0,1,53-.76a.7.7,0,0,0,.51-.17c.05-.1.37-.17.7-.17s.57-.08.57-.25.09-.24.87.45a1.05,1.05,0,0,0,.54.31,1.38,1.38,0,0,1,.56.25,1.12,1.12,0,0,0,.56.26,1.05,1.05,0,0,1,.54.27c.26.22.41.24.83.1a1.05,1.05,0,0,1,1.07.12,4.08,4.08,0,0,0,1.14.44,5.27,5.27,0,0,1,1.37.61,1.94,1.94,0,0,0,1.7.39l.91-.1,1.11,1c1.86,1.61,6.36,3.66,6,2.75a.36.36,0,0,0-.34-.21,9.24,9.24,0,0,1-1.9-1.76C68.4,2,68.18,1.67,68.18,1.17A1.83,1.83,0,0,0,67.11-.32c-.13,0-.15-.12,0-.22a1.61,1.61,0,0,0,.34-.63c.17-.52,1-1.12,1.41-1,.1,0,.2,0,.2-.17,0-.34.42-.7,1.53-1.26l1-.54s-.14-.24-.43-.46a1,1,0,0,1-.46-1,1.47,1.47,0,0,0-.52-1.24,3.16,3.16,0,0,1-1-2c-.1-.71-.1-.71.53-.88a6.16,6.16,0,0,1,1.51-.19,2,2,0,0,0,1-.19c.34-.34,2.43-.23,3.53.16a3.42,3.42,0,0,0,1.82.27c.56-.09.81-.05.81.08s.15.19.32.19a1.09,1.09,0,0,1,.6.25c.3.33.71.33.83,0s.29-.22.74-.15c1.21.15,1.48-.83.34-1.22-.86-.29-1.22-.6-.93-.8s.1-.27-.88-1c-.34-.24-.36-.31-.17-1.06s.17-.84-.1-1.3c-.43-.72-1-.7-1.61.07s-1.28.79-1.85,0c-.24-.32-.61-.83-.83-1.1-.4-.5-.4-.53-.11-.84a1.26,1.26,0,0,1,.8-.33A1.2,1.2,0,0,0,76.17-19a2.61,2.61,0,0,1-.86-2.2,14.48,14.48,0,0,0-1.43-6c-.66-1.47-.9-2.17-.78-2.3a3.41,3.41,0,0,1,1-.51c1.73-.65,3.56-1.95,3.59-2.55a3.2,3.2,0,0,0-.71-.88c-.83-.8-1.87-1.15-3.87-1.32a6.69,6.69,0,0,1-2.86-.61c-.67-.27-.94-.32-1.07-.19s-.11.29.17.54.44.33.52.28a4.07,4.07,0,0,1,1.83.83c.33.32.28.42-.2.42-.3,0-.39.07-.32.26s0,.22-.17.15-.26-.15-.26-.21a1,1,0,0,0-.54-.93c-.36-.1-.46.15-.1.27.1,0-.1.14-.48.21a2.83,2.83,0,0,0-.84.25,2.72,2.72,0,0,1-1,.12,2.35,2.35,0,0,0-1.05.22,1,1,0,0,1-.63.14c-.47-.07-.61-.58-.18-.7.17-.05,0-.08-.38-.1a2.26,2.26,0,0,0-1,.24,2.08,2.08,0,0,1-.91.28,3.77,3.77,0,0,0-1.26.43,2.76,2.76,0,0,1-1,.39c-.52,0-1,.39-1,.76a.54.54,0,0,1-.25.46,1.72,1.72,0,0,1-1.53-.12.76.76,0,0,0-.45-.25c-.48,0-.11-.41.54-.58l.64-.19-.57-.44a2.82,2.82,0,0,0-1.82-.52c-1.25-.09-1.8.08-.88.29.47.1.51.17.51.83s.07.76.42.91.53.46.27.87c-.1.17-.22.18-.49,0a1.77,1.77,0,0,0-.69-.18c-.21,0-.36-.12-.36-.28s-.17-.1-.54.26a2,2,0,0,1-.82.52,2,2,0,0,0-.74.39l-.5.39.39.38c.63.57.26.78-.89.47a10.22,10.22,0,0,1-1.33-.44.66.66,0,0,0-.74,0c-.41.22-.39.68,0,.68.14,0,.24.07.24.17s.22.17.49.17a.68.68,0,0,1,.6.25c.15.44-.87.38-1.75-.1a3.06,3.06,0,0,0-.9-.32c-.17,0-.31-.1-.31-.22a1,1,0,0,0-.33-.54c-.26-.24-.29-.38-.16-.63s-.13-.73-.9-.9a.82.82,0,0,1-.52-.32c-.07-.16.24-.14,1.3.07,3.53.72,4.52.72,5.57,0A.76.76,0,0,0,54-31.92c-.29-.36-1.55-1-1.7-.83s-.32,0-.61-.19a3.35,3.35,0,0,0-.61-.27,5.14,5.14,0,0,1-1.36-.49,10.3,10.3,0,0,0-2.32-.51c-1-.12-1.58-.26-1.58-.39s-1.17-.48-1.42-.29a2.06,2.06,0,0,1-.95,0l-.77-.08.56-.2c.33-.12.53-.28.48-.36a5.62,5.62,0,0,0-2.31-.63c-.1.05-.17,0-.17-.07s-.25-.18-.58-.18a.94.94,0,0,0-.83.37c-.18.27-.27.31-.28.14s-.21-.36-.46-.48C38.5-36.6,38.38-36.6,38.24-36.37ZM39-36a.19.19,0,0,1-.19.17c-.09,0-.12-.09-.07-.17s.14-.17.19-.17S39-36.14,39-36Zm1.86-.1c0,.15-.51.23-.59.1s0-.17.24-.17S40.87-36.18,40.87-36.14Zm-7.8,1.62c0,.09-.12.12-.26.07s-.25-.13-.25-.17.12-.07.25-.07S33.07-34.62,33.07-34.52Zm-1.7.34c0,.09-.13.17-.29.17s-.27,0,0-.17S31.37-34.38,31.37-34.18Zm-1.8,1.12c.06.14,0,.21-.06.16a.34.34,0,0,1-.17-.28C29.34-33.41,29.46-33.36,29.57-33.06Zm1.34-.15a1,1,0,0,1-.42,0c-.12,0,0-.09.2-.09S31-33.26,30.91-33.21Zm7.57,3.71c.36.07.53.21.53.41s-.09.29-.36.22-.34,0-.29.14-1,1.34-1.32,1.34c-.14,0-.24.07-.24.13,0,.24-1,.72-1.24.61a.33.33,0,0,0-.37.09.23.23,0,0,0,.15.29c.24.08.24.13,0,.34a.42.42,0,0,0-.09.57c.11.19.24.48.31.63a3.57,3.57,0,0,1,.1,1.17c0,.73,0,.87.24.85s.27.07.25.17.22.25.55.3.59.19.62.29.51.05,1.31-.15a4.94,4.94,0,0,1,1.49-.25.34.34,0,0,0,.38-.09,3,3,0,0,1,1.29-.27c1-.07,1.25,0,1.61.24s.42.49-.22.54c-.26,0-.46.14-.46.27s-.85.21-2.55,0c-.79-.1-2.78.8-2.24,1,.29.12.26.41-.05.29a.43.43,0,0,1-.25-.34c0-.13-.1-.24-.2-.22-.33,0-.94.29-.68.31s.25.35-.07.35-.26.1-.15.46c.13.56.27.71.37.42a.48.48,0,0,1,.41-.2c.17,0,.32-.07.32-.15s.66-.36.78-.17a.49.49,0,0,0,.37.15c.58,0,.41,1.68-.15,1.7a4.4,4.4,0,0,1-.73-.58c-.58-.51-.69-.54-1.12-.39a2.24,2.24,0,0,0-1,2.32c.11.87-.18,1.36-.78,1.36a.28.28,0,0,0-.28.26c0,.15-.19.34-.41.45-.46.21-1,.07-.87-.2.31-.49-2.1-.27-2.54.26a4.37,4.37,0,0,1-1.22.42c-1.11.22-1.58.1-1.58-.42s-.48-.41-2.1.32a1.49,1.49,0,0,1-.77.18c-.13-.15.66-.78.83-.67s.17,0,.24-.17a.43.43,0,0,1,.36-.26c.15,0,.22-.08.17-.17a.22.22,0,0,0-.31-.05c-.13.09-.13,0,0-.15s.17-.31.1-.36,0-.12.09-.12.2-.13.22-.3.07-.14.14.13.22.43.86.43.76-.07.83-.34c.09-.49.53-.75,1.26-.76.47,0,.62-.07.62-.31s0-.25.17,0,.19.2.22.17a3.66,3.66,0,0,0,.53-1.51c-.07-.06-.15,0-.19.1-.13.39-.4.24-.3-.17a12.24,12.24,0,0,0,.24-1.49c0-.07.18-.17.4-.24l.46-.15.48-.17c.2-.07.37-.24.37-.39a.67.67,0,0,1,.25-.46c.21-.16.21-.26,0-.6s-.34-.51-1.22-.9a.78.78,0,0,1-.5-1.12,2.17,2.17,0,0,0,.12-.72.94.94,0,0,1,.48-.77c.27-.17.49-.4.49-.49a3.22,3.22,0,0,1,1.54-.76,2.88,2.88,0,0,0,.8-.61c.46-.44.56-.63.39-.73s-.15-.26.15-.66.46-.5.55-.45.13,0,.13-.08S37.63-29.67,38.48-29.5ZM25.27-27.87c0,.24-.82,1-1.07,1-.09,0-.07-.12.05-.26s.15-.25.08-.25,0-.15.26-.34C25-28.12,25.27-28.16,25.27-27.87Zm-3.11,1.94a.35.35,0,0,1-.32,0c-.14,0-.09-.1.1-.1S22.23-26,22.16-25.93Zm3.62,10.58c0,.07-.12.19-.28.24s-.2,0-.15-.07,0-.17-.07-.17a.17.17,0,0,1-.18-.15c0-.09.15-.12.34-.07S25.78-15.42,25.78-15.35Zm10.21,0c-.12.11-.21.13-.21,0s.21-.44.33-.32S36.09-15.42,36-15.31ZM24.93-15c0-.08.1-.06.23,0,.36.33-.15.58-.67.33s-.55-.56,0-.36C24.77-14.91,24.93-14.91,24.93-15ZM19.07-12a.35.35,0,0,1-.27.18c-.08,0-.06-.1.05-.23S19.26-12.24,19.07-12ZM56.82-3.83c-.32.17-.65.29-.72.24s-.13,0-.13.17.17.3.39.35.34.14.1.27a1,1,0,0,0-.39.62c-.12.42-.15.44-1.12.35a2.64,2.64,0,0,0-1.15.09c-.1.1-.31,0-.51-.29l-.36-.46L53.39-3a2.17,2.17,0,0,1,1-.56,4.67,4.67,0,0,0,.83-.19A6.46,6.46,0,0,1,57-4.14C57.36-4.15,57.34-4.12,56.82-3.83ZM37.65,8.62c.08,0,.12.07.07.2s-.17.26-.26.26l-.27,0c-.07,0-.13-.22-.17-.54C37,8,37,8,37.24,8.32,37.38,8.5,37.56,8.64,37.65,8.62Zm3.22-.39c.22.14.22.17,0,.17a.51.51,0,0,1-.39-.17C40.31,8,40.53,8,40.87,8.23Zm-1.07.61a.34.34,0,0,1-.32,0c-.13,0-.08-.1.1-.1S39.87,8.79,39.8,8.84Zm.34.61c0,.14-.1.09-.1-.1s0-.29.09-.22A.35.35,0,0,1,40.14,9.45Z" transform="translate(9.76 48.26)"/><path class="cls-3" d="M-8-30.44a1.23,1.23,0,0,1-.61.29c-.19,0-.34.12-.34.24s-.07.22-.13.22a1.37,1.37,0,0,0-.48.25c-.29.26-.24.26.75.2,1.34-.08,1.47.31.15.5-.8.11-1,.22-.88.4a.37.37,0,0,0,.27.17c.1,0,.13-.06.08-.13s1.16,0,1.29.2c.26.37.14.61-.29.61-.25,0-.42.1-.42.24s.2.22.81.19a2.92,2.92,0,0,1,1.34.2,4.94,4.94,0,0,0,2.85.1c1-.36,1.7-.59,2.48-.81C-.11-27.88,1-28.61,1-29c0-.18-.2-.39-.51-.52S0-29.8.09-29.88.08-30,0-30s-.09-.12.12-.27.3-.28-.29-.17c-.36.06-.66,0-.73-.07-.17-.27-.77-.21-.77.08s-.15.26-.37.26H-3.52c-.81,0-1.09.07-1.22.3s-.17.27-.27,0-.6-.36-.6.06c0,.24-.08.33-.25.28a.26.26,0,0,0-.34.05c-.19.28-.39.18-.31-.16s-.1-.4-.54-.68C-7.78-30.78-7.73-30.78-8-30.44Z" transform="translate(9.76 48.26)"/><path class="cls-3" d="M6.56-25.24c-.19.17-.14.6,0,.48a.24.24,0,0,1,.29.1.26.26,0,0,1-.09.32c-.15.09-.12.19.09.36s.29.2.18-.05,0-.34.07-.39a.2.2,0,0,0,.07-.26c0-.08,0-.18.09-.25a.46.46,0,0,0,.17-.31c0-.13-.06-.13-.16,0s-.18.17-.25,0S6.73-25.41,6.56-25.24Z" transform="translate(9.76 48.26)"/><path class="cls-3" d="M10.19-21.06a.62.62,0,0,0-.19.4c0,.26-.71.46-1.27.36a.56.56,0,0,0-.68.32c-.44.66-.93,1.09-1.12,1s-.27,0-.42.09-.21.27,0,.47a.72.72,0,0,1,.19.33s0,.1,0,.17.06,0,.15-.11S7-18.2,7-18.1s-.15.28-.49.38-.59.27-.59.35.13.09.34,0,.34-.14.34.06a.39.39,0,0,0,.3.33c.22,0,.19.1-.17.25s-.47.27-.47.36a.33.33,0,0,0,.57.2c.24-.19.45-.08.45.22,0,.1-.09.07-.17-.07S7-16.23,7-16s.08.29.51.21.49-.07.4.15-.17.27-.25.27-.09.17,0,.36.24.3.31.22c.17-.24,1.37-.24,1.27,0a.72.72,0,0,0,.24.52.79.79,0,0,1,0,1.14,1.53,1.53,0,0,1-.81,0c-.39,0-.65,0-.65.11s.09.13.17.08c.31-.19.19.07-.2.43l-.39.37L8-12.16c.75-.1.63.46-.17.78-1,.37-.88.83.16.88.81,0,1.42.41.68.41-.41,0-1.17.54-1.17.83,0,.07-.28.27-.6.44s-.54.36-.49.41.64.15,1-.1a1.31,1.31,0,0,1,.87-.17A.7.7,0,0,0,9-8.9c.22-.27.46-.31,1.46-.26a2.56,2.56,0,0,0,1.21-.08c0-.07.32-.12.73-.1.74.05,2.15-.44,2.15-.73,0-.1-.12-.19-.25-.19-.33,0-.34-.44,0-.56a1.16,1.16,0,0,0,.63-1.29,1.21,1.21,0,0,0-1.51-.32c-.26.19-.28.19-.07-.05s.17-.37,0-.76a4,4,0,0,1-.21-.67c0-.22-.49-.67-.93-.93a1.11,1.11,0,0,1-.46-.64c-.17-.65-.61-1.21-.95-1.23s-.39-.54,0-.84c.18-.14.34-.34.34-.44a.85.85,0,0,1,.27-.48c.41-.42.12-.61-1-.61a2.31,2.31,0,0,1-1.1-.17c-.06-.1,0-.17.08-.17a1.51,1.51,0,0,0,.63-.34c.24-.19.37-.34.3-.34s0-.17.21-.39a4.07,4.07,0,0,0,.44-.56C11.22-21.3,10.42-21.3,10.19-21.06ZM7-18.74a.19.19,0,0,1-.19.17c-.09,0-.12-.09-.07-.17s.14-.17.19-.17S7-18.84,7-18.74Z" transform="translate(9.76 48.26)"/><path class="cls-3" d="M4.62-15.72c-.4.13-1.2,1.05-.9,1.05a.1.1,0,0,1,.09.17c-.05.1-.44.14-.87.1-.59-.07-.78,0-.91.24s-.1.34.05.39.15.12,0,.3c-.32.33-.27.45.2.56s.53.45-.25,1c-.63.48-.92,1.12-.5,1.12.09,0,.12.09.06.21s0,.15.15.08.29,0,.29.07c0,.29,1.3,0,2.17-.46a3.56,3.56,0,0,1,1.3-.41c.48,0,.56-.06.73-.66a4.92,4.92,0,0,0,.21-1.32c0-.56.07-.71.42-.87s.54-.64.12-1.15A3.1,3.1,0,0,0,4.62-15.72Z" transform="translate(9.76 48.26)"/><path class="cls-3" d="M23.33,1.82a.83.83,0,0,1-.52.37.62.62,0,0,0-.46.41,1.8,1.8,0,0,0,.47,1.47c.27.19.26.24-.17.51s-.49.27-.59.11-.17-.12-.22.1a.88.88,0,0,0,.14.64.89.89,0,0,1,.15.66c-.26,1.34-.26,1.44.12,1.65s.4.13.57-.1a.47.47,0,0,1,.48-.21c.32.14.42-.18.47-1.63.05-1,0-1.2-.25-1.39s-.29-.3-.12-.88S23.57,1.33,23.33,1.82Z" transform="translate(9.76 48.26)"/><path class="cls-3" d="M40.65,12.42a.58.58,0,0,0-.12.39c0,.22.21.32.72.41s.76.18.81.29.46.1,1,0c.86-.14,1.18-.36.69-.53-.15,0-.18,0-.1.16s0,.15-.19,0a2.27,2.27,0,0,0-1.17-.3c-.45,0-.88-.12-.9-.21s-.13-.1-.23,0a.21.21,0,0,1-.29-.08C40.82,12.39,40.72,12.35,40.65,12.42Z" transform="translate(9.76 48.26)"/></g></g></g></svg>