<svg xmlns="http://www.w3.org/2000/svg" viewBox="0 0 462.56 234"><defs><style>.cls-1{fill:#969696;}</style></defs><g id="Layer_2" data-name="Layer 2"><g id="Layer_12" data-name="Layer 12"><path class="cls-1" d="M283.73,58A38.68,38.68,0,0,0,279.14,55c-1.22-.48-1.22-1.66.79-3.32s-1.46-2.2-1.46-2.2-3.67.86-4.5,2.65,3,5,3,5l1.53,1.59.35,4.19s3.7,3.16,5.3,1.27-2.11-4.88-2.4-5.46S283.73,58,283.73,58Z"/><path class="cls-1" d="M260.66,120.71s1.15-2.55,1.56-2.71-.35-1.28-.35-1.28-2.58-.12-2.87,2.3S260.66,120.71,260.66,120.71Z"/><path class="cls-1" d="M258.9,56.72s6,3.55,8.84,1.28-1.94-2.23-1.94-2.23.79-.26.79-.71-3.95-2.65-4-3.06,1.63-1.79,1.63-1.79L263.75,49l-1,.6L260.63,51a3.47,3.47,0,0,0-.77,1.59c-.32,1.18-1.4.42-1.4.42-.26-2.59-3.48-2.75-3.48-2.75s-1.25,1.85-2.3,3.48.59,3.05.59,3.05C255.34,57.85,258.9,56.72,258.9,56.72Z"/><path class="cls-1" d="M353.72,0H106.56C-35.34,15.36-35.53,216.17,106,234H354C498.79,214.08,498.79,15.18,353.72,0ZM407,124c-1.13,1.35,2.36,1.25,2.35,2.58,0,.24-.13.31-.59.31-1.74.12.9,1.88.92,2.66.12,1.27,1.27,0,1.17.92,0,.34,0,.42.42.46,1.38.42-.91.27.8.88,1.13.28-.21.61.9.52,0,.82-2-.07-2.68-.15-.47,0-2.13-.19-2.19-.81,0-.44-.54-.32-.54-.56s-.47-.57-.41-.89-.27-.22-.42-.69c-.81-1-2.82-1.44-3.18.3,0,.22-.06.36-.15.31s-.1.48-.32.44c-.29.18-.16,1.26-.54,1.19s.54-1.22-.12-.85c-.58.2-.55-.13-1.46,0-1.31.42-1.7-1.88-2.78-1.58-.69.17-1.9.69-2.4.22,1-2.54,2.32-.58.75-4.12-.24-.57-3.19-1.46-4-1.84-.25-.25-2.16-1.32-1.64-.25.4.62-.57-.09-.72,0s-.42-.49-.27-.74-.29-.13-.25-.43-.83-.5-.85-.74c.09-.53,1.05-.06,1.36-.44s.91,0,1.1-.26c-.11-.3-2.79.16-2.46-.76,0-.24-.37-.43-.85-.43a1.93,1.93,0,0,1-1-1.08c0-.17.65-.12.77.07.3.2.62-.33,1.1-.51.9-.76,1.81.18,2.63.24.45-.52.81,2.45.61,2-.41-.56-.08,1.17.2.48,1.21,3.1,1.47,0,3.29-.61.69-1.87,8.48,2.67,10.25,3.1.23-.08.59,1.3,1.09.76C407.2,123.31,407.15,124,407,124Zm-23.6-2.59c1-.55,4.17-.53,4.07.85,0,.47-.1.49-.81,0s-1-.09-1.56-.34c-.27-.14-.34-.14-.34,0s-1.41.91-1.19.19C383.58,121.57,382.48,122.35,383.35,121.45Zm-9.51-3.36c.47.5.4,1.23,1.18.51.3-.35,3.1-1.25,2.9-.32-.06.63-.82-.14-1.15.66-.64.89-1.69.4-.7,1.86.72.86.05,1.9,1.11,2,.25,0,.3.07.32.6,0,2.68-2,2.36-.92.12-.5.32-1.5,1.3-1.37-.09.26-.61-1.17-1-.65-1.75.24-.59.14-.79-.32-.64-.3.1-.4.86-.44,3.53,0,.56-.07.61-.61.71-1.94.61.41-3.07-1-3.07-.63.11-.35-.51-.5-1,0-.68.84-1,.79-2,0-.68.57-1.15.47-1.82s.17-.34.2-.8c.19-1.12,1-.73,1.41-1.57,1-.15.69.47,2.12.42s1.5.64,2.51-.41c1.79-1.77.63.65.24,1.17C379.94,117.32,371.7,115,373.84,118.09Zm-4.28.73c-1.26,1.18-.24,1-.7,2.05-.34.65-.06,3.18-.86,1.49-3.33,1.91-.37-.3-3-.33,0-.25-.51-.13-.51-.36s-.17,0-.37.17c-.34.41-.79.1-1.07.34s-.42,0-.42-.36c-.34-.84-2.31.31-2.12-1.13-.21-.53.19-2-.43-1.85-1,.29-1.28-3.93-.88-4.11.32-.66.8-1,.95-.59s.72.09,1.07.37c1,.62.5-1.6.88-1.58,2.16-.39,2.53-1.18,3.56-2.8.49,0,.76-.54,1.31-.5.37,0,.41,0,.25-.24-.34-.42.78-.78.82-1.31.34-.33,1.23-2.8,1.47-1.58-.1.38.83,1,.72,1.34,0,.6,3.81,1.44,1.06,2-.49,0-.44.28.07.4,1.25.36-1.61.7-.9,1.26.14.13.14.3,0,.63-.44.56.61,1.23.39,1.79-.38.55,2.52,2.16.48,2S371.24,118.22,369.56,118.82Zm2.51-25.75a11.53,11.53,0,0,1,0-3.26c.6-.57,1,.21,1.73.07.54-.1.56-.1.56.56.09.88,1,2.68,0,3.07-.54,0-.53,1.55,0,1.36.29,0,1.29.59.68.63-1.15-.1-.85.71.13.45.59-.08.76,0,.85.17.22.4.44,0,.92.36.87.65.26-.91,1,.1.42.46-.54.88-.53.49-.27-.45-.92.05,0,.33,1.06.46-.27,1.13.25,1.86.66,1.33-.69-.33-.93.2-.25.3-.09-1.4-.41-1.27-.25-.08-.35-.61-.12-.61s.55.92.68,1c1.08.26-2.11-2.81-1.14-1.37.26.34.08.74-.22.3-.28-.69-.45.64-.81,0-.19-.22-.19-.31,0-.43.71-.53-1.56-.18-.66.33s.18,2.69-.61,1c-.12-.3-1.83-2.5-.68-1.56.1.29.61.35.61.07-.94-.13-.18-.81-.22-1.46-.55,2.21-2.5-3.84-1.18-2.31C372.16,93.41,372.17,93.39,372.07,93.07Zm7.36,8.33c.27.31-.35.75.09.76s.29-1,.66-.17c.17.65.84-.32.56.75,0,1,1.42,3.06.58,4.65-.09,1.42-.43-.7-.8-.58-.74,0,.31,1.17,0,1.58-.1.38-.3,1.34-.62.52-.13-.62-.78-.4-1.23-.88-.79-.25-.15-2.08-.78-2.31-.28-.15-.33-.11-.33.19,0,.52-.43.08-.59.32s-.42.19-.42-.2c-.13-1-.58,1.66-1.06.68,0-.47.08-1.71.8-1.66.57,0,.95-1.46,1.61-.55s.37-.33.87-.2c.34.26-.1-1,.15-1,1.08,1,1.26-.62.31-1-.36-.15-.48-.3-.48-.67,0-.75-.5-.29-.59-1.11-.16-1.67.4,0,.64-.45,0-.53-1.94-1.67-.2-1.58,1.44,0,.79,1.6,1.66,2.41C379.8,100.88,379,100.54,379.43,101.4Zm-2.51-.59c.47-.19,1-.81,1,.3-.24.88,1.5,1.18.58,1.8-.42.15-.95.12-.83-.07.06-.43-.34,0-.43.42-.33,1.14-.62.23-1.32-.25-.49-.36,1.08-1.34.24-1.31-.38.18-.28-.45-.63-.1-.73.85-.12-1.81-.66-2,0-.44,1.18.46,1.51.36C377.08,99.82,376.35,100.85,376.92,100.81Zm-4.42-.5c0,.1-.07.12-.17.07-.31,0-.19.94.17.88.42.12.35.46-.11.55-.89.4-2.07,2.38-2.78,3.12-1.12,0,1.09-2.37,1.41-2.29C371.25,102.29,371.69,99.61,372.5,100.31Zm8,30.18c-1,.29-2.5,2.21-3.43,1.78C376.63,129.64,386.09,128,380.5,130.49Zm1.17-61.93c-1.22-1.45.08,2.47-.81,2.73-.79.8-1.79-1.42-2-2.09.05-.1,0-.12-.07-.07s-.87-.69-1.08-.91c.42-.46,1.17-.7,1.2-1.36s1.53-1.18,1.53-1.81c0-.21.27-.27,1-.21.41.1,2.06-.53,2.34-.15s.62-.18.41-.32-.24-.71,0-.71.56-.89.45-1,0,.5-.32,0c-.57-.58.76-1.11.51-.38-.06,1,.38.57,1,.26.82-.52,1.39-3.43.18-4-.18,0-.23-.09-.17-.27.22-.32-.51-.8-.25-1,.27,0-.13-1.06.17-.86.1.07.19,0,.19-.15.33-1.17,3.67,3,3.22,3.49-.17.78.83,1.2,0,1.09s.43,1.09.35,1.42.1.71.14,1.14.83,1,.51,1.36c-.12.32-.13,1.43-.76.84-1.06-1.12-.25,1.59-1.16.29l-.25-.47c.24,1.11-.95.91-1.55.74,0-.13-.66-.34-.67-.15s1.17.66.42.85c-.37,0-.41,1.25-.86,1.05-1.22-.24-1.17-2.28-1.48-.14-.2.45-.46.6-.46.28-.27-.55-1,.31-.75.74S382.23,69.12,381.67,68.56Zm8.2-15.13c.76,0-.26.81-.85.73s-.8.3-.65,1c.19.4-.29.57-.17.2.07-.12.05-.14-.08-.07A2,2,0,0,1,387,55c-1.07-.63-1.16.09-1.79-.14-.22-.22-.46-.24-.46-.05s2.11,1,1.12,1.05c-.41.15-.72,1-1.05.1-.12-.5-.85-1.05-1-.72,0,.1-.07,0-.07-.34-.13-.71.72-.54.22-1.06-1-.92,1.58.12.73-.61,0-.59-.7-2.43-1.44-2.34-.27.14-.33-.32-.07-.2.17-1.53,4.45,2.77,5.35,1.61.15-.47.42-.42.42.07.3,1.7.32-1.68,1.19-.37-.25.25-.5-.14-.5.76C389.61,53.39,389.66,53.51,389.87,53.43ZM383.33,117c0-1-.23.67-.35-.21-.2-.41.41-.42,0-.69a5.83,5.83,0,0,1,.34-2c.92-1.57.07,1.52.88.68s.83.25.33.78c-.88.24,1.47,1.5-.17,1-1.55-.79.52,2.58-.51,1.55-.16-.26-.17-.26-.19,0,0,.39-1,.22-1.1-.2C382.22,116.86,383.49,117.87,383.33,117ZM346.64,12.17c3.33.75,5.74,1.44.33,1-.37.14-.8-.24-.28-.27,1.05-.54-1.11-.22-1-.87C345.69,11.83,346.27,11.9,346.64,12.17ZM296.55,5.29c.87-.08-1.31-.22.88-.63-.22-.19,3.29,0,3.29.58-.22.27.17.39,1.51.47,2,0,1.35.42,2.09,1,.88,1.08-4.52,0-4.88-.13-.64-.33-1.05.07-1.43-.28s-.08.26-.41.19-.24-.58-.37-.22C297,7.07,295.25,5.22,296.55,5.29ZM279.05,9c2.12-.21,3.51.75-.78,1.41-3.89.54-9,4.17-3.72,5.82.2-.07.26,0,.2.14.45.44-4.29.17-4-.51,0-.21,0-.22-.14-.05s-1.06,0-1-.29c-.34,0-1.85-.39-.66-1s-.69-.26.32-.93c.65-.57,1.26-.39.18-.8.67-.27,1.47-.76,1.29-1.54,0-.22,0-.31.28-.27a4.28,4.28,0,0,0,1.74-.71C273.09,9.77,278.44,9.68,279.05,9ZM268.27,4.1c0-.13,1.59-.33,1.09.1-.17.2-.15.26.1.26a5.67,5.67,0,0,1,2.63.5c1.09.35-.8.41-1,.77.18.24-1.8.36-1.17.08s-2.87.15-2.41-.12c.19-.15-.38-.47-.3-.22.36.33-1,.09-.81-.23-.23.22-1.48.88-1.82.22C265.25,5.21,267.26,4.36,268.27,4.1Zm-9,1c1.61-.24,2.29-.22,2.66.17,0-.26,1.45-.94,1.32-.51,0,.25.7.12.77.34s0,.17-.22.17-1.18.72-.29.44c.38-.14,1.42.23.49.24s-1.66-.2-1.39-.35.1-.16-.17-.16c-.49.26-.73.45-2.21.19C260.48,5.07,257.7,5.48,259.27,5.13ZM232.16,7.28c-2.7-2,2.6-1.52,3.51-.79-.84-1.37.94-.36,1.46-.88a6.31,6.31,0,0,1,3.31,0c.2.17.25.16.25-.07s.77-.37.92-.06c.07.15.13.17.19,0,.18-.31,4.6,0,2.08.78.45.66-5-.09-4.68.43.72-.19,1.77.87,2.26.79s.45.53,1.1.48c1.1.13.4.31-.09.49-.8.59-1.08,0-1.85,0s-.89,0-.55-.19c.69-.54-1.76-1.35-1.68-.66.23,0-.75.85-1,.85-.58.56-.34,1.53-1.86.67-.79-.43-1.07-.13-1.65-.81-.45-.49-1.73-1.29-1.32-.8.27.34.2.33-.64-.08C230.69,6.85,231.58,6.88,232.16,7.28ZM214.82,32.22c.68-.81,1.84.25,2.14-1.08.83-.46,1.17,0,.44.57-.48.53.09.28-.51.73-1,.52-.86.64.39.68,2.93-.16-1,1.83.31,2.38.67,0,.85,1.49,1.41,1.86a2.14,2.14,0,0,1,1.13,2.36c-.2.24-.18.24.07.05,1.18-.68,2.27.93.88,1.61-.64.4.14.5.27.75-.71.81-2.74.84-4.08.92-1.59-.26-1.15.53-2.23.47-.6-.18-1.44.71-1.9.27-.1-.13,1.16-.73,1.09-.85.06-.88,2.88-.89.49-1.23-2.74-.1,2.57-1.91-.4-1.6.15-.13,1.16-1.09.59-.8-.09,0-.17,0-.17-.08,1.53-.33,2.25.35,1.25-1.8.11-.24-1.1-.24-1.27,0s-.57-.58-.34-.58.56-.66-.15-.42-.6-.7-.34-.25.08-.58-.27-.16a.34.34,0,0,1-.58-.2c-.13-.17,1.17-.54.65-.61-.17-.05-.31-.19-.31-.32.1-.44-.65.22-.68,0s1.23-.48,1.09-.73-.37.32-.41.15a.25.25,0,0,1,.05-.17C212.53,32.75,214.2,33.69,214.82,32.22Zm-6.51,9.21c-1.09-.24,2.23-2,.75-2.13-1-.13.16-.6-.21-.87-.67-.91,1.46-.47,1.73-.73-.69-2,5-1.32,3.06.38-.72.25-.29,1.57-.63,2.18-.24,1.12-1.21.44-2,1.07a2.79,2.79,0,0,1-2.46.39C208.09,41.91,208.57,41.46,208.31,41.43ZM214.08,27c.1-.17.15-.17.15,0s-.37.35-.25.56-.3.31-.14.65.08.25-.19,0c-.45-.31.16-.35,0-.68s-.68,0-.32-.58C213.66,26.55,213.83,27.38,214.08,27ZM136,7.24c.51-1.85,6.68-.11,3.32.95-1-.07-.9-.43-2.24-.44C136.19,7.6,135.21,7.8,136,7.24Zm-8.4.95c.12-.19.47-.26,1.34-.26,3-.19-2.53-.17,1.09-.69,2.08-.52,3.12.2,1.5.44-.66,0,.17.49-.72.29-.33,0-.48,0-.36,0C131.28,8.42,126.8,9.14,127.55,8.19Zm4,5c0-.79,2.44-.58,3.26-.85s1.38.52.85.65c-.53.81-1.44,2.29-2.84,2.35-3.15.73-1.3.16-2.66-.69-1.76-.69.1-1.52.49-1C130.81,14,132.26,13.59,131.5,13.14Zm-8.7-4.63c2.35-.24,2.87,0,1.44.51-.09.36-1.54.44.24.58,2.15.15.93,1,2.51.94s-.32-.3.78-.49c.82-.11-1-.22,1-.68.4-.22,1,.08.92-.13s-.05-.2,0-.2c.58,0,0,.76-.19,1,6.88-.07-8.35,2.95-7.88,1.49,0-.38-2.79-.28-1.51-.81,1.65-.78-2,.53-1-.29.78-.5-.9.17-.76-.24,0-.37-.74.67-.85.19C113.67,10,122.7,8.58,122.8,8.51ZM100,17.28a.35.35,0,0,1-.32,0C99.36,17.17,100.2,17.15,100,17.28Zm-1.73.24c.46-.21.73-.21.42,0C98.58,17.65,97.75,17.78,98.29,17.52Zm55.47,175c-.21-.26-.92,1.35-1.46.68-.49-.27-.71-.71-.24-.53.77.16-.39-.9.09-.71a7.25,7.25,0,0,1,3.29.29C156,192.6,152.54,194.56,153.76,192.49Zm14.61-56.4c-.85-.32-.32,3.91-.4,4.32-.29,3.84-1.12,7.59-3,9.94.07.88-5.21.53-4,1.68.06.28-1.25-.13-1.19.14-4.86,2.51-1,4.28-3,7.31-.47.51-.57.75-1,2.34,0,.07,0,.12-.06.18s0,.05,0,.08,0,.06,0,.07c-.53,1.25-.37-1.59-.91-.19.1.31-.81,1.32-.76,1.57.46.36.86-1.1,1-.57s-1.23,1.31-1.17,1.95c-.12.63-.56,1.54-.76,1.54-.07,2-3.39,2.19-4.4,1.34-.16-.24-1.17-.1-1.4-.46s-.33-.27-.28,0c.27.68,2.06,1.2,1.85,1.89.25,1.76,2,.4.51,3.49.14,1-3.64,1.33-4.82,1.7.19.43-.88-.46-.2.29.46.27,0,1.32.26,1.61s.2.73-.24.91c-1.56,1-4-2.12-2.09,1.6.46,0,1.56-.34,1.66.13s.21.85-.06.85-1,.7-1.28,1c.1.34.69,1.48.34,1.58-.15.08-.17.15,0,.23.59.66-2.29.31-1.49,2.16.7,1.18,2.85.59,2.91,2.29,0,.69-1.88,1.64-1.23,2.19.54,1.95-2.58.64.59,3.71.78,1.43,3.38,3.51,4.92,3.5.71-.12.76.56.32.67s.26-.43,0-.5-.32.53-.61.5-.22.11-.17.26c.48.46-2.37-.15-1.53.34.17.12.27.29.2.35-1.37-.34-3.52-.62-4.54-1.34-.25.61-1.44-.57-1.51-1.1-.19-.35-.87-.54-.87-.22s.68-.12.73.26c.28.39-1,.32-.9,0,.05-.49-.95-.31-.79-.68,0-1-.48.29-1.09-.63-1.21-1,1.37.32.56-.45-.07,0-.31-.12-.53-.33-.61-.65-1,.16-1.51-.76-.2-.31-.37-.49-.39-.39-.13-.16-.18-1.54-.81-1.26a14.37,14.37,0,0,1-1.24-2.44c-1.64-1.54.56-1.78,0-2.66-.1,0-.12-.12-.07-.27.12-.34-.33,0-.61-.26-.53-.4-.6.68-1.05-.08-.09-.46.49-.69.29-1.26s.29-.31.29-.93-.65-.93-.87-.58-.18,0,0-.37.91-.19.46-1c-.09-.12,0-.2.08-.2.73-.08.48.8.63,1.12,0-.06.93-.22.56-.42-.5-.84-.36-2.83-.88-3.48,0-.21-.35-.61-.24-.19s-.9-.22-.24.56c.29.3-.17.12.14.46s-.11.16.15.49c.45.92-.93,1.51-1.07,0,0-.37-.44-1.4-.12-1.56-.69-1.73-.67-4.57-1.93-6.33-.27-.82.48.07.42-.65.89-4.67-.37-7.87-.84-12.12.46-1.15-.36-8.15-.21-8.38.36-2.56.14-6.87-3.36-8.84-7.1-2.23-7.22-10.85-12-15.4-1.68-1,.16-.65-.66-1.53-.89-1.08,0-2.52,1-3.07.31.09.43-1,.22-.54-.26.64-.41-.41-.88-.67-.31-.27-.48-.49-.36-.49s.19-1.17,0-1.51c0-.34.69-.47.59-1,0-.66.59-.44.51-1.26-.39-1,1.75-.88,1.44-1.64-.18-.57.46-.43.43-1s1.24-.79,1.34-1.29c.62-.12.26-1.65.35-2a10.2,10.2,0,0,0-.12-3.65c-.59-.77-1-1.53-.68-2.15-.11.07-.23,0-.28-.19-.14-.38-.71-.55-.9-.92l-.36-.55c-.37.26-.17.53-.75.77s-.58.27-.25.7c.8.61-.9,1.65-1.18.87-.31-.48-.82-.75-.67-.35s-.74.18-.24-.18c.57-.64-1.08-1.13-1.17-.64.11.61-.81-.59-1-.43-.8-.4.52-.92-.82-1.42-.32-.15-.57-.4-.57-.55,0-.53-.18.56-.83,0-1.54-1.25.75-1.36-2-4-1.21-1,.53-1-.9-1-1.08.18-2.15-.75-3.48-.93-1.43.17-2.93-3.45-4.61-3.33-2.23,1.15-3.54.48-5.44-.67-.86,0-2.73-1.53-3.49-2-1.16,0-4.57-2.77-3.54-3.73.67,0,.13-3.49-.15-3.41a22,22,0,0,0-3.26-4.26c-.08-.26.87-1.11.2-1.14-.49-.09-.25-.66-.72-.77s0-.94-.5-1S78.59,73.84,78.41,74c.17.72-.56.32-.15-.27.21-1,.46-3.4-1.12-3.44-.86-.58-1.09,3.29-.1,2.91.17-.29.27-.19.4.43.28,1-.29-.21-.42,0,0,.34.39.35.34.77s0,.32.16.12.46,0,.2.2-.26,1.07-.06,1.17c.48.14.73,2,1,2.22.27-.12.17.25,0,.32s0,1.1.23,1.1c.62.14-.22.49-.08,1,.11.81,0-.66.52.22.44.48,0,.07.28,0,.26.18.52,1.78.08,1.91s-.74.51-.73-.12c-.14-1.6-3-1.65-1.92-3.19.94-1.8-2.2-2.12-2.59-3.66,1.76-.1,1.74-1.29.48-2.36-1.21-1.27.28-5-1.42-6.11-.13,0-.18-.1-.12-.25.12-.48-.81,0-.78-.49-.14-.53-1.51,0-1.27-.93.14-.43-.7-2.52-.22-2.7.2-.13.2-.16,0-.3-.36-.09,0-1.28-.2-1.45-.83-3.84,2.27-7.37,4.64-10.4,1-.45,1.64-4.57,2.65-4.42s-.63-.49-.52-.61-.48-.29-.32-.5c-.08-.35-.77-.34-.65-.88.18-.11-.93-.65-.65-.64.11,0,.18-.2.16-.47-.26-.6,1.07-.5.44-.41-.22,0-.39.15-.39.23.36.25,1.12-.3,1.59.07.25.1.2,0-.15-.32-.67-.52-.07-.56-.23-.84-.33,0,.62-1.36.28-1.23s-.41-.7-.13-.71c.11-.11-.21-.39-.39-.65,0,.1-.15,0-.24-.11s0-.18.12-.16,0-.13.16-.16c.16-.21,0-.94.58-.79.19.16.43-.71.6-.28s.15-.22,0-.27,0-.74,0-1c-.54,1.68-.46-.23-1.09.58-1.06,1.07-2.16-.84-.67-1.15H76.4c-1.09.11.64-.89.54-1.15-.23-.06-.91,1.16-.92.36,0-.36.28,0,.25-.48s-.7,0-.15-.6c.62-.94.59-1.48.13-2.06.07-.37-1.12-1.05-.72-1.28a12.3,12.3,0,0,0-4.69-.29c0-.32,1.2-.31.27-.57-.37-.28-2.38.44-1.17-.3,1-.31-.25-.76-.44-.33-.06.24-.78,0-.75.37,0,.68.22,0,.42,0,.82.09-1.48,1.17-1.64.92-1.2-.56-4.24,1.42-5.05.77,0-.19,1.07-.44.92-.68s.08-.26.32-.37c1.44-.89-1.18.16-1.41.37,0,.08-.18.16-.41.16-.48-.06-.5.47-.82.49-.07,0-1.06-.07-.62.16a.27.27,0,0,1,0,.37l.09,0c.3,1.12-.49.69-1.12.83,0,1.28-2,1.4-3,1.78-1,.11-.77-.46-.28-.86a4.31,4.31,0,0,0-1.47.63c-.21.31-1.51.37-1.6.67.1.24-1-.1-.94.15a9.33,9.33,0,0,1-3.59,1.24c-.54-.22-.53.39-.17.43s.23.07.08.35c-.23.6-.57-.24-.87.12-.54.66-.66-1.12-1.55-.3-1.13.46-2.71.65-4,1-1.4.32.34-.9,1.34-.92.75,0,4.73-1.76,4.73-1.25.16.08.31.1.31,0-.38-.18,3.34-1.36,3.76-1.54.61-.06,4.85-2.45,2.33-1.93-.24.33-.76.35-.64,0,.24-1-2.3.41-1.84-.12-2.13.46.38-.8.91-1.48s-1.34.13-1.53,0c-.6.15-.6-1.32,0-1.36.22-.08.37-.22.32-.3-.25-1.18,2-1.68,2.84-2s2-1.27,2.61-.94c.6.12,1.64-.15,1.63-.42.19-.23,1.28.11,1.59-.05.49-.11,1.42-.93,1.07-.93-.18,0-.18,0,0-.17.4-.25-.08-.2-.79.08-1,.37-.84-.18-2.17-.05-2.7.12-.6-.67-1.17-1.27-1.18-.44,7.95-2.28,5.32-1.08-.29,0,.53.27,1,.3.28.11,1.59-1,.82-1.15s.63-1-.67-1.42c-1.12-.44,1.83-.92,2.66-1.07a65.64,65.64,0,0,1,11.29-2.68c1.25-.54.84,0,1.51.05,3.55,1.2,8.48.93,12.22,2.06.09.93,1.81.52,2.69.12-.18,0-.18-.06.11-.21s1.51-.38.92-.11c.73.08,1.83.42,2.13.25s.25-.17-.19-.09c-1.18-.11,3-.74,3.83-1,.59-.26-.14.5.42.44,1.46-.28,2.17-1.9,1.92.67.62-.08,3.45-2,2-.17a.18.18,0,0,1-.18-.17c-.14-.45-.67.09,0,.25.82,0,2.58-.81,3.18-.16.42.79,6.79.66,4,1.82-2.23.26.18.68.27.23.4,0,2.78.28,3.83-.28.37-.15.52-.14.7.05.57.7-.52.06-.72.17s0,.23.69.35c1.35.29-.51-1.09,2.87-1.41-.79-.14-7,1.56-5.9-.15-2.46-.37-3.92-1.58,1.1-1.62,1.09-.06,2.78-.07,1.61-.28a12.22,12.22,0,0,0-2.36.1c-1.27.08-1.57.06-1.79-.17-1-.6,1.24-.54.49-1s1.27-.75,1.34-1.05c-.6-.31-6.08,2.57-6.17,1.25.14-.59-.68-.65-1-.73,1.53-1.06,3.84-1.65,5.19-2.91,1.93,0,5.78-.37,6.94,1.22.88,0-.62.9.43.48.48-.46,2.44.81,2.38.1s1.53,0,1.23.62c-.62,2.12,1.18-2.3,2.8-1,.18.12.31.12.31,0-1.06-.67,1.94-.91,2-.35-.57.38-2.69,1.38-2.51,2.26,0,.39-1.2.74-.37,1s1.54.65,1.54.84S126,18.9,126,18.2c0-.3-.78-.31-.48.08.4.75-.25.33-.64.84-.28.28-.42.32-.6.17s-2.32-.15-2.41-.45c0-.14-.53-.5-.46-.24s-.14.22-.36,0-.82.17-1.08.3c.15,0,1,.2.9,0s0-.14.13-.09c.3,0,.25,1,.49.64.08-.28,1.06,0,.43.15-.7.52.7.06.79.42s4.36.36,4.26-.2c.28-.54,1,0,1-.39-.37-.39-1.49-.53-.13-.89.82-.1.72-.44,1.4-.73.6-.46,1.79,1,2-.13-.15-.42.79-.68.8-1,.91-1.27,3.06-.91,3.44-2.84.36-.08.91-.8,1.3-.68.16.06.26,0,.22-.09.41-.69,3.35-.36,4.21-.15,0,1-5,1.57-5.63,2.51.86.23,0,1,.32,1.54s-.77.83.17,1.15c.17,0,.24,0,.25.12s0,.14,0,.35l0,.05c0,.08.11.11.43,0,1-.35,1.36.76.39,1.23-.75.29-.65,1.43.26.91.53,0,.67-1.41,1.2-1,.14-.22.57-.47.31,0a.37.37,0,0,1-.25.18c0,.27,1.49-1,1.6-.86.47-.22.32-1.17,1-1.3.13-.07,0-.1-.42-.09-1.61.15-.6-.39-1.2-.3-2.18-.66-.42-1.19,1-.93-.37-.09-1.79-.32-1.89-.41,1.1-2,5.51-3.65,7.23-2.77-2.41,1,3.25-.82,2.93.15,0,.25,0,.25.3,0s.53-.25,1.62-.17c2.12.16,2.29.86,1.34,1.17.28.1,1,.08,1.08.47a.19.19,0,0,0,0,.08c0-.1.86-.44.52-.12a.47.47,0,0,1-.39.16h-.12c.09.16.48.09.4.31s.44.05.07.45c-.19.25-.19.27,0,.08a1.51,1.51,0,0,1,2,.36c.37-.12.94-.23.48,0a.91.91,0,0,1-.33.11s0,0,0,.08c.06.39.42,0,.92.26a2.27,2.27,0,0,1,.92.54c.09,0,.15-.08.15-.11-.11-.32.28-.56.08-.17s.59-.15.63.17c.11.13-.22.26-.66.37.11.17.16.34.08.45.3,0,.58.05.56.13s-.43.09-.77,0c-.12.2.55.92-.26.64-1.89.29-.45.74.25,1.25.36.29.88-.13,1.27.42.24.43.81.32.74.62-.07.12,0,.17.12.12s.91.37,1.18.58c-.23.19-.77.62-1,.62-.79.06-.4,1-1.3.8-1.21-.1-.5,1.23-2.11.64-.86-.38-.33-1.94-2-1.54-.38-.19.65.69,0,.6-.52.18.18,1.33.41,1.17.5,0,.73.27.55.6-.35.44.58,1,0,1.31-.26.4-.72-.05-.73.43s-.55.27-.19.48c.48.46-.5.78-.6.19a.71.71,0,0,0-.48-.44c-.52-.05-.07-.54-.44-.26-.32.45-.6-.49-.85-.35-.07.05-.27,0-.45-.21-.55-.6-.38.33,0,.37s.24.39.75.75.22.85.55,1.09c.92-1,1.12,1.27.05.4-.55-.51-.29-.09-1.19-.52s-1.34-.17-2.07-.68c-.38-.3-.52-.34-.87-.17-1,.44-.53-.51-1.12-1-.44-.34-.12-.91-.53-1-.78-1.14-3.5.5-4.45-.43-.34-.58,1.59-1.66,2.51-1.27.62.09,3.18.12,2.49-.6-.52-.7,2.74-1.18,2.89-1.84-.06-.21.21-.79,0-1h0a1.94,1.94,0,0,1-.59,0c-.2-.06,0-.08.24-.08-.2-.09-.19-.48-.29-.19s-.14.17-.36,0-.23-.18-.16,0,.8.27.8.61-1.43.23-1.24-.15,0-.26-.2-.1c-2,2.53-5,.34,0-.61.19-.44-1.29.13-1-.23s-.38-.57,0-.85.67-.09.52.18.26.15.53.15a.1.1,0,0,1,0-.07l0-.06c-.52-.3-.61-.73-.88-.6s-.15,0-.08-.15c.17-.41-.38-.19-.4-.51-.11-.06-.34.71-.74.56-.23,0-.41.08-.41.18-.15.42.94-.32,1.17-.05-.06.35-1.41,1-1.66,1.15.14.67-.35.43-.57.76s-.31-.12.07-.36c.64-.44-.63-.4.75-.92.59-.15.32-.48-.3-.36s-1.25-.55-2-.22c-1,.4-.17.36.06.62.07-.06.16-.05.14.13a.18.18,0,0,1-.15.16,2.48,2.48,0,0,1-.72.58c-1.56.52-.45.81-1.1,1.59s-1.8.58-2.42,1.2c-.1.27-.14.27-.44-.1-.85-1.08.32,1.71-1.25.68a.79.79,0,0,0-.09-.4c0,.1,0,.13,0,.06s-.07-.1-.15-.13a.74.74,0,0,0-.18.49c-.17.89,1.77,1.13,1.69,1.75.1.55.51.09.7.52.35.83-2.57.73-2.26.27.06-1.25-3.75,2-3.49.57.1-.32,0-.34-.52-.29-1.89,0,.66-.63.77-.95a5.45,5.45,0,0,1,1-1.13c2.89-2.77-2.9,2-4,1.62a5.62,5.62,0,0,0-3.1,1.63c.16.12.13.14-.1.05-1.18-.46-.66-.08-1,.12a29.49,29.49,0,0,0-4.6,2.64c0,.16-2.68,2.51-1.07,2.17,1.94-.2-1.18,3.22,1,2.16,2.13-.41,3.13,1.76,4.83,2.29.65.63,4.49-.24,2.46,1.57.05.41-1.11,1.73-.07,1.61.81-.09.84,1.21-.45.55-.79-.43-.16,1,.1,1.15.45.4.17,1.47,1.07.69.51-.72.75.43.8-.14a5.83,5.83,0,0,0,1.42-4.49c2.08,0,7.74-2.9,4.52-4.88-.48,0,.27-.66.45-.67.84-.59,1.89-1,2-2,.46-.77-1.71.19-.2-.57,1.65-.55.61-2.8,2.86-2.16,2.12.34,2.43.56,2.65,0-.6-.25.23-.51.47-.05s1.69.88,1.34,1.45,1.46.28,1.57.7a6.26,6.26,0,0,0-1,2.09c.13.4.92,1.73,1.91,1,1.08-.16,2.38-1.79,3.27-2.13.22.13.11-.68.62-.73.13,1,.15,2.87.8,3.69.3.17.3.2.07.57-.39.52.43,1.1-.28,1.5-.64.16,1.09,1.09.26,1.47-.1.09-.05.12.12.07.4-.13,1.22.14,1.17.37s.13.18.43.17c1.92.07-.26,1.11,1.34,1.6.52.1.57.32.3,1.39,0,1.15-1.22,1.35-1.77,1.75-.12,0,1.17.14.8-.06-.15-.1-.08-.15.24-.15.93,0-.1.46,0,.76s-.07.69-.22.42-1,.62-1.27.8c.29,0,1.66.41.86.52-.35,0-.57.53.08.44s.36-.23.73-.27.18.52.47.08.57,0,.25.1c-.1.12,1,.48.29.76-.4.16-.32.61.1.51.25-.06.32,0,.28.19.1.35-1,.18-.83.32.42,0-.58.82-.37.88s1.42-1.2,1.07-.42c-.21.32-.42,0-.45.34.12.58.25,0,.45-.09.86.07-1.7,3-1.52,1.12,0-.21-.37.1-.24.24,0,.44-.5-.15,0-.5.26-.3.6-.25-3.66-.44-4.6-.07.1-1.24-1.42-1.34,0-.21.5-.6.65-.51.95-.49,2-2.18,3.61-3.58-1.46-.22-2.81.92-3.95,1.54,0,.23-7.6.08-7.6.3-1.25,1.15-2.53,1.21-4.05,2.36-.66.6-.56.61.37.06.94-1,7.86-2.24,4.78.15a1.71,1.71,0,0,0-.61.33l.12.06a2.87,2.87,0,0,0,.74-.14c-2.81,2.16.24,3.2-.67,2.26-.69-.79.23-.33.2-.6s.53-.49.32,0c-.78.91,2.92.27,1.71.85-.45.21-.73.93-1.14.43,0-.18-.8-.21-.92,0s1.27.47,1.72.32c.76.28,3-3.07,2.58-1.15-.27.43-.25.5.05.5.78.21-.55,1-1,1-.23-.09-.67.64-.81.58a17.27,17.27,0,0,0-2.95,1c-.36-.1-1.79.5-1.88,1,0,.21-.68.09-.66.32-1,.63-1.56-1.39.23-1.8.89-.42,1.5-1,.47-.69-.38.22-2.14.42-1.91.64.44,0,.17.3-.31.31-1.73.53-5.72,1.68-5.49,3.66.51,1,.37-.24.66,0,.62,1.3-2.49.77-2.76,1.4.86.29-2.92.65-2.78,1.44,0,.35-1.89,2.32-1.82,1.47-.11-.47-.33.11-.22.48.34.66-.89,1.46-1.07,1.39.15.06-.81,1.53-.71.8.5-1,.5-2.28,0-.91a.26.26,0,0,1,.09.09c.2.35,0,.29-.17.15,0,.1-.07.21-.1.34-.07.37.11,1.41.12,2.24a.32.32,0,0,1,.15.13c0,.1,0,.1-.15.07,0,.68-.2,1.14-.78.85.4-.06,1-1,0-.3-1.09.38.29.92-1.08,1.12-12.4,5.44-4,7.67-8.08,13.89-.24-.39-.74.22-.68-.49-.06-.55-.64-1.12-.82-1.53a3.77,3.77,0,0,1-.27-2.69c.6-1-.11-1.32-.48-2-.35-1.23-2,.89-2.27-.23s-4.21-.66-4.48-.4c-.09.39-1,.66-.34,1s-.3,1-.38.52c-.13-1.15-.75.25-1.94-.18-.4-.27-.11-.53-1.07-.5-2.06-.28-1.28-.89-4.76,1.18-2.19,1.31-2.56,1.76-2.66,3.28-.79,2.76-2.92,6.27-.84,9.46.3,1.74.93,1.26,1.82,2s1.81-.44,3.28-.35c3.67-.79.86-4.37,6.15-4.2,1.81-.25,1,.89,1,1.76-.25.4-.55.45-.4.06-.58-.32-.86,3.24-1.79,3.78a8.16,8.16,0,0,1-1.15,2.61c.34-.2.64.44,1,.06.48-.18,1.8.2,2.31-.13,1.72-.4,4.56.81,3.28,3-.45,2.07-1.67,4.68.43,6.23.56.2.17.53.52.81s0-.44.53,0c.4,1,2.93-1.41,3.08-.74l.27.67c.68-.14,2.47,1.91,2.75,1.85-.26-.38.9-.76.9-1s.66-.69.83-.77c0-3.25,3.82-1.93,5.07-4,1.3-.49,1.26,1,.31,1.12-.67.19.05.67,0,1-.21.5,1.08-.6,1.35-.52.7,0,.28-1.15.7-1.34s.44,0,.44.51c0,.28.1.39.39.39a1.43,1.43,0,0,1,1.47,1.56c.49,0,3.13-.4,2.89,0,.21.78,2,.69,2.17-.22-.25.08,4-.41,3,.09-.24.33-.86.07-.71.52.13.2,0,.76.27.41s2.52.78,1.81,1.48c-.22.29,0,.61.41.51a3.52,3.52,0,0,1,2.68,2.42c.48.29,2.73,2.18,3.07,1.53.42-.38,2.8.17,3.48.51.09-.12,2.06,1.82,2.12,1.73.67-.17.8,3.15,1.27,3.2,1.53.66.33,2.25.87,2.7.46.14.61.77,1.3.8s.71.17.38,1.15c-.26.73-.21,1.09.06.38,1.14-2.36,3.51.75,4.6.05a2.64,2.64,0,0,1,.63,1.08c-.3.21,1,1,1,.63.63-.46,2.6,1,3.75.63,2.56-.28,4.64,3.86,7.12,3.47C174.46,129.7,170.65,132.11,168.37,136.09ZM161.54,21.23c.07.09,0,.12-.23.07C160.53,21.1,161.39,21,161.54,21.23ZM154.47,28a.35.35,0,0,1-.32,0C153.82,27.86,154.65,27.84,154.47,28ZM130.06,90.29c-.08-.29-1.12-.34-1.61-.09-.29.16-.49.19-.53.09-.17-.63-.94.74-1.18,1-.35-1-1.84-1.17-2.65-.83.34.41-1.61-.33-1.12-.69,0-.6,3.12.42,2.41-.39a1.12,1.12,0,0,1-.21-.68c.15-.81-1.48-.29-.3-1,.47-.23.59-.25.85,0,.6.36,3.31-.11,3.36.66.23.4.85.23,1.32.84.95.77.2.65.15,1.15C130.63,90.57,130.06,90.42,130.06,90.29Zm-16.18-6.43c-1.28,0-2,1.16-3.23,1.2-1.23-.31.67-.39.11-.71-.22-.13-.22-.17,0-.17A9,9,0,0,1,113.64,83c1-.32,4,.29,4,.8-.15.2,1.14.48.9.24.75-.74,1.41,1.46,2.82,1.74.49.14.73.31.71.49.25.44,1.46.45,1.87,1.11-.79.52-4.65.61-4.72.29-.1-.68-.87-1.18-1-1.92,0-.36-.07-.41-.37-.34s-2-.73-2.34-.73-1.53-.36-1.53-.51S114.76,83.92,113.88,83.86ZM190.18,20c-1.94,1-4.36,3.37-6.47,2.58-.41-.3.33.35-.78.24-1-.06-.82.7-1.79.72,0,1.32-1.47,2.35-2.6,3-.87.84-1.58,2.45-2.56,3.25-1.43,1.88-2.66-1.2-4.36-.69-.85.51-.46-.39-.9-.63-.28-.3-.94-1.53-.81-1.93.16-.65-.9-.87-.44-1.55.22-.34-.56-.23-.11-1.05.29-.65-.05-.48,0-.88.08-.19,0-.22-.19-.14-.52.25,0-.62-.27-.73s.15-.74.58-.91.3-.15.08-.15c-.9-.51.8-1.38,1.19-1.9s.49-.53,1.26-.45c1.11.51,1.93-1.53,1.08-1.57-.34.08-.64-.4-.88-.29.35.5,1.46.7-.25,1.1a2,2,0,0,1-2-.35c.16-.22.68-.81.56-1s.12-.1.39-.05c.63.1,0,0,.16-.27a3.85,3.85,0,0,1,2.18,0c.19.29.41.19.38-.17s-.79-.19-.77-.56a.14.14,0,0,0-.11-.2c-.26.08.06.66-.41.59s-.51-.39-.09-.27c.14,0,.21,0,.16-.05-.23-.27-1.41.2-1.56-.27-.57-.34.81-1,.5-1.21s-.25-.41.17-.41c.68,0-.45-.22.19-.66s-.23-.16-.49-.13c.08-.09,1-.79.56-.66s-.63-.25-.1-.26c.74-.08-.66-.05.08-.42s-1.23-.57-.34-.92c.2-.76-6.09-.85-6.46-.64-.42.57-3.28-.7-2.92-1.17.07-.16-.05-.22-.34-.22-.85-.12,0-.34.68-.28,1.92,0-.2-.28-.75-.62,1.06-.64,3.13-.82,6.11-1.12,1.86-.09,3.38-.8,1.6-.87C166.42,5.11,175,5,175,4c-5.69.59-13.56,3-19.37,4.86-.06.11,0,.15.33.06,1.18-.09-.23.89-1,.78-.58,0-.37.76-1,.68-1.3-.05,1.2-.61-.69-.42-.71.07-.92,0-.68-.07.13-.47-6.53-.09-7.28.15-.39,1.35,8.09-.56,7.87.7.74,1.5-14.35,1.81-11-.07,1.56-.65-1.26-1.28-1.37-.24-.36.27.56.32-.21.89-.46.73-1.89.12-2.39.59-.76-.26.4-.28-.13-.58s.35-.31-.19-.52c-.8-.06-.56.56-2,.45-2,.25-.51-.52-1.91-.54-2.76-.07-.2-2.43.49-.85-.13.18.26.44.25.11.09-.57,3.35-1,3-.62-.13.22,0,.22.43,0,1.26-.35.63.8-.09,1.22,1-.11,3.61.09,2-1.2-.52,0,.29-.19.3-.32a3.54,3.54,0,0,1,2.82.18c.21.3,1.73-.2,1.93.24.24.2.34.22.44.07.17-.33-.28.13-.27-.14.51-.62.84-.11,1.78-.44.67-.35,1.68.22,1.58-.39-.24-.89,1.87-.5,1.93-.34,1.37.21.27-.59-2.37-.44-2.2.11-3.11-.35-2.61-1,.39-.23-1-.1-.72-.64-.13-.58,1.52-1,1.9-1,.55-.07.26-.4.95-.36.87,0,.63-.38,1.63-.33s1.12.54,1.88.74c.24,0,.39.15.36.29-.12.38.46-.3.73-.2s.17-.07-.2-.19c-4.21-1.81,5.87-1.17,7.16-1.61-.47-.67,15.45-.58,15.89-.05,1.48.06-.46.66,1.32.42.46.07,5.1-.63,4.92,0,0,.31,0,.31.22,0-.14-.56,2.41.29,2.06-.17s1.18-.15,1-.44c-.21-.52.63.44.92.22s.44.3.83.29-.47-.58-.56-.72c2.34,0,6-.4,8.73-.45,4.84-.18,9.91-.12,12,.91-.2.11-.82.11-.68.44.07.12,0,.31-.19.44-1.06.63,1.5-.33,1.33-.52s.63,0,.49.22.59.1.52-.12.51-.28.38,0c.46.77,1.2-.3,3.07,0,4.53.17.32.82-.88,1.15-.83,0-.21.3-1.06.43s-.62.45-1.57.54c-2.15.19-.36.44-.87.54-.2,0-.25.11-.18.29.15.52-1.49-.13-1.67.43-.4.34-.32.67.09.33s.44.27.91.34c1,.5-.61.26-.61.41.22.15,2.15.14,1.28.76-.3-.11-.89,1.76-.75.68.15-.51-.32,0-.17-.37s-2.1-.48-1,.07c.87.58.23,1.41-.08,1.88.17.19.93.14.83,0-.44-.5.91-1,1-.53-.14.24.5.1.34.34-1,0-2,1.21-3.14,1q-.45,0-.12.12c1.28.81-2.16.6-1.66,1.25.09.24,0,.32-.2.32s-.26,0-.09.16c.36.22-.22.57-.76.47s-.37-.05.14.19c.84.17.63,1.45.33,1.88a4.93,4.93,0,0,1-2.13-.19c-.22-.25,0-.8-.7-.72-.85-.12-.05.8-.78.78s2.42.47,3.11.54c-3.16,1.16-5.64,2.64-9.88,2.48C190.89,19.13,190.66,20,190.18,20Zm7.36,3.94c.1.24-.3.11-.36,0-.32-.4,3.63-.79.73-.9-1.53.18-.71-.27-.27-.46.18-.48.66-.43,1.09-.75.14-.64,1.66.35,1.54.77-.07.75.31-.1.64.1s.31-1.22.85-.34c.1.29.12.29.27,0,.12-.48,2.32-.26,2.67-.31s.52-.93,1.13-.34c0,.31,1.82-.28,1,.24-.59,1.05,3.19,1-1.25,2.73-1.52.42-3.65,1.48-5.33.71-.34-.36-2.07,0-2.15-.39,0-.13.17-.24.42-.24C199.94,24.45,197.68,23.44,197.54,23.9Zm84.83,116.67c-.16-.21-.51-.63-.68-.84l.12.77c.2,1.29.19,1.44,0,1.41s-.27.13-.47,1.35c-.14.9-1.4,3.87-1.6,4.77-.8,1.56-1.21,5.67-2.88,6-2.91,1.33-3.52-.71-3.68-3.16-1.15-2.43,2.06-3.52,1.31-5.95-.58-2.68,0-2.28.32-3.83,0-.38.08-.46.39-.46a8.06,8.06,0,0,0,3.76-2.14c.17.05.26,0,.26-.24,0-.4.36-.43.32-.81-.18-1,.44-.56.58-.65-.27-.1-.38-.75.12-.37.75.61.46-1.18.84-1.53.62-1.25,1.55,2.33,1.53,3.14C282.66,139.13,283.08,139.64,282.37,140.57Zm30.59-27c-.7.75-.68-.24-.79-.69s.26.33.28,0-.42-.35-.28-.66-.3-.4-.23-.94.3-.62.2,0c-.05.36,0,.51.1.42s.48.95.31,1.22S313.42,113.21,313,113.59Zm9.75-5.44c-1.94,1-1.75-2.83-1.77-3.36a.81.81,0,0,0-.18-1.12c0-.28.56.15.51-.3C320.3,100.15,326.14,107.48,322.71,108.15Zm18-14.5c-.16.5-1.22.2-2,0,.23-1.54.27-4.55-1.35-4.16-.16-.15-.16-.2,0-.2.23-.16,0-1.63-.68-1.39a6.76,6.76,0,0,1-2-2.83c0-1-.38-.52-.63-1s-.42-.27-.27.1c.09,1-3.4,1.52-3.75,1.14s-1.47.27-1.32.79c.23,1.34-.48,1.52-1.38,2.11a31.89,31.89,0,0,0-3.85,4.12,1,1,0,0,1-1.08.88c-.42,0-.27,1-.85.75-1.44-.61.32,4.89-.48,5.15-.52.09.43,3.16-.35,2.92-.57-.17-.94,1.45-.48,1.27.26,0,.59.54,0,.36-1.51-.64-1.26,2-2.58,1.43-3.35-5.8-6.49-12.68-7.37-19.68.05-.09,0-.17-.11-.17-.27,0,0-.85-.15-.85s-.32.63-.15.8c.39.39-.88,1.54-1.77,1.58a10,10,0,0,1-2.66-2.53c.3-.39,1.16,0,1.46-.46.31-.25.29-.25-.24-.17-.88.36-2-1-2.78-1.42-.66.12-.77-1.42-1.34-1.53-.74-.43,0-1.11-1.9-.71-3-.1-10.12,1.43-11-2.48-1.08-.68-.31.54-1.69.54-.68,0-.76.37-1.31.1s-.22.13-.52.17c-.09,0-.14-.06-.07-.15s-1.33-.34-.9-.54c.17-.12.17-.15-.05-.15-.93-.65-2.24-1.05-2.94-2.14-.9-1.13-.89-2.38-2.4-2.41-.38-.44-1,.76-1.6.81-.22,0-.22,0,0,.17.25.3.57-.42.44.07a3.86,3.86,0,0,0,1.6,2.83c0,.21.44,0,.42.29s.85.72.75,1.21c.15.23,1.13.49.52,1-.25.12-.11-.47-.34-.43-.5-.09.3.94.46,1.19.56-2.65,1.67-.75,1.19,1-.22.6.27.27.58.66.61.53.54-.24.83-.44,1.4,1.32,3.09-1.07,4.15-2.43,1-1.55-.1,3.49,2.84,3.43,1.26.23,1.24.71,1.71,1.37,0,.46.77.21.8.6.25.3-1.67,2.56-1.21,2.56.56-.26-.07,1.28-.46.64-1-1.2-.21,2.32-.95,2-1.43,0-.68,1.48-2.05,1.56-.39,0-.52.15-.56.48-.09,1.56-3.83.45-3.9,2.54.44.49-3.79,1.66-4.12,2.27s-1.29.31-1.6.61a3.24,3.24,0,0,1-1.85.68c-1.23.36-3.65,2.47-3.91-.17-.34-1-.62-3.51-1.75-3.83-.15.21-1.57-2.13-.59-1.31.51.65-.2-.44.35-.25.4,0,.06.58.46.41s0,.22.42.49c.66.75,0-.8-.18-.77-.4-1-1.86-1.9-2-3s-2.32-1.93-2.6-3.21c0-.6-.57-.6-.35-1.39s-.74-1.76-.9-2.49c-.27.15-.33-.44-.61-.39-.79-.41-3-6.7-4.26-5.35-.47.65-1.62-.77-2.3-2.25h0a59.82,59.82,0,0,0,4.21,8.1c-.53,0-.05,1.18.75,1.9,2.19,1.26.58,4.86,2.66,6.12.87-.24,1.92,5.41,2.32,4,0-.87,1,.25.53.14-.17,0-.22.14-.15.44.6.49,6.33,4.55,3.57,5.29a1.56,1.56,0,0,1,1.12.66c1,1.85,1.95.52,3.3.53.66.2,1.26-.67,1.86-.53.42.15,1-.35,1.44-.23.75.48,3-1.87,3.19-.46-.1.61,0,1.51.14,1.56.57.41-.75.34-.51,1.1-1,9.24-16.35,16.88-14.95,24.19.86.64-.36,1.54.62,1.61.42-.13.24.34-.09.39s-.42.33-.05,1.8c.68,2.72,1.31-.11,1.07,4.28,1.2,7.31-2.29,5.65-5.6,9.78-.5.21-2.84,1.88-2,2.72.27,0,.19,1.27.46,1.18s.29,1,0,.48-.16.15,0,.27a6.15,6.15,0,0,1-.2,3.46c-.29.81-4.13,1.77-3.36,2.63.73-.09-.78,4.27-1,4-3.81,4.94-6.39,8.19-12.94,8a2.16,2.16,0,0,1-1.1.24c-1-.17-1.42,1.1-2.16.22-.24-.41-.67-.18-.76-.56,0-.14-.07-.12-.17.05-.59.62-.24-1-.44-1.17-1.28-1.59.36-.53,0-2a30.6,30.6,0,0,0-2.47-5.38c-1.67-1.77-1.82-5.22-2.11-7.65s-2.51-6-3.17-7.26c-.66-2.75.06-3.5.6-6.21.35-2.27,1.75-1.69,1.81-3.92.31-.52-1.44-3.64-.76-3.81.68-1-1.26-3.58-1.29-4.7,0-1.67-4.72-5.35-4.28-7.36.63.39.61-1.72.8-2,.21-.6-.43-.27.07-1.08,1.4-3.31-1-5-3.89-4-2.21.15-1.07-3.63-4-3-3.94.37-2.86.67-6.61,2.15-1.86.05-4.31-1-6.38.25-1.55.75-2.05.6-4.11-1.25-2.38-2.37-2.85-2-4-3.12.12-.27-.33-.14-.15-.39,0-.54-.49-.5-.42-1.53-.13-.89-2.08-2.58-2.41-3-.22,0-.47-1-.68-1-.56.29.49.56-.07.9-.31.7-1.17-.9-.52-.68.42.17.32-.12-.24-.66-1.2-1.16.46-3.21-1.36-4,1.43-.92,2.45-4.87,1.78-6.4-.27-.39-.18-1.24.1-1.24.52,0-.43-1.33-.84-1.22-.17,0-.21,0-.14-.32.12-2.2,2.51-4.48,3.17-6.21,0-.69.94-2.09,1.39-2.08.32-.25,1.17-2.33,1.58-2,4.89-.73,2.48-6.41,6.53-8.19,1.45.12,2.28-4.42,3.28-3.19,0,1,2.37.69,2.95.71.91.59,1.72-.26,2.49-.7,1.43-.43,1.05-.91,4-1.37,3.35-.84,2.82.55,4.62-.53,0-.41,1.08.42,1.15,0,.55-.24,1.42.46,2.17-.17s1.37-.33,1.63.24c0,.77.93-.69,1,.15,0,.22-.36-.14-.24.19,0,.52-.89,1.11-.08,1.49.58,0,0,1.43.32,1.43s.2.36-.08.18-1.47.73-1.11,1.1c.53.7.52.06,1,0,.47,2.19,4.76.84,5.56,2.86a1.31,1.31,0,0,0,1.26,1c1-.13,2.54,1,3.39,1.36,2-.38.15-2.2,1.38-3.12,2.81-2,2.79.45,5.37.57.8-.13.47.82,1.19.63,1.19-.14,3.1.84,4.38,1,1-.35,3.1-1.53,3.9-.56.07.43.16.87.27,1.31v-.09c-.06-.58.07-1,.55-1,2.49.66,2.36-3.72,3.19-4.75a2.36,2.36,0,0,0-.2-1.52c-.19-.21.24-.89,0-1.07s-.09-.27.12-.46c.67-1-.69.37-.95-.07-1.07-.66-2.08,1.67-3.5.51-.78-.73-2.15-1.17-2.08-.68.32,1-1.32.93-1.72.48-.74-.64-1-.49-1.44-.17-.33,0-.16-.37-.51-.24-.13.07-.25,0-.25-.07s.85-.34.25-.32c-1.36,0-.29-.09-.35-.54-.07,0-.78-.92-.38-.89.12,0,0-.1-.35-.22-.84-.05-.7-1.42-.12-.74a3,3,0,0,0-.29-1.38c-.49,0-.63-.05-.63-.44s-1-.61-.27-.71c.16-.27,4.71-.13,3.7-.93-.13-.11-.18-.2-.18-.27-.06.11-.29.17-.77.2-1-.1-1.29,1.25-2.34.58-.3-.1-1.58-.91-1.61-.29s-.94.05-.36.08c.29.09-.11-.37-.41-.08s-.34.18.05.59.24.59-.17.19.3.64-.25.34.26.68-.83-.22c-1.58-1.3.48,2,.9,2s1,1.48,1.19,1.09c0-.07.15,0,.35.24.62.32-.24,1.17-.19.57,0-.21-.33-.78-.5-.62,0,.06-.12,0-.28-.11-.51-.43.13.61-.54.39-.83-.18.42,1.23-1,.43-.16-.14-.16,0,0,.3.58.86.2,2.36,0,1.19-.08-.77-.24-.28-.51-.08-.44-1-.91.24-1.1-.9-1-2.4-.51.28-1.49-1.5-.13-.71.54-1.71-.55-1.84-.79-.24.16-.76-.51-1.09-.7-.16-.28-1.69-.27-2.39A7.45,7.45,0,0,0,239,54.14c-1,0,0-.17.3-.29-.6.09-2.75-1.07-2.63-1.56.32-.19-.46-.64-.22-.95.07-.2,0-.25-.08-.17-.28.28-.3,1.32-.55.22,0-.62-.46.65-.86-.59-.24-.77.71-.9-.78-.51-1.12.4-.12.61-.39,1.07s-.05.88.64,1.3c1.4.75.69,1.18,1.65,2.12.4.94,2.51.39,2.13,1-.2.69,3.62,1.8,2.77,2.59-.31.86-1.3-1.57-2.05-.18-.48.63,1.42,1.24.29,1.74a.48.48,0,0,0-.34.41c-.2,1.51-2.06.34-1.63,2,.18,1.31-1,.66-1.46.24-7.76-3.48,11.45,1.23-3.7-7.87,0-.2-.49-.85-.68-.46a.22.22,0,0,1-.32.1c-.33-.26.66-.5.2-.91-.07-.84-1.8-2.07-2.42-1-.38.51-1.19.45-1.71,1-1.12,1.29-3.79-1.37-4.4.72.83,1.26-.85,2.16-2.05,2.48-.15,0-3,2.31-1.71,3.17.55.7-.78.57-.87,1.39-.28,1-1.17.53-1.56,1.36-.7,1.13-3.58.07-4.27,1.32-1.07,1-1.42-2.08-2.63-1.37-3.12.8-.77-1.13-2-2,0-.14-.06-.26-.15-.26-.24.05.19-1,0-1,2.07-1.79-.11-5.64,1.32-5.77.47-.09,1.27-1.08,1.77-.56a2.75,2.75,0,0,0,1,.15c3.23-.31,4.76,1.32,5.87-.47.3-1.34.68-2.9-.05-3.53-.42,0-.2-.34-.55-.58-.45-.42.37-.14-.2-.61-.37-.34-1-.47-.8-.17s-.32.18-.18-.08c.09-.59-1-.46-1.26-.6s-.69-.7-.17-1.17c1.21-1,4.11,1.13,3.14-1.34-.11-1.11,1.79,1.09,2.24,0,.36-.56,1.66-.42,1.69-1.31.5-1.24,3.5-1.53,3.55-3.22s5.38-.68,4.48-2c-.34-.38.21-.14.17-.53s-.47.34-.56-.13.52-.48,0-1c-1.19-1.91,1.12-2.51,2.24-3.19.28-.66.42.82.16.94a.32.32,0,0,0,.18.59.31.31,0,0,1,.17.59c-.25.15.08.36-.17.51-.08,0-.17,0-.17-.2,0-.62-.38.33-.29.41.55.12.5.55,1,.32l.59-.41s1,1.39.56,2.34,3.66,1.43,4.55.36,3.49-1.25,3.54-.87,1.1-.7,1.14-2.27,3.11-.32,3.11-.32a6.64,6.64,0,0,0-1.72-2.22c-1.41-1.32-2.17-3.76-1.32-5.34a6.53,6.53,0,0,1,3.17-2.38s.42-.94-1-1.08-1.43-.09-1.51,0-3.26,3.42-3.26,3.42l-1,.79s-.9,2-.32,2.83.7,1,0,2a7.08,7.08,0,0,0-.85,2.57l-.79,1.51-1.38.07-1.79-1.56-.29-.41c.83-1.12-1.47-2.14-1.41-3.41,0-.55-.39-.59-.56-1-.07-.22-.1-.21-.1,0-2.35,2.47-5.78,2.59-5.53-1.13-.2.07-.25-.12-.24-1.19-.19-2.17,1.23-1.52,2.19-2.43,0-.23,1.14-.29.9-.64-.07-.19,0-.24.14-.19.42.14.52-.66,1-.23s1.58-1.12,1.9-1.21c.5-.15-.68-.49.2-.46a1.19,1.19,0,0,0,1.14-1.12c.16-.88,2.09-1.5,2.37-2.46,0-.37.46-.26.51-.47a2.77,2.77,0,0,0-1.61.25c-1.85.69,0-.76.63-.5.12.08.15,0,.08-.16-.35-.34,2.4-1.44,1.56-.69-.18.22-.15.23.28.13.7-.19.11.23.39.22.25-.52-.23-1,.93-1,.61-.07.63-.07.63-.32,0-.44,1.1-.61,1.51-.24.18.19.2.17.1,0-.18-.37,1.73-.12,1.52-.54-.1-.17.51-.34,1.24-.34.41,0,.53.07.44.2s.07.05.31-.17c.39-.46.77-.12,1.07-.35,0-.45,1.27.12,1.27.49,0,.17.1.13.29-.14s1.24-.51,1.41-.18c.49.19,4.19.46,1.44,1.25a5,5,0,0,0,1.71,0c1.07.12,12.23,2.35,9.43,4.26-.41,1.14-4.79,0-6.87-.05.35.43,1.89.55,1.43,1.22-.14.26-.1.39.15.63.41.27.18.72.65.76s2.84,1.27,2.64.43c-.22-.34-2.43-.52-1.34-1.28.67-.37,4.84,1.78,2.58-.4a3.64,3.64,0,0,1,1.24-.78c.14.16,1.33-1.17,1.36-.78s.75.21,1,.45.39.14.49,0c.59-1-.93-.66-.7-1.78,0-.66,0-.73-.51-.83-.91-.21-.37-.38.89-.29a3.17,3.17,0,0,1,2.39,1c-.35,0-2,.64-1.19.76,2.53,1.5,1.55-.48,3.26-.85,1.21-.3,3.45-1.59,4.61-1.24-.84,1.43,2.88,0,3.7,0,1.12-.11-.34-.49.58-.48.56.12.35.92.79,1.14s-.18-.49.5-.41c1.4-.09-1.56-1.46-1.63-1.25-.94-.15-1.14-1.43.37-.63,2.64.54,5.57,1.05,6.72,1.91-.85-1.26,1.43.25,2.64.36.47-.46-1.48-1.27-1.86-1.29-.89.3-.47-1.34-1.16-1.47s-.54-.61.09-.93c1.08-.74.13-3.43,2.48-2.21.8.44-1.56.18.28.44,1.35,0,2,.73,1.46,1.63-.12.12-.05.2.27.29,1.13.26,1.27,1.79,1.79,2.58.14.41,1.68.68,1.45,1.37.07.35-.72,1.92-1.1,1.83s.33.35.63.36c.86.21.26-.41,1.05-.53s.37-.72.73-1.08c.17-.17.1-.29-.29-.61-1.64-1,2.28-1.35-.22-1.16-1,.07-1.24.05-1.24-.13-.08-.49-.87-.53-.61-1.24.1-.53.07-.58-.85-1s-.83-.36-.57-.85c0-.35,1.52-.44.85-.85a.21.21,0,0,1-.07-.29c.19-.1-1.54-.08-1.14-.53s.79.27,1.07.22c1.25.33.66,2,2.29,2,2.12.27-2.08-.61-.53-.86s-.26,0,.26-.53c1.39-.81,6,1.64,4.9.46a6.45,6.45,0,0,1-3.27-1.82c.6,0,4.12,0,3.25-.42-.43-.25.43-.16.45,0,.25.41,2.19,0,1-.21-.26.17-1.07-.6-1.17-.25s-.31-.05-.19-.29.68-.37.8-.07c0,.14.1.11.1-.08,0-.35.48-.22.53-.46,1.89-.21,5.76-1.8,7.56-1.2.42.49,1.33-.46,2.06-.33,1.38.12-.23-.75,1-1.2a6.93,6.93,0,0,1,3.26.27c.44.29,1.17.34,1,.09s0-.17.15-.17c.79,0,.14,1.21.8.91.29-.17,4.87-.24,4.87.15.34.33.63.39.46.12-.35-.49,1,.27.56.39,3.58.82-.88,1.88-1.21,2.62-1.29.39-1.57.77.44.37,1.09-.17,0-.52.53-.76.31-.18.9.22,1-.26.07-.25.24-.32.87-.32,1.06-.1,1.14,1.22,2.18,1.07a24.94,24.94,0,0,1,4.57,0c.1.07.08.17-.05.25-.35.32.86.16,1.37.26,2.26,0,3.87.67,2.37-.63.49-.49,2.27,0,3,.24,2.85-.79,4.82,2.59,7.49,3.07,1.18.3-.09-.62.34-1.26,1.74,1.2,4.8-.19,6.89.51-.18-.09-.93-.38-.83-.56-1.28-.37-1.09-.69.32-.64-1.07-.64-1.45-.54,2.38-.24,3.17.29,3.54.36,3.36.64.27-.29,4-.16,3.78.44,2.27,1.79,10-.18,12.11,2.13,1.39.72,5.37.68,7.55.27-.24-.36,1.1-.18,1.69-.12l-1.18.24c.38.13,1.37-.11,1.44.23s-.68-.05-.6.16a8.9,8.9,0,0,0,3.06.59c-10.81-4.33,28.09,2.64,23.34,4.85a1.11,1.11,0,0,0,.51.32c.24.08-.09.33.37.41.85.22-1,.76-.63.14.09-.26.07-.26-.08,0s-.26.27-1.22,0c-1.29-.43-1.46-.16-2.61-.79s-3-.09-4.19-.91c-.87-.51-1.63-.39-.51,0,1.41.36.76,1,.37,1.63,0,.55,5.69,2.42,3.78,2.87-2.62-.65-3.36.54-4.53,2.15-.81.69.72,1.54-1.13.71-3.36-1.5-2.57,1.26-3.55.17-.34-.35-1-.42-.74-.06s-.6.55-.51.12c.09-.23-.71.28-.73.18-.38-.07-.38.05.05.46.68.7,0,2.35,1.49,2.17s1.13,1.48,2.32,1.63c.54.07,1.62,1.39.41.88-2.22-.5,2.84,2.66.71,2.27-2.23-.19,1,2,.26,1.89-2.19-.21.74,1.5-.73,3.12-2.07-2.12-7.9-6-8.24-8.45.34-.4-1.26-1.35-.43-1.24.71-.27,1.28-.55,1.12-1.69a.9.9,0,0,1,.09-.73c.27-.41-.14-1,.4-1.39s.55-.94.22-.94-1.15-1.15-1-1.34-.35-.35-.76-.2c-.79,0,.58,1,.69,1,.39,0,.12.33-.28.38-.64,0-.67.95-1.07,1.17,0,.35-.71-.67-.83-.44-.68.16-.67-1.16-1.33-1.09s-2.52-.45-2.54.65c0,.88-1,2,.35,2.2,2.74.65-.59,1-2.4,1-1.28,0,0-.6-.75-.77a11.1,11.1,0,0,1-2.21-.35c-.2-.07-.25,0-.18.25.46.61-2.81.12-2.82.53-.92-.39-3.9-.85-4.17.91-.41,0,.13.87-.05.95s-.94,1.6-.75,1.66c.68.47-2.9,2.73.05,2.57.78.08.92.17,1.21.69s.3.46.25.21,0-.38.09-.38c.25-.07-.58-.7-.17-.73.11,0,.06-.08-.12-.08-2.83.1.68-1.29.57.47.26,0,.12.71.45.68s.18.66.42.68c.95-.75-.56-1.65,2.15-.78.32.21,2.45,1.1,2.6,1.46s.85,1.25,1,1.12c.26-.44-1.4-1.31-.74-1.78.83-.43-1.07-.84-.48-1.11,2.83,1.37,5.76,6.14,8.72,7.91.05.47-2.63-1.52-2.29-.43a4.81,4.81,0,0,0,2.49,3.11c.26,0,.82.68.82,1s-.7-.62-1.09-.53c-.75-.29-.26.7-.24,1.14-2.53-2.56-3.6-6.88-6.81-8.74-.68,1,1.38,2.59,1.74,3.91.61,2.27-.15,11.36-4,8.66,0-.56-.52.65-.53.14,0-.31-.37.86-.5.59s-.11.7-.36.56c-.89.35.6,1.68-.29,2.43-.26.74-1.65.88-1.12,1.58,2.36,1.87,8.1,6.63,2.12,7.44-1.11.19-.55-.41-1-.84-.55-1.09.65-1-.78-2.28-1.2-1.1.61-.6-.56-1.56-.71-.57-1.62.1-2.12-.69-.32,0-.31.45-.34-.8.13-1.89-1-1.53-2.3-1.61-.65-.34-2.93,2.57-2.35,1,.24-.26.24-.31-.05-.51-.83-.45.92-1.89-.67-2.07a.7.7,0,0,0-.9.59c-.07.39-1.07.84-1.09,1.34-.14,1.1-1.48.08-1.46.9-.1,1.27,2.41.57,2.38,1.85a.68.68,0,0,0,.42.49c1.11.45.38-1.32,2-.69.45.34,2.45.07,2.17.93,0,.72-1.1.22-1.56.93-.31.31-.46.5-.34.43.7-.33-1,1.17-.87,1.46-.1.39,0,.47.73.83.94.3,1.87,1.87,2.63,2.9.87.57,1.44,1.08,1.44,1.29s-.44.11-.39-.1c-.37-.44-.61.54.24.59.56.09.27.23.49.47.8.29-1.95,1.2-.61,1.17,1.16,0,.79,1.12,1.43-.4.19-.08.13,2.27-.12,2.07-.29.24.26.73,0,1.44a.25.25,0,0,1-.26.22c-.51-.1-.32,1.16-.61,1.44-.22.08-.08.75-.37.76s.1.24-.14.43,0,1,.19.83c.62.34-.48.43-.48.54s-.27.56-.45.44-.11,0,0,.11-.18.88-.46.88A13.71,13.71,0,0,0,365.93,83c-.1.68-.9.34-1.24.66,0,.19-.38.25-.25,0-.84-.17-1.44,1.65-2.09.38-.36-1,.17,1.15-.52.74-.26-.17-.11.29-.36.15-.25.15.29.69-.75.26-.48-.25-.47.17-.81.07-.12-.07-.14,0-.07.06.08.58-1.16,0-1.09.73,0,.21-.06.29-.18.22s.55,1.15-.27,1.12c-.38,0-.95-1.18-.8-1.61.08-.22,0-.27-.29-.23-.66-.12-2.11-.27-2.29.47,0,.38-.41.09-.51.44s-.4,0-.66.66c-2.89,3.48,5.3,6,5.17,11.15-.41.47,0,2-.56,2.19a11.61,11.61,0,0,1-2.57,1.44c0,1.25-1.67,1.9-2.34,2.63-.33,0-.39-1.87-.09-2.06.15-.1.12-.17-.12-.25s-1-.93-.93-.27c0,.42-.32.52-.36.12s-.41-1-.25-.65c-.32.71-1.06-.9-1.22-1.47-.21-.41-.39-.58-.58-.55-.56-.15-.37-.92-1.58-.84-.57,0-.59-.06-.59-.68.1-1.07-1.17-.81-1,.46,0,.89-1.53,6.55.12,4.47,0-.75.49.37.15.36-.34.62.53,1.44.68,2.34.34,1.71,1.12.84,1.82,1.71,1,1.16,2.73,2.09,2.41,4.21-.12,1.57.8,2.07,1.1,3.16.57.27-.75.64,0,.61s.78.88.22.52c-.39-.36.09.54-.24.51s-.07-.76-.44-.58.09-.86-.64-.32c.59-.34-2.9-2.14-2.83-2.75a23,23,0,0,1-1.26-2.83c-.17-.14-.24-2.72-.61-1.93.12.52-.8-.17-.25-.27s-.86-1.48-.77-1.68c0-.48-.37.62-.34-.12-.31-1.16-1.38,1.11-1.07-2.16a2.54,2.54,0,0,0-.45-2.66c0-.1.1-.1.25,0,.62.54.82-.82.17-.72a.55.55,0,0,1-.59-.55c.14-.14.29.48.47-.24.1-.28.12-.52.05-.52s-.5-.65-.1-.44.32,0,.07-.73c-1-.87-1.56-5.4-2.53-5.67C342.17,92.63,340.89,93.24,340.67,93.65ZM229.6,56.28c-.89-1.14-.58-1.58.51-2.26.24-.49.29,1,.07,1.71-.35,1.3.66.57.37,2.28-.07,2.13-.15,1.3-1,1.83s-1.1,0-.7-1.54c.15-.31-.73-1.61-.06-1.41C228.9,57.23,230.23,56.46,229.6,56.28Zm21,8.94c1.06.35-1.7.74-1.72.49-.26-.33-2.09-.26-1.4-1.09.72.33,2.13.34,2.83.72C250.8,65.79,250.15,65.08,250.55,65.22Zm9.63.47c-.42.06-1.09,1-1.61.48-.59-.27-.76-.82-.25-.82.3-.07,3.59-1.39,2.2-.37C260.1,65.15,260.43,65.59,260.18,65.69Zm93.72,61.15c.05-.3.27-.54.27-.29.35.79,1.22-1.66-.33-1-.17.8-3.46-2.65-3.57-2.92-1.77-1.55-2.08-4.56-3.59-5.79a4.29,4.29,0,0,1-.85-2.17c0-.18-1.57-1.2-1.49-1.42-.53-1.23-4.16-4.12-3.14-4.46.15-.26.51-.21.91.15.42.52,2.06.08,2.4.71.61,1.38,2.42,2.2,3.05,3.19,0,.29.37.14.42.54s.22.33.48.26c.48-.13.61.2,1.05.27s.22.69.59.75c1,0,.36.45,1.11.64.53.06.26.62.71.49s0,.48.32.65c.73.45-.64,1.39,0,1.78.37.4,1.19,0,1.11.73a2.87,2.87,0,0,0,.64,1.37c.19.11,1.5.21.58-.17-1.26,0,.93-1.77.91-.56.13,1.34.83.68.85,1.6.07.13.15.12.26,0,.49-.35-.26.79-.85.38-.72-.77-.61,3.22-.78,3.68-.15.83.15.28.73.52.76.28.42-.36,1.17.09.55.34,1.18.18,1.49.74.12.29.32.38.85.39.73,0,1.44.4,1.88-.3.27-.42.29-.44.51-.14.67.68,3.05.44,3.92.72.08.23-.85.56-1.32.47-.65,0-.21.64.52.53,1.16,0,1.19.05,1.19.3,0,.67,1.81.08,1.54.87-.52.43.27.61.41.05.28-1,.9.12,1.22-.09s1.07-.85,1.65-.44,1-.17,1.18,0-.29.12-.15.35.78-.13.77.21c0,.17.05.15.16,0,.42-.56,3.15,0,3.19.07.22.19.84-.93,1-.64a2,2,0,0,0,1,.11c3.1-.33,1.44.7.24.44a16.79,16.79,0,0,1-6.25.43c-.36.5-1.08,0-1.49,0,.13.79-2.81.38-3.27-.1,0-.12-.12-.05-.26.13-.43.7-.08-.5-.59-.49-.29-.07-.34,0-.26.24s-.06.41-.81.1c-.44-.29-.82,0-1-.29C360.92,129,356.51,128.41,353.9,126.84ZM395,177.63c-.45.51-.37,1.27-1,1.37a.29.29,0,0,0-.32.28c0,.24-.85,1.4-1.14,1.05-.13-.12-.22-.12-.22,0-3.66,3-1.74-4-.71-4,0,.39.36.35.63.7C392.12,177.85,396.37,175.74,395,177.63Zm15.43-19c-1.15,3.92-5.36,7.37-8.32,10.62-3.09,5.12-3.21,1.91-7.37,5.12-.56.57-.24-.32-1-.51-1.18-1.19-2.29,1-3.29-.28-5-.6-.43-3.58-2.87-4.13-.68.14-.73-.05-.17-.61.82-.85.56-2-.15-.73,0,.54-2.18,1.08-1.54.53a10.53,10.53,0,0,0,2.59-3c.41-.44-.36,0-.78.48-1,1-2,.95-2.53,2.27.19.82-1.44-.72-.86-.76.35-.22.17-1.77-.22-1.77-.66-.07.24-1,0-1-.6-.35-1.74-.65-2.32-1-2.21-.92-9.83,1-11.31,3.2-2.17-.25-4.79-.15-5.72.78-.49.07-1,.29-1,.43-.18.73-3.31.4-3.32-.38a.47.47,0,0,0-.42-.3c-.65.18-.12-1.23.34-1.19,2.41-2.09,1.38-7.29.5-11.05-.16-.64-.19-.92.22-.06.09-.21.26-.64.34-.85.4,1.08,1,1.82.44-.3-.39-1.29-.39-1.44.12-2.19.43-.52,1-4.34,1.39-1.92,2.42-4.26,9.72-1.93,11.08-7-.1-.55,1.61-2.95,1.61-1.17.17.88.16.24.44.14.11,0,.11-.14,0-.33-.29-.41.2-.41.06-.71s1.2.1,1.14-.08c-.15-.51.63-2,1.07-1.8.05.05.1-.12.1-.38-.12-.8.68,0,.68-.54,0-.72.59.89.51,0,0-.43-.27-.29-.34-.54.19-.37,1.23.33,1.44-.12.29-.71,1.82,1.15,1.71,1.4s-.06.26.14.09,2.19.11,1.44-.54c-.18-.11-.15-.22.16-.55.47-.43.2-.68.72-1,.19-.12.31-.29.26-.43-.09-.48,1-1.25,1.25-1.42.1-.24,2,.15,2-.24.66-1-1.14-.46-.68-1.34.31-.27.13.1.63-.14s.24.44.57.43.46.76.7.25.06.42.37.31.61.43,1.05.37c.62,0,.61.62,1.29,0,1.1-.88.18.16.83,0,.21-.05.36-.15.36-.24.36-.51.21.31.46.45.52.47-.94,1.7-1,2.05-.12,1,1-.91.71,1.15-1.69.25.17-2.1-2,.73.24.2,1.61,1.67,1.66,1.32s.29-.28.41.17c6.22,7.19,4.95-3.54,7.43-7.34,1.2-.87.26,1.72,1.29,1.56.16-.07.22,0,.11,0-.49.41,0,.8,0,1.27.38,1.45.08-1.49.41-1.22.14,0,.14.32,0,.68-.07,0,.15,1.5-.21,1.27s-.47,2.45.21,1.44c-.09-.33,1.39,0,.59-.34-.54-.23.29-.18.39,0,.38.41-.78.48.09.9s-.25,2.4.37,3c.7.81-.34,3.43.78,3.63.08-.05.15,0,.15.1.06.3.52-.09.58.3.21.77,1.58.81,1.73,1.34.14.75-.89,0-.15,1,.37.2,0,2,.46,1.62s.28.41.81.18c.67-.54-.13,2,.34,1.8.12,0,.24.12.27.32.11.57.56.24.66.9s.36.36.39.83c0,.66.65.55.9-.15.27.37-1.21,3-1.05,3.82C411.53,155.47,410.46,158.13,410.42,158.58Zm15.11,19.16c-1.15.71-9.13,5-9.57,6.07s-2.88.7-2.88.7-1.46-.89-.51-1.6,6.64-2.29,7.28-3.57,4.6-3.25,4.6-3.25S426.68,177,425.53,177.74Zm7.85-5.23c-.7.13-4.15,3.58-4.15,3.58s-3.32-1.6-1.4-1.92,2.81-6.83,2.81-6.83c.51-.51.57.89.57.89s.45,3.51.77,3.48S434.08,172.38,433.38,172.51Z"/></g></g></svg>