<svg id="Capa_1" enable-background="new 0 0 512 512" height="512" viewBox="0 0 512 512" width="512" xmlns="http://www.w3.org/2000/svg"><g><path d="m512 256-11.04 11.04c-136.93 136.93-357.46 141.59-500.06 10.57-.1-1.18-.19-2.37-.27-3.55-.42-5.96-.63-11.99-.63-18.06 0-46.22 12.25-89.57 33.68-127 44.12-77.07 127.16-129 222.32-129s178.2 51.93 222.32 129c12.98 22.67 22.59 47.52 28.15 73.86 3.46 16.36 5.35 33.28 5.52 50.62v.56c.01.65.01 1.31.01 1.96z" fill="#92eaff"/><path d="m512 256-11.04 11.04c-136.93 136.93-357.46 141.59-500.06 10.57-.6-7.13-.9-14.33-.9-21.61 0-46.22 12.25-89.57 33.68-127 44.12 77.07 127.16 129 222.32 129s178.2-51.93 222.32-129c21.43 37.43 33.68 80.78 33.68 127z" fill="#63dbfa"/><g><path d="m512 256c0 36.59-7.68 71.38-21.51 102.85l-127.72 37.96c-69.49 20.66-143.66 19.43-212.43-3.52l-132.94-44.37c-8.74-22.41-14.41-46.35-16.5-71.31 5.37-3.19 10.07-5.99 13.97-8.32 22.24-13.29 44.32-26.84 66.24-40.64 17.94-11.28 42.09-30.92 64.64-27.82 14.93 2.05 26.48 13.77 36.23 25.25 9.75 11.49 19.78 24.01 34.06 28.79 12.91 4.32 26.39 1.49 39.96-1.73 13.58-3.2 27.26-6.79 40.58-3.94 22.97 4.91 38.59 25.47 61.08 31.39 40.08 10.54 62.35-31.1 89.23-50.56 8.12-5.88 18.39-9.54 28.23-7.64 12.63 2.44 21.78 13.07 29.89 23.05 2.33 2.87 4.65 5.73 6.98 8.6.01.65.01 1.31.01 1.96z" fill="#b6e337"/><path d="m512 256c0 36.59-7.68 71.38-21.51 102.85l-127.72 37.96c-34.84 10.36-70.85 15.21-106.77 14.58v-158.25c13.58-3.2 27.26-6.79 40.58-3.94 22.97 4.91 38.59 25.47 61.08 31.39 40.08 10.54 62.35-31.1 89.23-50.56 8.12-5.88 18.39-9.54 28.23-7.64 12.63 2.44 21.78 13.07 29.89 23.05 2.33 2.87 4.65 5.73 6.98 8.6.01.65.01 1.31.01 1.96z" fill="#6cdc2d"/><path d="m490.49 358.85c-6.07 13.82-13.32 27-21.63 39.41h-212.86v-73.69c9.04.51 16.94 6.94 24.53 12.26 8.27 5.79 19.42 10.62 28.07 5.41 11.85-7.14 28.13-15.41 39.06-6.92 13 10.1 21.95 25.47 39.7 12.63 6.45-4.67 13.43-10.64 21.25-9.16 9.05 1.72 13.78 12.61 22.61 15.26 14.52 4.36 25.5-15.04 38.76-9.84 5.12 2.01 9.01 6.19 13.28 9.67 2.27 1.85 4.69 3.51 7.23 4.97z" fill="#53af17"/><path d="m490.49 358.85c-4.15 9.45-8.85 18.59-14.07 27.4-2.41 4.08-4.94 8.08-7.58 12.01-4.61 6.88-9.54 13.53-14.77 19.91l-22.68 10.78c-110.88 52.74-239.2 54.66-351.6 5.27l-12.89-5.67h-.01c-8.65-9.47-16.59-19.59-23.75-30.29-2.42-3.62-4.76-7.31-7-11.06-7.27-12.14-13.55-24.94-18.74-38.28 7.98-6.07 16.41-13.14 25.98-11.06 8.57 1.86 15.53 10.57 24.18 9.17 11.67-1.9 15.39-20.56 27.21-20.97 13.3-.46 15.91 21.72 28.67 25.48 8.75 2.58 17.1-4.89 22.46-12.26 5.36-7.38 10.98-16.09 19.98-17.54 17.23-2.77 27.53 22.72 44.97 23.6 16.12.82 26.57-19.69 42.68-20.77.83-.06 1.66-.06 2.47 0 9.04.51 16.94 6.94 24.53 12.26 8.27 5.79 19.42 10.62 28.07 5.41 11.85-7.14 28.13-15.41 39.06-6.92 13 10.1 21.95 25.47 39.7 12.63 6.45-4.67 13.43-10.64 21.25-9.16 9.05 1.72 13.78 12.61 22.61 15.26 14.52 4.36 25.5-15.04 38.76-9.84 5.12 2.01 9.01 6.19 13.28 9.67 2.27 1.85 4.69 3.51 7.23 4.97z" fill="#53af17"/><g><path d="m283.3 296.306h-208.863l104.431-104.403z" fill="#b15848"/><path d="m283.3 296.306h-104.432v-104.403z" fill="#a44e3e"/><path d="m415.861 349.383v11.729h-190.847v-64.806h137.784z" fill="#913d31"/><path d="m256 296.31v132.24h-154.28v-132.24l20.28-20.28 56.87-56.86z" fill="#ffc0a4"/><g fill="#ffa87a"><path d="m256 296.306v132.244h-77.132v-209.376z"/><path d="m101.723 296.306h154.277v26.46h-154.277z"/><path d="m101.723 349.212h154.277v26.446h-154.277z"/><path d="m101.723 402.104h154.277v26.446h-154.277z"/></g><path d="m122 276.03v152.52h-20.28v-132.24z" fill="#f99568"/><path d="m178.868 296.306h77.132v26.46h-77.132z" fill="#f99568"/><path d="m178.868 349.212h77.132v26.446h-77.132z" fill="#f99568"/><path d="m178.868 402.104h77.132v26.446h-77.132z" fill="#f99568"/><path d="m235.72 276.03v152.52h20.28v-132.24z" fill="#ed784a"/><path d="m256 349.38h159.87v79.17h-159.87z" fill="#f99568"/><path d="m256 349.212h159.861v26.446h-159.861z" fill="#ed784a"/><path d="m256 402.104h159.861v26.446h-159.861z" fill="#ed784a"/><path d="m395.58 349.38h20.28v79.17h-20.28z" fill="#d85e39"/><g><g><g><path d="m169.5 317.46v23.61c-12.18 5.2-25.95 5.24-38.16.11l-.27-.11v-23.61c0-4.17 3.39-7.54 7.56-7.54h23.33c4.17 0 7.54 3.37 7.54 7.54z" fill="#b15848"/><path d="m169.5 317.46v23.61c-6.08 2.6-12.57 3.91-19.06 3.93v-35.08h11.52c4.17 0 7.54 3.37 7.54 7.54z" fill="#a44e3e"/></g><g><g><path d="m158.891 320.943v20.128h-16.899v-20.128c0-.816.661-1.477 1.477-1.477h13.945c.816 0 1.477.661 1.477 1.477z" fill="#fff"/><path d="m158.891 320.943v20.128h-8.447v-21.605h6.97c.816 0 1.477.661 1.477 1.477z" fill="#d0f6ff"/></g></g><path d="m131.071 341.071h38.431v8.141h-38.431z" fill="#ed784a"/><path d="m150.443 341.071h19.059v8.141h-19.059z" fill="#d85e39"/></g><g><g><path d="m226.66 317.46v23.61c-12.18 5.2-25.96 5.24-38.17.11l-.26-.11v-23.61c0-4.17 3.38-7.54 7.55-7.54h23.33c4.17 0 7.55 3.37 7.55 7.54z" fill="#b15848"/><path d="m226.66 317.46v23.61c-6.08 2.6-12.56 3.91-19.06 3.93v-35.08h11.51c4.17 0 7.55 3.37 7.55 7.54z" fill="#a44e3e"/></g><g><g><path d="m216.046 320.943v20.128h-16.899v-20.128c0-.816.661-1.477 1.477-1.477h13.945c.816 0 1.477.661 1.477 1.477z" fill="#fff"/><path d="m216.046 320.943v20.128h-8.446v-21.605h6.97c.815 0 1.476.661 1.476 1.477z" fill="#d0f6ff"/></g></g><path d="m188.227 341.071h38.431v8.141h-38.431z" fill="#ed784a"/><path d="m207.598 341.071h19.059v8.141h-19.059z" fill="#d85e39"/></g></g><g><g><g><path d="m323.77 370.35v23.61c-12.18 5.21-25.95 5.25-38.16.11l-.27-.11v-23.61c0-4.17 3.39-7.54 7.56-7.54h23.33c4.17 0 7.54 3.37 7.54 7.54z" fill="#a44e3e"/><path d="m323.77 370.35v23.61c-6.08 2.6-12.57 3.92-19.06 3.94v-35.09h11.52c4.17 0 7.54 3.37 7.54 7.54z" fill="#913d31"/></g><g><g><path d="m313.161 373.835v20.128h-16.899v-20.128c0-.816.661-1.477 1.477-1.477h13.945c.816-.001 1.477.661 1.477 1.477z" fill="#fff"/><path d="m313.161 373.835v20.128h-8.447v-21.605h6.97c.816-.001 1.477.661 1.477 1.477z" fill="#d0f6ff"/></g></g><path d="m285.341 393.962h38.431v8.142h-38.431z" fill="#ed784a"/><path d="m304.713 393.962h19.059v8.142h-19.059z" fill="#d85e39"/></g><g><g><path d="m387.74 370.35v23.61c-12.18 5.21-25.95 5.25-38.17.11l-.26-.11v-23.61c0-4.17 3.39-7.54 7.56-7.54h23.33c4.17 0 7.54 3.37 7.54 7.54z" fill="#a44e3e"/><path d="m387.74 370.35v23.61c-6.08 2.6-12.57 3.92-19.06 3.94v-35.09h11.52c4.17 0 7.54 3.37 7.54 7.54z" fill="#913d31"/></g><g><g><path d="m377.129 373.835v20.128h-16.899v-20.128c0-.816.661-1.477 1.477-1.477h13.945c.815-.001 1.477.661 1.477 1.477z" fill="#fff"/><path d="m377.129 373.835v20.128h-8.447v-21.605h6.97c.815-.001 1.477.661 1.477 1.477z" fill="#d0f6ff"/></g></g><path d="m349.309 393.962h38.431v8.142h-38.431z" fill="#ed784a"/><path d="m368.681 393.962h19.059v8.142h-19.059z" fill="#d85e39"/></g></g><g><g><path d="m211.107 378.405v7.928c0 2.306-1.865 4.17-4.17 4.17h-56.052c-2.306 0-4.184-1.865-4.184-4.17v-7.928c0-9.209 7.473-16.682 16.682-16.682h31.043c9.223.001 16.681 7.473 16.681 16.682z" fill="#f99568"/><path d="m211.107 378.405v7.928c0 2.306-1.865 4.17-4.17 4.17h-28.068v-28.78h15.557c9.223.001 16.681 7.473 16.681 16.682z" fill="#ed784a"/><path d="m201.148 378.403v50.147h-44.479v-50.147c0-3.71 3.008-6.718 6.718-6.718h31.043c3.71 0 6.718 3.008 6.718 6.718z" fill="#b15848"/><path d="m201.148 378.403v50.147h-22.233v-56.865h15.515c3.71 0 6.718 3.008 6.718 6.718z" fill="#a44e3e"/></g></g><path d="m192.162 266.33c0 7.344-5.949 13.294-13.294 13.294s-13.294-5.95-13.294-13.294 5.95-13.294 13.294-13.294c7.345 0 13.294 5.95 13.294 13.294z" fill="#fff"/><path d="m192.162 266.33c0 7.344-5.949 13.294-13.294 13.294v-26.589c7.345.001 13.294 5.951 13.294 13.295z" fill="#d0f6ff"/><path d="m178.868 249.037c-9.551 0-17.28 7.743-17.28 17.294 0 9.536 7.729 17.279 17.28 17.279s17.279-7.743 17.279-17.279c.001-9.551-7.728-17.294-17.279-17.294zm0 26.004c-4.811 0-8.711-3.9-8.711-8.711s3.9-8.711 8.711-8.711 8.711 3.9 8.711 8.711c.001 4.812-3.9 8.711-8.711 8.711z" fill="#ed784a"/><path d="m196.148 266.33c0 9.536-7.729 17.279-17.279 17.279v-8.569c4.811 0 8.711-3.9 8.711-8.711s-3.9-8.711-8.711-8.711v-8.583c9.55.002 17.279 7.745 17.279 17.295z" fill="#d85e39"/></g><g><g><path d="m438.899 430.037h-6.562l.677-21.182.832-26.021h9.622l.832 26.021.483 15.106c.106 3.325-2.559 6.076-5.884 6.076z" fill="#ec771b"/><path d="m438.899 430.037v-47.203h4.569l.832 26.021.483 15.106c.106 3.325-2.559 6.076-5.884 6.076z" fill="#c55732"/><path d="m438.899 404.166v-21.332h-5.053l-.683 21.332z" fill="#c55732"/><path d="m444.151 404.166-.683-21.332h-4.569v21.332z" fill="#a44e3e"/><g><path d="m458.531 391.116c-5.436 5.352-12.534 8.028-19.632 8.028-7.096 0-14.194-2.676-19.632-8.028-8.673-8.536-10.408-21.316-5.204-31.55 5.442-10.703 11.126-21.281 15.75-32.362l9.086-21.769 9.07 21.725c4.633 11.097 10.324 21.692 15.771 32.413 5.199 10.234 3.463 23.01-5.209 31.543z" fill="#b6e337"/><path d="m458.531 391.116c-5.436 5.352-12.534 8.028-19.632 8.028-3.367 0-6.734-2.676-9.314-8.028-4.171-8.652-4.96-21.665-2.366-31.967 3.607-14.327 6.803-29.083 9.765-44.034l1.916-9.68 9.07 21.725c4.633 11.097 10.324 21.692 15.771 32.413 5.198 10.234 3.462 23.01-5.21 31.543z" fill="#6cdc2d"/><path d="m458.531 391.116c-5.436 5.352-12.534 8.028-19.632 8.028v-93.708l9.07 21.725c4.633 11.097 10.324 21.692 15.771 32.413 5.199 10.233 3.463 23.009-5.209 31.542z" fill="#5dbf1d"/></g></g></g><path d="m454.1 418.15c-3.13-4.24-8.17-6.98-13.84-6.98-2.26 0-4.42.44-6.4 1.23-3.82-6.84-11.13-11.48-19.52-11.48-10.9 0-19.97 7.81-21.95 18.14-.58-.09-1.18-.13-1.79-.13-5.93 0-10.9 4.1-12.22 9.62h-98.126c0-.052.004-.103.004-.155 0-9.514-7.713-17.227-17.227-17.227-2.26 0-4.417.44-6.394 1.231-3.82-6.844-11.129-11.474-19.523-11.474-10.901 0-19.974 7.807-21.946 18.133-.588-.084-1.188-.13-1.799-.13-5.927 0-10.892 4.103-12.22 9.622h-47.619c0-.052.004-.103.004-.155 0-9.514-7.713-17.227-17.227-17.227-2.26 0-4.417.44-6.394 1.231-3.82-6.844-11.129-11.474-19.523-11.474-10.901 0-19.974 7.807-21.946 18.133-.588-.084-1.188-.13-1.799-.13-5.927 0-10.892 4.103-12.22 9.622h-7.535c14.49 15.87 30.94 29.9 48.98 41.72l12.99 3.87c82.96 24.7 171.32 24.7 254.28 0l12.99-3.87c18.04-11.82 34.49-25.85 48.98-41.72h-.01c3.1-3.38 6.1-6.85 9-10.4z" fill="#b6e337"/><path d="m440.673 428.55c0-.03.002-.059.002-.089 0-5.471-4.435-9.906-9.906-9.906-1.3 0-2.54.253-3.677.708-2.197-3.935-6.4-6.598-11.227-6.598-6.268 0-11.485 4.489-12.619 10.427-.338-.048-.683-.075-1.034-.075-3.408 0-6.263 2.359-7.027 5.533h-131.74c0-.03.002-.059.002-.089 0-5.471-4.435-9.906-9.906-9.906-1.3 0-2.54.253-3.677.708-2.197-3.935-6.4-6.598-11.227-6.598-6.268 0-11.485 4.489-12.619 10.427-.338-.048-.683-.075-1.035-.075-3.408 0-6.263 2.359-7.027 5.533h38.044v64.11c42.83 0 85.66-6.17 127.14-18.52l12.99-3.87c18.04-11.82 34.49-25.85 48.98-41.72z" fill="#6cdc2d"/><g><path d="m80.989 428.55h-8.608l.46-14.425.567-17.72h6.553l.567 17.72z" fill="#ec771b"/><path d="m80.989 428.55h-4.14v-32.145h3.112l.567 17.72z" fill="#c55732"/><path d="m76.849 411.902v-15.497h-3.441l-.496 15.497z" fill="#c55732"/><path d="m80.457 411.902-.496-15.497h-3.112v15.497z" fill="#a44e3e"/><g><path d="m90.218 402.045c-3.702 3.645-8.536 5.467-13.369 5.467s-9.666-1.822-13.369-5.467c-5.906-5.813-7.087-14.516-3.544-21.485 3.706-7.288 7.576-14.492 10.726-22.038l6.187-14.825 6.177 14.795c3.155 7.557 7.03 14.772 10.74 22.073 3.54 6.969 2.358 15.669-3.548 21.48z" fill="#b6e337"/><path d="m90.218 402.045c-3.702 3.645-8.536 5.467-13.369 5.467-2.293 0-4.586-1.822-6.343-5.467-2.84-5.892-3.378-14.754-1.611-21.769 2.456-9.756 4.633-19.805 6.65-29.987l1.305-6.592 6.177 14.795c3.155 7.557 7.03 14.772 10.74 22.073 3.539 6.969 2.357 15.669-3.549 21.48z" fill="#6cdc2d"/><path d="m90.218 402.045c-3.702 3.645-8.536 5.467-13.369 5.467v-63.814l6.177 14.795c3.155 7.557 7.03 14.772 10.74 22.073 3.54 6.968 2.358 15.668-3.548 21.479z" fill="#5dbf1d"/></g></g><g><path d="m396.13 470.27c-40.26 26.39-88.4 41.73-140.13 41.73s-99.87-15.34-140.13-41.73z" fill="#b15848"/></g><path d="m396.13 470.27c-40.26 26.39-88.4 41.73-140.13 41.73v-41.73z" fill="#a44e3e"/><g><path d="m84.023 114.467c-.001-.084-.006-.167-.006-.251 0-15.354 12.447-27.8 27.8-27.8 3.648 0 7.128.71 10.319 1.987 6.165-11.044 17.961-18.517 31.507-18.517 17.592 0 32.234 12.598 35.416 29.263.949-.136 1.917-.21 2.904-.21 9.564 0 17.578 6.621 19.72 15.528z" fill="#fff"/><path d="m111.148 114.467c0-.048-.004-.096-.004-.144 0-8.829 7.157-15.986 15.986-15.986 2.097 0 4.099.408 5.934 1.143 3.545-6.351 10.328-10.648 18.117-10.648 10.116 0 18.535 7.244 20.365 16.827.546-.078 1.102-.121 1.67-.121 5.5 0 10.108 3.807 11.339 8.929z" fill="#dff7fd"/></g><g><path d="m339.724 208.579c.001-.084.006-.166.006-.251 0-15.354-12.447-27.8-27.8-27.8-3.648 0-7.128.71-10.319 1.987-6.165-11.044-17.96-18.517-31.507-18.517-17.592 0-32.234 12.598-35.416 29.263-.949-.136-1.917-.21-2.904-.21-9.564 0-17.578 6.621-19.72 15.528z" fill="#fff"/><path d="m312.599 208.579c0-.048.003-.096.003-.144 0-8.829-7.157-15.986-15.986-15.986-2.098 0-4.099.408-5.934 1.142-3.545-6.351-10.328-10.648-18.117-10.648-10.116 0-18.535 7.244-20.365 16.827-.546-.078-1.102-.121-1.67-.121-5.5 0-10.108 3.807-11.339 8.929h73.408z" fill="#dff7fd"/></g><g><path d="m430.121 119.144c0-.054.004-.107.004-.16 0-9.83-7.969-17.798-17.798-17.798-2.335 0-4.563.454-6.606 1.272-3.947-7.071-11.499-11.855-20.171-11.855-11.263 0-20.636 8.066-22.674 18.734-.607-.087-1.228-.134-1.859-.134-6.123 0-11.254 4.239-12.625 9.941z" fill="#fff"/><path d="m412.755 119.144c0-.031.002-.061.002-.092 0-5.652-4.582-10.234-10.234-10.234-1.343 0-2.624.261-3.799.731-2.269-4.066-6.612-6.817-11.599-6.817-6.476 0-11.866 4.638-13.038 10.773-.349-.05-.706-.077-1.069-.077-3.521 0-6.471 2.438-7.26 5.717h46.997z" fill="#dff7fd"/></g></g></g></svg>