<svg id="Capa_1" enable-background="new 0 0 512 512" height="512" viewBox="0 0 512 512" width="512" xmlns="http://www.w3.org/2000/svg"><g><path d="m507.82 209.74c-131.04 157.29-372.6 157.29-503.65.01v-.01c5.28-28.9 15.4-56.1 29.51-80.74 44.12-77.07 127.16-129 222.32-129s178.2 51.93 222.32 129c12.98 22.67 22.59 47.52 28.15 73.86.48 2.28.94 4.58 1.35 6.88z" fill="#fff9bb"/><path d="m507.83 209.74h-.01c-131.04 157.29-372.6 157.29-503.65.01v-.01c5.28-28.9 15.4-56.1 29.51-80.74 44.12 77.07 127.16 129 222.32 129s178.2-51.93 222.32-129c14.11 24.64 24.23 51.84 29.51 80.74z" fill="#fff297"/><g><path d="m55.78 323.91h334.72c-20.58-12.84-41.15-25.68-61.73-38.52-8.99-5.61-19.12-11.45-29.53-9.5-8.3 1.55-14.95 7.81-22.97 10.44-6.61 2.17-13.62 1.7-20.27-.45-5.64-1.8-11.02-4.8-15.69-8.4-10.18-7.84-17.99-18.29-27.14-27.32-9.14-9.03-20.47-16.97-33.3-17.63-14.04-.73-26.83 7.26-38.99 14.31-26.784 15.537-55.423 27.854-85.1 36.689v40.381z" fill="#ffc0a4"/><path d="m390.5 323.91h-134.5v-38.03c6.65 2.15 13.66 2.62 20.27.45 8.02-2.63 14.67-8.89 22.97-10.44 10.41-1.95 20.54 3.89 29.53 9.5 20.58 12.84 41.15 25.68 61.73 38.52z" fill="#ffa87a"/><path d="m224.24 320.5v43.82h-87.202c-46.298 0-91.437-15.043-128.132-43.273-.232-.179-.464-.358-.696-.537l-.01-.01c-3.89-14.99-6.47-30.51-7.57-46.44-.42-5.96-.63-11.99-.63-18.06 0-15.8 1.43-31.26 4.17-46.26h66.82c22.49 0 29.04 3.07 40.67 20.33 7.45 11.07 15.93 7.34 22.12 14.56 9.96 11.62 9.51 21.28 18.56 24.21 5.54 1.8 7.15.48 12.87 1.56 27.92 5.27 29.74 50.94 59.03 50.1z" fill="#b15848"/><path d="m512 256c0 22.28-2.85 43.89-8.21 64.5-.223.173-.446.345-.67.517-36.699 28.254-81.857 43.303-128.171 43.303h-83.089v-43.82c29.29.84 31.11-44.83 59.03-50.1 5.72-1.08 7.33.24 12.87-1.56 9.05-2.93 8.6-12.59 18.56-24.21 6.19-7.22 14.67-3.49 22.12-14.56 11.63-17.26 18.18-20.33 40.67-20.33h62.71c2.6 14.21 4.02 28.82 4.17 43.74.01.84.01 1.68.01 2.52z" fill="#a44e3e"/><path d="m503.79 320.5c-10.6 40.88-31.06 77.79-58.68 108.05-27.05 29.63-60.97 52.87-99.23 67.22l-11.74-5.21c-49.75-22.08-106.53-22.08-156.28 0l-11.74 5.21c-38.27-14.35-72.18-37.59-99.23-67.22-14.46-15.84-26.96-33.5-37.1-52.61-9.24-17.38-16.53-35.96-21.59-55.44z" fill="#ed784a"/><path d="m503.8 320.5c-6.07 23.38-15.36 45.47-27.38 65.75-29.54 49.9-75.55 88.9-130.54 109.52l-11.74-5.21c-24.88-11.04-51.51-16.56-78.14-16.56v-153.5z" fill="#d85e39"/><path d="m345.88 495.77c-1.23.46-2.46.91-3.69 1.35-3.64 1.3-7.32 2.52-11.03 3.66-46.29-27.65-104.03-27.65-150.32.01-3.71-1.14-7.39-2.36-11.03-3.66-1.24-.44-2.47-.89-3.69-1.36l54.02-175.27h71.72z" fill="#ffc0a4"/><path d="m345.88 495.77c-1.23.46-2.46.91-3.69 1.35-3.64 1.3-7.32 2.52-11.03 3.66-23.15-13.83-49.15-20.74-75.16-20.74v-159.54h35.86z" fill="#ffa87a"/><path d="m331.16 500.78c-23.77 7.3-49 11.22-75.16 11.22s-51.39-3.92-75.16-11.21l43.4-180.29h63.52z" fill="#7e7f92"/><path d="m331.16 500.78c-23.77 7.3-49 11.22-75.16 11.22v-191.5h31.76z" fill="#6e6f83"/><g fill="#fff"><path d="m258.85 349.27h-5.7l.84-28.77h4.02z"/><path d="m260.28 398.63h-8.56l1.11-38.17h6.34z"/><path d="m261.95 455.88h-11.9l1.23-42.11h9.44z"/><path d="m263.58 511.89c-2.52.07-5.04.11-7.58.11s-5.06-.04-7.58-.11l1.07-36.92h13.02z"/></g><g><path d="m139.225 366.255-.238 2.064c-1.016 8.661-8.351 15.186-17.067 15.186-1.612 0-2.945 1.254-3.048 2.866l-1.088 18.25h-12.376l-2.945-49.169c-.317-5.279 3.898-9.732 9.192-9.701 5.295.04 9.367 4.731 9.05 10.01l-.865 14.487c-.087 1.429 1.54 2.35 2.691 1.5 1.349-.984 2.159-2.651 1.945-4.445l-.095-.786c-.524-4.501 2.913-8.645 7.446-8.629 4.461.023 7.922 3.921 7.398 8.367z" fill="#b6e337"/><path d="m139.225 366.255-.238 2.064c-1.016 8.661-8.351 15.186-17.067 15.186-1.612 0-2.945 1.254-3.048 2.866l-1.088 18.25h-6.128v-58.87c5.295.04 9.367 4.731 9.05 10.01l-.865 14.487c-.087 1.429 1.54 2.35 2.691 1.5 1.349-.984 2.159-2.651 1.945-4.445l-.095-.786c-.524-4.501 2.913-8.645 7.446-8.629 4.46.023 7.921 3.921 7.397 8.367z" fill="#6cdc2d"/></g><g><path d="m433.15 379.46-.14 1.18c-.58 4.97-4.78 8.7-9.78 8.7-.92 0-1.68.72-1.74 1.64h-.01l-.62 10.37h-11.21l-.99-16.54c-.07-1.09-.97-1.94-2.06-1.94-5.9 0-10.86-4.42-11.55-10.28l-.16-1.39c-.36-3.01 1.98-5.65 5-5.67 3.07-.01 5.4 2.8 5.04 5.84l-.06.53c-.15 1.22.4 2.35 1.31 3.01.76.57 1.83-.02 1.83-.95v-.06l-.23-3.71-.78-13.13c-.29-4.78 3.4-9.03 8.2-9.07 4.8-.03 8.62 4.01 8.33 8.79l-1.49 24.98c-.04.81.89 1.34 1.54.85.78-.56 1.24-1.52 1.12-2.55l-.06-.45c-.3-2.58 1.67-4.95 4.27-4.94 2.55.01 4.54 2.25 4.24 4.79z" fill="#b6e337"/><path d="m433.15 379.46-.14 1.18c-.58 4.97-4.78 8.7-9.78 8.7-.92 0-1.68.72-1.74 1.64h-.01l-.62 10.37h-5.66v-53.36c4.8-.03 8.62 4.01 8.33 8.79l-1.49 24.98c-.04.81.89 1.34 1.54.85.78-.56 1.24-1.52 1.12-2.55l-.06-.45c-.3-2.58 1.67-4.95 4.27-4.94 2.55.01 4.54 2.25 4.24 4.79z" fill="#6cdc2d"/></g><g><path d="m159.314 440.918-.122 1.029c-.506 4.334-4.168 7.586-8.528 7.586-.802 0-1.465.628-1.517 1.43h-.009l-.541 9.043h-9.775l-.863-14.423c-.061-.951-.846-1.692-1.796-1.692-5.145 0-9.47-3.854-10.071-8.964l-.139-1.212c-.314-2.625 1.726-4.927 4.36-4.944 2.677-.009 4.709 2.442 4.395 5.092l-.052.462c-.131 1.064.349 2.049 1.142 2.625.663.497 1.596-.017 1.596-.828v-.052l-.201-3.235-.68-11.449c-.253-4.168 2.965-7.874 7.15-7.909 4.186-.026 7.517 3.497 7.264 7.665l-1.299 21.783c-.035.706.776 1.168 1.343.741.68-.488 1.081-1.325.977-2.223l-.052-.392c-.262-2.25 1.456-4.316 3.723-4.308 2.221.007 3.956 1.961 3.695 4.175z" fill="#b6e337"/><path d="m159.314 440.918-.122 1.029c-.506 4.334-4.168 7.586-8.528 7.586-.802 0-1.465.628-1.517 1.43h-.009l-.541 9.043h-4.936v-46.53c4.186-.026 7.517 3.497 7.264 7.665l-1.299 21.783c-.035.706.776 1.168 1.343.741.68-.488 1.081-1.325.977-2.223l-.052-.392c-.262-2.25 1.456-4.316 3.723-4.308 2.223.008 3.958 1.962 3.697 4.176z" fill="#6cdc2d"/></g><g><path d="m55.824 362.716h10.296l1.333-22.288c.226-3.755-2.671-7.093-6.438-7.121-3.766-.023-6.765 3.145-6.539 6.901z" fill="#b6e337"/><path d="m66.12 362.716 1.333-22.288c.226-3.755-2.671-7.093-6.438-7.121v29.409z" fill="#6cdc2d"/></g><g><path d="m166.527 348.67h14.668l1.898-31.752c.322-5.35-3.805-10.104-9.171-10.144-5.366-.032-9.637 4.481-9.316 9.831z" fill="#b6e337"/><path d="m181.195 348.67 1.898-31.752c.322-5.35-3.805-10.104-9.171-10.144v41.896z" fill="#6cdc2d"/></g><g><path d="m346.56 340.045h10.296l1.333-22.288c.226-3.755-2.671-7.093-6.438-7.121-3.767-.023-6.765 3.145-6.539 6.901z" fill="#b6e337"/><path d="m356.856 340.045 1.333-22.288c.226-3.755-2.671-7.093-6.438-7.121v29.409z" fill="#6cdc2d"/></g><g><path d="m361.588 452.734h17.176l2.223-37.182c.377-6.265-4.456-11.832-10.739-11.879-6.283-.038-11.286 5.247-10.909 11.512z" fill="#b6e337"/><path d="m378.764 452.734 2.223-37.182c.377-6.265-4.456-11.832-10.739-11.879v49.061z" fill="#6cdc2d"/></g><path d="m258.85 349.27h-2.85v-28.77h2.01z" fill="#d0f6ff"/><path d="m260.28 398.63h-4.28v-38.17h3.17z" fill="#d0f6ff"/><path d="m261.95 455.88h-5.95v-42.11h4.72z" fill="#d0f6ff"/><path d="m263.58 511.89c-2.52.07-5.04.11-7.58.11v-37.03h6.51z" fill="#d0f6ff"/><g><path d="m428.666 188.463c0-.069.005-.137.005-.206 0-12.642-10.248-22.89-22.89-22.89-3.003 0-5.869.584-8.497 1.636-5.076-9.093-14.788-15.246-25.942-15.246-14.485 0-26.54 10.373-29.161 24.094-.781-.112-1.579-.173-2.391-.173-7.875 0-14.473 5.452-16.237 12.786h105.113z" fill="#ffeb98"/><path d="m406.332 188.463c0-.04.003-.079.003-.119 0-7.269-5.893-13.162-13.162-13.162-1.727 0-3.375.336-4.886.941-2.919-5.229-8.503-8.767-14.917-8.767-8.329 0-15.261 5.965-16.768 13.855-.449-.064-.908-.1-1.375-.1-4.529 0-8.323 3.135-9.337 7.352z" fill="#f9e073"/></g><g><path d="m92.475 176.073c0-.051-.004-.1-.004-.151 0-9.229 7.482-16.711 16.711-16.711 2.193 0 4.284.426 6.203 1.194 3.706-6.639 10.796-11.131 18.939-11.131 10.575 0 19.376 7.573 21.289 17.59.57-.082 1.153-.126 1.745-.126 5.749 0 10.566 3.98 11.854 9.334h-76.737z" fill="#ffeb98"/><path d="m108.78 176.073c0-.029-.002-.058-.002-.087 0-5.307 4.302-9.609 9.609-9.609 1.261 0 2.464.245 3.567.687 2.131-3.817 6.208-6.4 10.891-6.4 6.081 0 11.141 4.355 12.242 10.115.328-.047.663-.073 1.004-.073 3.306 0 6.076 2.289 6.816 5.368h-44.127z" fill="#f9e073"/></g><g><path d="m183.294 76.53c0-.071-.005-.142-.005-.213 0-13.057 10.585-23.642 23.642-23.642 3.102 0 6.062.604 8.776 1.69 5.243-9.392 15.274-15.747 26.794-15.747 14.96 0 27.412 10.714 30.119 24.886.807-.116 1.631-.179 2.469-.179 8.134 0 14.949 5.631 16.77 13.206h-108.565z" fill="#ffeb98"/><path d="m206.362 76.53c0-.041-.003-.081-.003-.123 0-7.508 6.087-13.595 13.595-13.595 1.784 0 3.486.347 5.046.972 3.015-5.401 8.783-9.055 15.408-9.055 8.602 0 15.763 6.161 17.319 14.31.464-.066.938-.103 1.42-.103 4.677 0 8.596 3.238 9.643 7.594z" fill="#f9e073"/></g></g></g></svg>