<svg id="Capa_1" enable-background="new 0 0 512 512" height="512" viewBox="0 0 512 512" width="512" xmlns="http://www.w3.org/2000/svg"><g><path d="m512 256c0 2.78-.04 5.56-.14 8.32-.57 18.01-3 35.54-7.11 52.42-27.27 112.06-128.3 195.26-248.75 195.26s-221.48-83.19-248.74-195.25l-.01-.01c-4.1-16.88-6.54-34.42-7.11-52.42-.1-2.76-.14-5.54-.14-8.32 0-8.37.4-16.64 1.19-24.8.85-8.88 2.16-17.63 3.9-26.22 23.64-116.94 127-204.98 250.91-204.98 113.71 0 210.12 74.15 243.49 176.74 0 .01.01.02.01.03 3.82 11.72 6.8 23.82 8.9 36.22 2.37 13.99 3.6 28.36 3.6 43.01z" fill="#fff9bb"/><path d="m499.49 176.74-82.02 29.58c-52.03 18.76-106.22 29.82-160.86 33.08-55.59 3.33-111.66-1.42-166.43-14.34l-85.09-20.08-.01.01v-.01c4.31-21.3 11.26-41.64 20.51-60.66 7.84.6 15.42 3.07 22.5 6.9 9.11 4.93 13.2 14.61 23.26 18.49 7.57 2.92 16.28 2.73 23.72-.51 3.9-1.7 7.41-4.18 11.17-6.18 21.73-11.55 33.77 13.96 51.76 20.36 17.49 6.22 28-13.75 45.05-11.58 19.65 2.5 29.85 31.95 50.81 27.1.89-.21 1.81-.48 2.75-.83 1.19-.42 2.42-.96 3.68-1.62 8.76-4.56 14.93-12.73 22.09-19.53 7.15-6.8 16.71-12.63 26.37-10.62 7.36 1.53 13.48 7.42 20.98 7.91 10.04.66 17.82-8.31 23.54-16.59 8.77-12.67 24.29-26 40.83-18.1 6.36 3.04 11.45 8.16 17.32 12.07s13.35 6.62 19.93 4.06c5.62-2.19 9.18-7.65 12.35-12.79 7.2-11.65 15.53-21.18 28.24-24.4 2.21 3.46 4.34 6.97 6.38 10.54 8.61 15.03 15.73 31.01 21.17 47.74z" fill="#43af3e"/><path d="m499.49 176.74-82.02 29.58c-52.03 18.76-106.22 29.82-160.86 33.08v-41.33c1.19-.42 2.42-.96 3.68-1.62 8.76-4.56 14.93-12.73 22.09-19.53 7.15-6.8 16.71-12.63 26.37-10.62 7.36 1.53 13.48 7.42 20.98 7.91 10.04.66 17.82-8.31 23.54-16.59 8.77-12.67 24.29-26 40.83-18.1 6.36 3.04 11.45 8.16 17.32 12.07s13.35 6.62 19.93 4.06c5.62-2.19 9.18-7.65 12.35-12.79 7.2-11.65 15.53-21.18 28.24-24.4 2.21 3.46 4.34 6.97 6.38 10.54 8.61 15.03 15.73 31.01 21.17 47.74z" fill="#00a23e"/><g><g><path d="m511.86 264.32c-.57 18.01-3 35.54-7.11 52.42-145.56 114.63-350.61 114.94-496.52.77l-.97-.76-.01-.01c-4.1-16.88-6.54-34.42-7.11-52.42l256.47-6.79z" fill="#6e6f83"/><path d="m511.86 264.32c-.57 18.01-3 35.54-7.11 52.42-72.78 57.32-160.44 86.06-248.14 86.19v-145.4z" fill="#605f74"/><g><path d="m512 256c0 2.78-.04 5.56-.14 8.32h-5.34c-5.83 0-10.55 4.72-10.55 10.55l-2 25.32c0 3.4.62 4.49-1.61 6.72s-5.32 3.61-8.72 3.61c-6.81 0-10.34-3.52-10.34-10.33v-2.82c0-6.81-7.52-14.34-14.33-14.34s-10.34-3.52-10.34-10.33c0-4.63-5.75-10.38-10.38-10.38-12.03 0-24.908 8.642-24.908 20.672 0 5.57.858 3.575-2.782 7.225-3.65 3.64-8.69 1.22-14.26 1.22-11.13 0-9.461-4.885-9.461-16.025 0-12.03-15.024-20.966-27.064-20.966l-181.065 9.874c-7.83 0-14.18 6.35-14.18 14.18v34.02c0 4.57-1.85 8.72-4.85 11.72s-7.14 4.86-11.72 4.86c-9.16 0-16.58-7.43-16.58-16.58v-3.79c0-9.15-7.42-16.57-16.58-16.57-9.15 0-16.57-7.42-16.57-16.58 0-6.22-5.04-11.26-11.26-11.26h-86.83c-.1-2.76-.14-5.54-.14-8.32 0-8.37.4-16.64 1.19-24.8.85-8.88 2.16-17.63 3.9-26.22h145.17c19.72 0 38.63 7.83 52.58 21.77 1.44 1.44 2.94 2.82 4.49 4.13 5.91 5.02 12.54 9.06 19.63 11.99 8.93 3.7 18.59 5.66 28.45 5.66h1.2c14.09-.12 27.75-4.24 39.44-11.71 2.8-1.79 5.49-3.77 8.04-5.94 1.54-1.31 3.04-2.69 4.48-4.13l28.24-28.24c13.94-13.94 32.84-21.77 52.56-21.77h110.12c0 .01.01.02.01.03 3.82 11.72 6.8 23.82 8.9 36.22 2.37 13.99 3.6 28.36 3.6 43.01z" fill="#b6e337"/><path d="m512 256c0 2.78-.04 5.56-.14 8.32h-5.34c-5.83 0-10.55 4.72-10.55 10.55v25.32c0 3.4-1.38 6.49-3.61 8.72s-5.32 3.61-8.72 3.61c-6.81 0-12.34-5.52-12.34-12.33v-2.82c0-6.81-5.52-12.34-12.33-12.34s-12.34-5.52-12.34-12.33c0-4.63-3.75-8.38-8.38-8.38-12.03 0-21.79 9.76-21.79 21.79 0 5.57-2.26 10.61-5.9 14.26-3.65 3.64-8.69 5.9-14.26 5.9-11.13 0-20.16-9.02-20.16-20.16 0-12.03-9.75-21.79-21.79-21.79h-175.64c-7.83 0-14.18 6.35-14.18 14.18v34.02c0 4.57-1.85 8.72-4.85 11.72s-7.14 4.86-11.72 4.86c-9.16 0-16.58-7.43-16.58-16.58v-3.79c0-9.15-7.42-16.57-16.58-16.57-9.15 0-16.57-7.42-16.57-16.58 0-6.22-5.04-11.26-11.26-11.26h-86.83c-.1-2.76-.14-5.54-.14-8.32 0-8.37.4-16.64 1.19-24.8h149.07c19.72 0 38.63 5.04 52.58 14.03 1.44.93 2.94 1.82 4.49 2.66 5.91 3.24 12.54 5.84 19.63 7.73 8.93 2.39 18.59 3.65 28.45 3.65h1.2c14.09-.08 27.75-2.73 39.44-7.55 2.8-1.15 5.49-2.43 8.04-3.83 1.54-.84 3.04-1.73 4.48-2.66l28.24-18.21c13.94-8.98 32.84-14.03 52.56-14.03h119.03c2.37 13.99 3.6 28.36 3.6 43.01z" fill="#6cdc2d"/><path d="m512 256v8.32h-5.48c-5.83 0-10.55 4.72-10.55 10.55v19.32c0 3.4-1.38 6.49-3.61 8.72s-5.32 3.61-8.72 3.61c-6.81 0-12.34-5.52-12.34-12.33v-2.82c0-6.81-5.52-12.34-12.33-12.34s-12.34-5.52-12.34-12.33c0-4.63-3.75-8.38-8.38-8.38-12.03 0-21.79 9.76-21.79 21.79 0 5.57-2.26 10.61-5.9 14.26-3.65 3.64-8.69 5.9-14.26 5.9-11.13 0-20.16-9.02-20.16-20.16 0-12.03-9.75-21.79-21.79-21.79h-97.74v-9.79c14.09-.12 27.75-4.24 39.44-11.71 2.8-1.79 5.49-3.77 8.04-5.94 1.54-1.31 3.04-2.69 4.48-4.13l28.24-28.24c13.94-13.94 32.84-21.77 52.56-21.77h110.12c7.34 22.57 11.64 46.51 12.39 71.35.08 2.63.12 5.26.12 7.91z" fill="#6cdc2d"/><path d="m512 256c0 2.78-.04 5.56-.14 8.32-.25 8.01-.88 15.93-1.85 23.74h-3.49c-5.83 0-10.55 4.72-10.55 10.55v1.58c0 3.4-1.38 6.49-3.61 8.72s-5.32 3.61-8.72 3.61c-6.81 0-12.34-5.52-12.34-12.33v-2.82c0-6.81-5.52-12.34-12.33-12.34s-12.34-5.52-12.34-12.33c0-4.63-3.75-8.38-8.38-8.38-12.03 0-21.79 9.76-21.79 21.79 0 5.57-2.26 10.61-5.9 14.26-3.65 3.64-8.69 5.9-14.26 5.9-11.13 0-20.16-9.02-20.16-20.16 0-12.03-9.75-21.79-21.79-21.79h-97.74v-5.05c14.09-.08 27.75-2.73 39.44-7.55 2.8-1.15 5.49-2.43 8.04-3.83 1.54-.84 3.04-1.73 4.48-2.66l28.24-18.21c13.94-8.98 32.84-14.03 52.56-14.03h119.03c1.94 11.46 3.12 23.18 3.48 35.1.08 2.63.12 5.26.12 7.91z" fill="#53af17"/></g><path d="m207.33 230.88h96.76v225.67h-96.76z" fill="#fff"/><path d="m207.33 230.88h96.76v33.44h-96.76z" fill="#d0f6ff"/><path d="m256.61 230.88h47.48v225.67h-47.48z" fill="#d0f6ff"/><path d="m256.61 230.88h47.48v33.44h-47.48z" fill="#c5f2f9"/></g><g><path d="m214.43 425.98v40.73c-49.95-4.46-99.35-16.98-146.22-37.58l-1.32-.58c-21.02-23.02-37.89-49.9-49.43-79.45-4.09-10.47-7.51-21.27-10.21-32.36h45.2c18.72 0 36.35 8.82 47.59 23.8l19.81 26.42h24.31c20.31 0 39.22 10.36 50.15 27.49z" fill="#ec771b"/><path d="m197.4 458.34v6.53c-44.13-5.57-87.66-17.49-129.19-35.74l-1.32-.58c-21.02-23.02-37.89-49.9-49.43-79.45h17.96c18.72 0 36.35 8.82 47.59 23.8l19.81 26.42h24.31c20.31 0 39.22 10.36 50.15 27.49z" fill="#c55732"/></g><g><path d="m504.75 316.74c-2.7 11.09-6.12 21.89-10.21 32.36-11.54 29.55-28.41 56.43-49.43 79.45-47.25 20.94-97.11 33.66-147.54 38.16v-40.73l20.12-31.53c10.93-17.13 29.84-27.49 50.15-27.49h24.31l19.81-26.42c11.24-14.98 28.87-23.8 47.59-23.8z" fill="#b15848"/><path d="m494.54 349.1c-11.54 29.55-28.41 56.43-49.43 79.45-41.92 18.58-85.9 30.69-130.51 36.32v-6.53l20.12-31.53c10.93-17.13 29.84-27.49 50.15-27.49h24.31l19.81-26.42c11.24-14.98 28.87-23.8 47.59-23.8z" fill="#a44e3e"/></g><g><path d="m445.11 428.55c-46.82 51.28-114.21 83.45-189.11 83.45s-142.29-32.17-189.11-83.45z" fill="#92eaff"/><path d="m445.11 428.55c-46.66 51.1-113.74 83.22-188.32 83.45v-83.45z" fill="#63dbfa"/></g><path d="" fill="#dff7fd"/><g><path d="m379.668 428.55c.001-.081.006-.16.006-.241 0-14.8-11.998-26.798-26.798-26.798-3.516 0-6.871.684-9.947 1.915-5.943-10.646-17.313-17.849-30.371-17.849-16.958 0-31.072 12.144-34.139 28.208-.914-.131-1.848-.203-2.799-.203-9.22 0-16.944 6.382-19.009 14.968z" fill="#fff"/><path d="m353.521 428.55c0-.046.003-.092.003-.139 0-8.511-6.899-15.41-15.409-15.41-2.022 0-3.951.393-5.72 1.101-3.417-6.122-9.955-10.264-17.464-10.264-9.751 0-17.867 6.983-19.631 16.22-.526-.075-1.063-.117-1.609-.117-5.302 0-9.743 3.67-10.931 8.607h70.761z" fill="#dff7fd"/></g><g><path d="m177.136 115.454c0-.063.005-.125.005-.189 0-11.563-9.374-20.937-20.937-20.937-2.747 0-5.368.534-7.771 1.496-4.643-8.317-13.526-13.945-23.728-13.945-13.248 0-24.275 9.488-26.672 22.038-.714-.103-1.444-.158-2.187-.158-7.203 0-13.238 4.986-14.851 11.694h96.141z" fill="#ffeb98"/><path d="m156.708 115.454c0-.036.003-.072.003-.109 0-6.649-5.39-12.039-12.039-12.039-1.58 0-3.087.307-4.469.86-2.67-4.783-7.778-8.019-13.644-8.019-7.618 0-13.959 5.456-15.337 12.672-.411-.059-.83-.091-1.257-.091-4.142 0-7.612 2.867-8.54 6.725h55.283z" fill="#f9e073"/></g><g><path d="m211.389 49.553c0-.059-.004-.116-.004-.175 0-10.731 8.699-19.431 19.431-19.431 2.549 0 4.982.496 7.212 1.389 4.309-7.719 12.553-12.942 22.021-12.942 12.296 0 22.529 8.805 24.754 20.453.663-.095 1.34-.147 2.029-.147 6.685 0 12.286 4.628 13.783 10.853z" fill="#ffeb98"/><path d="m230.348 49.553c0-.034-.003-.067-.003-.101 0-6.171 5.002-11.173 11.173-11.173 1.466 0 2.865.285 4.147.799 2.478-4.439 7.218-7.442 12.663-7.442 7.07 0 12.955 5.063 14.234 11.761.381-.055.771-.084 1.167-.084 3.844 0 7.065 2.661 7.926 6.241h-51.307z" fill="#f9e073"/></g><g><path d="m421.394 114.028c0-.07.005-.139.005-.209 0-12.798-10.375-23.173-23.173-23.173-3.04 0-5.941.591-8.601 1.656-5.138-9.206-14.971-15.435-26.262-15.435-14.663 0-26.868 10.501-29.521 24.392-.791-.113-1.598-.175-2.42-.175-7.972 0-14.652 5.519-16.437 12.944z" fill="#ffeb98"/><path d="m398.784 114.028c0-.04.003-.08.003-.12 0-7.359-5.966-13.325-13.325-13.325-1.748 0-3.416.34-4.946.952-2.955-5.293-8.609-8.875-15.101-8.875-8.432 0-15.45 6.038-16.975 14.026-.455-.065-.919-.101-1.392-.101-4.584 0-8.425 3.174-9.452 7.443z" fill="#f9e073"/></g><g><path d="m133.552 428.55c0-.081-.006-.16-.006-.241 0-14.8 11.998-26.798 26.798-26.798 3.516 0 6.871.684 9.947 1.915 5.943-10.646 17.313-17.849 30.371-17.849 16.958 0 31.072 12.144 34.139 28.208.914-.131 1.848-.203 2.799-.203 9.22 0 16.944 6.382 19.009 14.968z" fill="#fff"/><path d="m159.699 428.55c0-.046-.003-.092-.003-.139 0-8.511 6.899-15.41 15.409-15.41 2.022 0 3.951.393 5.72 1.101 3.417-6.122 9.955-10.264 17.464-10.264 9.751 0 17.867 6.983 19.631 16.22.526-.075 1.063-.117 1.609-.117 5.302 0 9.743 3.67 10.931 8.607h-70.761z" fill="#dff7fd"/></g></g><g fill="#fff"><path d="m177.141 349.826c0 3.78-3.064 6.844-6.844 6.844s-6.844-3.064-6.844-6.844 3.064-6.844 6.844-6.844 6.844 3.064 6.844 6.844z"/><path d="m360.127 384.834c0 3.226-2.615 5.842-5.842 5.842-3.226 0-5.842-2.615-5.842-5.842 0-3.226 2.615-5.842 5.842-5.842s5.842 2.616 5.842 5.842z"/><circle cx="146.692" cy="383.832" r="3.666"/><circle cx="322.723" cy="359.665" r="3.666"/><path d="m363.793 347.873c0 2.025-1.641 3.666-3.666 3.666-2.024 0-3.666-1.641-3.666-3.666s1.641-3.666 3.666-3.666c2.024.001 3.666 1.642 3.666 3.666z"/><circle cx="129.787" cy="351.539" r="3.666"/></g></g></svg>