<svg id="Capa_1" enable-background="new 0 0 512 512" height="512" viewBox="0 0 512 512" width="512" xmlns="http://www.w3.org/2000/svg"><g><path d="m512 256c0 26.27-3.96 51.62-11.32 75.49l-8.98 6.63c-137.78 101.64-327.62 94.15-456.97-18.03l-31.6-27.41-.51.01c-.89-6.14-1.55-12.35-1.99-18.63-.42-5.96-.63-11.99-.63-18.06 0-46.22 12.25-89.57 33.68-127 44.12-77.07 127.16-129 222.32-129s178.2 51.93 222.32 129c12.98 22.67 22.59 47.52 28.15 73.86 3.46 16.36 5.35 33.28 5.52 50.62.01.84.01 1.68.01 2.52z" fill="#92eaff"/><g><path d="m512 256c0 26.28-3.96 51.63-11.32 75.49l-8.98 6.63c-137.78 101.64-327.62 94.15-456.97-18.03l-31.6-27.41-.51.01c-1.73-11.98-2.62-24.23-2.62-36.69 0-46.22 12.25-89.57 33.68-127 44.12 77.07 127.16 129 222.32 129 26.14 0 51.36-3.92 75.11-11.2 12.23-3.75 24.07-8.39 35.44-13.84 11.74-5.63 22.98-12.12 33.64-19.41 24.04-16.41 45.12-36.8 62.32-60.25.01 0 .01-.01.01-.01v-.01c5.71-7.77 10.99-15.87 15.8-24.28 21.43 37.43 33.68 80.78 33.68 127z" fill="#63dbfa"/></g><g><g><g><g><path d="m115.18 292.68v17.44c-29.32 32.32-80.12 32.32-109.44-.01-1-4.63-1.87-9.31-2.61-14.03v-3.4z" fill="#fff"/><path d="m115.18 292.68v17.44c-14.98 16.51-35.56 24.58-56.02 24.23v-41.67z" fill="#dff7fd"/><path d="m115.19 310.11v34.82h-89.005c-6.248 0-11.832-3.993-13.752-9.939-.011-.034-.022-.068-.033-.101-2.62-8.09-4.84-16.36-6.66-24.78z" fill="#6e6f83"/><path d="m59.156 310.114h56.03v34.817h-56.03z" fill="#605f74"/></g><g><path d="m266.14 292.68-1.41 1.54c-41.22 45.33-112.73 44.61-153.03-1.54 7.33-34.14 12.14-70.28 14.01-107.81.6-11.86.9-23.88.9-36.01h124.62c0 12.13.3 24.15.9 36.01 1.87 37.53 6.68 73.67 14.01 107.81z" fill="#fff"/><path d="m266.14 292.68-1.41 1.54c-30.82 33.89-78.56 42.04-117.54 24.71 6.8-52.11 10.58-109.62 10.58-170.07h93.46c0 50.46 5.26 98.88 14.91 143.82z" fill="#dff7fd"/><path d="m266.14 292.68-1.41 1.54c-20.36 22.39-48.09 33.54-75.81 33.54v-178.9h62.31c0 50.46 5.26 98.88 14.91 143.82z" fill="#c5f2f9"/><path d="m252.129 184.87h-126.419c.597-11.861.903-23.876.903-36.01h124.612c0 2.642.017 5.283.051 7.908.017 2.13.051 4.278.102 6.408-.017.102 0 .204 0 .307.034 1.789.068 3.579.136 5.351.051 2.164.119 4.312.204 6.459 0 .307.017.596.034.903.104 2.897.223 5.794.377 8.674z" fill="#ff6378"/><path d="m252.129 184.87h-94.823c.307-11.861.46-23.876.46-36.01h93.459c0 2.642.017 5.283.051 7.908.017 2.147.051 4.278.102 6.408-.017.102 0 .204 0 .307.034 1.789.068 3.579.136 5.351.051 2.164.119 4.312.204 6.459 0 .307.017.596.034.903.104 2.897.223 5.794.377 8.674z" fill="#fe3345"/><path d="m252.129 184.87h-63.21v-36.01h62.306c0 12.134.307 24.149.904 36.01z" fill="#de1263"/><path d="m285.514 362.365h-193.19c7.652-22.053 14.162-45.349 19.377-69.685h154.436c5.215 24.335 11.725 47.632 19.377 69.685z" fill="#7e7f92"/><path d="m285.514 362.365h-144.892c3.835-22.053 7.073-45.366 9.697-69.685h115.819c5.214 24.335 11.724 47.632 19.376 69.685z" fill="#6e6f83"/><path d="m285.514 362.365h-96.595v-69.685h77.218c5.215 24.335 11.725 47.632 19.377 69.685z" fill="#605f74"/></g><g><path d="m477.41 292.68c-43.87 39.59-110.57 39.59-154.44 0 3.21-14.93 5.93-30.24 8.14-45.88 2.83-20.13 4.82-40.81 5.87-61.93.6-11.86.91-23.88.91-36.01h124.61c0 1.48 0 2.96.01 4.44.07 10.63.37 21.16.89 31.57 1.88 37.53 6.68 73.67 14.01 107.81z" fill="#fff"/><path d="m477.41 292.68c-33.03 29.8-78.99 37.17-118.41 22.1 3.3-26.06 5.85-53.43 7.55-81.82 1.64-27.19 2.49-55.31 2.49-84.1h93.46c0 1.48 0 2.95.02 4.42v.01c.29 48.87 5.52 95.77 14.89 139.39z" fill="#dff7fd"/><path d="m477.41 292.68c-21.93 19.8-49.58 29.69-77.22 29.69v-173.51h62.31c0 1.48 0 2.96.02 4.43.29 48.87 5.52 95.77 14.89 139.39z" fill="#c5f2f9"/><path d="m463.402 184.87h-126.419c.597-11.861.903-23.876.903-36.01h124.612c0 2.642.017 5.283.051 7.908.017 2.13.051 4.278.102 6.408-.017.102 0 .204 0 .307.034 1.789.068 3.579.136 5.351.051 2.164.119 4.312.204 6.459 0 .307.017.596.034.903.104 2.897.224 5.794.377 8.674z" fill="#ff6378"/><path d="m463.402 184.87h-94.823c.307-11.861.46-23.876.46-36.01h93.459c0 2.642.017 5.283.051 7.908.017 2.147.051 4.278.102 6.408-.017.102 0 .204 0 .307.034 1.789.068 3.579.136 5.351.051 2.164.119 4.312.204 6.459 0 .307.017.596.034.903.104 2.897.224 5.794.377 8.674z" fill="#fe3345"/><path d="m463.402 184.87h-63.21v-36.01h62.306c.001 12.134.308 24.149.904 36.01z" fill="#de1263"/><path d="m493.34 352.1c-.28.68-.56 1.36-.84 2.04-1.15 2.76-2.34 5.5-3.59 8.22h-185.31c7.65-22.05 14.16-45.34 19.37-69.68h154.44c4.42 20.6 9.76 40.44 15.93 59.42z" fill="#7e7f92"/><path d="m493.34 352.1c-.28.68-.56 1.36-.84 2.04-1.15 2.76-2.34 5.5-3.59 8.22h-137.01c3.83-22.05 7.07-45.36 9.69-69.68h115.82c4.42 20.6 9.76 40.44 15.93 59.42z" fill="#6e6f83"/><path d="m493.34 352.1c-.28.68-.56 1.36-.84 2.04-1.15 2.76-2.34 5.5-3.59 8.22h-88.72v-69.68h77.22c4.42 20.6 9.76 40.44 15.93 59.42z" fill="#605f74"/></g></g><g fill="#00a23e"><path d="m125.71 362.06h-102.77c-4.01-8.8-7.54-17.87-10.54-27.17 2.22-.11 4.47.34 6.44 1.39-.39-7.01 5.27-12.47 12.15-13.88 6.88-1.42 14.48 2.82 16.89 9.41 2.18-5.38 8.93-7.8 14.71-7.3s10.97 5.08 12.18 10.75c3.64-4.88 10.72-5.88 16.39-3.66 5.68 2.21 9.49 8.46 8.86 14.52 3.81-4.98 12.22-4.3 17.11-.38s7.16 10.21 8.58 16.32z"/><path d="m500.68 331.49c-2.37 7.71-5.11 15.27-8.18 22.65h-84.44c1.2-5.14 3.11-10.44 7.23-13.75 4.12-3.3 11.21-3.87 14.42.32-.53-5.1 2.68-10.37 7.46-12.23s10.75-1.03 13.81 3.09c1.02-4.78 5.39-8.64 10.26-9.06 4.87-.43 10.56 1.62 12.39 6.15 2.04-5.56 8.44-9.12 14.24-7.93s10.56 5.79 10.23 11.7c.81-.43 1.68-.74 2.58-.94z"/></g></g><path d="m495.83 345.71c-11.55 30.88-28.9 58.94-50.72 82.84-46.66 51.1-113.74 83.22-188.32 83.45h-.79c-74.9 0-142.29-32.17-189.11-83.45-14.46-15.84-26.96-33.5-37.1-52.61-3.46-6.52-6.65-13.21-9.56-20.05 24.72 1.69 55.63 2.66 104.43 2.66 44.15 0 87.92-1.99 131.34-4.43 26.66-1.5 53.18-3.16 79.56-4.64 52.59-2.96 107.34-5.12 160.27-3.77z" fill="#6cdc2d"/><path d="m495.83 345.71c-7.89 21.1-18.49 40.89-31.38 58.93-5.15 7.21-10.67 14.14-16.52 20.77-.93 1.06-1.87 2.1-2.82 3.14-46.66 51.1-113.74 83.22-188.32 83.45h-.79v-157.88c26.66-1.5 53.18-3.16 79.56-4.64 52.59-2.96 107.34-5.12 160.27-3.77z" fill="#5dbf1d"/><path d="m464.45 404.64c-5.15 7.21-10.67 14.14-16.52 20.77-.93 1.06-1.87 2.1-2.82 3.14-46.66 51.1-113.74 83.22-188.32 83.45h-.79c-45.74 0-88.68-12-125.84-33.03-23.7-13.39-45.04-30.46-63.27-50.42-13.14-14.4-24.67-30.3-34.27-47.43 50.96-5.82 110.23-3.91 163.24 1.03 20.32 1.89 40.28 4.18 60.14 6.57 44.63 5.37 88.77 11.25 135.35 14.27 23.68 1.54 48.65 2.18 73.1 1.65z" fill="#b6e337"/><path d="m464.45 404.64c-5.15 7.21-10.67 14.14-16.52 20.77-.93 1.06-1.87 2.1-2.82 3.14-46.66 51.1-113.74 83.22-188.32 83.45h-.79v-123.28c44.63 5.37 88.77 11.25 135.35 14.27 23.68 1.54 48.65 2.18 73.1 1.65z" fill="#6cdc2d"/><path d="m447.93 425.41c-.93 1.06-1.87 2.1-2.82 3.14-46.66 51.1-113.74 83.22-188.32 83.45h-.79c-45.74 0-88.68-12-125.84-33.03 19.6.11 39.29-1.2 58.17-3.65 23.04-2.99 45.48-7.38 67.67-12.34 42.66-9.55 84.42-21.25 127.83-29.34 20.7-3.85 42.35-6.79 64.1-8.23z" fill="#6cdc2d"/><g><path d="m96.57 112.738c0-.056-.004-.111-.004-.167 0-10.248 8.308-18.555 18.555-18.555 2.435 0 4.757.474 6.888 1.326 4.115-7.371 11.988-12.359 21.029-12.359 11.742 0 21.514 8.409 23.638 19.532.633-.091 1.28-.14 1.938-.14 6.384 0 11.732 4.419 13.162 10.364h-85.206z" fill="#fff"/><path d="m114.674 112.738c0-.032-.002-.064-.002-.096 0-5.893 4.777-10.67 10.67-10.67 1.4 0 2.736.272 3.96.762 2.366-4.239 6.893-7.107 12.092-7.107 6.752 0 12.371 4.835 13.593 11.231.364-.052.736-.081 1.114-.081 3.671 0 6.747 2.541 7.569 5.96h-48.996z" fill="#dff7fd"/></g><g><path d="m367.632 130.135c0-.056-.004-.111-.004-.167 0-10.248 8.308-18.555 18.556-18.555 2.435 0 4.757.474 6.888 1.326 4.115-7.371 11.988-12.359 21.029-12.359 11.742 0 21.514 8.409 23.638 19.532.633-.091 1.28-.14 1.938-.14 6.384 0 11.733 4.419 13.162 10.364h-85.207z" fill="#fff"/><path d="m385.736 130.135c0-.032-.002-.064-.002-.096 0-5.893 4.777-10.67 10.67-10.67 1.4 0 2.736.272 3.96.762 2.366-4.239 6.893-7.107 12.092-7.107 6.752 0 12.371 4.835 13.592 11.231.364-.052.736-.081 1.114-.081 3.671 0 6.746 2.541 7.569 5.96h-48.995z" fill="#dff7fd"/></g><g><path d="m322.692 57.322c0-.084.006-.167.006-.251 0-15.402-12.486-27.888-27.888-27.888-3.659 0-7.15.712-10.351 1.993-6.184-11.079-18.017-18.575-31.606-18.575-17.647 0-32.335 12.638-35.527 29.355-.952-.137-1.924-.211-2.913-.211-9.594 0-17.633 6.642-19.782 15.577z" fill="#fff"/><path d="m295.482 57.322c0-.049.004-.096.004-.145 0-8.857-7.18-16.036-16.036-16.036-2.104 0-4.112.409-5.952 1.146-3.556-6.371-10.36-10.681-18.174-10.681-10.147 0-18.593 7.267-20.429 16.88-.547-.078-1.106-.121-1.675-.121-5.517 0-10.139 3.819-11.375 8.957z" fill="#dff7fd"/></g><path d="m447.93 425.41c-.93 1.06-1.87 2.1-2.82 3.14-46.66 51.1-113.74 83.22-188.32 83.45h-.79v-49.02c42.66-9.55 84.42-21.25 127.83-29.34 20.7-3.85 42.35-6.79 64.1-8.23z" fill="#5dbf1d"/><g fill="#6cdc2d"><path d="m66.012 403.794c0 3.481-2.822 6.304-6.304 6.304-3.481 0-6.304-2.822-6.304-6.304s2.822-6.304 6.304-6.304c3.481.001 6.304 2.823 6.304 6.304z"/><path d="m104.932 448.884c0 3.481-2.822 6.304-6.304 6.304s-6.304-2.822-6.304-6.304c0-3.481 2.822-6.304 6.304-6.304s6.304 2.823 6.304 6.304z"/><circle cx="128.005" cy="410.098" r="7.501"/><path d="m174.868 448.884c0 3.178-2.576 5.754-5.754 5.754s-5.754-2.576-5.754-5.754 2.576-5.754 5.754-5.754 5.754 2.576 5.754 5.754z"/></g><ellipse cx="339.336" cy="428.943" fill="#53af17" rx="8.138" ry="8.137" transform="matrix(.924 -.383 .383 .924 -138.319 162.509)"/><circle cx="216.468" cy="414.695" fill="#6cdc2d" r="9.704"/><path d="m291.819 418.095c0 3.481-2.822 6.304-6.304 6.304-3.481 0-6.304-2.822-6.304-6.304 0-3.481 2.822-6.304 6.304-6.304 3.482.001 6.304 2.823 6.304 6.304z" fill="#53af17"/><path d="m425.699 414.502c0 3.481-2.822 6.304-6.304 6.304-3.481 0-6.304-2.822-6.304-6.304 0-3.481 2.822-6.304 6.304-6.304 3.481 0 6.304 2.823 6.304 6.304z" fill="#53af17"/></g></g></svg>