<svg id="Capa_1" enable-background="new 0 0 512 512" height="512" viewBox="0 0 512 512" width="512" xmlns="http://www.w3.org/2000/svg"><g><path d="m508.97 216.54-15.32 17.9c-127.79 149.24-355.98 157-493.6 16.78.81-44.43 12.94-86.08 33.63-122.22 44.12-77.07 127.16-129 222.32-129s178.2 51.93 222.32 129c12.98 22.67 22.59 47.52 28.15 73.86.96 4.52 1.79 9.08 2.5 13.68z" fill="#fff9bb"/><g><path d="m508.97 216.54-15.32 17.9c-127.79 149.24-355.98 157-493.6 16.78.81-44.43 12.94-86.08 33.63-122.22 44.12 77.07 127.16 129 222.32 129s178.2-51.93 222.32-129c15.21 26.56 25.79 56.1 30.65 87.54z" fill="#fff297"/></g><path d="m512 256c0 26.06-3.9 51.22-11.14 74.91h-.01l-86.68 36.56c-50.79 21.42-104.01 35.67-158.17 42.55-55.57 7.08-112.12 6.4-168.02-2.22l-41.76-6.44s-.22.16-.64.47c-3.31-4.76-6.46-9.64-9.44-14.63-22.95-38.37-36.14-83.25-36.14-131.2 0-1.6.01-3.19.05-4.78 5.53-1.05 11.29-.86 16.7.72 12.58 3.66 22.73 14.67 25.35 27.51 5.62-6.79 16.22-9.24 25-8.53 9.63.78 18.48 6.86 23.37 15.18s5.96 18.63 3.68 28.01c4.23-6.71 14.39-7.52 22.32-7.65s15.81 3.96 20.26 10.52c-.74-13.3 8.31-23.11 20.51-28.45 12.21-5.35 27.58-2.33 36.86 7.23 6.47-13.32 25.4-22.38 39.86-19.14 9.43 2.11 17.52 8.79 22.04 17.29 2.43 4.53 3.83 9.58 3.89 14.73 6.32-9.11 19.75-10.35 30.83-9.77 11.07.58 21.65 7.21 26.99 16.93 2.12-10.46 12.38-17.84 21.78-22.89 9.4-5.04 21.06-5.67 30.94-1.65-2.03-.83.48-16.9.98-19.31 3.47-16.67 14.66-29.34 31.62-33.15 11.11-2.5 23.18-.45 32.84 5.58-3.65-2.28 17.98-21.78 20.2-23.14 9.39-5.77 19.53-7.05 30.16-8.82.1-.02.21-.04.32-.05 7.71-1.2 15.43.54 22.42 4.17 2 12.86 3.03 26.04 3.03 39.46z" fill="#fff"/><path d="m512 256c0 26.06-3.9 51.22-11.14 74.91h-.01l-86.68 36.56c-50.79 21.42-104.01 35.67-158.17 42.55v-116.11c2.43 4.53 3.83 9.58 3.89 14.73 6.32-9.11 19.75-10.35 30.83-9.77 11.07.58 21.65 7.21 26.99 16.93 2.12-10.46 12.38-17.84 21.78-22.89 9.4-5.04 21.06-5.67 30.94-1.65-2.03-.83.48-16.9.98-19.31 3.47-16.67 14.66-29.34 31.62-33.15 11.11-2.5 23.18-.45 32.84 5.58-3.65-2.28 17.98-21.78 20.2-23.14 9.39-5.77 19.53-7.05 30.16-8.82.1-.02.21-.04.32-.05 7.71-1.2 15.43.54 22.42 4.17 2 12.86 3.03 26.04 3.03 39.46z" fill="#dff7fd"/><g><g><path d="m446.853 365.82h-14.758l.79-23.977.972-29.456h11.234l.972 29.456z" fill="#ec771b"/><path d="m446.853 365.82h-7.097v-53.433h5.335l.972 29.456z" fill="#c55732"/><path d="m439.756 312.387v29.456h-6.871l.972-29.456z" fill="#c55732"/><path d="m446.063 341.843h-6.307v-29.456h5.335z" fill="#a44e3e"/><g><path d="m462.676 321.762c-6.347 6.058-14.633 9.087-22.92 9.087-8.285 0-16.571-3.029-22.919-9.087-10.125-9.663-12.151-24.129-6.076-35.714 6.353-12.115 12.989-24.09 18.388-36.633l10.607-24.643 10.589 24.593c5.409 12.562 12.053 24.555 18.412 36.691 6.07 11.584 4.043 26.046-6.081 35.706z" fill="#43af3e"/><path d="m462.676 321.762c-6.347 6.058-14.633 9.087-22.92 9.087-3.931 0-7.862-3.029-10.874-9.087-4.87-9.794-5.791-24.525-2.763-36.186 4.211-16.218 7.943-32.922 11.4-49.846l2.237-10.957 10.589 24.593c5.409 12.562 12.053 24.555 18.412 36.691 6.07 11.583 4.043 26.045-6.081 35.705z" fill="#00a23e"/><path d="m462.676 321.762c-6.347 6.058-14.633 9.087-22.92 9.087v-106.077l10.589 24.593c5.409 12.562 12.053 24.555 18.412 36.691 6.07 11.584 4.043 26.046-6.081 35.706z" fill="#008839"/></g></g><g><g><g><g><g><path d="m73.08 166.86h26.45v221.28h-26.45z" fill="#f3e6d0"/><path d="m86.304 166.857h13.224v221.281h-13.224z" fill="#ebd8c8"/><path d="m73.08 166.86h26.45v33.4h-26.45z" fill="#ebd8c8"/><path d="m86.3 166.86h13.23v33.4h-13.23z" fill="#e0c8b6"/><path d="m73.08 354.74h26.45v33.4h-26.45z" fill="#ebd8c8"/><path d="m86.3 354.74h13.23v33.4h-13.23z" fill="#e0c8b6"/><path d="m187.73 166.86h26.45v221.28h-26.45z" fill="#f3e6d0"/><path d="m200.954 166.857h13.228v221.281h-13.228z" fill="#ebd8c8"/><path d="m187.73 166.86h26.45v33.4h-26.45z" fill="#ebd8c8"/><path d="m200.95 166.86h13.23v33.4h-13.23z" fill="#e0c8b6"/></g></g><path d="m130.4 166.86h26.46v221.28h-26.46z" fill="#f3e6d0"/><path d="m143.631 166.857h13.225v221.281h-13.225z" fill="#ebd8c8"/><path d="m130.405 354.74h26.45v33.4h-26.45z" fill="#ebd8c8"/><path d="m143.625 354.74h13.23v33.4h-13.23z" fill="#e0c8b6"/><path d="m187.725 354.74h26.45v33.4h-26.45z" fill="#ebd8c8"/><path d="m200.945 354.74h13.23v33.4h-13.23z" fill="#e0c8b6"/><path d="m130.4 166.86h26.46v33.4h-26.46z" fill="#ebd8c8"/><path d="m143.63 166.86h13.23v33.4h-13.23z" fill="#e0c8b6"/><g><path d="m302.18 166.86h26.45v221.28h-26.45z" fill="#f3e6d0"/><path d="m315.405 166.857h13.225v221.281h-13.225z" fill="#ebd8c8"/><path d="m302.18 166.86h26.45v33.4h-26.45z" fill="#ebd8c8"/><path d="m315.4 166.86h13.23v33.4h-13.23z" fill="#e0c8b6"/><path d="m244.85 166.86h26.45v221.28h-26.45z" fill="#f3e6d0"/><path d="m258.078 166.857h13.225v221.281h-13.225z" fill="#ebd8c8"/><path d="m244.85 354.74h26.45v33.4h-26.45z" fill="#ebd8c8"/><path d="m258.07 354.74h13.23v33.4h-13.23z" fill="#e0c8b6"/><path d="m302.18 354.74h26.45v33.4h-26.45z" fill="#ebd8c8"/><path d="m315.4 354.74h13.23v33.4h-13.23z" fill="#e0c8b6"/><path d="m244.85 166.86h26.45v33.4h-26.45z" fill="#ebd8c8"/><path d="m258.08 166.86h13.22v33.4h-13.22z" fill="#e0c8b6"/></g></g><path d="m46.22 374.91h296.24v26.45h-296.24z" fill="#f3e6d0"/><g><path d="m80.784 416.382h-17.81l.954-28.937 1.173-35.549h13.557l1.173 35.549z" fill="#ec771b"/><path d="m80.784 416.382h-8.564v-64.486h6.438l1.173 35.549z" fill="#c55732"/><path d="m72.22 351.896v35.549h-8.292l1.173-35.549z" fill="#c55732"/><path d="m79.831 387.445h-7.611v-35.549h6.438z" fill="#a44e3e"/><g><path d="m99.881 363.21c-7.66 7.311-17.66 10.967-27.66 10.967-9.999 0-19.999-3.656-27.66-10.967-12.22-11.661-14.664-29.121-7.332-43.102 7.667-14.622 15.675-29.073 22.191-44.21l12.801-29.74 12.779 29.68c6.528 15.16 14.546 29.635 22.221 44.281 7.324 13.979 4.878 31.433-7.34 43.091z" fill="#43af3e"/><path d="m99.881 363.21c-7.66 7.311-17.66 10.967-27.66 10.967-4.744 0-9.488-3.656-13.124-10.967-5.877-11.82-6.989-29.598-3.334-43.672 5.082-19.572 9.586-39.731 13.758-60.157l2.7-13.224 12.779 29.68c6.528 15.16 14.546 29.635 22.221 44.281 7.324 13.98 4.878 31.434-7.34 43.092z" fill="#00a23e"/><path d="m99.881 363.21c-7.66 7.311-17.66 10.967-27.66 10.967v-128.019l12.779 29.68c6.528 15.16 14.546 29.635 22.221 44.281 7.324 13.979 4.878 31.433-7.34 43.091z" fill="#008839"/></g></g><path d="m200.94 374.91h141.52v26.45h-141.52z" fill="#ebd8c8"/><path d="m46.22 153.63h167.96v26.45h-167.96z" fill="#f3e6d0"/><path d="m231.02 153.631h111.441v26.451h-111.441z" fill="#ebd8c8"/></g><path d="m200.95 153.63h13.23v26.45h-13.23z" fill="#ebd8c8"/></g><path d="m500.86 330.91c-5.97 19.55-14.23 38.09-24.44 55.34-11.15 18.83-24.64 36.11-40.08 51.44-15.36 15.24-32.63 28.55-51.44 39.53-83.76 22.6-172.54 18-253.51-13.15l-46.93-18.05h-.01c-3-2.7-5.93-5.48-8.8-8.33-11.21-11.13-21.4-23.29-30.39-36.33h124.76c28.9 0 57.6-1.47 85.98-4.4 85.6-8.81 168.3-30.9 244.86-66.05z" fill="#6cdc2d"/><path d="m500.86 330.9c-11.22 36.75-30.49 69.98-55.75 97.65-17.44 19.1-37.73 35.55-60.21 48.67-42.24 11.4-85.75 15.88-128.9 13.52v-93.78c85.6-8.81 168.3-30.9 244.86-66.06z" fill="#5dbf1d"/><g><path d="m263.523 474.679h-15.285l.819-24.834 1.006-30.508h11.635l1.007 30.508z" fill="#ec771b"/><path d="m263.523 474.679h-7.35v-55.342h5.525l1.007 30.508z" fill="#c55732"/><path d="m256.173 419.337v30.508h-7.116l1.006-30.508z" fill="#c55732"/><path d="m262.705 449.845h-6.532v-30.508h5.525z" fill="#a44e3e"/><g><path d="m279.911 429.047c-6.574 6.274-15.156 9.412-23.738 9.412-8.581 0-17.163-3.137-23.738-9.412-10.487-10.008-12.585-24.992-6.293-36.99 6.58-12.548 13.453-24.95 19.045-37.941l10.986-25.523 10.967 25.471c5.602 13.01 12.483 25.432 19.07 38.002 6.286 11.997 4.187 26.976-6.299 36.981z" fill="#43af3e"/><path d="m279.911 429.047c-6.574 6.274-15.156 9.412-23.738 9.412-4.071 0-8.143-3.137-11.263-9.412-5.044-10.144-5.998-25.401-2.861-37.479 4.361-16.797 8.226-34.098 11.807-51.627l2.317-11.349 10.967 25.471c5.602 13.01 12.483 25.432 19.07 38.002 6.286 11.998 4.187 26.977-6.299 36.982z" fill="#00a23e"/><path d="m279.911 429.047c-6.574 6.274-15.156 9.412-23.738 9.412v-109.867l10.967 25.471c5.602 13.01 12.483 25.432 19.07 38.002 6.286 11.998 4.187 26.977-6.299 36.982z" fill="#008839"/></g></g><g><path d="m362.583 487.855h-9.568l.987-29.947 1.214-36.789h14.03l1.214 36.789.695 21.089c.159 4.844-3.725 8.858-8.572 8.858z" fill="#ec771b"/><path d="m362.583 487.855v-66.735h6.663l1.214 36.789.695 21.089c.159 4.843-3.725 8.857-8.572 8.857z" fill="#c55732"/><path d="m362.583 421.12v36.788h-8.581l1.213-36.788z" fill="#c55732"/><path d="m370.46 457.908h-7.877v-36.788h6.663z" fill="#a44e3e"/><g><path d="m391.209 432.829c-7.927 7.566-18.276 11.349-28.625 11.349-10.347 0-20.697-3.783-28.625-11.349-12.646-12.068-15.175-30.137-7.588-44.605 7.935-15.132 16.222-30.087 22.965-45.753l13.248-30.777 13.225 30.715c6.755 15.689 15.053 30.668 22.996 45.826 7.579 14.466 5.048 32.529-7.596 44.594z" fill="#43af3e"/><path d="m391.209 432.829c-7.927 7.566-18.276 11.349-28.625 11.349-4.909 0-9.819-3.783-13.581-11.349-6.082-12.233-7.232-30.63-3.45-45.195 5.259-20.255 9.92-41.117 14.238-62.255l2.794-13.685 13.225 30.715c6.755 15.689 15.053 30.668 22.996 45.826 7.578 14.466 5.047 32.529-7.597 44.594z" fill="#00a23e"/><path d="m391.209 432.829c-7.927 7.566-18.276 11.349-28.625 11.349v-132.484l13.225 30.715c6.755 15.689 15.053 30.668 22.996 45.826 7.579 14.466 5.048 32.529-7.596 44.594z" fill="#008839"/></g></g><path d="m384.9 477.22c-34.04 19.88-73.09 32.13-114.79 34.39-4.41.25-8.85.38-13.32.39h-.79c-65.99 0-126.15-24.97-171.54-65.98h30.86c34.03 0 90.77 8.53 140.68 16.2 28.02 4.31 53.89 8.35 72.39 10.46 18.95 2.16 37.75 3.59 56.51 4.54z" fill="#b6e337"/><g><path d="m209.826 121.155c.001-.084.006-.167.006-.251 0-15.402-12.486-27.888-27.888-27.888-3.659 0-7.15.712-10.351 1.993-6.184-11.079-18.017-18.575-31.606-18.575-17.647 0-32.335 12.638-35.527 29.355-.952-.136-1.924-.211-2.913-.211-9.594 0-17.633 6.642-19.782 15.577z" fill="#ffeb98"/><path d="m182.616 121.155c0-.049.004-.096.004-.145 0-8.857-7.18-16.036-16.036-16.036-2.104 0-4.111.409-5.952 1.146-3.556-6.371-10.36-10.681-18.174-10.681-10.147 0-18.593 7.267-20.429 16.88-.547-.078-1.106-.121-1.675-.121-5.517 0-10.14 3.819-11.375 8.957z" fill="#f9e073"/></g><g><path d="m301.618 59.42c0-.06.004-.119.004-.179 0-10.974-8.896-19.87-19.87-19.87-2.607 0-5.094.507-7.375 1.42-4.406-7.894-12.837-13.234-22.519-13.234-12.573 0-23.038 9.004-25.313 20.915-.678-.097-1.37-.15-2.075-.15-6.836 0-12.563 4.732-14.094 11.099h91.242z" fill="#ffeb98"/><path d="m282.232 59.42c0-.035.003-.069.003-.103 0-6.31-5.115-11.425-11.425-11.425-1.499 0-2.929.292-4.241.816-2.534-4.539-7.381-7.61-12.949-7.61-7.23 0-13.247 5.178-14.555 12.027-.39-.056-.788-.086-1.193-.086-3.931 0-7.224 2.721-8.105 6.382h52.465z" fill="#f9e073"/></g><g><path d="m449.251 126.619c0-.06.004-.119.004-.179 0-10.974-8.896-19.87-19.87-19.87-2.607 0-5.094.507-7.375 1.42-4.406-7.893-12.837-13.234-22.519-13.234-12.573 0-23.038 9.004-25.313 20.915-.678-.097-1.37-.15-2.075-.15-6.836 0-12.563 4.732-14.094 11.098z" fill="#ffeb98"/><path d="m429.864 126.619c0-.035.003-.068.003-.103 0-6.31-5.115-11.425-11.425-11.425-1.499 0-2.929.292-4.241.816-2.534-4.539-7.381-7.61-12.949-7.61-7.23 0-13.247 5.178-14.555 12.027-.39-.056-.788-.086-1.193-.086-3.931 0-7.224 2.721-8.105 6.382h52.465z" fill="#f9e073"/></g><path d="m384.9 477.22c-34.04 19.88-73.09 32.13-114.79 34.39-4.41.25-8.85.38-13.32.39h-.79v-49.78c28.02 4.31 53.89 8.35 72.39 10.46 18.95 2.16 37.75 3.59 56.51 4.54z" fill="#6cdc2d"/></g><path d="m226.403 475.611c0 2.595-2.104 4.699-4.699 4.699s-4.699-2.104-4.699-4.699 2.104-4.699 4.699-4.699 4.699 2.104 4.699 4.699z" fill="#5dbf1d"/><circle cx="278.686" cy="491.905" fill="#00a23e" r="5.662"/><g fill="#5dbf1d"><path d="m142.282 464.914c0 2.595-2.104 4.699-4.699 4.699s-4.699-2.104-4.699-4.699 2.104-4.699 4.699-4.699 4.699 2.104 4.699 4.699z"/><path d="m190.117 487.621c0 3.232-2.62 5.851-5.851 5.851-3.232 0-5.852-2.62-5.852-5.851 0-3.232 2.62-5.851 5.852-5.851 3.231-.001 5.851 2.619 5.851 5.851z"/><ellipse cx="238.443" cy="496.984" rx="8.274" ry="8.274" transform="matrix(.23 -.973 .973 .23 -300.029 614.866)"/></g><ellipse cx="328.63" cy="486.243" fill="#00a23e" rx="7.313" ry="7.313" transform="matrix(.23 -.973 .973 .23 -220.109 694.365)"/></g></svg>