<svg id="Capa_1" enable-background="new 0 0 512 512" height="512" viewBox="0 0 512 512" width="512" xmlns="http://www.w3.org/2000/svg"><g><path d="m512 256c0 9.29-.5 18.47-1.46 27.51l-68.38 61.58c-101.81 91.67-259.03 81.95-348.77-21.56l-90.71-104.63c4.68-32.32 15.41-62.67 31-89.9 44.12-77.07 127.16-129 222.32-129s178.2 51.93 222.32 129c12.98 22.67 22.59 47.52 28.15 73.86 3.46 16.36 5.35 33.28 5.52 50.62.01.84.01 1.68.01 2.52z" fill="#92eaff"/><g><path d="m512 256c0 9.29-.49 18.47-1.46 27.51l-241.36 76.71c-85.77 27.26-179.18-6.26-228.05-81.84l-38.45-59.48v-.01c4.68-32.31 15.41-62.67 31-89.89 38.32 66.94 106.01 114.92 185.5 126.36 12.02 1.74 24.32 2.64 36.82 2.64 21.61 0 42.59-2.68 62.64-7.73 68.23-17.15 125.58-61.7 159.68-121.27 21.43 37.43 33.68 80.78 33.68 127z" fill="#63dbfa"/></g><g><path d="m510.54 283.51c-1.35 12.63-3.62 24.98-6.74 36.99-.02.09-.05.19-.07.28h-452.59l168.04-65.42 36.82-14.33 3.54-1.38c9.43-3.68 21.25-3.72 30.75-.12l28.35 10.74 78.45 29.73 31.98-12.88c8.97-3.61 20.25-3.91 29.66-.79z" fill="#7e7f92"/><path d="m510.54 283.51c-1.35 12.63-3.62 24.98-6.74 36.99-.02.09-.05.19-.07.28h-247.73v-79.75l3.54-1.38c9.43-3.68 21.25-3.72 30.75-.12l28.35 10.74 78.45 29.73 31.98-12.88c8.97-3.61 20.25-3.91 29.66-.79z" fill="#6e6f83"/><path d="m503.8 320.5c-.02.09-.05.19-.07.28-3.6 13.8-8.32 27.15-14.08 39.94-3.93 8.78-8.36 17.31-13.23 25.53-2.75 4.65-5.64 9.2-8.68 13.65-6.3 9.27-13.2 18.09-20.64 26.43-117.66 52.75-254.81 36.5-356.88-42.29l-81.95-63.26c-.02-.09-.05-.19-.07-.28z" fill="#ffeb98"/><path d="m503.8 320.5c-.02.09-.05.19-.07.28-3.6 13.8-8.32 27.15-14.08 39.94-3.93 8.78-8.36 17.31-13.23 25.53-8.47 14.32-18.31 27.74-29.32 40.08-61 27.35-127.23 36.15-191.1 27.31v-133.14z" fill="#f9e073"/><path d="m489.65 360.72c-3.93 8.78-8.36 17.31-13.23 25.53-8.47 14.32-18.31 27.74-29.32 40.08-117.66 52.75-254.81 36.5-356.88-42.29l-30.21-23.32z" fill="#ffc300"/><path d="m489.65 360.72c-3.93 8.78-8.36 17.31-13.23 25.53-8.47 14.32-18.31 27.74-29.32 40.08-61 27.35-127.23 36.15-191.1 27.31v-92.92z" fill="#ff9f00"/><path d="m479.38 381.12c-.97 1.72-1.96 3.43-2.96 5.13-10.83 18.29-23.87 35.12-38.76 50.11h-80.04c-4.05 0-8.04-1.29-11.31-3.92-1.34-1.08-2.55-2.35-3.55-3.82-4.01-5.89-4.03-13.66-3.47-20.67.49-6.24-.59-11.83-7.3-12.87-3.59-.56-7.24.29-10.85.01-3.62-.29-7.58-2.22-8.62-6.05-.87-3.23.62-6.71.13-10.03-.65-4.56-5.65-6.18-9.84-6.18h-31.72c-3.88 0-9.19.56-14.79.9-.1.01-.2.01-.3.02-9.67.55-20.1.36-25.26-4.76-2.98-2.95-4.42-7.68-3.66-12.01.77-4.34 3.71-8.12 7.49-9.64 2.56-1.02 5.37-1.03 7.98-1.94 2.6-.92 5.16-3.24 5.1-6.25-.05-2.56-2.01-4.62-4.1-5.76-2.1-1.13-4.45-1.66-6.47-2.92-3.24-2.01-5.42-5.91-5.64-9.97h38.4c-.58 2.48-2.68 5.65-1.47 8.24.62 1.35 1.86 2.23 3.15 2.76s2.66.76 3.98 1.15c2.87.84 6.82 2.61 6.72 6.54-.08 2.82-2.41 4.9-4.69 6.18-2.29 1.29-4.86 2.33-6.31 4.65-1.45 2.33 1.23 6.31 3.78 6.61 15.71.03 73.53-.48 76.16-.48 6.87 0 10.21 3.34 12.38 8.65 1.09 2.66 1.49 5.6 2.12 8.44.62 2.84.77 7.79 3.43 7.79 5.27 0 63.51.04 110.29.09z" fill="#fff"/><path d="m479.38 381.12c-.97 1.72-1.96 3.43-2.96 5.13-10.83 18.29-23.87 35.12-38.76 50.11h-80.04c-4.05 0-8.04-1.29-11.31-3.92-1.34-1.08-2.55-2.35-3.55-3.82-4.01-5.89-4.03-13.66-3.47-20.67.49-6.24-.59-11.83-7.3-12.87-3.59-.56-7.24.29-10.85.01-3.62-.29-7.58-2.22-8.62-6.05-.87-3.23.62-6.71.13-10.03-.65-4.56-5.65-6.18-9.84-6.18h-31.72c-3.88 0-9.19.56-14.79.9-.1.01-.2.01-.3.02v-53.25h13.84c-.58 2.48-2.68 5.65-1.47 8.24.62 1.35 1.86 2.23 3.15 2.76s2.66.76 3.98 1.15c2.87.84 6.82 2.61 6.72 6.54-.08 2.82-2.41 4.9-4.69 6.18-2.29 1.29-4.86 2.33-6.31 4.65-1.45 2.33 1.23 6.31 3.78 6.61 15.71.03 73.53-.48 76.16-.48 6.87 0 10.21 3.34 12.38 8.65 1.09 2.66 1.49 5.6 2.12 8.44.62 2.84.77 7.79 3.43 7.79 5.27 0 63.51.04 110.29.09z" fill="#ffeb98"/><g fill="#fff"><path d="m220.54 405.232h-22.496c-3.501 0-6.34-2.839-6.34-6.34 0-3.501 2.839-6.34 6.34-6.34h22.496c3.501 0 6.34 2.838 6.34 6.34 0 3.501-2.839 6.34-6.34 6.34z"/><path d="m436.668 367.06h-22.496c-3.501 0-6.34-2.839-6.34-6.34 0-3.501 2.839-6.34 6.34-6.34h22.496c3.501 0 6.34 2.838 6.34 6.34 0 3.501-2.838 6.34-6.34 6.34z"/><path d="m174.115 344.184h-11.248c-3.502 0-6.34-2.838-6.34-6.34 0-3.501 2.838-6.34 6.34-6.34h11.248c3.501 0 6.34 2.839 6.34 6.34 0 3.502-2.838 6.34-6.34 6.34z"/></g><path d="m176.29 220.122-3.902 3.902c-10.303 10.303-24.277 16.091-38.847 16.091h-41.689c4.942-3.805 10.967-5.867 17.318-5.805 22.577.221 40.798-18.5 40.798-41.078v-10.453h-13.054v10.453c0 15.515-12.695 27.956-28.21 28.024-10.903.048-21.146 4.317-28.86 12.032l-34.135 34.134 9.231 9.229c15.036-15.036 35.429-23.483 56.693-23.483h21.908c18.03 0 35.322-7.162 48.073-19.91l3.905-3.904z" fill="#913d31"/><g><path d="m186.86 197.795h-91.091c-5.473 0-9.541-5.345-7.78-10.527.012-.034.023-.068.035-.103 1.194-3.499 3.238-6.803 6.247-8.961 2.992-2.175 7.735-3.532 11.234-2.289 0-5.413 3.123-10.695 7.849-13.328 4.726-2.616 11.431-2.518 16.026.327 2.453-7.228 9.713-12.575 17.367-12.755 7.637-.18 15.208 4.824 17.988 11.938 5.527-2.878 12.837-1.864 17.367 2.42 4.53 4.285 6.181 12.003 3.614 17.694 3.565.523 6.525 3.777 6.721 7.375.196 3.597-1.963 8.209-5.577 8.209z" fill="#6cdc2d"/><path d="m169.9 197.795h-57.425c-3.45 0-6.015-3.37-4.905-6.636.007-.022.015-.043.022-.065.752-2.206 2.041-4.288 3.938-5.649 1.887-1.371 4.876-2.227 7.082-1.443 0-3.412 1.969-6.742 4.948-8.402 2.979-1.649 7.206-1.588 10.103.206 1.546-4.557 6.124-7.928 10.948-8.041 4.814-.113 9.587 3.041 11.34 7.526 3.484-1.814 8.093-1.175 10.948 1.526 2.856 2.701 3.897 7.567 2.278 11.154 2.247.33 4.113 2.381 4.237 4.649.125 2.268-1.235 5.175-3.514 5.175z" fill="#5dbf1d"/></g><path d="m335.966 344.184h-11.248c-3.501 0-6.34-2.838-6.34-6.34 0-3.501 2.838-6.34 6.34-6.34h11.248c3.501 0 6.34 2.839 6.34 6.34 0 3.502-2.839 6.34-6.34 6.34z" fill="#fff"/><path d="m447.1 426.33c-.65.75-1.32 1.49-1.99 2.22-15.26 16.72-32.72 31.41-51.9 43.6l-169.17 14.76c-4.92.43-9.83.64-14.74.64-33.35 0-66.09-9.82-94.05-28.41-24.93-16.58-45.04-39.46-58.28-66.31l-55.91-113.4c-.16-1.78-.31-3.57-.43-5.37-.42-5.96-.63-11.99-.63-18.06 0-12.6.91-24.99 2.68-37.1 29.43-3.67 61.41 15.15 70.08 43.97 6.12 20.33 2.9 45.33 18.49 59.74 12.03 11.12 27.45 10.64 41.97 14.69 15.27 4.26 21.31 16.33 25.3 31.53 3.49 13.29 5.29 27.49 13.01 38.86 8.68 12.8 24.67 20.24 40.06 18.64z" fill="#b6e337"/><path d="m447.1 426.33c-.65.75-1.32 1.49-1.99 2.22-15.26 16.72-32.72 31.41-51.9 43.6l-137.21 11.97v-57.79z" fill="#6cdc2d"/><path d="m393.21 472.15c-10.74 6.84-22.03 12.89-33.78 18.09l-11.23 2.36c-60.8 12.79-123.6 12.79-184.4 0l-11.21-2.36c-32.75-14.47-61.89-35.61-85.7-61.69-2.66-2.92-5.26-5.89-7.78-8.93-9.6-11.54-18.21-23.93-25.68-37.06-1.25-2.19-2.46-4.39-3.64-6.62-9.2-17.3-16.46-35.78-21.52-55.16-1.8-6.9-3.32-13.92-4.54-21.04-1.16-6.68-2.05-13.46-2.67-20.31 13.03 5.64 23.99 16.04 28.85 29.43 6.26 17.25 4.98 37.41 22.56 46.96 18.64 10.12 35.07 12.77 44 35.34 7.1 17.93 5.05 39.15 15.3 55.49 19.72 31.49 64.99 25.5 97.14 25.5z" fill="#6cdc2d"/><path d="m393.21 472.15c-10.74 6.84-22.03 12.89-33.78 18.09l-11.23 2.36c-30.4 6.4-61.3 9.59-92.2 9.59v-30.04z" fill="#5dbf1d"/><g><path d="m142.737 229.328h85.132c5.115 0 8.917-4.995 7.271-9.838-.011-.032-.022-.064-.033-.096-1.116-3.27-3.026-6.358-5.838-8.375-2.797-2.033-7.229-3.301-10.499-2.14 0-5.059-2.919-9.995-7.336-12.456-4.417-2.445-10.683-2.354-14.977.306-2.292-6.755-9.078-11.753-16.23-11.921-7.137-.168-14.213 4.508-16.811 11.156-5.166-2.69-11.997-1.742-16.23 2.262s-5.777 11.218-3.378 16.536c-3.332.489-6.098 3.53-6.281 6.893-.185 3.364 1.833 7.673 5.21 7.673z" fill="#43af3e"/><path d="m158.587 229.328h53.668c3.224 0 5.621-3.149 4.584-6.202-.007-.02-.014-.04-.021-.06-.703-2.062-1.908-4.008-3.68-5.28-1.763-1.281-4.557-2.081-6.619-1.349 0-3.189-1.84-6.301-4.625-7.852-2.784-1.542-6.734-1.484-9.442.193-1.445-4.258-5.723-7.409-10.232-7.515-4.499-.106-8.96 2.842-10.598 7.033-3.257-1.696-7.563-1.098-10.232 1.426s-3.642 7.072-2.129 10.425c-2.1.308-3.844 2.226-3.96 4.345-.115 2.119 1.157 4.836 3.286 4.836z" fill="#00a23e"/></g><path d="m359.43 490.24c-31.4 13.89-66.12 21.64-102.64 21.76h-.79c-36.8 0-71.79-7.76-103.41-21.76z" fill="#5dbf1d"/><path d="m359.43 490.24c-31.4 13.89-66.12 21.64-102.64 21.76h-.79v-21.76z" fill="#43af3e"/><g><path d="m349.794 227.133c-.001-.08-.006-.158-.006-.238 0-14.578 11.818-26.396 26.396-26.396 3.463 0 6.768.674 9.798 1.886 5.853-10.486 17.053-17.581 29.915-17.581 16.703 0 30.605 11.962 33.627 27.784.901-.129 1.821-.2 2.757-.2 9.081 0 16.69 6.286 18.724 14.744h-121.211z" fill="#fff"/><path d="m375.548 227.133c0-.046-.003-.091-.003-.137 0-8.383 6.796-15.178 15.178-15.178 1.991 0 3.892.387 5.634 1.085 3.366-6.03 9.806-10.11 17.202-10.11 9.605 0 17.599 6.878 19.336 15.977.518-.074 1.047-.115 1.585-.115 5.222 0 9.597 3.615 10.767 8.478z" fill="#dff7fd"/></g><g><path d="m426.791 102.169c.001-.08.006-.158.006-.238 0-14.578-11.818-26.396-26.396-26.396-3.463 0-6.768.674-9.798 1.887-5.853-10.486-17.053-17.581-29.915-17.581-16.703 0-30.605 11.962-33.627 27.784-.901-.129-1.82-.2-2.757-.2-9.081 0-16.69 6.287-18.724 14.744z" fill="#fff"/><path d="m401.037 102.169c0-.046.003-.091.003-.137 0-8.383-6.796-15.178-15.178-15.178-1.991 0-3.892.387-5.634 1.085-3.366-6.03-9.806-10.11-17.202-10.11-9.604 0-17.599 6.878-19.336 15.977-.518-.074-1.047-.115-1.585-.115-5.222 0-9.597 3.615-10.767 8.478z" fill="#dff7fd"/></g><g><path d="m199.038 103.056c0-.075.005-.149.005-.224 0-13.695-11.102-24.797-24.797-24.797-3.253 0-6.358.633-9.204 1.772-5.499-9.851-16.02-16.517-28.103-16.517-15.691 0-28.751 11.237-31.59 26.102-.846-.121-1.71-.188-2.59-.188-8.531 0-15.679 5.906-17.59 13.851h113.869z" fill="#fff"/><path d="m174.843 103.056c0-.043.003-.085.003-.129 0-7.875-6.384-14.259-14.259-14.259-1.871 0-3.656.364-5.293 1.019-3.162-5.665-9.212-9.497-16.16-9.497-9.023 0-16.533 6.462-18.165 15.009-.487-.07-.983-.108-1.489-.108-4.906 0-9.016 3.396-10.115 7.965z" fill="#dff7fd"/></g></g></g></svg>