<svg id="Capa_1" enable-background="new 0 0 512 512" height="512" viewBox="0 0 512 512" width="512" xmlns="http://www.w3.org/2000/svg"><g><path d="m512 256c0 7.29-.31 14.51-.91 21.65l-16.73 14.7c-141.75 124.53-354.82 121.3-492.74-7.46-.41-3.59-.74-7.2-.99-10.83-.42-5.96-.63-11.99-.63-18.06 0-46.22 12.25-89.57 33.68-127 44.12-77.07 127.16-129 222.32-129s178.2 51.93 222.32 129c12.98 22.67 22.59 47.52 28.15 73.86 3.46 16.36 5.35 33.28 5.52 50.62.01.84.01 1.68.01 2.52z" fill="#92eaff"/><g><path d="m512 256c0 7.29-.3 14.51-.91 21.65l-16.73 14.7c-141.75 124.53-354.82 121.3-492.74-7.46-1.07-9.48-1.62-19.12-1.62-28.89 0-46.22 12.25-89.57 33.68-127 44.12 77.07 127.16 129 222.32 129s178.2-51.93 222.32-129c21.43 37.43 33.68 80.78 33.68 127z" fill="#63dbfa"/></g><g><path d="m511.09 277.65c-4.08 48.78-21.85 93.67-49.43 130.83h-411.3c-7.65-10.28-14.53-21.15-20.57-32.54-14.73-27.71-24.51-58.45-28.17-91.05 5.38-3.31 12.22-5.47 19.03-5.94 14.9-1.02 29.32 3.92 42.66 9.17s26.89 11.04 41.8 11.95c33.06 2.02 65.55-20.3 96.74-11.57 13.39 3.75 23.23 12.57 33.55 20.52 8.53 6.57 17.39 12.55 28.87 14.58 26.23 4.64 50.93-13.8 77.81-13.13 18.93.48 37.21 10.45 55.53 6.76 22.83-4.61 31.18-27.09 51.4-36.51 16.68-7.77 37.72-5.18 57.05-3.46 1.66.15 3.34.28 5.03.39z" fill="#dff7fd"/><path d="m511.09 277.65c-4.08 48.78-21.85 93.67-49.43 130.83h-226.26v-99.46c8.53 6.57 17.39 12.55 28.87 14.58 26.23 4.64 50.93-13.8 77.81-13.13 18.93.48 37.21 10.45 55.53 6.76 22.83-4.61 31.18-27.09 51.4-36.51 16.68-7.77 37.72-5.18 57.05-3.46 1.66.15 3.34.28 5.03.39z" fill="#c5f2f9"/><g><g><g><path d="m440.683 369.896h-12.624l.886-18.46 1.423-29.55h8.005l1.424 29.55z" fill="#ec771b"/><path d="m438.372 321.882 2.311 48.014h-6.312v-48.014z" fill="#c55732"/><path d="m439.797 351.436h-10.852l1.423-29.55h8.005z" fill="#c55732"/><path d="m439.797 351.436h-5.426v-29.55h4.002z" fill="#b15848"/></g><path d="m440.478 343.058h-12.21c-11.97 0-20.29-10.99-18.24-21.79.36-1.94 1.06-3.87 2.14-5.73l.15-.28c8.55-14.5 14.89-29.62 19.62-44.99.37-1.2 1.4-1.79 2.43-1.79s2.06.59 2.43 1.79c3.19 10.34 7.1 20.56 11.92 30.55 2.34 4.87 4.91 9.69 7.71 14.44l.14.28c7.069 12.23-1.971 27.52-16.09 27.52z" fill="#43af3e"/><path d="m440.474 343.056h-9.1c-6.94 0-11.383-15.284-7.909-27.522.025-.09.049-.181.074-.271 4.197-14.504 7.318-29.624 9.642-44.991.181-1.207.682-1.799 1.191-1.799 1.027 0 2.053.591 2.423 1.79 4.739 15.375 11.079 30.495 19.629 44.999l.148.271c7.062 12.238-1.972 27.523-16.098 27.523z" fill="#00a23e"/><path d="m440.474 343.053h-6.103v-74.583c1.025 0 2.051.597 2.419 1.792 4.739 15.373 11.081 30.496 19.634 45.003.05.09.1.179.149.269 7.06 12.236-1.971 27.519-16.099 27.519z" fill="#008839"/><path d="m449.407 301.468c-1.15 2.3-1.26 5.22-1.59 7.86-.42 3.49-2.1 7.58-5.6 8.02-3.02.38-5.35-2.18-7.85-4.15-1.52-1.21-3.11-2.19-4.95-2.18-2.35.01-4.31 1.68-5.7 3.61v.01c-.2.28-.39.56-.56.84-1.4 2.29-2.42 4.88-4.37 6.71-2.79 2.64-7.36 3.17-10.67 1.22-.01 0-.01 0-.01-.01-.68-.39-.96-1.22-.77-1.98.45-1.77 1.16-3.52 2.15-5.23l.17-.31c9.67-16.41 16.84-33.51 22.19-50.9.38-1.24 1.39-1.91 2.46-1.99.02-.01.04-.01.06-.01.08-.02.15-.02.23-.02 1.16 0 2.33.67 2.75 2.02 3.31 10.75 7.32 21.39 12.18 31.81.69 1.5.63 3.21-.12 4.68z" fill="#fff"/><path d="m449.407 301.468c-1.15 2.3-1.26 5.22-1.59 7.86-.42 3.49-2.1 7.58-5.6 8.02-3.02.38-5.35-2.18-7.85-4.15-1.52-1.21-3.11-2.19-4.95-2.18-2.35.01-4.31 1.68-5.7 3.61 4.11-14.31 7.17-29.21 9.46-44.36.17-1.15.64-6.86 1.13-7.28.02-.01.04-.01.06-.01.08-.02.15-.02.23-.02 1.16 0 2.33.67 2.75 2.02 3.31 10.75 7.32 21.39 12.18 31.81.69 1.5.63 3.21-.12 4.68z" fill="#dff7fd"/><path d="m449.407 301.468c-1.15 2.3-1.26 5.22-1.59 7.86-.42 3.49-2.1 7.58-5.6 8.02-3.02.38-5.35-2.18-7.85-4.15v-50.22c.08-.02.15-.02.23-.02 1.16 0 2.33.67 2.75 2.02 3.31 10.75 7.32 21.39 12.18 31.81.69 1.5.63 3.21-.12 4.68z" fill="#c5f2f9"/></g><g fill="#fff"><path d="m427.422 327.256c-5.682 0-5.555 8.814.114 8.814 5.683 0 5.555-8.814-.114-8.814z"/><path d="m444.358 322.082c-4.119 0-4.545 6.411-.408 6.411 4.119 0 4.545-6.411.408-6.411z"/></g></g><g><g><g><path d="m476.571 366.457h-14.992l1.052-21.92 1.691-35.09h9.506l1.69 35.09z" fill="#ec771b"/><path d="m473.826 309.442 2.744 57.015h-7.495v-57.015z" fill="#c55732"/><path d="m475.518 344.537h-12.887l1.691-35.09h9.506z" fill="#c55732"/><path d="m475.518 344.537h-6.443v-35.09h4.753z" fill="#b15848"/></g><path d="m476.318 334.583h-14.49c-16.77 0-27.5-18.15-19.11-32.68l.17-.32c2.7-4.58 5.22-9.21 7.56-13.89 6.46-12.91 11.61-26.14 15.74-39.54.44-1.43 1.66-2.13 2.89-2.13 1.22 0 2.44.7 2.88 2.12 3.56 11.56 7.88 22.99 13.15 34.2 3.06 6.5 6.43 12.92 10.15 19.24l.18.32c8.389 14.53-2.341 32.68-19.12 32.68z" fill="#43af3e"/><path d="m476.322 334.585h-10.806c-8.241 0-13.517-18.15-9.392-32.682.029-.107.059-.215.088-.322 4.984-17.224 8.69-35.178 11.45-53.426.215-1.434.81-2.136 1.414-2.136 1.219 0 2.438.702 2.877 2.126 5.627 18.257 13.157 36.212 23.309 53.436l.175.322c8.388 14.532-2.34 32.682-19.115 32.682z" fill="#00a23e"/><path d="m476.322 334.582h-7.247v-88.566c1.218 0 2.436.709 2.873 2.128 5.628 18.255 13.159 36.214 23.315 53.44.059.106.118.213.177.319 8.383 14.531-2.341 32.679-19.118 32.679z" fill="#008839"/></g><path d="m486.427 288.343c-.64.25-1.32.4-2.02.43-7.1.27-10.48-5.89-15.33-6.59-2.29-.33-4.91.56-8.41 3.93-.16.16-.32.31-.48.48-3.53 3.6-6.69 8.84-10.59 8.28-2.12-.31-3.27-2.65-2.33-4.58 7.53-15.4 13.6-31.17 18.51-47.12.52-1.66 1.88-2.54 3.3-2.66.11-.01.22-.01.33-.01 1.53 0 3.06.88 3.61 2.66 4.2 13.63 9.25 27.13 15.33 40.38.851 1.86-.02 4.05-1.92 4.8z" fill="#fff"/><path d="m486.427 288.343c-.64.25-1.32.4-2.02.43-7.1.27-10.48-5.89-15.33-6.59-2.29-.33-4.91.56-8.41 3.93-.16.16-.32.31-.48.48 3.05-12.56 5.5-25.42 7.47-38.44.22-1.43.82-7.64 1.42-7.64.11-.01.22-.01.33-.01 1.53 0 3.06.88 3.61 2.66 4.2 13.63 9.25 27.13 15.33 40.38.851 1.86-.02 4.05-1.92 4.8z" fill="#dff7fd"/><path d="m486.427 288.343c-.64.25-1.32.4-2.02.43-7.1.27-10.48-5.89-15.33-6.59v-41.67c.11-.01.22-.01.33-.01 1.53 0 3.06.88 3.61 2.66 4.2 13.63 9.25 27.13 15.33 40.38.851 1.86-.02 4.05-1.92 4.8z" fill="#c5f2f9"/><g fill="#fff"><path d="m453.254 302.483c-5.285 0-5.336 8.205-.053 8.205 5.285 0 5.335-8.205.053-8.205z"/><path d="m461.888 316.427c-5.01 0-5.168 7.782-.156 7.782 5.009-.001 5.168-7.782.156-7.782z"/></g></g><g><g><path d="m54.986 353.868h-15.612l1.095-22.828 1.761-36.544h9.9l1.76 36.544z" fill="#ec771b"/><path d="m52.128 294.491 2.857 59.377h-7.805v-59.377z" fill="#c55732"/><path d="m53.89 331.04h-13.421l1.761-36.544h9.9z" fill="#c55732"/><path d="m53.89 331.04h-6.71v-36.544h4.95z" fill="#b15848"/></g><path d="m54.731 320.678h-15.1c-17.47 0-28.64-18.9-19.9-34.04l.18-.33c.31-.53.62-1.07.92-1.6 10.11-17.45 17.66-35.6 23.34-54.04.46-1.49 1.73-2.22 3.01-2.22 1.27 0 2.54.73 3 2.21 4.72 15.33 10.74 30.45 18.43 45.14 1.85 3.53 3.79 7.03 5.84 10.51l.18.33c8.74 15.14-2.43 34.04-19.9 34.04z" fill="#43af3e"/><path d="m54.727 320.676h-11.254c-8.583 0-14.077-18.902-9.781-34.035.03-.112.061-.223.091-.335 5.19-17.937 9.05-36.635 11.924-55.638.223-1.493.843-2.224 1.473-2.224 1.27 0 2.539.731 2.996 2.214 5.86 19.013 13.701 37.712 24.275 55.649l.183.335c8.735 15.132-2.438 34.034-19.907 34.034z" fill="#00a23e"/><path d="m54.728 320.673h-7.548v-92.234c1.268 0 2.536.739 2.992 2.216 5.861 19.011 13.704 37.714 24.281 55.653.062.111.123.221.185.332 8.729 15.133-2.439 34.033-19.91 34.033z" fill="#008839"/></g><g><g><path d="m123.848 358.188h-12.092l.848-17.68 1.364-28.304h7.667l1.364 28.304z" fill="#ec771b"/><path d="m121.634 312.2 2.213 45.988h-6.045v-45.988z" fill="#c55732"/><path d="m122.999 340.508h-10.395l1.364-28.304h7.667z" fill="#c55732"/><path d="m122.999 340.508h-5.197v-28.304h3.833z" fill="#b15848"/></g><path d="m123.643 332.476h-11.688c-13.532 0-22.187-14.641-15.421-26.362l.147-.249c5.295-8.983 9.708-18.216 13.396-27.606 2.014-5.125 3.802-10.296 5.397-15.489.351-1.154 1.335-1.731 2.331-1.731.984 0 1.969.577 2.319 1.72 4.537 14.731 10.613 29.213 18.804 43.107l.136.249c.554.962 1.007 1.946 1.358 2.93 3.959 11.099-4.356 23.431-16.779 23.431z" fill="#43af3e"/><path d="m123.647 332.48h-8.716c-6.647 0-10.903-14.64-7.575-26.361.024-.087.047-.173.071-.26 4.02-13.892 7.009-28.375 9.235-43.093.173-1.156.653-1.723 1.141-1.723.983 0 1.967.566 2.321 1.715 4.539 14.726 10.612 29.208 18.801 43.101l.142.26c6.764 11.722-1.89 26.361-15.42 26.361z" fill="#00a23e"/><path d="m123.647 332.478h-5.846v-71.437c.982 0 1.965.572 2.317 1.717 4.539 14.724 10.614 29.21 18.806 43.104.048.086.095.171.143.257 6.762 11.721-1.887 26.359-15.42 26.359z" fill="#008839"/></g><path d="m65.641 280.728c-.02-.02-.05-.03-.07-.05-1.91-1.55-2.85-4.33-5.19-5.05-2.74-.84-5.42 1.94-5.97 4.75-.57 2.81.18 5.72.06 8.58-.12 2.87-1.59 6.11-4.42 6.61-.98.16-1.98-.04-2.87-.49-.74-.36-1.42-.89-1.97-1.5-1.23-1.34-1.95-3.05-2.66-4.73-1.24-2.96-1.99-7.39-5.08-8.7-.58-.25-1.2-.43-1.82-.55-2.45-.47-5.11.05-6.97 1.75-1.32 1.24-2.18 2.9-2.99 4.53s-1.62 3.29-2.9 4.58c-.01.02-.03.04-.05.06-2.21 2.15-5.73-.67-4.23-3.37 10.9-19.63 19.19-39.96 25.55-60.59.49-1.6 1.76-2.48 3.12-2.65.17-.02.34-.03.51-.03 1.53 0 3.06.88 3.62 2.67 5.17 16.8 11.64 33.4 19.74 49.59 1.71 3.41-2.41 6.94-5.41 4.59z" fill="#fff"/><path d="m65.641 280.728c-.02-.02-.05-.03-.07-.05-1.91-1.55-2.85-4.33-5.19-5.05-2.74-.84-5.42 1.94-5.97 4.75-.57 2.81.18 5.72.06 8.58-.12 2.87-1.59 6.11-4.42 6.61-.98.16-1.98-.04-2.87-.49-.74-.36-1.42-.89-1.97-1.5-1.23-1.34-1.95-3.05-2.66-4.73-1.24-2.96-1.99-7.39-5.08-8.7-.58-.25-1.2-.43-1.82-.55 4.26-15.88 6.704-32.669 9.416-49.279.815-4.993 1.484-6.411 2.114-6.411.17-.02.34-.03.51-.03 1.53 0 3.06.88 3.62 2.67 5.17 16.8 11.64 33.4 19.74 49.59 1.71 3.41-2.41 6.94-5.41 4.59z" fill="#dff7fd"/><path d="m139.403 313.57c-2.24.736-4.639.792-6.834-.136-5.272-2.229-7.184-8.61-8.101-14.256-.95-5.861-1.912-11.914-6.664-15.636-.498-.396-1.041-.758-1.629-1.097-.928-.543-1.833-1.064-2.693-1.573-1.29-.758-2.5-1.493-3.609-2.24-1.165-.781-1.595-2.263-1.098-3.564 1.946-5.114 3.7-10.251 5.284-15.41.396-1.312 1.516-1.969 2.647-1.969.373 0 .747.079 1.098.226.69.283 1.267.871 1.527 1.731 5.148 16.711 12.05 33.139 21.339 48.9l.158.283c.079.147.17.305.249.453.883 1.63.091 3.711-1.674 4.288z" fill="#fff"/><path d="m139.403 313.57c-2.24.736-4.639.792-6.834-.136-5.272-2.229-7.184-8.61-8.101-14.256-.95-5.861-1.912-11.914-6.664-15.636-.498-.396-1.041-.758-1.629-1.097-.928-.543-1.833-1.064-2.693-1.573 1.199-5.974 1.718-12.985 2.646-19.06.17-1.154.052-3.896 1.676-3.896.69.283 1.267.871 1.527 1.731 5.148 16.711 12.05 33.139 21.339 48.9l.158.283c.079.147.17.305.249.453.883 1.629.091 3.71-1.674 4.287z" fill="#dff7fd"/><g fill="#fff"><path d="m112.548 306.641c-.218-2.923-2.476-5.12-5.432-5.12-1.345 0-2.831.725-3.73 1.704-.858.934-1.487 2.441-1.39 3.727.218 2.923 2.476 5.121 5.432 5.121 1.345 0 2.831-.725 3.73-1.704.858-.934 1.486-2.441 1.39-3.728z"/><path d="m30.942 297.316c-6.017 0-5.72 9.326.275 9.326 6.017 0 5.72-9.326-.275-9.326z"/><path d="m89.258 302.183c-2.862 0-3.451 4.466-.561 4.466 2.862 0 3.45-4.466.561-4.466z"/></g><path d="m65.641 280.728c-.02-.02-.05-.03-.07-.05-1.91-1.55-2.85-4.33-5.19-5.05-2.74-.84-5.42 1.94-5.97 4.75-.57 2.81.18 5.72.06 8.58-.12 2.87-1.59 6.11-4.42 6.61-.98.16-1.98-.04-2.87-.49v-71.17c.17-.02.34-.03.51-.03 1.53 0 3.06.88 3.62 2.67 5.17 16.8 11.64 33.4 19.74 49.59 1.71 3.41-2.41 6.94-5.41 4.59z" fill="#c5f2f9"/><path d="m205.566 157.436v58.381l-28.424 28.423v-86.804z" fill="#913d31"/><path d="m139.403 313.57c-2.24.736-4.639.792-6.834-.136-5.272-2.229-7.184-8.61-8.101-14.256-.95-5.861-1.912-11.914-6.664-15.636v-25.626c.69.283 1.267.871 1.527 1.731 5.148 16.711 12.05 33.139 21.339 48.9l.158.283c.079.147.17.305.249.453.883 1.629.091 3.71-1.674 4.287z" fill="#c5f2f9"/><g><path d="m198.321 328.922v44.031h-37.088v-29.923c5.507-5.513 8.595-8.602 14.108-14.108z" fill="#913d31"/><path d="m198.321 340.391v32.562h-37.088v-18.454c4.719-4.726 8.477-8.477 14.108-14.108z" fill="#ffa87a"/><path d="m401.424 277.733v95.224h-236.201v-139.719l70.181-70.18 57.121 57.134 13.426 13.046h47.546z" fill="#f99568"/><path d="m347.099 256.54h-41.149v116.412h79.184v-81.492z" fill="#ffc0a4"/><path d="m285.963 236.539v136.418h-101.119v-136.418l50.56-50.559z" fill="#ffc0a4"/><path d="m285.963 236.539v136.418h-50.559v-186.977z" fill="#ffa87a"/><path d="m256.857 315.279v57.673h-42.922c0-18.479 0-57.673 0-57.673z" fill="#b15848"/><g><path d="m318.276 315.279h22.045v37.393h-22.045z" fill="#fff"/><g fill="#b15848"><path d="m325.621 315.279h7.349v37.396h-7.349z"/><path d="m318.276 330.301h22.045v7.348h-22.045z"/></g><path d="m350.388 315.279h22.046v37.396h-22.046z" fill="#fff"/><g fill="#b15848"><path d="m357.733 315.279h7.349v37.396h-7.349z"/><path d="m350.388 330.301h22.045v7.348h-22.045z"/></g></g><path d="m312.986 347.302h64.888v10.746h-64.888z" fill="#f99568"/><path d="m312.982 309.903h64.895v10.751h-64.895z" fill="#b15848"/><path d="m345.434 309.903h32.443v10.751h-32.443z" fill="#a44e3e"/><path d="m345.434 347.299h32.443v10.751h-32.443z" fill="#ed784a"/><g><path d="m208.242 244.446h22.045v37.393h-22.045z" fill="#fff"/><g fill="#b15848"><path d="m215.587 244.446h7.349v37.396h-7.349z"/><path d="m208.242 259.469h22.045v7.348h-22.045z"/></g><path d="m240.354 244.446h22.046v37.396h-22.046z" fill="#fff"/><g fill="#b15848"><path d="m247.698 244.446h7.349v37.396h-7.349z"/><path d="m240.354 259.469h22.045v7.348h-22.045z"/></g></g><path d="m202.952 276.469h64.888v10.746h-64.888z" fill="#f99568"/><path d="m202.948 239.071h64.895v10.751h-64.895z" fill="#b15848"/><path d="m235.4 239.071h32.443v10.751h-32.443z" fill="#a44e3e"/><path d="m235.4 276.467h32.443v10.751h-32.443z" fill="#ed784a"/><path d="m235.4 315.279h21.457v57.673h-21.457z" fill="#a44e3e"/><path d="m401.424 277.733v28.855l-54.319-50.048h-41.154l-70.547-70.56-29.838 29.837-28.424 28.423-11.919 11.92v-22.922l70.181-70.18 57.121 57.134 13.426 13.046h47.546z" fill="#b15848"/><path d="m353.498 233.235h-47.547v23.305h41.149l54.325 50.051v-28.859z" fill="#913d31"/></g><path d="m492.67 353.73c-8.09 19.59-18.55 37.96-31.01 54.75-5.18 6.97-10.71 13.67-16.55 20.07-4.96 5.43-10.14 10.64-15.55 15.63h-.01l-43.99 16.08c-89.83 32.81-189.29 26.48-274.23-17.47l-57.51-29.76c-1.18-1.5-2.33-3.02-3.46-4.55-7.65-10.28-14.53-21.15-20.57-32.54-3.79-7.13-7.25-14.46-10.36-21.97 22.65-5.56 49.19-7.96 74.79-8.05 40.97-.13 81.48 3.03 121.82 7.37 6.57.71 13.02 1.39 19.36 2.04 122.78 12.68 202.06 15.18 257.27-1.6z" fill="#fff"/><path d="m492.67 353.73c-8.09 19.59-18.55 37.96-31.01 54.75-5.18 6.97-10.71 13.67-16.55 20.07-.53.58-1.07 1.16-1.61 1.74-2.17 2.34-4.38 4.64-6.64 6.89-2.39 2.38-4.82 4.71-7.3 7l-44 16.08c-48.51 17.72-99.84 24.02-150.16 19.14v-124.07c122.78 12.68 202.06 15.18 257.27-1.6z" fill="#dff7fd"/><g><g><g><path d="m170.349 399.288h-15.612l1.096-22.828 1.76-36.544h9.9l1.76 36.544z" fill="#ec771b"/><path d="m167.491 339.911 2.858 59.377h-7.806v-59.377z" fill="#c55732"/><path d="m169.253 376.46h-13.42l1.76-36.544h9.9z" fill="#c55732"/><path d="m169.253 376.46h-6.71v-36.544h4.95z" fill="#b15848"/></g><path d="m170.094 366.097h-15.1c-17.47 0-28.64-18.9-19.9-34.04l.18-.33c.31-.53.62-1.07.92-1.6 10.11-17.45 17.66-35.6 23.34-54.04.46-1.49 1.73-2.22 3.01-2.22 1.27 0 2.54.73 3 2.21 4.72 15.33 10.74 30.45 18.43 45.14 1.85 3.53 3.79 7.03 5.84 10.51l.18.33c8.74 15.14-2.43 34.04-19.9 34.04z" fill="#43af3e"/><path d="m170.09 366.096h-11.254c-8.582 0-14.077-18.902-9.781-34.035.031-.112.061-.223.091-.335 5.19-17.937 9.05-36.635 11.924-55.638.223-1.493.843-2.224 1.473-2.224 1.27 0 2.539.731 2.996 2.214 5.86 19.013 13.701 37.712 24.275 55.649l.183.335c8.735 15.132-2.438 34.034-19.907 34.034z" fill="#00a23e"/><path d="m170.091 366.093h-7.548v-92.234c1.268 0 2.536.739 2.992 2.216 5.861 19.011 13.704 37.714 24.281 55.653.061.111.123.222.185.332 8.729 15.133-2.439 34.033-19.91 34.033z" fill="#008839"/></g><path d="m181.004 326.147c-.02-.02-.05-.03-.07-.05-1.91-1.55-2.85-4.33-5.19-5.05-2.74-.84-5.42 1.94-5.97 4.75-.57 2.81.18 5.72.06 8.58-.12 2.87-1.59 6.11-4.42 6.61-.98.16-1.98-.04-2.87-.49-.74-.36-1.42-.89-1.97-1.5-1.23-1.34-1.95-3.05-2.66-4.73-1.24-2.96-1.99-7.39-5.08-8.7-.58-.25-1.2-.43-1.82-.55-2.45-.47-5.11.05-6.97 1.75-1.32 1.24-2.18 2.9-2.99 4.53s-1.62 3.29-2.9 4.58c-.01.02-.03.04-.05.06-2.21 2.15-5.73-.67-4.23-3.37 10.9-19.63 19.19-39.96 25.55-60.59.49-1.6 1.76-2.48 3.12-2.65.17-.02.34-.03.51-.03 1.53 0 3.06.88 3.62 2.67 5.17 16.8 11.64 33.4 19.74 49.59 1.71 3.41-2.41 6.94-5.41 4.59z" fill="#fff"/><path d="m181.004 326.147c-.02-.02-.05-.03-.07-.05-1.91-1.55-2.85-4.33-5.19-5.05-2.74-.84-5.42 1.94-5.97 4.75-.57 2.81.18 5.72.06 8.58-.12 2.87-1.59 6.11-4.42 6.61-.98.16-1.98-.04-2.87-.49-.74-.36-1.42-.89-1.97-1.5-1.23-1.34-1.95-3.05-2.66-4.73-1.24-2.96-1.99-7.39-5.08-8.7-.58-.25-1.2-.43-1.82-.55 4.26-15.88 6.704-32.669 9.416-49.279.815-4.992 1.484-6.411 2.114-6.411.17-.02.34-.03.51-.03 1.53 0 3.06.88 3.62 2.67 5.17 16.8 11.64 33.4 19.74 49.59 1.71 3.41-2.41 6.94-5.41 4.59z" fill="#dff7fd"/><path d="m146.305 342.736c-6.017 0-5.72 9.326.275 9.326 6.017 0 5.72-9.326-.275-9.326z" fill="#fff"/><path d="m157.171 354.961c-2.862 0-3.451 4.466-.561 4.466 2.863 0 3.451-4.466.561-4.466z" fill="#fff"/><path d="m181.004 326.147c-.02-.02-.05-.03-.07-.05-1.91-1.55-2.85-4.33-5.19-5.05-2.74-.84-5.42 1.94-5.97 4.75-.57 2.81.18 5.72.06 8.58-.12 2.87-1.59 6.11-4.42 6.61-.98.16-1.98-.04-2.87-.49v-71.17c.17-.02.34-.03.51-.03 1.53 0 3.06.88 3.62 2.67 5.17 16.8 11.64 33.4 19.74 49.59 1.71 3.41-2.41 6.94-5.41 4.59z" fill="#c5f2f9"/><g><g><g><path d="m89.91 409.152h-13.041l.915-19.068 1.471-30.525h8.269l1.47 30.525z" fill="#ec771b"/><path d="m87.522 359.555 2.387 49.597h-6.52v-49.597z" fill="#c55732"/><path d="m88.994 390.084h-11.21l1.471-30.525h8.269z" fill="#c55732"/><path d="m88.994 390.084h-5.605v-30.525h4.135z" fill="#b15848"/></g><path d="m89.688 381.423h-12.604c-14.594 0-23.928-15.79-16.631-28.431l.159-.268c5.711-9.689 10.469-19.645 14.447-29.773 2.172-5.528 4.1-11.104 5.82-16.705.378-1.245 1.44-1.867 2.514-1.867 1.061 0 2.123.622 2.501 1.855 4.893 15.887 11.446 31.506 20.28 46.49l.146.268c.598 1.037 1.086 2.099 1.464 3.16 4.271 11.97-4.698 25.271-18.096 25.271z" fill="#43af3e"/><path d="m89.693 381.427h-9.4c-7.169 0-11.759-15.789-8.17-28.43.025-.093.051-.187.076-.28 4.335-14.983 7.559-30.601 9.96-46.475.187-1.247.704-1.858 1.23-1.858 1.061 0 2.121.611 2.503 1.849 4.895 15.882 11.445 31.501 20.276 46.483l.153.28c7.297 12.642-2.036 28.431-16.628 28.431z" fill="#00a23e"/><path d="m89.694 381.424h-6.305v-77.043c1.059 0 2.119.617 2.499 1.851 4.896 15.88 11.447 31.502 20.282 46.487.051.092.103.185.154.278 7.292 12.64-2.036 28.427-16.63 28.427z" fill="#008839"/></g><path d="m106.686 361.033c-2.416.793-5.003.854-7.37-.146-5.686-2.404-7.748-9.286-8.737-15.375-1.025-6.321-2.062-12.849-7.187-16.863-.537-.427-1.123-.818-1.757-1.184-1.001-.586-1.977-1.147-2.904-1.696-1.391-.818-2.697-1.611-3.892-2.416-1.257-.842-1.721-2.44-1.184-3.844 2.099-5.515 3.99-11.055 5.699-16.619.427-1.415 1.635-2.123 2.855-2.123.403 0 .805.085 1.184.244.744.305 1.366.94 1.647 1.867 5.552 18.022 12.995 35.74 23.013 52.737l.171.305c.086.159.183.329.268.488.951 1.757.097 4.003-1.806 4.625z" fill="#fff"/><path d="m106.686 361.033c-2.416.793-5.003.854-7.37-.146-5.686-2.404-7.748-9.286-8.737-15.375-1.025-6.321-2.062-12.849-7.187-16.863-.537-.427-1.123-.818-1.757-1.184-1.001-.586-1.977-1.147-2.904-1.696 1.293-6.443 1.853-14.004 2.853-20.556.183-1.245.056-4.202 1.808-4.202.744.305 1.366.94 1.647 1.867 5.552 18.022 12.995 35.74 23.013 52.737l.171.305c.086.159.183.329.268.488.952 1.757.098 4.003-1.805 4.625z" fill="#dff7fd"/><path d="m77.724 353.56c-.236-3.153-2.67-5.522-5.858-5.522-1.45 0-3.053.782-4.023 1.838-.925 1.007-1.603 2.632-1.5 4.02.236 3.153 2.67 5.522 5.858 5.522 1.45 0 3.053-.782 4.023-1.838.925-1.008 1.603-2.632 1.5-4.02z" fill="#fff"/><path d="m106.686 361.033c-2.416.793-5.003.854-7.37-.146-5.686-2.404-7.748-9.286-8.737-15.375-1.025-6.321-2.062-12.849-7.187-16.863v-27.638c.744.305 1.366.94 1.647 1.867 5.552 18.022 12.995 35.74 23.013 52.737l.171.305c.086.159.183.329.268.488.952 1.757.098 4.003-1.805 4.625z" fill="#c5f2f9"/></g></g><g><g><g><path d="m408.469 451.502h-12.624l.886-18.459 1.424-29.551h8.004l1.424 29.551z" fill="#ec771b"/><path d="m406.158 403.488 2.311 48.014h-6.312v-48.014z" fill="#c55732"/><path d="m407.583 433.043h-10.852l1.424-29.551h8.004z" fill="#c55732"/><path d="m407.583 433.043h-5.426v-29.551h4.002z" fill="#b15848"/></g><path d="m408.264 424.664h-12.21c-11.97 0-20.29-10.99-18.24-21.79.36-1.94 1.06-3.87 2.14-5.73l.15-.28c8.55-14.5 14.89-29.62 19.62-44.99.37-1.2 1.4-1.79 2.43-1.79s2.06.59 2.43 1.79c3.19 10.34 7.1 20.56 11.92 30.55 2.34 4.87 4.91 9.69 7.71 14.44l.14.28c7.07 12.23-1.97 27.52-16.09 27.52z" fill="#43af3e"/><path d="m408.26 424.662h-9.1c-6.94 0-11.383-15.284-7.909-27.522.025-.09.049-.181.074-.271 4.197-14.504 7.318-29.624 9.642-44.991.181-1.207.682-1.799 1.191-1.799 1.027 0 2.053.591 2.423 1.79 4.739 15.375 11.079 30.495 19.629 44.999l.148.271c7.062 12.238-1.972 27.523-16.098 27.523z" fill="#00a23e"/><path d="m408.26 424.659h-6.103v-74.583c1.025 0 2.051.597 2.419 1.792 4.739 15.373 11.081 30.496 19.634 45.003.05.089.1.179.149.269 7.06 12.236-1.971 27.519-16.099 27.519z" fill="#008839"/><path d="m417.194 383.074c-1.15 2.3-1.26 5.22-1.59 7.86-.42 3.49-2.1 7.58-5.6 8.02-3.02.38-5.35-2.18-7.85-4.15-1.52-1.21-3.11-2.19-4.95-2.18-2.35.01-4.31 1.68-5.7 3.61v.01c-.2.28-.39.56-.56.84-1.4 2.29-2.42 4.88-4.37 6.71-2.79 2.64-7.36 3.17-10.67 1.22-.01 0-.01 0-.01-.01-.68-.39-.96-1.22-.77-1.98.45-1.77 1.16-3.52 2.15-5.23l.17-.31c9.67-16.41 16.84-33.51 22.19-50.9.38-1.24 1.39-1.91 2.46-1.99.02-.01.04-.01.06-.01.08-.02.15-.02.23-.02 1.16 0 2.33.67 2.75 2.02 3.31 10.75 7.32 21.39 12.18 31.81.69 1.5.63 3.21-.12 4.68z" fill="#fff"/><path d="m417.194 383.074c-1.15 2.3-1.26 5.22-1.59 7.86-.42 3.49-2.1 7.58-5.6 8.02-3.02.38-5.35-2.18-7.85-4.15-1.52-1.21-3.11-2.19-4.95-2.18-2.35.01-4.31 1.68-5.7 3.61 4.11-14.31 7.17-29.21 9.46-44.36.17-1.15.64-6.86 1.13-7.28.02-.01.04-.01.06-.01.08-.02.15-.02.23-.02 1.16 0 2.33.67 2.75 2.02 3.31 10.75 7.32 21.39 12.18 31.81.69 1.5.63 3.21-.12 4.68z" fill="#dff7fd"/><path d="m417.194 383.074c-1.15 2.3-1.26 5.22-1.59 7.86-.42 3.49-2.1 7.58-5.6 8.02-3.02.38-5.35-2.18-7.85-4.15v-50.22c.08-.02.15-.02.23-.02 1.16 0 2.33.67 2.75 2.02 3.31 10.75 7.32 21.39 12.18 31.81.69 1.5.63 3.21-.12 4.68z" fill="#c5f2f9"/></g><g fill="#fff"><path d="m395.208 408.862c-5.682 0-5.555 8.814.114 8.814 5.683 0 5.556-8.814-.114-8.814z"/><path d="m412.144 403.689c-4.119 0-4.544 6.411-.408 6.411 4.12-.001 4.545-6.411.408-6.411z"/></g></g><g><g><g><path d="m443.5 430.29c-4.46 4.81-9.11 9.44-13.94 13.89l.86-18.04 1.69-35.09h9.5l1.69 35.09z" fill="#ec771b"/><path d="m443.5 430.29c-2.17 2.34-4.38 4.64-6.64 6.89v-46.13h4.75z" fill="#c55732"/><path d="m443.305 426.143h-12.887l1.69-35.09h9.506z" fill="#c55732"/><path d="m443.305 426.143h-6.444v-35.09h4.753z" fill="#b15848"/></g><path d="m444.104 416.189h-14.49c-16.77 0-27.5-18.15-19.11-32.68l.17-.32c2.7-4.58 5.22-9.21 7.56-13.89 6.46-12.91 11.61-26.14 15.74-39.54.44-1.43 1.66-2.13 2.89-2.13 1.22 0 2.44.7 2.88 2.12 3.56 11.56 7.88 22.99 13.15 34.2 3.06 6.5 6.43 12.92 10.15 19.24l.18.32c8.389 14.53-2.34 32.68-19.12 32.68z" fill="#43af3e"/><path d="m444.108 416.191h-10.806c-8.241 0-13.517-18.15-9.392-32.682.029-.107.059-.214.088-.322 4.984-17.224 8.69-35.178 11.45-53.426.215-1.434.809-2.136 1.414-2.136 1.219 0 2.438.702 2.877 2.126 5.627 18.257 13.157 36.212 23.309 53.436l.176.322c8.387 14.532-2.341 32.682-19.116 32.682z" fill="#00a23e"/><path d="m444.109 416.188h-7.247v-88.566c1.218 0 2.435.709 2.873 2.128 5.628 18.255 13.159 36.214 23.315 53.44.059.106.118.213.177.319 8.382 14.531-2.342 32.679-19.118 32.679z" fill="#008839"/></g><path d="m454.214 369.949c-.64.25-1.32.4-2.02.43-7.1.27-10.48-5.89-15.33-6.59-2.29-.33-4.91.56-8.41 3.93-.16.16-.32.31-.48.48-3.53 3.6-6.69 8.84-10.59 8.28-2.12-.31-3.27-2.65-2.33-4.58 7.53-15.4 13.6-31.17 18.51-47.12.52-1.66 1.88-2.54 3.3-2.66.11-.01.22-.01.33-.01 1.53 0 3.06.88 3.61 2.66 4.2 13.63 9.25 27.13 15.33 40.38.85 1.86-.021 4.05-1.92 4.8z" fill="#fff"/><path d="m454.214 369.949c-.64.25-1.32.4-2.02.43-7.1.27-10.48-5.89-15.33-6.59-2.29-.33-4.91.56-8.41 3.93-.16.16-.32.31-.48.48 3.05-12.56 5.5-25.42 7.47-38.44.22-1.43.82-7.64 1.42-7.64.11-.01.22-.01.33-.01 1.53 0 3.06.88 3.61 2.66 4.2 13.63 9.25 27.13 15.33 40.38.85 1.86-.021 4.05-1.92 4.8z" fill="#dff7fd"/><path d="m454.214 369.949c-.64.25-1.32.4-2.02.43-7.1.27-10.48-5.89-15.33-6.59v-41.67c.11-.01.22-.01.33-.01 1.53 0 3.06.88 3.61 2.66 4.2 13.63 9.25 27.13 15.33 40.38.85 1.86-.021 4.05-1.92 4.8z" fill="#c5f2f9"/><g fill="#fff"><path d="m421.04 384.089c-5.285 0-5.335 8.205-.053 8.205 5.285 0 5.335-8.205.053-8.205z"/><path d="m429.674 398.033c-5.009 0-5.168 7.782-.156 7.782 5.01 0 5.168-7.782.156-7.782z"/></g></g><path d="m430.14 443.63c-45.51 42.26-106.41 68.16-173.35 68.37h-.79c-.88 0-1.76 0-2.64-.01-5.86-.06-11.69-.32-17.46-.77-.17-.01-.33-.03-.5-.04-22.34-1.78-43.87-6.43-64.22-13.58-2.22-.77-4.42-1.58-6.61-2.41-2.14-.82-4.26-1.67-6.37-2.54-35.03-14.49-66.14-36.54-91.31-64.1-4.56-5-8.93-10.17-13.07-15.52 24.84-9.59 47.66-15.28 59.56-17.8 41.06-8.71 85.6-3.83 122.02 2.01 4.14.66 8.18 1.34 12.1 2.01 73.58 12.59 130.61 35.72 179.3 43.85 1.12.19 2.23.36 3.34.53z" fill="#dff7fd"/><path d="m430.14 443.63c-23.36 21.69-50.77 39.07-80.97 50.87-2.42.95-4.85 1.86-7.31 2.73-2.5.9-5.02 1.75-7.56 2.57-24.44 7.85-50.48 12.12-77.51 12.2h-.79c-.88 0-1.76 0-2.65-.01-2.92-.03-5.84-.11-8.74-.24-3.08-.14-6.15-.33-9.21-.57v-113.94c4.14.66 8.18 1.34 12.1 2.01 73.58 12.59 130.61 35.72 179.3 43.85 1.12.19 2.23.36 3.34.53z" fill="#c5f2f9"/><g><g><g><path d="m253.36 511.99c-5.86-.06-11.69-.32-17.46-.77l.46-9.61 2.17-44.91h12.16l2.17 44.91z" fill="#ec771b"/><path d="m253.35 511.99c-2.92-.03-5.84-.11-8.74-.24v-55.06h6.08z" fill="#c55732"/><path d="m252.857 501.612h-16.496l2.164-44.917h12.168z" fill="#c55732"/><path d="m252.857 501.612h-8.248v-44.917h6.084z" fill="#b15848"/></g><path d="m253.891 488.876h-18.559c-18.194 0-30.841-16.705-27.725-33.121.547-2.949 1.611-5.882 3.253-8.71l.228-.426c12.996-22.04 22.633-45.022 29.822-68.384.563-1.824 2.128-2.721 3.693-2.721 1.566 0 3.131.897 3.694 2.721 4.849 15.717 10.792 31.251 18.118 46.436 3.557 7.402 7.463 14.729 11.719 21.949l.213.426c10.747 18.59-2.994 41.83-24.456 41.83z" fill="#43af3e"/><path d="m253.885 488.873h-13.832c-10.549 0-17.302-23.232-12.022-41.833.037-.137.075-.275.112-.412 6.379-22.046 11.123-45.029 14.656-68.386.275-1.835 1.036-2.734 1.81-2.734 1.561 0 3.121.899 3.683 2.721 7.203 23.369 16.84 46.352 29.836 68.398l.225.412c10.736 18.602-2.996 41.834-24.468 41.834z" fill="#00a23e"/><path d="m253.886 488.869h-9.277v-113.365c1.559 0 3.118.908 3.678 2.724 7.204 23.366 16.844 46.354 29.843 68.404.076.136.151.272.227.409 10.73 18.598-2.997 41.828-24.471 41.828z" fill="#008839"/><path d="m267.464 425.66c-1.748 3.496-1.915 7.934-2.416 11.947-.639 5.305-3.192 11.522-8.512 12.19-4.59.578-8.132-3.314-11.932-6.308-2.31-1.839-4.727-3.329-7.524-3.314-3.572.015-6.551 2.554-8.664 5.487v.015c-.304.426-.593.851-.851 1.277-2.128 3.481-3.678 7.418-6.642 10.199-4.241 4.013-11.187 4.818-16.219 1.854-.015 0-.015 0-.015-.015-1.034-.593-1.459-1.854-1.17-3.009.684-2.69 1.763-5.35 3.268-7.95l.258-.471c14.698-24.943 25.597-50.935 33.729-77.367.578-1.885 2.113-2.903 3.74-3.025.03-.015.061-.015.091-.015.122-.03.228-.03.35-.03 1.763 0 3.542 1.018 4.18 3.07 5.031 16.34 11.127 32.513 18.514 48.351 1.047 2.28.955 4.879-.185 7.114z" fill="#fff"/><path d="m267.464 425.66c-1.748 3.496-1.915 7.934-2.416 11.947-.639 5.305-3.192 11.522-8.512 12.19-4.59.578-8.132-3.314-11.932-6.308-2.31-1.839-4.727-3.329-7.524-3.314-3.572.015-6.551 2.554-8.664 5.487 6.247-21.751 10.898-44.399 14.379-67.427.258-1.748.973-10.427 1.718-11.066.03-.015.061-.015.091-.015.122-.03.228-.03.35-.03 1.763 0 3.542 1.018 4.18 3.07 5.031 16.34 11.127 32.513 18.514 48.351 1.048 2.281.956 4.88-.184 7.115z" fill="#dff7fd"/><path d="m267.464 425.66c-1.748 3.496-1.915 7.934-2.416 11.947-.639 5.305-3.192 11.522-8.512 12.19-4.59.578-8.132-3.314-11.932-6.308v-76.334c.122-.03.228-.03.35-.03 1.763 0 3.542 1.018 4.18 3.07 5.031 16.34 11.127 32.513 18.514 48.351 1.048 2.28.956 4.879-.184 7.114z" fill="#c5f2f9"/></g><g fill="#fff"><path d="m234.047 464.858c-8.637 0-8.444 13.397.174 13.397 8.636 0 8.443-13.397-.174-13.397z"/><path d="m259.789 456.994c-6.261 0-6.907 9.744-.62 9.744 6.262 0 6.908-9.744.62-9.744z"/></g></g><g><g><g><path d="m171.18 497.6c-4.38-1.53-8.71-3.18-12.98-4.95l.56-11.74 1.52-31.64h8.57l1.53 31.64z" fill="#ec771b"/><path d="m171.18 497.6c-2.22-.77-4.42-1.58-6.61-2.41v-45.92h4.28z" fill="#c55732"/><path d="m170.379 480.911h-11.619l1.524-31.638h8.571z" fill="#c55732"/><path d="m170.379 480.911h-5.81v-31.638h4.286z" fill="#b15848"/></g><path d="m171.107 471.941h-13.072c-12.816 0-21.723-11.766-19.529-23.329.385-2.077 1.135-4.143 2.291-6.135l.161-.3c9.154-15.524 15.942-31.712 21.006-48.168.396-1.285 1.499-1.916 2.602-1.916s2.206.632 2.602 1.916c3.415 11.07 7.601 22.012 12.762 32.708 2.505 5.214 5.257 10.375 8.255 15.46l.15.3c7.568 13.094-2.11 29.464-17.228 29.464z" fill="#43af3e"/><path d="m171.103 471.938h-9.743c-7.43 0-12.187-16.364-8.468-29.466.026-.097.053-.193.079-.29 4.493-15.529 7.835-31.717 10.323-48.169.193-1.293.73-1.926 1.275-1.926 1.099 0 2.198.633 2.594 1.917 5.074 16.461 11.862 32.649 21.016 48.178l.158.29c7.563 13.102-2.11 29.466-17.234 29.466z" fill="#00a23e"/><path d="m171.104 471.936h-6.534v-79.852c1.098 0 2.196.639 2.59 1.919 5.074 16.459 11.864 32.651 21.021 48.182.053.096.107.192.16.288 7.557 13.1-2.111 29.463-17.237 29.463z" fill="#008839"/><path d="m180.668 427.413c-1.231 2.463-1.349 5.589-1.702 8.415-.45 3.737-2.248 8.115-5.996 8.586-3.233.407-5.728-2.334-8.405-4.443-1.627-1.295-3.33-2.345-5.3-2.334-2.516.011-4.614 1.799-6.103 3.865v.011c-.214.3-.418.6-.6.899-1.499 2.452-2.591 5.225-4.679 7.184-2.987 2.827-7.88 3.394-11.424 1.306-.01 0-.01 0-.01-.011-.728-.418-1.028-1.306-.824-2.12.482-1.895 1.242-3.769 2.302-5.6l.182-.332c10.353-17.569 18.03-35.877 23.757-54.496.407-1.328 1.488-2.045 2.634-2.13.021-.011.043-.011.064-.011.086-.021.161-.021.246-.021 1.242 0 2.495.717 2.944 2.163 3.544 11.509 7.837 22.901 13.041 34.057.74 1.607.676 3.438-.127 5.012z" fill="#fff"/><path d="m180.668 427.413c-1.231 2.463-1.349 5.589-1.702 8.415-.45 3.737-2.248 8.115-5.996 8.586-3.233.407-5.728-2.334-8.405-4.443-1.627-1.295-3.33-2.345-5.3-2.334-2.516.011-4.614 1.799-6.103 3.865 4.4-15.321 7.676-31.273 10.128-47.494.182-1.231.685-7.345 1.21-7.794.021-.011.043-.011.064-.011.086-.021.161-.021.246-.021 1.242 0 2.495.717 2.944 2.163 3.544 11.509 7.837 22.901 13.041 34.057.74 1.606.676 3.437-.127 5.011z" fill="#dff7fd"/><path d="m180.668 427.413c-1.231 2.463-1.349 5.589-1.702 8.415-.45 3.737-2.248 8.115-5.996 8.586-3.233.407-5.728-2.334-8.405-4.443v-53.768c.086-.021.161-.021.246-.021 1.242 0 2.495.717 2.944 2.163 3.544 11.509 7.837 22.901 13.041 34.057.739 1.606.675 3.437-.128 5.011z" fill="#c5f2f9"/></g><g fill="#fff"><path d="m157.13 455.023c-6.083 0-5.948 9.437.122 9.437 6.083 0 5.947-9.437-.122-9.437z"/><path d="m175.262 449.483c-4.41 0-4.865 6.863-.437 6.863 4.411.001 4.866-6.863.437-6.863z"/></g></g><g><g><g><path d="m349.17 494.5c-4.89 1.92-9.85 3.68-14.87 5.3l.8-16.76 1.78-36.82h9.97l1.77 36.82z" fill="#ec771b"/><path d="m349.17 494.5c-2.42.95-4.85 1.86-7.31 2.73v-51.01h4.99z" fill="#c55732"/><path d="m348.622 483.042h-13.521l1.774-36.817h9.974z" fill="#c55732"/><path d="m348.622 483.042h-6.76v-36.817h4.987z" fill="#b15848"/></g><path d="m349.461 472.598h-15.203c-17.595 0-28.853-19.043-20.05-34.287l.178-.336c2.833-4.805 5.477-9.663 7.932-14.573 6.778-13.545 12.181-27.426 16.514-41.485.462-1.5 1.742-2.235 3.032-2.235 1.28 0 2.56.734 3.022 2.224 3.735 12.129 8.268 24.121 13.797 35.882 3.21 6.82 6.746 13.556 10.649 20.186l.189.336c8.803 15.245-2.455 34.288-20.06 34.288z" fill="#43af3e"/><path d="m349.465 472.6h-11.338c-8.646 0-14.182-19.043-9.854-34.289.031-.113.061-.225.092-.338 5.229-18.071 9.117-36.909 12.013-56.054.225-1.504.849-2.241 1.484-2.241 1.279 0 2.558.737 3.019 2.231 5.904 19.155 13.804 37.993 24.456 56.064l.184.338c8.8 15.246-2.456 34.289-20.056 34.289z" fill="#00a23e"/><path d="m349.466 472.597h-7.604v-92.922c1.278 0 2.555.744 3.014 2.233 5.905 19.153 13.806 37.995 24.462 56.069.062.111.124.223.186.335 8.795 15.244-2.456 34.285-20.058 34.285z" fill="#008839"/></g><path d="m360.068 424.083c-.671.262-1.385.42-2.119.451-7.449.283-10.995-6.18-16.084-6.914-2.402-.346-5.151.587-8.824 4.123-.168.168-.336.325-.504.504-3.704 3.777-7.019 9.275-11.111 8.687-2.224-.325-3.431-2.78-2.444-4.805 7.9-16.158 14.269-32.703 19.42-49.438.546-1.742 1.972-2.665 3.462-2.791.115-.01.231-.01.346-.01 1.605 0 3.211.923 3.788 2.791 4.406 14.3 9.705 28.464 16.084 42.366.892 1.952-.021 4.25-2.014 5.036z" fill="#fff"/><path d="m360.068 424.083c-.671.262-1.385.42-2.119.451-7.449.283-10.995-6.18-16.084-6.914-2.402-.346-5.151.587-8.824 4.123-.168.168-.336.325-.504.504 3.2-13.178 5.771-26.67 7.837-40.331.231-1.5.86-8.016 1.49-8.016.115-.01.231-.01.346-.01 1.605 0 3.211.923 3.788 2.791 4.406 14.3 9.705 28.464 16.084 42.366.892 1.952-.021 4.25-2.014 5.036z" fill="#dff7fd"/><path d="m360.068 424.083c-.671.262-1.385.42-2.119.451-7.449.283-10.995-6.18-16.084-6.914v-43.72c.115-.01.231-.01.346-.01 1.605 0 3.211.923 3.788 2.791 4.406 14.3 9.705 28.464 16.084 42.366.891 1.952-.022 4.25-2.015 5.036z" fill="#c5f2f9"/><g fill="#fff"><path d="m325.263 438.919c-5.545 0-5.598 8.609-.056 8.609 5.545-.001 5.597-8.609.056-8.609z"/><path d="m334.321 453.548c-5.256 0-5.422 8.164-.164 8.164 5.257.001 5.423-8.164.164-8.164z"/></g></g><path d="m408.156 275.611v12.627c0 3.275-3.903 4.977-6.3 2.737l-53.637-50.035-.707-.655h-41.561l-70.547-70.56-58.261 58.261-13.688 13.688c-1.69 1.69-4.584.498-4.584-1.899v-9.667c0-4.335 1.729-8.501 4.794-11.566l61.234-61.234c2.908-2.908 6.706-4.349 10.505-4.349s7.597 1.441 10.505 4.349l59.532 59.532.131.144h42.072c3.759 0 7.387 1.428 10.138 3.995l44.822 41.849c3.548 3.3 5.552 7.936 5.552 12.783z" fill="#fff"/><path d="m408.156 275.611v12.627c0 3.275-3.903 4.977-6.3 2.737l-53.637-50.035-.707-.655h-41.561l-70.547-70.56v-16.766c3.799 0 7.597 1.441 10.505 4.349l59.532 59.532.131.144h42.072c3.759 0 7.387 1.428 10.138 3.995l44.822 41.849c3.548 3.3 5.552 7.936 5.552 12.783z" fill="#dff7fd"/><path d="m402.603 262.827-44.822-41.849c-2.751-2.567-6.379-3.995-10.138-3.995h-41.692v23.302h41.561l.707.655 53.637 50.035c2.397 2.24 6.3.537 6.3-2.737v-12.627c0-4.847-2.004-9.483-5.553-12.784z" fill="#c5f2f9"/><path d="m185.953 116.955c7.959-4.326 17.563-6.895 22.677-14.372 7.001-10.234 3.221-26.564 13.127-34.022 11.239-8.462 28.407 3.188 41.093-2.893 6.5-3.116 10.043-10.068 14.72-15.552 7.74-9.074 19.944-14.581 31.761-12.962 11.816 1.618 22.543 10.996 24.441 22.771s-6.267 24.676-17.998 26.83c-11.189 2.054-23.608-4.832-33.645.523-10.878 5.804-13.174 23.389-25.263 25.808-8.803 1.762-17.778-6.158-26.309-3.361-8.102 2.656-10.73 13.286-18.108 17.559-6.198 3.589-13.938 1.808-21.101 1.904-4.795.065-15.367 8.302-17.573 4.038-2.811-5.431 8.621-14.338 12.178-16.271z" fill="#fff"/><g><path d="m148.116 154.862c0-.063.005-.124.005-.187 0-11.447-9.28-20.727-20.727-20.727-2.719 0-5.314.529-7.693 1.481-4.596-8.234-13.391-13.805-23.49-13.805-13.116 0-24.032 9.393-26.405 21.817-.707-.101-1.429-.157-2.165-.157-7.131 0-13.105 4.936-14.702 11.577h95.177z" fill="#fff"/><path d="m127.893 154.862c0-.036.003-.071.003-.107 0-6.582-5.336-11.918-11.918-11.918-1.564 0-3.056.304-4.424.852-2.643-4.735-7.7-7.938-13.507-7.938-7.542 0-13.819 5.401-15.183 12.545-.407-.058-.822-.09-1.245-.09-4.101 0-7.536 2.839-8.454 6.657h54.728z" fill="#dff7fd"/></g><g><path d="m454.866 180.779c0-.063.005-.124.005-.187 0-11.447-9.28-20.727-20.727-20.727-2.719 0-5.314.529-7.693 1.481-4.596-8.234-13.391-13.805-23.49-13.805-13.116 0-24.032 9.393-26.405 21.817-.707-.101-1.43-.157-2.165-.157-7.131 0-13.105 4.936-14.702 11.577h95.177z" fill="#fff"/><path d="m434.643 180.779c0-.036.003-.071.003-.107 0-6.582-5.336-11.918-11.918-11.918-1.564 0-3.056.304-4.424.852-2.643-4.735-7.7-7.939-13.507-7.939-7.542 0-13.819 5.401-15.183 12.545-.407-.058-.822-.09-1.245-.09-4.101 0-7.536 2.838-8.454 6.657z" fill="#dff7fd"/></g></g></g></svg>