<svg id="Capa_1" enable-background="new 0 0 512 512" height="512" viewBox="0 0 512 512" width="512" xmlns="http://www.w3.org/2000/svg"><g><path d="m477.53 127.64-8.34 12.03c-106.66 153.92-331.16 162.51-449.28 17.2 4.03-9.6 8.64-18.91 13.77-27.87 44.12-77.07 127.16-129 222.32-129 94.6 0 177.22 51.32 221.53 127.64z" fill="#92eaff"/><g><path d="m512 256c0 14.91-1.28 29.53-3.73 43.74-1.22 7.12-2.74 14.14-4.55 21.04-1.3 4.99-2.75 9.92-4.34 14.79h-475.47c-3.59-2.31-7.87-3.65-12.46-3.65l-.01.01c-1.13-3.68-2.19-7.4-3.17-11.15-1.8-6.9-3.32-13.92-4.54-21.04-1.46-8.42-2.5-16.99-3.1-25.68-.42-5.96-.63-11.99-.63-18.06 0-35.15 7.09-68.65 19.91-99.13 5.27.66 10.08 4.07 14.21 10.74 2.41 3.89 5.24 7.96 9.58 9.42 6.05 2.05 12.38-1.72 17.66-5.31 12.14-8.27 18.24-17.43 31.22-8.18 7.99 5.69 12.31 16.27 23.03 17.9 16.64 2.52 27.66-22.51 44.37-20.51 13.98 1.66 15.97 17.14 24.69 25.62 14.52 14.13 29.6 5.69 41.39-7.38 4.64-5.13 10.77-9.92 17.67-9.43 4.59.32 8.52 2.89 12.27 5.7 1.34 1.01 2.65 2.04 3.97 3.02 24.09 17.91 34.3-32.17 64.44-21.32 7.91 2.85 15.71 9.11 23.71 6.56 7.58-2.41 6.41-8.49 10.91-13.04 5.22-5.31 12.7-7.49 20.05-7.04 8.92.54 17.28 4.24 25.76 7.05 25.03 8.28 35.58-5.82 55.21-17.97 5.71-3.53 11.58-5.02 17.48-5.06.27.45.53.91.79 1.36 12.98 22.67 22.59 47.52 28.15 73.86 3.46 16.36 5.35 33.28 5.52 50.62.01.84.01 1.68.01 2.52z" fill="#50ba4a"/><path d="m512 256c0 14.91-1.28 29.53-3.73 43.74-1.22 7.12-2.74 14.14-4.55 21.04-1.3 4.99-2.75 9.92-4.34 14.79h-243.38v-160.13c1.34 1.01 2.65 2.04 3.97 3.02 24.09 17.91 34.3-32.17 64.44-21.32 7.91 2.85 15.71 9.11 23.71 6.56 7.58-2.41 6.41-8.49 10.91-13.04 5.22-5.31 12.7-7.49 20.05-7.04 8.92.54 17.28 4.24 25.76 7.05 25.03 8.28 35.58-5.82 55.21-17.97 5.71-3.53 11.58-5.02 17.48-5.06.27.45.53.91.79 1.36 12.98 22.67 22.59 47.52 28.15 73.86 3.46 16.36 5.35 33.28 5.52 50.62.01.84.01 1.68.01 2.52z" fill="#43af3e"/><path d="m509.13 294.46c-15.21 100.97-89.41 182.63-186.38 208.75-5.07-2.87-11.42-2.1-15.66 1.9l-2.39 2.26c-10.96 2.11-22.17 3.53-33.58 4.19.02-.01.03-.02.03-.02 0-34.34-27.83-62.17-62.17-62.17h-120.73c-5.51-4.78-10.8-9.79-15.88-15.01v-3.7c0-11.9-9.64-21.54-21.54-21.55-5.88-7.85-11.31-16.06-16.26-24.57v-29.5c0-12.77-10.35-23.12-23.12-23.12-3.75-12.09-6.63-24.56-8.56-37.35 0-.04 0-.08-.01-.12 9.25-2.89 18.56-5.63 27.94-8.2 18.2-5.01 36.65-9.42 55.33-13.21 44.41-9.05 90.1-14.61 136.76-16.39 1.7-.08 3.4-.14 5.1-.19 1.32-.05 2.64-.09 3.96-.12 2.18-.07 4.36-.12 6.54-.16 5.81-.12 11.64-.18 17.49-.18 1.38 0 2.76 0 4.14.02 1.35.01 2.71.02 4.06.04 85.24.78 167.47 14.17 244.93 38.4z" fill="#b6e337"/><path d="m509.13 294.46c-15.21 100.97-89.41 182.63-186.38 208.75-5.07-2.87-11.42-2.1-15.66 1.9l-2.39 2.26c-15.77 3.04-32.05 4.63-48.7 4.63v-256c1.38 0 2.76 0 4.14.02 1.35.01 2.71.02 4.06.04 85.24.78 167.47 14.17 244.93 38.4z" fill="#6cdc2d"/><path d="m348.42 438.58c-20.92 23.55-54.07 55.21-77.27 72.96-4.45.27-8.93.41-13.44.44-.29.01-.57.02-.85.01-.29.01-.57.01-.86.01-3.29 0-6.57-.06-9.83-.19-4.39-.16-8.76-.44-13.09-.83 0-26.14-21.19-47.33-47.33-47.33h-79.49c-3.51-2.54-6.96-5.16-10.34-7.87-2.6-2.08-5.16-4.22-7.67-6.41 27.44-12.91 146.06-53.87 167.75-79.99 3.67-4.41 4.57-8.39 1.81-11.75-.6-.73-1.2-1.44-1.81-2.15-23.35-27.3-50.56-39.02-55.7-58.08-3.74-13.85 19.7-32.87 31.67-41.06 2.18-.07 4.36-.12 6.54-.16 5.81-.12 11.64-.18 17.49-.18 1.38 0 2.76 0 4.14.02 1.35.01 2.71.02 4.06.04-2.91 2.89-5.82 5.97-8.2 9.08-3.54 4.62-5.91 9.32-5.37 13.57 1.03 2.22 2.86 4.34 5.37 6.4 19.32 15.92 78.44 28.43 113.1 54.83 27.01 20.57 23.75 48.62-20.68 98.64z" fill="#5dbf1d"/><path d="m264.2 256.06c-2.91 2.89-5.82 5.97-8.2 9.08v-9.14c1.38 0 2.76 0 4.14.02 1.35.01 2.71.02 4.06.04z" fill="#43af3e"/><path d="m348.42 438.58c-20.92 23.55-54.07 55.21-77.27 72.96-4.45.27-8.93.41-13.44.44-.29.01-.57.02-.85.01-.29.01-.57.01-.86.01v-142.62c3.67-4.41 4.57-8.39 1.81-11.75-.6-.73-1.2-1.44-1.81-2.15v-70.37c19.32 15.92 78.44 28.43 113.1 54.83 27.01 20.57 23.75 48.62-20.68 98.64z" fill="#43af3e"/><path d="m367.47 377.12c-2.52 28.12-73.05 87-111.47 116.76-11.18 8.66-19.65 14.85-22.92 17.1-22.7-2.01-44.55-6.98-65.16-14.55-1.56-2.75-4.48-4.44-7.64-4.44h-3.62c-17.93-7.54-34.83-17.09-50.4-28.34 15.32-6.42 109.33-43.71 149.74-75.16 13.24-10.31 20.73-19.98 17.83-27.74-2.54-6.8-9.4-13.7-17.83-20.63-18.09-14.87-43.36-29.87-48.36-44.3-4.28-12.36 16.46-29.27 30.87-39.64 2.49-.05 4.98-.09 7.48-.12.57-.01 1.13-.01 1.7-.02 1.03-.01 2.06-.02 3.1-.02 1.73-.01 3.47-.02 5.21-.02 1.38 0 2.76 0 4.14.02-1.4 1.39-2.8 2.8-4.14 4.23-8.93 9.46-15.95 19.4-11.74 24.19 2.54 2.9 6.6 5.74 11.74 8.6 34.12 19.05 115.49 39.24 111.47 84.08z" fill="#7e7f92"/><path d="m367.47 377.12c-2.52 28.12-73.05 87-111.47 116.76-11.18 8.66-19.65 14.85-22.92 17.1-22.7-2.01-44.55-6.98-65.16-14.55-.48-.84-1.08-1.58-1.78-2.21 14.01-9.25 46.33-30.6 71.14-47.04 5.11-3.39 11.61-7.41 18.72-11.93 38.23-24.31 94.15-62.92 46.55-93.29-20.15-12.85-35.3-22.84-46.55-30.69-20.27-14.12-27.94-21.29-29.56-25.75-1.71-4.7 11.1-20.05 19.55-29.46.57-.01 1.13-.01 1.7-.02 1.03-.01 2.06-.02 3.1-.02 1.73-.01 3.47-.02 5.21-.02 1.38 0 2.76 0 4.14.02-1.4 1.39-2.8 2.8-4.14 4.23-8.93 9.46-15.95 19.4-11.74 24.19 2.54 2.9 6.6 5.74 11.74 8.6 34.12 19.05 115.49 39.24 111.47 84.08z" fill="#6e6f83"/><path d="m256 435.25v-46.76c13.24-10.31 20.73-19.98 17.83-27.74-2.54-6.8-9.4-13.7-17.83-20.63v-28.85c11.25 7.85 26.4 17.84 46.55 30.69 47.6 30.37-8.32 68.98-46.55 93.29z" fill="#6e6f83"/><path d="m367.47 377.12c-2.52 28.12-73.05 87-111.47 116.76v-58.63c38.23-24.31 94.15-62.92 46.55-93.29-20.15-12.85-35.3-22.84-46.55-30.69v-18.23c34.12 19.05 115.49 39.24 111.47 84.08z" fill="#605f74"/><path d="m312.15 392.5c-8.77 10.71-31.04 27.88-56.15 45.61-32.12 22.65-68.89 46.21-88.08 58.32-3.8-1.38-7.55-2.86-11.26-4.44 27.12-16.46 70.03-43.84 99.34-63.67 10.71-7.24 19.6-13.48 25.24-17.8 33.09-25.36 42.78-38.84 29.4-57.88-6.89-9.53-33.05-23.84-54.64-38.09-16.84-11.13-30.9-22.23-30.83-31 .06-7.82 13.38-20.22 22.52-27.51 1.03-.01 2.06-.02 3.1-.02-10.86 9.39-24.78 22.85-22.92 28.69 1.73 5.42 13.87 14.88 28.13 24.58 21.13 14.36 46.92 29.23 50.5 32.21 6 5 28.49 23.91 5.65 51z" fill="#ffc300"/><path d="m312.15 392.5c-8.77 10.71-31.04 27.88-56.15 45.61v-9.79c10.71-7.24 19.6-13.48 25.24-17.8 33.09-25.36 42.78-38.84 29.4-57.88-6.89-9.53-33.05-23.84-54.64-38.09v-5.26c21.13 14.36 46.92 29.23 50.5 32.21 6 5 28.49 23.91 5.65 51z" fill="#ff9f00"/><g><path d="m167.147 127.72c0-.074.005-.147.005-.222 0-13.578-11.007-24.585-24.585-24.585-3.226 0-6.303.628-9.126 1.757-5.452-9.767-15.883-16.375-27.863-16.375-15.557 0-28.506 11.141-31.32 25.879-.839-.12-1.696-.186-2.568-.186-8.458 0-15.545 5.855-17.439 13.732z" fill="#fff"/><path d="m143.159 127.72c0-.043.003-.085.003-.128 0-7.808-6.329-14.137-14.137-14.137-1.855 0-3.625.361-5.247 1.01-3.135-5.616-9.133-9.416-16.022-9.416-8.946 0-16.391 6.407-18.01 14.881-.482-.069-.975-.107-1.477-.107-4.864 0-8.939 3.367-10.028 7.896h64.918z" fill="#dff7fd"/></g><g><path d="m417.615 120.161c0-.047.003-.093.003-.139 0-8.543-6.926-15.469-15.469-15.469-2.03 0-3.966.395-5.742 1.106-3.43-6.145-9.994-10.304-17.532-10.304-9.789 0-17.936 7.01-19.707 16.283-.528-.076-1.067-.117-1.616-.117-5.322 0-9.781 3.684-10.973 8.641h71.036z" fill="#fff"/><path d="m402.521 120.161c0-.027.002-.053.002-.08 0-4.913-3.983-8.895-8.895-8.895-1.167 0-2.281.227-3.302.636-1.973-3.534-5.747-5.925-10.081-5.925-5.629 0-10.314 4.031-11.332 9.363-.304-.043-.613-.067-.929-.067-3.06 0-5.624 2.118-6.31 4.969h40.847z" fill="#dff7fd"/></g><g><path d="m313.945 57.265c0-.07.005-.139.005-.209 0-12.834-10.404-23.238-23.238-23.238-3.049 0-5.958.593-8.626 1.661-5.152-9.233-15.012-15.479-26.335-15.479-14.705 0-26.944 10.531-29.604 24.46-.793-.114-1.603-.176-2.427-.176-7.995 0-14.693 5.534-16.484 12.98h106.709z" fill="#fff"/><path d="m291.272 57.265c0-.04.003-.08.003-.12 0-7.38-5.983-13.362-13.362-13.362-1.753 0-3.426.341-4.96.955-2.963-5.308-8.633-8.9-15.144-8.9-8.455 0-15.493 6.055-17.023 14.065-.456-.065-.922-.101-1.396-.101-4.597 0-8.449 3.182-9.479 7.464h61.361z" fill="#dff7fd"/></g><g><path d="m276.875 262.166h-9.337l.5-15.646.615-19.22h7.107l.615 19.22z" fill="#ec771b"/><path d="m276.875 262.166h-4.49v-34.866h3.375l.615 19.22z" fill="#c55732"/><path d="m272.385 227.3v19.22h-4.347l.615-19.22z" fill="#c55732"/><path d="m276.375 246.52h-3.99v-19.22h3.375z" fill="#a44e3e"/><g><path d="m286.886 233.417c-4.016 3.953-9.258 5.929-14.501 5.929-5.242 0-10.484-1.976-14.501-5.929-6.406-6.305-7.687-15.745-3.844-23.304 4.02-7.905 8.218-15.719 11.634-23.903l6.711-16.079 6.699 16.047c3.422 8.197 7.626 16.023 11.649 23.941 3.84 7.558 2.558 16.995-3.847 23.298z" fill="#43af3e"/><path d="m286.886 233.417c-4.016 3.953-9.258 5.929-14.501 5.929-2.487 0-4.974-1.976-6.88-5.929-3.081-6.391-3.664-16.003-1.748-23.612 2.664-10.582 5.025-21.482 7.212-32.525l1.415-7.15 6.699 16.047c3.422 8.197 7.626 16.023 11.649 23.941 3.841 7.559 2.559 16.996-3.846 23.299z" fill="#00a23e"/><path d="m286.886 233.417c-4.016 3.953-9.258 5.929-14.501 5.929v-69.216l6.699 16.047c3.422 8.197 7.626 16.023 11.649 23.941 3.84 7.559 2.558 16.996-3.847 23.299z" fill="#008839"/></g></g><g><path d="m304.564 294.399h-9.823l.526-16.46.647-20.219h7.477l.647 20.219z" fill="#ec771b"/><path d="m304.564 294.399h-4.724v-36.679h3.551l.647 20.219z" fill="#c55732"/><path d="m299.84 257.72v20.219h-4.573l.647-20.219z" fill="#c55732"/><path d="m304.038 277.939h-4.198v-20.219h3.551z" fill="#a44e3e"/><g><path d="m315.095 264.155c-4.224 4.159-9.74 6.238-15.255 6.238-5.514 0-11.03-2.079-15.255-6.238-6.739-6.633-8.087-16.564-4.044-24.516 4.229-8.316 8.645-16.536 12.239-25.146l7.06-16.916 7.048 16.882c3.6 8.623 8.022 16.856 12.255 25.187 4.04 7.95 2.691 17.878-4.048 24.509z" fill="#43af3e"/><path d="m315.095 264.155c-4.224 4.159-9.74 6.238-15.255 6.238-2.616 0-5.233-2.079-7.238-6.238-3.241-6.723-3.854-16.835-1.839-24.84 2.803-11.132 5.286-22.599 7.588-34.217l1.489-7.522 7.048 16.882c3.6 8.623 8.022 16.856 12.255 25.187 4.04 7.951 2.691 17.879-4.048 24.51z" fill="#00a23e"/><path d="m315.095 264.155c-4.224 4.159-9.74 6.238-15.255 6.238v-72.816l7.048 16.882c3.6 8.623 8.022 16.856 12.255 25.187 4.04 7.95 2.691 17.878-4.048 24.509z" fill="#008839"/></g></g><g><path d="m344.659 300.074h-9.749l.521-16.337.642-20.069h7.422l.642 20.069z" fill="#ec771b"/><path d="m344.659 300.074h-4.688v-36.406h3.524l.642 20.069z" fill="#c55732"/><path d="m339.971 263.668v20.069h-4.54l.642-20.069z" fill="#c55732"/><path d="m344.137 283.737h-4.166v-20.069h3.524z" fill="#a44e3e"/><g><path d="m355.112 270.056c-4.193 4.128-9.667 6.191-15.141 6.191-5.473 0-10.948-2.064-15.142-6.191-6.689-6.583-8.027-16.44-4.014-24.333 4.197-8.255 8.581-16.413 12.148-24.959l7.008-16.79 6.995 16.756c3.573 8.559 7.963 16.73 12.164 24.999 4.01 7.891 2.671 17.745-4.018 24.327z" fill="#43af3e"/><path d="m355.112 270.056c-4.193 4.128-9.667 6.191-15.141 6.191-2.597 0-5.194-2.064-7.184-6.191-3.217-6.673-3.826-16.71-1.825-24.655 2.782-11.05 5.247-22.431 7.531-33.962l1.478-7.466 6.995 16.756c3.573 8.559 7.963 16.73 12.164 24.999 4.01 7.892 2.671 17.746-4.018 24.328z" fill="#00a23e"/><path d="m355.112 270.056c-4.193 4.128-9.667 6.191-15.141 6.191v-72.274l6.995 16.756c3.573 8.559 7.963 16.73 12.164 24.999 4.01 7.892 2.671 17.746-4.018 24.328z" fill="#008839"/></g></g><g><path d="m387.123 332.274h-12.292l.658-20.597.81-25.303h9.356l.81 25.303z" fill="#ec771b"/><path d="m387.123 332.274h-5.911v-45.9h4.443l.81 25.303z" fill="#c55732"/><path d="m381.212 286.374v25.303h-5.723l.81-25.303z" fill="#c55732"/><path d="m386.465 311.677h-5.253v-25.303h4.443z" fill="#a44e3e"/><g><path d="m400.302 294.427c-5.286 5.204-12.188 7.806-19.09 7.806-6.901 0-13.802-2.602-19.09-7.806-8.434-8.3-10.12-20.728-5.06-30.679 5.292-10.407 10.818-20.694 15.315-31.468l8.835-21.168 8.82 21.125c4.505 10.791 10.039 21.093 15.336 31.518 5.055 9.951 3.367 22.374-5.066 30.672z" fill="#43af3e"/><path d="m400.302 294.427c-5.286 5.204-12.188 7.806-19.09 7.806-3.274 0-6.548-2.602-9.057-7.806-4.056-8.413-4.823-21.067-2.301-31.085 3.507-13.931 6.615-28.28 9.495-42.818l1.863-9.412 8.82 21.125c4.505 10.791 10.039 21.093 15.336 31.518 5.055 9.951 3.367 22.374-5.066 30.672z" fill="#00a23e"/><path d="m400.302 294.427c-5.286 5.204-12.188 7.806-19.09 7.806v-91.122l8.82 21.125c4.505 10.791 10.039 21.093 15.336 31.518 5.055 9.952 3.367 22.375-5.066 30.673z" fill="#008839"/></g></g><g><path d="m413.725 381.308h-12.292l.658-20.597.81-25.303h9.356l.81 25.303z" fill="#ec771b"/><path d="m413.725 381.308h-5.911v-45.9h4.443l.81 25.303z" fill="#c55732"/><path d="m407.814 335.408v25.303h-5.723l.81-25.303z" fill="#c55732"/><path d="m413.067 360.711h-5.253v-25.303h4.443z" fill="#a44e3e"/><g><path d="m426.904 343.461c-5.286 5.204-12.188 7.806-19.09 7.806-6.901 0-13.802-2.602-19.09-7.806-8.434-8.3-10.12-20.728-5.06-30.679 5.292-10.407 10.819-20.694 15.315-31.468l8.835-21.168 8.82 21.126c4.505 10.791 10.039 21.093 15.336 31.518 5.055 9.95 3.367 22.373-5.066 30.671z" fill="#43af3e"/><path d="m426.904 343.461c-5.286 5.204-12.188 7.806-19.09 7.806-3.274 0-6.548-2.602-9.057-7.806-4.056-8.413-4.823-21.067-2.301-31.085 3.507-13.931 6.616-28.28 9.495-42.818l1.863-9.413 8.82 21.126c4.505 10.791 10.039 21.093 15.336 31.518 5.055 9.951 3.367 22.374-5.066 30.672z" fill="#00a23e"/><path d="m426.904 343.461c-5.286 5.204-12.188 7.806-19.09 7.806v-91.121l8.82 21.126c4.505 10.791 10.039 21.093 15.336 31.518 5.055 9.95 3.367 22.373-5.066 30.671z" fill="#008839"/></g></g><g><path d="m409.744 428.635h-12.674l.678-21.237.835-26.09h9.648l.835 26.09z" fill="#ec771b"/><path d="m409.744 428.635h-6.095v-47.327h4.582l.835 26.09z" fill="#c55732"/><path d="m403.649 381.308v26.09h-5.901l.835-26.09z" fill="#c55732"/><path d="m409.066 407.398h-5.417v-26.09h4.582z" fill="#a44e3e"/><g><path d="m423.333 389.612c-5.451 5.366-12.567 8.049-19.684 8.049-7.115 0-14.232-2.683-19.684-8.049-8.696-8.558-10.435-21.372-5.218-31.633 5.456-10.731 11.155-21.337 15.792-32.447l9.11-21.827 9.094 21.783c4.645 11.126 10.351 21.749 15.813 32.499 5.213 10.259 3.472 23.069-5.223 31.625z" fill="#43af3e"/><path d="m423.333 389.612c-5.451 5.366-12.567 8.049-19.684 8.049-3.376 0-6.752-2.683-9.339-8.049-4.182-8.675-4.973-21.722-2.373-32.051 3.616-14.364 6.821-29.16 9.79-44.15l1.921-9.705 9.094 21.783c4.645 11.126 10.351 21.749 15.813 32.499 5.214 10.258 3.473 23.068-5.222 31.624z" fill="#00a23e"/><path d="m423.333 389.612c-5.451 5.366-12.567 8.049-19.684 8.049v-93.956l9.094 21.783c4.645 11.126 10.351 21.749 15.813 32.499 5.213 10.259 3.472 23.069-5.223 31.625z" fill="#008839"/></g></g><g><path d="m367.643 470.961h-17.819l.954-29.859 1.174-36.681h13.564l1.174 36.681z" fill="#ec771b"/><path d="m367.643 470.961h-8.568v-66.54h6.441l1.174 36.681z" fill="#c55732"/><path d="m359.075 404.421v36.681h-8.297l1.174-36.681z" fill="#c55732"/><path d="m366.69 441.102h-7.615v-36.681h6.441z" fill="#a44e3e"/><g><path d="m386.749 416.095c-7.664 7.544-17.669 11.316-27.674 11.316-10.004 0-20.009-3.772-27.674-11.316-12.226-12.033-14.671-30.048-7.336-44.475 7.671-15.087 15.683-29.999 22.203-45.619l12.808-30.687 12.786 30.625c6.531 15.643 14.553 30.579 22.232 45.692 7.327 14.425 4.88 32.434-7.345 44.464z" fill="#43af3e"/><path d="m386.749 416.095c-7.664 7.544-17.669 11.316-27.674 11.316-4.746 0-9.493-3.772-13.13-11.316-5.88-12.197-6.992-30.541-3.336-45.063 5.085-20.196 9.59-40.997 13.765-62.073l2.701-13.645 12.786 30.625c6.531 15.643 14.553 30.579 22.232 45.692 7.328 14.425 4.881 32.434-7.344 44.464z" fill="#00a23e"/><path d="m386.749 416.095c-7.664 7.544-17.669 11.316-27.674 11.316v-132.097l12.786 30.625c6.531 15.643 14.553 30.579 22.232 45.692 7.328 14.425 4.881 32.434-7.344 44.464z" fill="#008839"/></g></g><g><path d="m322.75 503.21c-2.85.77-5.72 1.49-8.61 2.15-3.13.73-6.28 1.4-9.45 2.02l.73-23.05 1.24-38.55h14.25l1.24 38.55z" fill="#ec771b"/><path d="m322.75 503.21c-2.85.77-5.72 1.49-8.61 2.15v-59.58h6.77l1.24 38.55z" fill="#c55732"/><path d="m314.143 480.667v-34.891h-7.486l-1.116 34.891z" fill="#c55732"/><path d="m322.029 480.667-1.117-34.891h-6.769v34.891z" fill="#a44e3e"/><g><path d="m343.227 458.045c-8.054 7.928-18.569 11.893-29.084 11.893-10.513 0-21.028-3.964-29.084-11.893-12.849-12.646-15.418-31.579-7.71-46.74 8.062-15.856 16.482-31.527 23.333-47.942l13.46-32.25 13.437 32.185c6.863 16.44 15.295 32.136 23.364 48.019 7.703 15.159 5.131 34.086-7.716 46.728z" fill="#43af3e"/><path d="m343.227 458.045c-8.054 7.928-18.569 11.893-29.084 11.893-4.988 0-9.976-3.964-13.799-11.893-6.179-12.818-7.348-32.096-3.506-47.358 5.344-21.224 10.079-43.085 14.466-65.235l2.839-14.34 13.437 32.185c6.863 16.44 15.295 32.136 23.364 48.019 7.702 15.16 5.13 34.087-7.717 46.729z" fill="#00a23e"/><path d="m343.227 458.045c-8.054 7.928-18.569 11.893-29.084 11.893v-138.825l13.437 32.185c6.863 16.44 15.295 32.136 23.364 48.019 7.702 15.159 5.13 34.086-7.717 46.728z" fill="#008839"/></g></g><g><path d="m177.044 299.69h-11.787l.631-19.751.776-24.265h8.973l.776 24.265z" fill="#ec771b"/><path d="m177.044 299.69h-5.668v-44.016h4.261l.776 24.265z" fill="#c55732"/><path d="m171.376 255.674v24.265h-5.488l.776-24.265z" fill="#c55732"/><path d="m176.413 279.939h-5.037v-24.265h4.261z" fill="#a44e3e"/><g><path d="m189.683 263.397c-5.069 4.99-11.688 7.486-18.306 7.486-6.617 0-13.236-2.495-18.307-7.486-8.087-7.96-9.705-19.877-4.853-29.42 5.075-9.98 10.375-19.844 14.687-30.177l8.472-20.3 8.458 20.258c4.32 10.348 9.627 20.228 14.706 30.225 4.848 9.543 3.229 21.456-4.857 29.414z" fill="#43af3e"/><path d="m189.683 263.397c-5.069 4.99-11.688 7.486-18.306 7.486-3.14 0-6.28-2.495-8.686-7.486-3.889-8.068-4.625-20.203-2.206-29.809 3.363-13.359 6.344-27.12 9.105-41.061l1.787-9.026 8.458 20.258c4.32 10.348 9.627 20.228 14.706 30.225 4.847 9.542 3.228 21.455-4.858 29.413z" fill="#00a23e"/><path d="m189.683 263.397c-5.069 4.99-11.688 7.486-18.306 7.486v-87.382l8.458 20.258c4.32 10.348 9.627 20.228 14.706 30.225 4.847 9.542 3.228 21.455-4.858 29.413z" fill="#008839"/></g></g><g><path d="m214.968 347.689h-13.851l.742-23.21.912-28.512h10.543l.913 28.512z" fill="#ec771b"/><path d="m214.968 347.689h-6.66v-51.722h5.006l.913 28.512z" fill="#c55732"/><path d="m208.308 295.967v28.512h-6.449l.912-28.512z" fill="#c55732"/><path d="m214.227 324.479h-5.919v-28.512h5.006z" fill="#a44e3e"/><g><path d="m229.819 305.042c-5.957 5.864-13.734 8.796-21.511 8.796-7.776 0-15.553-2.932-21.511-8.796-9.503-9.353-11.404-23.357-5.702-34.57 5.963-11.727 12.191-23.318 17.258-35.459l9.955-23.853 9.938 23.805c5.076 12.159 11.312 23.769 17.281 35.516 5.696 11.211 3.794 25.21-5.708 34.561z" fill="#43af3e"/><path d="m229.819 305.042c-5.957 5.864-13.734 8.796-21.511 8.796-3.689 0-7.379-2.932-10.206-8.796-4.57-9.48-5.435-23.739-2.593-35.027 3.952-15.698 7.454-31.867 10.699-48.249l2.099-10.606 9.938 23.805c5.076 12.159 11.312 23.769 17.281 35.516 5.697 11.211 3.795 25.21-5.707 34.561z" fill="#00a23e"/><path d="m229.819 305.042c-5.957 5.864-13.734 8.796-21.511 8.796v-102.678l9.938 23.805c5.076 12.159 11.312 23.769 17.281 35.516 5.696 11.211 3.794 25.21-5.708 34.561z" fill="#008839"/></g></g><g><path d="m239.641 369.106h-13.808l.739-23.138.91-28.425h10.511l.909 28.425z" fill="#ec771b"/><path d="m239.641 369.106h-6.64v-51.563h4.992l.909 28.425z" fill="#c55732"/><path d="m233.001 317.543v28.425h-6.429l.91-28.425z" fill="#c55732"/><path d="m238.902 345.968h-5.901v-28.425h4.992z" fill="#a44e3e"/><g><path d="m254.447 326.59c-5.939 5.846-13.692 8.769-21.446 8.769-7.752 0-15.505-2.923-21.446-8.769-9.474-9.324-11.369-23.285-5.685-34.465 5.945-11.692 12.153-23.247 17.205-35.351l9.925-23.78 9.908 23.732c5.061 12.122 11.278 23.696 17.228 35.408 5.681 11.177 3.784 25.133-5.689 34.456z" fill="#43af3e"/><path d="m254.447 326.59c-5.939 5.846-13.692 8.769-21.446 8.769-3.678 0-7.356-2.923-10.175-8.769-4.556-9.452-5.418-23.667-2.585-34.92 3.94-15.65 7.432-31.77 10.667-48.102l2.093-10.574 9.908 23.732c5.061 12.122 11.278 23.696 17.228 35.408 5.68 11.177 3.783 25.133-5.69 34.456z" fill="#00a23e"/><path d="m254.447 326.59c-5.939 5.846-13.692 8.769-21.446 8.769v-102.366l9.908 23.732c5.061 12.122 11.278 23.696 17.228 35.408 5.68 11.178 3.783 25.134-5.69 34.457z" fill="#008839"/></g></g><g><path d="m195.654 397.25h-19.322l1.035-32.377 1.272-39.775h14.708l1.273 39.775z" fill="#ec771b"/><path d="m195.654 397.25h-9.291v-72.152h6.984l1.273 39.775z" fill="#c55732"/><path d="m186.363 359.867v-34.769h-7.724l-1.112 34.769z" fill="#c55732"/><path d="m194.46 359.867-1.113-34.769h-6.984v34.769z" fill="#a44e3e"/><g><path d="m216.371 337.757c-8.31 8.181-19.159 12.271-30.008 12.271-10.847 0-21.697-4.09-30.009-12.271-13.257-13.047-15.909-32.583-7.955-48.226 8.318-16.36 17.006-32.529 24.075-49.466l13.888-33.276 13.864 33.208c7.082 16.962 15.781 33.158 24.107 49.545 7.948 15.642 5.294 35.171-7.962 48.215z" fill="#43af3e"/><path d="m216.371 337.757c-8.31 8.181-19.159 12.271-30.008 12.271-5.147 0-10.293-4.09-14.238-12.271-6.376-13.225-7.582-33.116-3.617-48.863 5.514-21.899 10.399-44.455 14.926-67.309l2.929-14.796 13.864 33.208c7.082 16.962 15.781 33.158 24.107 49.545 7.947 15.642 5.293 35.171-7.963 48.215z" fill="#00a23e"/><path d="m216.371 337.757c-8.31 8.181-19.159 12.271-30.008 12.271v-143.238l13.864 33.208c7.082 16.962 15.781 33.158 24.107 49.545 7.947 15.641 5.293 35.17-7.963 48.214z" fill="#008839"/></g></g><g><path d="m143.219 423.434h-20.024l1.072-33.554 1.319-41.221h15.243l1.318 41.221z" fill="#ec771b"/><path d="m143.219 423.434h-9.629v-74.775h7.239l1.318 41.221z" fill="#c55732"/><path d="m133.59 384.979v-36.32h-8.004l-1.162 36.32z" fill="#c55732"/><path d="m141.99 384.979-1.161-36.32h-7.239v36.32z" fill="#a44e3e"/><g><path d="m164.689 361.779c-8.612 8.478-19.856 12.717-31.099 12.717-11.242 0-22.485-4.239-31.099-12.717-13.739-13.522-16.487-33.767-8.244-49.979 8.621-16.954 17.624-33.711 24.95-51.264l14.393-34.485 14.368 34.415c7.339 17.579 16.354 34.363 24.983 51.346 8.236 16.209 5.486 36.448-8.252 49.967z" fill="#43af3e"/><path d="m164.689 361.779c-8.612 8.478-19.856 12.717-31.099 12.717-5.334 0-10.668-4.239-14.755-12.717-6.607-13.706-7.858-34.32-3.748-50.639 5.714-22.695 10.777-46.071 15.468-69.755l3.035-15.334 14.368 34.415c7.339 17.579 16.354 34.363 24.983 51.346 8.236 16.209 5.486 36.448-8.252 49.967z" fill="#00a23e"/><path d="m164.689 361.779c-8.612 8.478-19.856 12.717-31.099 12.717v-148.446l14.368 34.415c7.339 17.579 16.354 34.363 24.983 51.346 8.236 16.21 5.486 36.449-8.252 49.968z" fill="#008839"/></g></g><g><path d="m72.37 434.36c-3.7-3.8-7.27-7.71-10.73-11.74-3.75-4.37-7.36-8.88-10.82-13.51l1.51-46.99h17.73l1.54 47.96z" fill="#ec771b"/><path d="m72.37 434.36c-3.7-3.8-7.27-7.71-10.73-11.74v-60.5h8.42l1.54 47.96z" fill="#c55732"/><path d="m61.64 403.597v-41.481h-9.314l-1.327 41.481z" fill="#c55732"/><path d="m71.389 403.597-1.327-41.481h-8.422v41.481z" fill="#a44e3e"/><g><path d="m97.83 377.38c-10.02 9.87-23.11 14.8-36.19 14.8-9.4 0-18.8-2.55-27.07-7.64l-.01-.01c-9.58-16.46-17.37-34.09-23.11-52.61.88-4.36 2.35-8.64 4.41-12.69 10.03-19.73 20.51-39.23 29.03-59.65l16.75-40.13 16.72 40.05c8.54 20.45 19.03 39.98 29.07 59.74 9.58 18.86 6.38 42.41-9.6 58.14z" fill="#43af3e"/><path d="m97.826 377.381c-10.021 9.865-23.104 14.797-36.187 14.797-6.206 0-12.413-4.932-17.169-14.797-7.688-15.948-9.143-39.935-4.362-58.923 6.649-26.408 12.54-53.607 17.999-81.166l3.532-17.842 16.718 40.045c8.54 20.455 19.03 39.984 29.07 59.746 9.584 18.861 6.384 42.41-9.601 58.14z" fill="#00a23e"/><path d="m97.826 377.381c-10.021 9.865-23.104 14.797-36.187 14.797v-172.728l16.718 40.045c8.54 20.455 19.03 39.984 29.07 59.746 9.584 18.861 6.384 42.41-9.601 58.14z" fill="#008839"/></g></g></g><path d="m260.14 256.02c-1.4 1.39-2.8 2.8-4.14 4.23v-4.25c1.38 0 2.76 0 4.14.02z" fill="#605f74"/></g></svg>