<svg id="Capa_1" enable-background="new 0 0 512 512" height="512" viewBox="0 0 512 512" width="512" xmlns="http://www.w3.org/2000/svg"><g><path d="m512 256c0 11.67-.78 23.16-2.3 34.42-143.84 126.08-359.55 123.58-500.43-5.78l-8.42-7.73c-.08-.95-.15-1.9-.22-2.85-.42-5.96-.63-11.99-.63-18.06 0-46.22 12.25-89.57 33.68-127 13.81-24.13 31.43-45.78 52.05-64.16l62.76-7.43c35.95-4.25 67.79-25.19 85.95-56.51 7.11-.6 14.3-.9 21.56-.9 95.16 0 178.2 51.93 222.32 129 .51.88 1.01 1.77 1.5 2.66 0 27.66 9.01 54.56 25.65 76.65l2.75 3.64c2.35 13.51 3.63 27.38 3.77 41.53.01.84.01 1.68.01 2.52z" fill="#4e689b"/><g><path d="m512 256c0 11.67-.78 23.16-2.3 34.42-143.84 126.08-359.55 123.58-500.43-5.78l-8.42-7.73c-.57-6.9-.85-13.87-.85-20.91 0-46.22 12.25-89.57 33.68-127 44.12 77.07 127.16 129 222.32 129s178.2-51.93 222.32-129c.51.89 1.01 1.78 1.5 2.67 0 27.66 9.01 54.55 25.65 76.64l2.75 3.64c2.49 14.31 3.78 29.03 3.78 44.05z" fill="#374c81"/></g><g><path d="m509.7 290.42c-.42 3.13-.9 6.23-1.43 9.32-1.22 7.12-2.74 14.14-4.55 21.04-2.21 8.49-4.85 16.81-7.89 24.93l-80.86 56.09c-6.43 4.46-13.01 8.63-19.7 12.51h-285.85c-4.92-2.85-9.77-5.85-14.55-9.02l-74.63-49.39c-4.81-11.31-8.82-23.04-11.97-35.12-1.8-6.9-3.32-13.92-4.54-21.04-1.3-7.5-2.27-15.11-2.88-22.83l20.42-11.67 157.39-44.24 77.34 37 41.46 36.45 84.95-47.91 124.56 42.35z" fill="#7e7f92"/><path d="m502.2 326.39c-1.87 6.56-3.99 13.01-6.36 19.33l-.01-.01-80.86 56.09c-6.43 4.46-13.01 8.63-19.7 12.51h-285.85c-4.92-2.85-9.77-5.85-14.55-9.02l-74.64-49.4c-4.8-11.31-8.81-23.04-11.96-35.11-.29-1.12-.57-2.24-.85-3.36l142.81-56c13.32-5.22 29.91-4.41 42.01 2.06l88.39 47.25c13.01 6.95 31.09 7.32 44.67.91l42.67-20.13c11.85-5.59 27.3-6.09 39.86-1.27z" fill="#6e6f83"/><path d="m506.97 288.89c-2 3.48-4.88 6.34-8.62 8.02-21.85 9.83-46.25-25.99-67.14-14.26-7.21 4.04-11.38 13.06-19.42 14.96-8.7 2.07-16.46-5.16-24.07-9.86-18.48-11.41-40.86-7.23-55.48 6.79-12.28 11.78-30.44 25.89-47.41 12.25-9.8-7.89-15.85-19.58-25.24-27.95-1.11-.99-2.32-1.92-3.59-2.78-9.46-6.35-22.73-8.47-30.27-.34-4.53 4.88-5.92 12.44-11.41 16.22-7.78 5.37-18.44-.07-25.32-6.55-6.88-6.49-13.74-14.64-23.18-15.17-19.31-1.1-30.67 30.02-49.51 25.65-8.64-2.01-13.7-10.95-21.34-15.45-9.41-5.55-21.27-3.68-31.97-1.47s-22.37 4.47-32.11-.48c-4.96-2.53-8.53-7.84-9.62-13.23l128.96-73.67c13.32-7.61 29.91-6.42 42.01 3l63.76 49.65 24.63 19.18c13.01 10.13 31.09 10.67 44.67 1.33l42.67-29.32c11.85-8.15 27.3-8.87 39.86-1.86z" fill="#fff"/><path d="m506.97 288.89c-2 3.48-4.88 6.34-8.62 8.02-21.85 9.83-46.25-25.99-67.14-14.26-7.21 4.04-11.38 13.06-19.42 14.96-8.7 2.07-16.46-5.16-24.07-9.86-18.48-11.41-40.86-7.23-55.48 6.79-12.28 11.78-30.44 25.89-47.41 12.25-9.8-7.89-15.85-19.58-25.24-27.95-1.11-.99-2.32-1.92-3.59-2.78v-31.84l24.63 19.18c13.01 10.13 31.09 10.67 44.67 1.33l42.67-29.32c11.85-8.15 27.3-8.87 39.86-1.86z" fill="#dff7fd"/><path d="m495.83 345.71c-5.29 14.15-11.81 27.71-19.41 40.54-3.74 6.31-7.74 12.45-11.99 18.39-129.72 66.86-284.64 62.68-410.57-11.08l-21.23-12.44c-4.58-8.14-8.73-16.56-12.4-25.23 24.72 1.69 55.63 2.66 104.43 2.66 44.15 0 87.92-1.99 131.34-4.43 26.66-1.5 53.18-3.16 79.56-4.64 52.59-2.96 107.34-5.12 160.27-3.77z" fill="#dff7fd"/><path d="m495.87 345.62c-5.3 14.18-11.83 27.77-19.45 40.63-3.74 6.31-7.74 12.45-11.99 18.39-65.37 33.69-137.13 49.34-208.36 47.14l-.04-97.65c26.66-1.51 53.18-3.18 79.56-4.67 52.59-2.98 107.35-5.17 160.28-3.84z" fill="#c5f2f9"/><path d="m464.43 404.64c-2.34 3.28-4.76 6.51-7.25 9.67-2.98 3.79-6.07 7.49-9.26 11.1l-74.08 33.45c-76.19 34.39-161.86 41.68-242.76 20.63l-5-9.73c-3.11-6.04-10.95-7.78-16.32-3.62-20.78-14.48-39.31-31.97-54.96-51.83-6.77-8.61-13.01-17.66-18.66-27.11-1.2-2.01-2.38-4.04-3.51-6.08 50.96-5.82 110.22-3.91 163.23 1.03 20.32 1.89 40.28 4.18 60.14 6.57 44.63 5.37 88.77 11.25 135.35 14.27 23.67 1.54 48.64 2.18 73.08 1.65z" fill="#fff"/><path d="m464.43 404.64c-2.34 3.28-4.76 6.51-7.25 9.67-2.98 3.79-6.07 7.49-9.26 11.1l-74.08 33.45c-37.55 16.95-77.4 27.31-117.84 30.95v-101.09c44.63 5.37 88.77 11.25 135.35 14.27 23.67 1.54 48.64 2.18 73.08 1.65z" fill="#dff7fd"/><g><g><path d="m288.392 252.117c3.205 2.53 3.752 7.178 1.223 10.383l-24.193 30.656-9.419 11.938-9.425-11.938-24.193-30.656c-2.529-3.205-1.982-7.854 1.223-10.384 3.205-2.53 7.854-1.982 10.384 1.223l22.011 27.885 22.005-27.884c2.53-3.205 7.179-3.753 10.384-1.223z" fill="#54545e"/><path d="m288.392 252.117c3.205 2.53 3.752 7.178 1.223 10.383l-24.193 30.656-9.419 11.938v-23.87l22.005-27.884c2.53-3.205 7.179-3.753 10.384-1.223z" fill="#454556"/></g><path d="m359.859 413.174h-207.718l103.859-131.95z" fill="#ffc300"/><path d="m359.859 413.174h-103.859v-131.95z" fill="#ff9f00"/><path d="m298.188 413.177h-84.37l42.18-53.6z" fill="#54545e"/><path d="m298.188 413.177h-42.19v-53.6z" fill="#454556"/><g fill="#d85e39"><path d="m256 359.58-78.557 53.594h36.372z"/><path d="m256 359.58 78.556 53.594h-36.371z"/></g></g><g><g><g><path d="m131.08 479.49c-.32-.17-.63-.34-.94-.52-7.01-3.96-13.81-8.24-20.38-12.83l.38-8 2.61-54.21h14.69l2.61 54.21z" fill="#ec771b"/><path d="m131.08 479.49c-.32-.17-.63-.34-.94-.52-3.4-1.92-6.74-3.91-10.04-5.98v-69.07h7.34z" fill="#c55732"/><path d="m130.051 458.137h-19.908l2.612-54.208h14.684z" fill="#c55732"/><path d="m130.051 458.137h-9.954v-54.208h7.342z" fill="#b15848"/></g><path d="m131.299 442.767h-22.398c-21.958 0-37.22-20.16-33.46-39.972.66-3.559 1.945-7.099 3.925-10.511l.275-.514c15.684-26.599 27.314-54.335 35.991-82.53.679-2.201 2.568-3.284 4.457-3.284 1.89 0 3.779 1.082 4.458 3.284 5.852 18.968 13.024 37.716 21.866 56.041 4.293 8.934 9.007 17.776 14.143 26.489l.257.514c12.971 22.435-3.612 50.483-29.514 50.483z" fill="#b6e337"/><path d="m131.292 442.763h-16.693c-12.731 0-20.882-28.038-14.509-50.486.045-.166.09-.331.136-.497 7.699-26.607 13.424-54.343 17.688-82.532.331-2.215 1.25-3.299 2.185-3.299 1.883 0 3.767 1.085 4.444 3.284 8.693 28.204 20.324 55.94 36.008 82.547l.271.497c12.956 22.448-3.616 50.486-29.53 50.486z" fill="#6cdc2d"/><path d="m131.293 442.758h-11.196v-136.816c1.881 0 3.762 1.096 4.438 3.287 8.694 28.2 20.328 55.943 36.017 82.554.091.164.183.329.274.493 12.949 22.447-3.616 50.482-29.533 50.482z" fill="#53af17"/><path d="m147.68 366.474c-2.109 4.219-2.311 9.576-2.916 14.418-.771 6.402-3.852 13.905-10.273 14.712-5.54.697-9.814-3.999-14.4-7.613-2.788-2.22-5.705-4.017-9.08-3.999-4.311.018-7.906 3.082-10.456 6.622v.018c-.367.514-.716 1.027-1.027 1.541-2.568 4.201-4.439 8.952-8.016 12.309-5.118 4.843-13.501 5.815-19.573 2.238-.018 0-.018 0-.018-.018-1.248-.716-1.761-2.238-1.413-3.632.825-3.247 2.128-6.457 3.944-9.594l.312-.569c17.739-30.103 30.892-61.471 40.706-93.372.697-2.275 2.55-3.504 4.513-3.651.036-.018.073-.018.11-.018.147-.037.275-.037.422-.037 2.128 0 4.274 1.229 5.045 3.706 6.072 19.72 13.428 39.238 22.344 58.353 1.262 2.752 1.152 5.889-.224 8.586z" fill="#fff"/><path d="m147.68 366.474c-2.109 4.219-2.311 9.576-2.916 14.418-.771 6.402-3.852 13.905-10.273 14.712-5.54.697-9.814-3.999-14.4-7.613-2.788-2.22-5.705-4.017-9.08-3.999-4.311.018-7.906 3.082-10.456 6.622 7.539-26.251 13.153-53.583 17.354-81.375.312-2.109 1.174-12.584 2.073-13.354.036-.018.073-.018.11-.018.147-.037.275-.037.422-.037 2.128 0 4.274 1.229 5.045 3.706 6.072 19.72 13.428 39.238 22.344 58.353 1.263 2.751 1.153 5.888-.223 8.585z" fill="#dff7fd"/><path d="m147.68 366.474c-2.109 4.219-2.311 9.576-2.916 14.418-.771 6.402-3.852 13.905-10.273 14.712-5.54.697-9.814-3.999-14.4-7.613v-92.124c.147-.037.275-.037.422-.037 2.128 0 4.274 1.229 5.045 3.706 6.072 19.72 13.428 39.238 22.344 58.353 1.264 2.751 1.154 5.888-.222 8.585z" fill="#c5f2f9"/></g><g fill="#fff"><path d="m107.35 413.78c-10.423 0-10.19 16.168.21 16.168 10.423.001 10.19-16.168-.21-16.168z"/><path d="m138.417 404.289c-7.557 0-8.336 11.76-.748 11.76 7.557 0 8.337-11.76.748-11.76z"/></g></g><g><g><g><path d="m417.837 436.019h-19.782l1.388-28.924 2.231-46.305h12.543l2.231 46.305z" fill="#ec771b"/><path d="m414.215 360.784 3.621 75.235h-9.89v-75.235z" fill="#c55732"/><path d="m416.448 407.095h-17.005l2.231-46.305h12.543z" fill="#c55732"/><path d="m416.448 407.095h-8.502v-46.305h6.271z" fill="#b15848"/></g><path d="m417.514 393.966h-19.133c-18.756 0-31.793-17.221-28.581-34.144.564-3.04 1.661-6.064 3.353-8.979l.235-.439c13.397-22.721 23.332-46.413 30.743-70.497.58-1.88 2.194-2.805 3.808-2.805s3.228.924 3.808 2.805c4.999 16.202 11.125 32.217 18.678 47.87 3.667 7.631 7.694 15.184 12.081 22.627l.22.439c11.079 19.164-3.086 43.123-25.212 43.123z" fill="#b6e337"/><path d="m417.508 393.962h-14.259c-10.875 0-17.837-23.95-12.393-43.125.039-.141.077-.283.116-.425 6.576-22.727 11.467-46.42 15.109-70.499.283-1.892 1.068-2.818 1.866-2.818 1.609 0 3.217.927 3.796 2.805 7.426 24.092 17.361 47.784 30.758 70.511l.232.425c11.067 19.176-3.089 43.126-25.225 43.126z" fill="#6cdc2d"/><path d="m417.509 393.958h-9.564v-116.867c1.607 0 3.214.936 3.791 2.808 7.426 24.088 17.364 47.786 30.766 70.517.078.14.156.281.234.421 11.061 19.174-3.089 43.121-25.227 43.121z" fill="#53af17"/><path d="m431.507 328.796c-1.802 3.604-1.974 8.179-2.491 12.316-.658 5.469-3.291 11.878-8.775 12.567-4.732.596-8.383-3.416-12.301-6.503-2.382-1.896-4.873-3.432-7.756-3.416-3.682.016-6.753 2.633-8.932 5.657v.016c-.313.439-.611.877-.878 1.316-2.194 3.588-3.792 7.647-6.847 10.514-4.372 4.137-11.533 4.967-16.72 1.912-.015 0-.015 0-.015-.016-1.066-.611-1.505-1.912-1.207-3.103.705-2.774 1.818-5.516 3.369-8.195l.266-.486c15.152-25.714 26.388-52.509 34.771-79.758.596-1.943 2.178-2.993 3.855-3.118.031-.016.062-.016.094-.016.126-.031.235-.031.36-.031 1.818 0 3.651 1.05 4.309 3.165 5.187 16.845 11.47 33.517 19.086 49.845 1.081 2.351.987 5.031-.188 7.334z" fill="#fff"/><path d="m431.507 328.796c-1.802 3.604-1.974 8.179-2.491 12.316-.658 5.469-3.291 11.878-8.775 12.567-4.732.596-8.383-3.416-12.301-6.503-2.382-1.896-4.873-3.432-7.756-3.416-3.682.016-6.753 2.633-8.932 5.657 6.44-22.423 11.235-45.771 14.823-69.51.266-1.802 1.003-10.749 1.771-11.407.031-.016.062-.016.094-.016.126-.031.235-.031.36-.031 1.818 0 3.651 1.05 4.309 3.165 5.187 16.845 11.47 33.517 19.086 49.845 1.081 2.35.987 5.03-.188 7.333z" fill="#dff7fd"/><path d="m431.507 328.796c-1.802 3.604-1.974 8.179-2.491 12.316-.658 5.469-3.291 11.878-8.775 12.567-4.732.596-8.383-3.416-12.301-6.503v-78.692c.126-.031.235-.031.36-.031 1.818 0 3.651 1.05 4.309 3.165 5.187 16.845 11.47 33.517 19.086 49.845 1.081 2.35.987 5.03-.188 7.333z" fill="#c5f2f9"/></g><g fill="#fff"><path d="m401.589 355.56c-8.904 0-8.705 13.811.179 13.811 8.904 0 8.705-13.811-.179-13.811z"/><path d="m423.595 375.843c-6.455 0-7.121 10.045-.639 10.045 6.455 0 7.121-10.045.639-10.045z"/><path d="m437.634 353.739c-6.455 0-7.121 10.045-.639 10.045 6.455 0 7.121-10.045.639-10.045z"/></g></g><path d="m447.92 425.41c-46.88 53.09-115.44 86.56-191.82 86.59h-.1c-45.75 0-88.69-12-125.86-33.03 19.6.11 39.31-1.2 58.19-3.65 23.04-2.99 45.48-7.38 67.67-12.34 42.66-9.55 84.42-21.25 127.83-29.34 20.69-3.85 42.35-6.78 64.09-8.23z" fill="#92eaff"/><path d="m447.92 425.41c-46.88 53.09-115.44 86.56-191.82 86.59h-.1v-49.02c42.66-9.55 84.42-21.25 127.83-29.34 20.69-3.85 42.35-6.78 64.09-8.23z" fill="#63dbfa"/><g><g><g><path d="m508.22 211.95c-4.56-7.47-12.79-12.47-22.19-12.47v-.07h-162.78c-8.56 0-15.5-6.94-15.5-15.5v-67.75c0 8.56 6.94 15.5 15.5 15.5h156.57c12.22 21.95 21.31 45.89 26.65 71.2.64 3.01 1.22 6.04 1.75 9.09z" fill="#6cdc2d"/><path d="m347.255 163.401v41.301c0 4.382-3.552 7.935-7.935 7.935-4.382 0-7.935-3.553-7.935-7.935v-41.301c0-4.382 3.552-7.935 7.935-7.935 4.382.001 7.935 3.553 7.935 7.935z" fill="#b6e337"/><path d="m445.873 163.707v21.141c0 4.382-3.552 7.935-7.935 7.935-4.382 0-7.935-3.552-7.935-7.935v-21.141c0-4.382 3.552-7.935 7.935-7.935 4.382 0 7.935 3.553 7.935 7.935z" fill="#b6e337"/><path d="m383.557 163.707v21.141c0 4.382-3.553 7.935-7.935 7.935-4.382 0-7.935-3.552-7.935-7.935v-21.141c0-4.382 3.553-7.935 7.935-7.935 4.383 0 7.935 3.553 7.935 7.935z" fill="#fff"/><path d="m484.946 154.027v21.141c0 4.382-3.552 7.935-7.935 7.935-4.382 0-7.935-3.552-7.935-7.935v-21.141c0-4.382 3.552-7.935 7.935-7.935 4.383 0 7.935 3.552 7.935 7.935z" fill="#fff"/><path d="m445.873 126.086v12.529c0 4.382-3.552 7.935-7.935 7.935-4.382 0-7.935-3.553-7.935-7.935v-12.529c0-4.382 3.552-7.935 7.935-7.935 4.382 0 7.935 3.552 7.935 7.935z" fill="#ffeb98"/><path d="m355.801 168.416h-32.55c-8.559 0-15.498 6.939-15.498 15.498v-67.751c0-8.559 6.939-15.498 15.498-15.498h32.55v-.071c12.438 0 22.837-8.743 25.376-20.418.393 1.791.597 3.642.597 5.547v56.721c0 14.342-11.63 25.972-25.973 25.972z" fill="#43af3e"/><g fill="#6cdc2d"><path d="m381.77 80.18v60.85c-.09-10.61-8.93-19.07-19.53-19.07h-93.92c-15.7 0-28.67-12.67-28.56-28.37.05-7.96-3.16-15.18-8.37-20.39-5.17-5.17-12.3-8.36-20.19-8.36h-125.47c14.14-12.6 29.68-23.65 46.36-32.9 4.26 1.92 9.29.63 12.11-3.1l3.76-4.99c10.48-4.89 21.36-9.09 32.56-12.53 4.02 4.23 10.95 3.53 14.04-1.41l1.83-2.92c5.64-1.35 11.36-2.51 17.14-3.48 4.53 3.43 10.91 2.95 14.88-1.12l.99-1.02c1.67-.17 3.35-.33 5.04-.47.27.23.53.47.78.72 2.81 2.81 4.54 6.68 4.54 10.96 0 22.99 18.63 41.62 41.62 41.62h74.42c14.34 0 25.97 11.63 25.97 25.98z"/><path d="m413.43 133-.26-.16c2.73.02 3.41.16.26.16z"/></g></g></g><path d="m297.251 45.328v41.301c0 4.382-3.552 7.935-7.935 7.935-4.382 0-7.935-3.552-7.935-7.935v-41.301c0-4.382 3.552-7.935 7.935-7.935 4.383 0 7.935 3.552 7.935 7.935z" fill="#b6e337"/><path d="m412.37 115.361v41.301c0 4.382-3.552 7.935-7.935 7.935-4.382 0-7.935-3.553-7.935-7.935v-41.301c0-4.382 3.552-7.935 7.935-7.935 4.383 0 7.935 3.553 7.935 7.935z" fill="#b6e337"/><path d="m229.4 1.37v15.94c0 4.39-3.55 7.94-7.94 7.94-2.19 0-4.17-.89-5.61-2.32-1.43-1.44-2.32-3.43-2.32-5.62v-13.8c5.24-.87 10.53-1.59 15.87-2.14z" fill="#b6e337"/><path d="m196.39 6.99v31.66c0 4.38-3.55 7.93-7.94 7.93-2.19 0-4.17-.89-5.61-2.32-1.43-1.44-2.32-3.42-2.32-5.61v-27.33c5.22-1.61 10.51-3.06 15.87-4.33z" fill="#ffeb98"/><g fill="#b6e337"><path d="m196.389 60.603v11.31c0 4.382-3.552 7.935-7.935 7.935-4.382 0-7.935-3.552-7.935-7.935v-11.31c0-4.382 3.552-7.935 7.935-7.935 4.382 0 7.935 3.552 7.935 7.935z"/><path d="m229.398 39.268v6.696c0 4.382-3.552 7.935-7.935 7.935-4.382 0-7.935-3.552-7.935-7.935v-6.696c0-4.382 3.552-7.935 7.935-7.935 4.383 0 7.935 3.552 7.935 7.935z"/><path d="m229.398 67.918v20.715c0 4.382-3.552 7.935-7.935 7.935-4.382 0-7.935-3.552-7.935-7.935v-20.715c0-4.382 3.552-7.935 7.935-7.935 4.383 0 7.935 3.552 7.935 7.935z"/><path d="m331.372 74.192v20.715c0 4.382-3.552 7.935-7.935 7.935-4.382 0-7.935-3.552-7.935-7.935v-20.715c0-4.382 3.552-7.935 7.935-7.935 4.382 0 7.935 3.553 7.935 7.935z"/><path d="m147.96 23.85v14.8c0 4.38-3.55 7.93-7.94 7.93-2.19 0-4.17-.89-5.61-2.32-1.43-1.44-2.32-3.42-2.32-5.61v-6.71c5.18-2.87 10.47-5.57 15.87-8.09z"/></g><path d="m297.251 111.518v16.559c0 4.382-3.552 7.935-7.935 7.935-4.382 0-7.935-3.552-7.935-7.935v-16.559c0-4.382 3.552-7.935 7.935-7.935 4.383 0 7.935 3.552 7.935 7.935z" fill="#ffeb98"/><path d="m363.124 83.814v40.628c0 4.382-3.552 7.935-7.935 7.935-4.382 0-7.935-3.553-7.935-7.935v-40.628c0-4.382 3.552-7.935 7.935-7.935 4.383 0 7.935 3.553 7.935 7.935z" fill="#ffeb98"/></g><g><g><path d="m75.017 161.111h-1.174c-5.201 0-9.418-4.216-9.418-9.417v-1.174h-6.713v1.174c0 5.201-4.216 9.417-9.418 9.417h-1.174v6.713h1.174c5.201 0 9.418 4.216 9.418 9.418v1.174h6.713v-1.174c0-5.201 4.216-9.418 9.418-9.418h1.174z" fill="#fff"/></g></g><g><g><path d="m186.917 103.931h-.946c-4.189 0-7.585-3.396-7.585-7.585v-.946h-5.406v.946c0 4.189-3.396 7.585-7.585 7.585h-.946v5.406h.946c4.189 0 7.585 3.396 7.585 7.585v.946h5.406v-.946c0-4.189 3.396-7.585 7.585-7.585h.946z" fill="#fff"/></g></g><g><g><path d="m481.39 227.03h-.946c-4.189 0-7.585-3.396-7.585-7.585v-.945h-5.406v.946c0 4.189-3.396 7.585-7.585 7.585h-.946v5.406h.946c4.189 0 7.585 3.396 7.585 7.585v.946h5.406v-.946c0-4.189 3.396-7.585 7.585-7.585h.946z" fill="#fff"/></g></g><g><g><path d="m278.592 173.805h-1.524c-6.753 0-12.227-5.474-12.227-12.227v-1.524h-8.716v1.524c0 6.753-5.474 12.227-12.227 12.227h-1.525v8.716h1.525c6.753 0 12.227 5.474 12.227 12.227v1.525h8.716v-1.525c0-6.753 5.474-12.227 12.227-12.227h1.524z" fill="#fff"/></g></g></g></g></svg>