<svg id="Capa_1" enable-background="new 0 0 512 512" height="512" viewBox="0 0 512 512" width="512" xmlns="http://www.w3.org/2000/svg"><g><path d="m503.84 191.65v.01l-21.05 100.47c-5.51 26.33-16.12 51.05-30.97 72.87-14.84 21.83-33.92 40.78-56.38 55.59-80.74 53.23-187.77 42.44-256.26-25.84l-139.18-138.75c0-46.22 12.25-89.57 33.68-127 44.12-77.07 127.16-129 222.32-129s178.2 51.93 222.32 129c11.12 19.43 19.77 40.46 25.52 62.65z" fill="#4e689b"/><g><path d="m503.84 191.65-21.05 100.48c-5.51 26.33-16.12 51.05-30.97 72.87-14.84 21.83-33.92 40.78-56.38 55.59-80.74 53.23-187.77 42.44-256.26-25.84l-139.18-138.75c0-46.22 12.25-89.57 33.68-127 44.12 77.07 127.16 129 222.32 129s178.2-51.93 222.32-129c11.13 19.43 19.78 40.46 25.52 62.65z" fill="#374c81"/></g><g><path d="m512 256c0 22.38-2.87 44.09-8.27 64.78-.017.066-.034.132-.052.198-2.982 11.387-13.37 19.262-25.141 19.262h-77.127l45.75-45.75c2.71-2.71 6.39-4.24 10.22-4.24 3.99 0 7.6-1.62 10.22-4.23 2.61-2.62 4.23-6.23 4.23-10.22v-33.29c0-12.08 4.8-23.66 13.34-32.19l18.67-18.67c5.33 20.56 8.16 42.12 8.16 64.35z" fill="#dff7fd"/><path d="m512 256c0 22.38-2.87 44.09-8.27 64.78-.017.066-.034.132-.052.198-2.982 11.387-13.37 19.262-25.141 19.262h-37.007l25.05-25.05c2.658-2.658 6.247-4.286 10.006-4.232 4.085.059 7.777-1.572 10.444-4.228 2.61-2.62 4.23-6.23 4.23-10.22v-33.307c0-12.071 4.795-23.647 13.33-32.183l5.59-5.59c1.2 10.02 1.82 20.22 1.82 30.57z" fill="#c5f2f9"/><path d="m127.5 291.47v41.13l-119.23-11.82c-1.8-6.9-3.32-13.92-4.54-21.04-1.46-8.42-2.5-16.99-3.1-25.68-.41-5.8-.62-11.67-.63-17.58h46.25c8.52 0 16.69 2.52 22.72 7.01l13.24 9.86c5.26 3.92 12.4 6.12 19.84 6.12h9.34c8.9 0 16.11 5.37 16.11 12z" fill="#dff7fd"/><path d="m127.5 312.73v19.87l-119.23-11.82c-1.8-6.9-3.32-13.92-4.54-21.04-1.08-6.24-1.93-12.56-2.55-18.96h26.2c8.52 0 16.69 2.52 22.72 7.01l13.24 9.86c5.26 3.92 12.4 6.12 19.84 6.12h32.28c6.65 0 12.04 4.01 12.04 8.96z" fill="#c5f2f9"/><path d="m503.73 320.78c-6.07 23.28-15.34 45.27-27.31 65.47-7.23 12.22-15.45 23.78-24.56 34.58l-53.59 25.05c-89.25 41.71-192.78 39.8-280.43-5.17l-70.27-36.06c-4.04-5.65-7.85-11.47-11.43-17.45-12.24-20.46-21.7-42.77-27.87-66.42z" fill="#fff"/><path d="m503.73 320.78c-6.07 23.28-15.34 45.27-27.31 65.47-7.23 12.22-15.45 23.78-24.56 34.58l-53.59 25.05c-45.08 21.07-93.8 31.01-142.27 29.88v-154.98z" fill="#dff7fd"/><path d="m451.86 420.83c-46.94 55.75-117.26 91.17-195.86 91.17-4.91 0-9.78-.14-14.62-.42-79.92-4.5-150.05-45.66-193.81-106.93l208.43 8.34z" fill="#dff7fd"/><path d="m451.86 420.83c-46.94 55.75-117.26 91.17-195.86 91.17v-99.01z" fill="#c5f2f9"/><g><path d="m339.9 276.06v44.72h-167.8v-44.78c0-4.31.32-8.55.96-12.68 1.74-11.45 5.8-22.15 11.69-31.59.77-1.24 1.58-2.45 2.41-3.65 2.28-3.27 4.79-6.37 7.51-9.28 1.21-1.3 2.47-2.55 3.76-3.77 14.99-14.16 35.2-22.84 57.45-22.88h.12c.77 0 1.53.01 2.29.03 23.29.63 44.21 10.74 59.04 26.62 3.71 3.97 7.03 8.3 9.92 12.93 2.32 3.72 4.35 7.62 6.07 11.7 1.77 4.19 3.21 8.55 4.28 13.05.54 2.25.99 4.53 1.34 6.84.64 4.15.96 8.41.96 12.74z" fill="#fff"/><path d="m339.9 276.06v44.72h-126.26v-47.28c0-3.44.17-6.84.5-10.18.1-1.1.22-2.2.36-3.29 1.29-10.09 4.01-19.62 7.9-28.3.78-1.73 1.6-3.43 2.47-5.09 1.42-2.72 2.96-5.33 4.62-7.84 1.32-2.02 2.72-3.97 4.18-5.83 6.89-8.79 15.24-15.9 24.62-20.79 23.29.63 44.21 10.74 59.04 26.62 3.71 3.97 7.03 8.3 9.92 12.93 5.89 9.44 9.95 20.14 11.69 31.59.64 4.15.96 8.41.96 12.74z" fill="#dff7fd"/><path d="m320.496 276.337h66.481v44.443h-105.108z" fill="#92eaff"/><path d="m339.904 276.057v44.723h-83.904v-128.629c24.204 0 46.017 10.25 61.329 26.646 3.709 3.969 7.036 8.299 9.923 12.931 5.886 9.442 9.948 20.137 11.691 31.594.632 4.152.961 8.405.961 12.735z" fill="#c5f2f9"/></g><path d="m172.1 276h24.77v13.05h-24.77z" fill="#d0f6ff"/><path d="m204.652 249.955h23.19v13.051h-23.19z" fill="#92eaff"/><path d="m224.693 296.469h23.19v13.051h-23.19z" fill="#c5f2f9"/><path d="m270.274 264.76h23.19v13.051h-23.19z" fill="#92eaff"/><path d="m276.77 217.125h23.19v13.051h-23.19z" fill="#92eaff"/><path d="m200.95 215.03v13.05h-13.79c2.28-3.27 4.79-6.37 7.51-9.28 1.21-1.3 2.47-2.55 3.76-3.77z" fill="#d0f6ff"/><path d="m337.6 256.48h-16.82v-13.05h12.54c1.77 4.19 3.21 8.55 4.28 13.05z" fill="#92eaff"/><path d="m297.952 293.915h23.19v13.051h-23.19z" fill="#92eaff"/><path d="m354.682 300.721h23.19v13.051h-23.19z" fill="#63dbfa"/><circle cx="423.717" cy="247.77" fill="#dff7fd" r="12.3"/><circle cx="113.854" cy="209.255" fill="#fff" r="12.3"/><circle cx="222.935" cy="150.519" fill="#fff" r="12.3"/><ellipse cx="297.726" cy="42.101" fill="#dff7fd" rx="12.3" ry="12.3" transform="matrix(.707 -.707 .707 .707 57.432 222.855)"/><circle cx="349.675" cy="192.782" fill="#dff7fd" r="12.3"/><circle cx="408.533" cy="100.893" fill="#fff" r="12.3"/></g><g><g><path d="m221.539 61.62h-1.524c-6.753 0-12.227-5.474-12.227-12.227v-1.524h-8.716v1.524c0 6.753-5.474 12.227-12.227 12.227h-1.525v8.716h1.525c6.753 0 12.227 5.474 12.227 12.227v1.525h8.716v-1.525c0-6.753 5.474-12.227 12.227-12.227h1.524z" fill="#fff"/></g></g><g><g><path d="m350.646 111.802h-1.524c-6.753 0-12.227-5.474-12.227-12.227v-1.524h-8.716v1.524c0 6.753-5.474 12.227-12.227 12.227h-1.525v8.716h1.525c6.753 0 12.227 5.474 12.227 12.227v1.525h8.716v-1.525c0-6.753 5.474-12.227 12.227-12.227h1.524z" fill="#fff"/></g></g><g><g><path d="m97.105 129.911h-1.524c-6.753 0-12.227-5.474-12.227-12.227v-1.524h-8.716v1.524c0 6.753-5.474 12.227-12.227 12.227h-1.525v8.716h1.525c6.753 0 12.227 5.474 12.227 12.227v1.525h8.716v-1.525c0-6.753 5.474-12.227 12.227-12.227h1.524z" fill="#fff"/></g></g><g><g><path d="m476.16 172.468h-1.524c-6.753 0-12.227-5.474-12.227-12.227v-1.524h-8.716v1.524c0 6.753-5.474 12.227-12.227 12.227h-1.525v8.716h1.525c6.753 0 12.227 5.474 12.227 12.227v1.525h8.716v-1.525c0-6.753 5.474-12.227 12.227-12.227h1.524z" fill="#fff"/></g></g></g></svg>