<svg id="Capa_1" enable-background="new 0 0 512 512" height="512" viewBox="0 0 512 512" width="512" xmlns="http://www.w3.org/2000/svg"><g><path d="m507.92 210.29c-130.79 157.13-371.92 157.5-503.2.79l-.66-.79c2.39-13.22 5.78-26.09 10.12-38.52 5.2-14.93 11.75-29.23 19.5-42.77 44.12-77.07 127.16-129 222.32-129s178.2 51.93 222.32 129c.86 1.51 1.71 3.03 2.54 4.56 11.7 21.42 20.42 44.71 25.61 69.3.52 2.46 1.01 4.94 1.45 7.43z" fill="#fff9bb"/><g><path d="m507.92 210.29c-146.87 118.99-356.97 119-503.85.01l-.01-.01c2.39-13.22 5.78-26.09 10.12-38.52 2.07.03 4.11.36 5.94 1.02 8.96 3.19 17.57 9.97 26.89 8 12.19-2.57 17.42-18.55 29.33-22.23 14.08-4.36 27.71 10.74 42.38 9.34 11.38-1.08 19.2-11.42 26.52-20.19 7.32-8.78 18.14-17.52 29.02-14.02 14.61 4.7 17.47 27.92 32.54 30.86 16.32 3.18 28.83-21.08 45.03-17.34 1.49.34 2.87.9 4.17 1.63 9.71 5.4 14.82 19.85 26.16 21.28 11.9 1.5 21.07-12.73 33.07-12.39 14.69.42 23.31 25.16 37.32 21.27 4.59-1.28 8.27-4.63 11.87-7.75 3.61-3.12 7.6-6.22 12.33-6.82 6.98-.88 13.25 3.83 19.8 6.38 29.02 11.29 52.31-25.02 76.09-34.91 2.6-1.08 5.38-1.88 8.22-2.34 11.7 21.42 20.42 44.71 25.61 69.3.52 2.46 1.01 4.94 1.45 7.43z" fill="#50ba4a"/><path d="m507.92 210.29c-73.44 59.5-162.68 89.25-251.92 89.25v-150.7c9.71 5.4 14.82 19.85 26.16 21.28 11.9 1.5 21.07-12.73 33.07-12.39 14.69.42 23.31 25.16 37.32 21.27 4.59-1.28 8.27-4.63 11.87-7.75 3.61-3.12 7.6-6.22 12.33-6.82 6.98-.88 13.25 3.83 19.8 6.38 29.02 11.29 52.31-25.02 76.09-34.91 2.6-1.08 5.38-1.88 8.22-2.34 11.7 21.42 20.42 44.71 25.61 69.3.52 2.46 1.01 4.94 1.45 7.43z" fill="#00a23e"/></g><path d="m512 256c0 14.91-1.28 29.53-3.73 43.74-1.22 7.12-2.74 14.14-4.55 21.04-3.18 12.2-7.24 24.05-12.11 35.48-1.38 3.25-2.83 6.47-4.35 9.66-4.66 9.78-9.92 19.23-15.74 28.28-.15.23-.3.47-.45.7h-299.48v-184.61h336.33c.65 3.54 1.21 7.1 1.7 10.68.37 2.73.71 5.48.99 8.24.84 7.98 1.3 16.08 1.38 24.27.01.84.01 1.68.01 2.52z" fill="#fff"/><path d="m512 256c0 14.91-1.28 29.53-3.73 43.74-1.22 7.12-2.74 14.14-4.55 21.04-3.18 12.2-7.24 24.05-12.11 35.48-1.38 3.25-2.83 6.47-4.35 9.66-4.66 9.78-9.92 19.23-15.74 28.28-.15.23-.3.47-.45.7h-215.07v-184.61h251.92c.65 3.54 1.21 7.1 1.7 10.68.37 2.73.71 5.48.99 8.24.84 7.98 1.3 16.08 1.38 24.27.01.84.01 1.68.01 2.52z" fill="#dff7fd"/><path d="m512 256c0 14.91-1.28 29.53-3.73 43.74-1.22 7.12-2.74 14.14-4.55 21.04-3.18 12.2-7.24 24.05-12.11 35.48-95.08-7.19-225.16-19.65-232.02-32.5-7.56-14.15 39.08-17.84 35.66-30.22-1.427-5.185-13.91-11.944-19.775-17.492-1.408-1.332-2.435-2.594-2.835-3.748-5.13-14.79 154.78-30.2 237.97-43.09.84 7.98 1.3 16.08 1.38 24.27.01.84.01 1.68.01 2.52z" fill="#92eaff"/><path d="m256 349.66c56.83 8.69 155.24 13.47 231.26 16.26-4.66 9.78-9.92 19.23-15.74 28.28 0 0-.01 0-.01.01-129.11 70.82-288.64 53.97-400.11-42.26l-68.81-59.41c-.87-6.09-1.53-12.26-1.96-18.48-.42-5.96-.63-11.99-.63-18.06 0-15.6 1.4-30.88 4.06-45.71h503.86c.65 3.54 1.21 7.1 1.7 10.68-70.47 10.01-197.42 18.28-253.62 30.56-14.03 3.06-42.16 9.8-22.45 28.61 2.53 2.41 5.59 4.18 8.23 6.46 2.65 2.29 4.95 5.33 5.12 8.82.56 11.41-16.47 18.98-24.48 23-6.14 3.08-16.49 8.62-12.02 17.03 3 5.64 20.12 10.31 45.6 14.21z" fill="#ffc0a4"/><path d="m509.62 220.97c-70.47 10.01-197.42 18.28-253.62 30.56v-41.24h251.92c.65 3.54 1.21 7.1 1.7 10.68z" fill="#ffa87a"/><path d="m487.26 365.92c-4.66 9.78-9.92 19.23-15.74 28.28 0 0-.01 0-.01.01-67.28 36.9-142.82 50-215.51 40.47v-85.02c56.83 8.69 155.24 13.47 231.26 16.26z" fill="#ffa87a"/><path d="m162.04 277.83c1.28 5.35-1.87 10.97-6.3 14.23-8.67 6.39-22.4 9.21-32.38 13.43-11.25 4.76-22.45 9.92-32.14 17.47-9.27 7.22-17.02 17.38-20.45 28.44l-68.18-58.86c-.87-6.09-1.53-12.26-1.96-18.48-.42-5.96-.63-11.99-.63-18.06 0-15.6 1.4-30.88 4.06-45.71h187.92c-21.9 7.56-44.75 13.06-67.06 19.79-6.38 1.92-13.93 5.18-14.64 11.8-.39 3.69 1.7 7.3 4.54 9.69 2.85 2.39 6.38 3.78 9.84 5.13 7.45 2.91 14.9 5.81 22.34 8.72 3.2 1.25 6.6 2.72 9.39 4.73 2.73 1.96 4.86 4.43 5.65 7.68z" fill="#f99568"/><path d="m290.07 444.83c-83.24 3.55-167.12-18.05-239.88-64.38l-26.56-16.91c-6.33-13.64-11.49-27.94-15.36-42.76-1.8-6.9-3.32-13.92-4.54-21.04-.41-2.39-.79-4.79-1.14-7.2 30.6-4.98 63.53-8.53 81.17-4.75 33.6 7.2 170.86 125.99 206.31 157.04z" fill="#50ba4a"/><path d="m471.52 394.2c-7.83 12.2-16.68 23.69-26.41 34.35-46.66 51.1-113.74 83.22-188.32 83.45h-.79c-74.9 0-142.29-32.17-189.11-83.45-1.74-1.9-3.44-3.83-5.12-5.78-12.31-14.32-23.06-30.01-31.98-46.83-2.16-4.07-4.22-8.2-6.16-12.4 73.1 32.15 152 47.91 232.37 50.85 71.71 2.63 144.58-4.95 215.52-20.19z" fill="#b6e337"/><path d="m471.52 394.2c-7.83 12.2-16.68 23.69-26.41 34.35-46.66 51.1-113.74 83.22-188.32 83.45h-.79v-97.61c71.71 2.63 144.58-4.95 215.52-20.19z" fill="#6cdc2d"/><g fill="#53af17"><path d="m81.772 401.637c0 3.721-3.016 6.737-6.737 6.737s-6.737-3.016-6.737-6.737 3.016-6.737 6.737-6.737 6.737 3.016 6.737 6.737z"/><ellipse cx="102.093" cy="436.325" rx="8.7" ry="8.7" transform="matrix(.707 -.707 .707 .707 -278.626 199.987)"/><path d="m155.424 420.078c0 3.721-3.016 6.737-6.737 6.737s-6.737-3.016-6.737-6.737 3.016-6.737 6.737-6.737 6.737 3.016 6.737 6.737z"/><path d="m243.295 426.39c0 3.721-3.016 6.737-6.737 6.737s-6.737-3.017-6.737-6.737c0-3.721 3.016-6.737 6.737-6.737s6.737 3.016 6.737 6.737z"/><path d="m206.352 442.199c0 3.721-3.016 6.737-6.737 6.737s-6.737-3.016-6.737-6.737 3.016-6.737 6.737-6.737 6.737 3.016 6.737 6.737z"/></g><circle cx="307.502" cy="483.079" fill="#00a23e" r="6.737"/><path d="m336.389 429.817c0 3.721-3.016 6.737-6.737 6.737s-6.737-3.016-6.737-6.737 3.016-6.737 6.737-6.737 6.737 3.016 6.737 6.737z" fill="#00a23e"/><path d="m430.838 429.817c0 3.721-3.016 6.737-6.737 6.737s-6.737-3.016-6.737-6.737 3.016-6.737 6.737-6.737 6.737 3.016 6.737 6.737z" fill="#00a23e"/><ellipse cx="163.429" cy="458.334" fill="#53af17" rx="9.397" ry="9.397" transform="matrix(.23 -.973 .973 .23 -320.192 512.087)"/><ellipse cx="282.038" cy="453.595" fill="#00a23e" rx="9.398" ry="9.397" transform="matrix(.924 -.383 .383 .924 -152.114 142.459)"/><ellipse cx="372.503" cy="458.334" fill="#00a23e" rx="9.397" ry="9.398" transform="matrix(.16 -.987 .987 .16 -139.582 752.609)"/><ellipse cx="236.558" cy="485.09" fill="#53af17" rx="9.397" ry="9.397" transform="matrix(.23 -.973 .973 .23 -289.906 603.868)"/><g><path d="m294.814 115.766c0-.078-.006-.154-.006-.232 0-14.204 11.514-25.718 25.718-25.718 3.374 0 6.594.656 9.546 1.838 5.703-10.217 16.615-17.13 29.147-17.13 16.274 0 29.819 11.655 32.763 27.071.878-.126 1.774-.194 2.686-.194 8.848 0 16.262 6.125 18.243 14.365z" fill="#ffeb98"/><path d="m319.908 115.766c0-.045-.003-.089-.003-.133 0-8.168 6.621-14.788 14.789-14.788 1.94 0 3.792.377 5.489 1.057 3.279-5.875 9.554-9.85 16.76-9.85 9.358 0 17.147 6.702 18.84 15.567.505-.072 1.02-.112 1.545-.112 5.088 0 9.351 3.522 10.49 8.26h-67.91z" fill="#f9e073"/></g><g><path d="m191.337 48.829c-.001-.078-.006-.154-.006-.232 0-14.204 11.515-25.718 25.718-25.718 3.374 0 6.594.656 9.546 1.838 5.703-10.217 16.615-17.13 29.147-17.13 16.274 0 29.819 11.655 32.763 27.071.878-.126 1.774-.194 2.686-.194 8.848 0 16.262 6.125 18.243 14.365z" fill="#ffeb98"/><path d="m216.43 48.829c0-.045-.003-.089-.003-.133 0-8.168 6.621-14.789 14.788-14.789 1.94 0 3.792.377 5.489 1.057 3.279-5.875 9.554-9.85 16.76-9.85 9.358 0 17.147 6.702 18.84 15.567.505-.072 1.02-.112 1.544-.112 5.088 0 9.351 3.522 10.49 8.261h-67.908z" fill="#f9e073"/></g><g><path d="m89.627 110.537c0-.058-.004-.115-.004-.173 0-10.602 8.595-19.197 19.197-19.197 2.519 0 4.922.49 7.126 1.372 4.257-7.626 12.402-12.787 21.757-12.787 12.148 0 22.258 8.7 24.456 20.207.655-.094 1.324-.145 2.005-.145 6.605 0 12.138 4.572 13.617 10.723z" fill="#ffeb98"/><path d="m108.357 110.537c0-.033-.002-.066-.002-.1 0-6.097 4.942-11.039 11.039-11.039 1.448 0 2.83.282 4.098.789 2.448-4.385 7.132-7.353 12.511-7.353 6.985 0 12.799 5.002 14.063 11.619.377-.054.761-.083 1.153-.083 3.798 0 6.98 2.629 7.83 6.166h-50.692z" fill="#f9e073"/></g><g><path d="m433.682 306.074h-12.658c-1.383 0-2.505 1.122-2.505 2.505 0 1.383 1.122 2.505 2.505 2.505h45.43c1.384 0 2.505-1.122 2.505-2.505 0-1.383-1.121-2.505-2.505-2.505z" fill="#63dbfa"/><path d="m467.262 314.78h-12.658c-1.384 0-2.505 1.122-2.505 2.505 0 1.384 1.121 2.505 2.505 2.505h13.399c1.384 0 2.505-1.121 2.505-2.505 0-1.383-1.121-2.505-2.505-2.505z" fill="#dff7fd"/><path d="m474.339 299.494c-1.92 1.31-3.96 2.48-6.09 3.48-4.44 2.09-9.32 3.1-14.23 3.1h-18.72c-4.47 0-8.92-.8-13.02-2.58-2.55-1.11-4.97-2.45-7.24-4z" fill="#a44e3e"/><path d="m474.339 299.494c-1.92 1.31-3.96 2.48-6.09 3.48-4.44 2.09-9.32 3.1-14.23 3.1h-14.03c-2.23 0-4.46-.8-6.51-2.58-1.27-1.11-2.48-2.45-3.62-4z" fill="#913d31"/><path d="m474.339 299.494c-1.92 1.31-3.96 2.48-6.09 3.48-4.44 2.09-9.32 3.1-14.23 3.1h-9.33v-6.58z" fill="#77281f"/><path d="m444.69 299.494v-46.364l21.212 35.359z" fill="#de1263"/></g></g></svg>