<svg id="Capa_1" enable-background="new 0 0 512 512" height="512" viewBox="0 0 512 512" width="512" xmlns="http://www.w3.org/2000/svg"><g><path d="m512 256c0 14.91-1.28 29.53-3.73 43.74-1.22 7.12-2.74 14.14-4.55 21.04-2.97 11.38-6.69 22.46-11.13 33.16-140.35 93.77-325.64 84.13-455.52-23.68l-32.75-27.19c-.2-1.11-.4-2.22-.59-3.33-1.46-8.42-2.5-16.99-3.1-25.68-.42-5.96-.63-11.99-.63-18.06 0-46.22 12.25-89.57 33.68-127 44.12-77.07 127.16-129 222.32-129s178.2 51.93 222.32 129c12.98 22.67 22.59 47.52 28.15 73.86 3.46 16.36 5.35 33.28 5.52 50.62.01.84.01 1.68.01 2.52z" fill="#fff9bb"/><g><path d="m512 256c0 22.38-2.87 44.09-8.27 64.78-2.96 11.38-6.7 22.46-11.14 33.16-140.35 93.77-325.64 84.13-455.52-23.68l-32.73-27.17c-2.85-15.26-4.34-31-4.34-47.09 0-46.22 12.25-89.57 33.68-127 44.12 77.07 127.16 129 222.32 129s178.2-51.93 222.32-129c21.43 37.43 33.68 80.78 33.68 127z" fill="#fff297"/></g><g><g><path d="m492.59 353.94c-.02.04-.03.08-.05.12-1.51 3.64-3.1 7.25-4.78 10.8h-456.98l6.8-27.54c6.84-16.53 15.03-32.5 24.46-47.69 4.21-6.78 10.99-11.59 18.8-13.2 15.97-3.31 29.86-2.25 40.44-16.85 7.17-9.9 13.07-21.08 23.94-27.56 10.25-6.12 23.77-2.97 34.95-8.06 14.72-6.71 21.99-20.08 30.4-32.96 6.5-9.94 19.11-23.94 30.69-27.38 4.8-1.43 9.81-1.34 14.74-.38 4.16.81 8.27 2.23 12.15 3.9 20.52 8.81 38.04 24.46 49.1 43.86 9.37 16.43 12.36 36.81 19.16 54.45 4.19 10.87 9.52 22.92 20.43 26.99 15.49-10.28 36.49-16.5 54.56-12.12 10.65 2.58 19.33 10.09 27.37 17.55 19 17.64 36.99 36.37 53.82 56.07z" fill="#ed784a"/><path d="m492.59 353.94c-.02.04-.03.08-.05.12-1.51 3.64-3.1 7.25-4.78 10.8h-231.76v-201.62c4.16.81 8.27 2.23 12.15 3.9 20.52 8.81 38.04 24.46 49.1 43.86 9.37 16.43 12.36 36.81 19.16 54.45 4.19 10.87 9.52 22.92 20.43 26.99 15.49-10.28 36.49-16.5 54.56-12.12 10.65 2.58 19.33 10.09 27.37 17.55 19 17.64 36.99 36.37 53.82 56.07z" fill="#d85e39"/><path d="m480.75 378.66c-2.25 4.13-4.62 8.19-7.1 12.18h-402c-.89-15.58 27.87-69.37 40.05-73.52 12.17-4.15 25.69-5.03 36.5-12.01 10.46-6.74 17.13-18.46 28.02-24.47 9.57-5.28 21.26-5.52 30.91-10.64 9.5-5.05 15.95-14.21 22.89-22.43 6.87-8.14 15.41-16.06 25.98-17.24.1-.02.21-.03.31-.04 15.9-1.59 24.75 18.79 32.03 33.03 7.28 14.23 12.22 29.72 21.19 42.95s23.46 24.32 39.42 23.35c6.47-.39 10.51-.78 15.8-4.52 5.29-3.73 9.95-8.45 15.76-11.31 10.84-5.34 24.15-3.28 34.82 2.38 10.68 5.66 19.26 14.5 27.66 23.19 12.59 13.03 25.18 26.07 37.76 39.1z" fill="#d85e39"/><path d="m480.75 378.66c-2.25 4.13-4.62 8.19-7.1 12.18h-217.65v-160.31c.1-.02.21-.03.31-.04 15.9-1.59 24.75 18.79 32.03 33.03 7.28 14.23 12.22 29.72 21.19 42.95s23.46 24.32 39.42 23.35c6.47-.39 10.51-.78 15.8-4.52 5.29-3.73 9.95-8.45 15.76-11.31 10.84-5.34 24.15-3.28 34.82 2.38 10.68 5.66 19.26 14.5 27.66 23.19 12.59 13.03 25.18 26.07 37.76 39.1z" fill="#c94d31"/><path d="m212.767 305.923-63.983 15.832c-7.379 1.826-12.562 8.447-12.562 16.048v29.839h127.231l-32.542-54.182c-3.738-6.223-11.097-9.28-18.144-7.537z" fill="#ed784a"/><path d="m297.326 368.746v-29.406c0-7.995 6.481-14.476 14.476-14.476h68.141l63.67-40.134c5.285-3.331 12.171-2.56 16.589 1.857 5.223 5.223 5.223 13.691 0 18.914l-63.246 63.246h-99.63z" fill="#f99568"/><path d="m492.54 354.06c-11.45 27.6-27.59 52.76-47.43 74.49-46.66 51.1-113.74 83.22-188.32 83.45h-.79c-74.9 0-142.29-32.17-189.11-83.45-14.46-15.84-26.96-33.5-37.1-52.61-9.2-17.3-16.46-35.78-21.52-55.16-1.52-5.82-2.84-11.73-3.95-17.71l122.18 42.44c16.29 5.66 33.42 8.55 50.67 8.55z" fill="#ffa87a"/><path d="m492.54 354.06c-4.63 11.15-10.02 21.9-16.12 32.19-44.57 75.28-126.6 125.75-220.42 125.75v-157.94z" fill="#f99568"/><path d="m456.25 415.48c-21.26 26.67-47.74 49-77.89 65.44-36.35 19.81-78.04 31.08-122.36 31.08-78.16 0-148.14-35.03-195.09-90.24h88.66c23.96 0 46.16-14.11 68.72-23.43 5.58-2.3 11.94-1.71 16.96 1.63 6.61 4.39 13.7 8.94 20.75 13.47 5.16 3.32 10.3 6.63 15.21 9.87 6.1 4.02 13.99 3.99 20.08-.05 13.27-8.8 26.18-16.53 39.57-25.68 3.04-2.09 6.66-3.17 10.35-3.16 9.18.03 18.44.73 27.57.39h6.77c4.81 0 9.42 1.91 12.82 5.31l10.06 10.06c3.4 3.4 8.01 5.31 12.82 5.31z" fill="#f99568"/><path d="m456.25 415.48c-21.26 26.67-47.74 49-77.89 65.44-36.35 19.81-78.04 31.08-122.36 31.08v-98.57c5.16 3.32 10.3 6.63 15.21 9.87 6.1 4.02 13.99 3.99 20.08-.05 13.27-8.8 26.18-16.53 39.57-25.68 3.04-2.09 6.66-3.17 10.35-3.16 9.18.03 18.44.73 27.57.39h6.77c4.81 0 9.42 1.91 12.82 5.31l10.06 10.06c3.4 3.4 8.01 5.31 12.82 5.31z" fill="#ed784a"/><path d="m240.52 511.53c-71.88-4.28-135.78-38.23-179.61-89.77h88.66c23.96 0 46.16-14.11 68.72-23.43z" fill="#ed784a"/><path d="m456.25 415.48c-21.26 26.67-47.74 49-77.89 65.44l10.01-80.81 10.06 10.06c3.4 3.4 8.01 5.31 12.82 5.31z" fill="#d85e39"/><path d="m330.86 397.57-30.46 92.43-29.19-66.7c6.1 4.02 13.99 3.99 20.08-.05 13.27-8.8 26.18-16.53 39.57-25.68z" fill="#d85e39"/><g><path d="m138.411 315.506-.23 1.943c-.955 8.182-7.869 14.323-16.101 14.323-1.515 0-2.766 1.185-2.864 2.7h-.017l-1.021 17.072h-18.455l-1.63-27.229c-.115-1.794-1.597-3.194-3.391-3.194-9.713 0-17.879-7.277-19.015-16.924l-.263-2.288c-.593-4.955 3.26-9.302 8.231-9.334 5.054-.016 8.89 4.61 8.297 9.614l-.099.873c-.247 2.008.659 3.869 2.157 4.955 1.251.938 3.013-.033 3.013-1.564v-.099l-.379-6.108-1.284-21.616c-.477-7.869 5.597-14.866 13.5-14.932 7.902-.049 14.191 6.602 13.713 14.471l-2.453 41.124c-.066 1.333 1.465 2.206 2.535 1.399 1.284-.922 2.041-2.502 1.844-4.198l-.099-.741c-.494-4.247 2.749-8.149 7.029-8.133 4.199.017 7.476 3.704 6.982 7.886z" fill="#b6e337"/><path d="m138.411 315.506-.23 1.943c-.955 8.182-7.869 14.323-16.101 14.323-1.515 0-2.766 1.185-2.864 2.7h-.017l-1.021 17.072h-9.318v-87.845c7.902-.049 14.191 6.602 13.713 14.471l-2.453 41.124c-.066 1.333 1.465 2.206 2.535 1.399 1.284-.922 2.041-2.502 1.844-4.198l-.099-.741c-.494-4.247 2.749-8.149 7.029-8.133 4.199.016 7.476 3.703 6.982 7.885z" fill="#6cdc2d"/></g><g><path d="m211.614 360.673-.215 1.814c-.892 7.64-7.348 13.374-15.034 13.374-1.414 0-2.582 1.107-2.675 2.521h-.015l-.953 15.941h-17.232l-1.522-25.425c-.108-1.676-1.491-2.982-3.167-2.982-9.069 0-16.694-6.794-17.755-15.802l-.246-2.137c-.553-4.627 3.044-8.685 7.686-8.716 4.719-.015 8.301 4.304 7.747 8.977l-.092.815c-.231 1.875.615 3.612 2.014 4.627 1.168.876 2.813-.031 2.813-1.46v-.092l-.354-5.703-1.199-20.183c-.446-7.348 5.227-13.881 12.605-13.942 7.378-.046 13.251 6.164 12.805 13.512l-2.29 38.399c-.061 1.245 1.368 2.06 2.367 1.307 1.199-.861 1.906-2.336 1.722-3.92l-.092-.692c-.461-3.966 2.567-7.609 6.564-7.594 3.92.013 6.979 3.456 6.518 7.361z" fill="#43af3e"/><path d="m211.614 360.673-.215 1.814c-.892 7.64-7.348 13.374-15.034 13.374-1.414 0-2.582 1.107-2.675 2.521h-.015l-.953 15.941h-8.7v-82.024c7.378-.046 13.251 6.164 12.805 13.512l-2.29 38.399c-.061 1.245 1.368 2.06 2.367 1.307 1.199-.861 1.906-2.336 1.722-3.92l-.092-.692c-.461-3.966 2.567-7.609 6.564-7.594 3.918.014 6.977 3.457 6.516 7.362z" fill="#00a23e"/></g><g><path d="m418.319 316.466-.335 2.901c-1.428 12.174-11.739 21.347-23.992 21.347-2.265 0-4.14 1.763-4.285 4.028l-1.529 25.654h-17.397l-4.14-69.118c-.446-7.421 5.479-13.681 12.922-13.636 7.443.056 13.167 6.651 12.721 14.071l-1.216 20.365c-.123 2.009 2.165 3.303 3.783 2.109 1.897-1.384 3.035-3.727 2.734-6.249l-.134-1.105c-.737-6.327 4.095-12.152 10.467-12.13 6.272.035 11.137 5.514 10.401 11.763z" fill="#43af3e"/><path d="m418.319 316.466-.335 2.901c-1.428 12.174-11.739 21.347-23.992 21.347-2.265 0-4.14 1.763-4.285 4.028l-1.529 25.654h-8.615v-82.754c7.443.056 13.167 6.651 12.721 14.071l-1.216 20.365c-.123 2.009 2.165 3.303 3.783 2.109 1.897-1.384 3.035-3.727 2.734-6.249l-.134-1.105c-.737-6.327 4.095-12.152 10.467-12.13 6.272.035 11.137 5.514 10.401 11.763z" fill="#00a23e"/></g><g><path d="m437.985 377.792h24.567l3.18-53.181c.539-8.96-6.373-16.923-15.36-16.991-8.987-.054-16.142 7.505-15.603 16.465z" fill="#b6e337"/><path d="m462.551 377.792 3.18-53.181c.539-8.96-6.373-16.923-15.36-16.991v70.171h12.18z" fill="#6cdc2d"/></g></g><g><path d="m40.933 181.486c0-.071-.005-.142-.005-.213 0-13.057 10.585-23.642 23.642-23.642 3.102 0 6.061.604 8.776 1.69 5.243-9.392 15.274-15.747 26.794-15.747 14.96 0 27.412 10.714 30.119 24.886.807-.116 1.631-.179 2.469-.179 8.134 0 14.949 5.631 16.77 13.206h-108.565z" fill="#ffeb98"/><path d="m64.001 181.486c0-.041-.003-.081-.003-.123 0-7.508 6.087-13.595 13.595-13.595 1.784 0 3.486.347 5.046.972 3.015-5.401 8.783-9.055 15.407-9.055 8.603 0 15.763 6.161 17.319 14.31.464-.066.938-.103 1.42-.103 4.677 0 8.596 3.238 9.644 7.594z" fill="#f9e073"/></g><g><path d="m187.01 76.714c0-.071-.005-.142-.005-.213 0-13.057 10.585-23.642 23.642-23.642 3.102 0 6.061.604 8.776 1.69 5.243-9.392 15.274-15.747 26.794-15.747 14.961 0 27.412 10.714 30.119 24.886.807-.116 1.631-.179 2.469-.179 8.134 0 14.949 5.631 16.77 13.206h-108.565z" fill="#ffeb98"/><path d="m210.078 76.714c0-.041-.003-.081-.003-.123 0-7.508 6.087-13.595 13.595-13.595 1.784 0 3.486.347 5.046.972 3.015-5.401 8.783-9.055 15.408-9.055 8.603 0 15.763 6.161 17.319 14.31.464-.066.938-.103 1.42-.103 4.677 0 8.596 3.238 9.643 7.594z" fill="#f9e073"/></g><g><path d="m356.641 200.443c0-.071-.005-.142-.005-.213 0-13.057 10.585-23.642 23.642-23.642 3.102 0 6.061.604 8.776 1.69 5.243-9.392 15.274-15.747 26.794-15.747 14.961 0 27.412 10.714 30.119 24.886.807-.116 1.631-.179 2.469-.179 8.134 0 14.949 5.631 16.77 13.206h-108.565z" fill="#ffeb98"/><path d="m379.709 200.443c0-.041-.003-.081-.003-.123 0-7.508 6.087-13.595 13.595-13.595 1.784 0 3.486.347 5.046.972 3.015-5.401 8.783-9.055 15.407-9.055 8.603 0 15.763 6.161 17.319 14.31.464-.066.938-.103 1.42-.103 4.677 0 8.596 3.238 9.643 7.594z" fill="#f9e073"/></g></g><path d="m450.25 476.54c.01 0 .01.01.02.01-.01.03-.01.05-.02.07z" fill="#b6e337"/></g></svg>