<svg id="Capa_1" enable-background="new 0 0 512 512" height="512" viewBox="0 0 512 512" width="512" xmlns="http://www.w3.org/2000/svg"><g><path d="m497.3 170.29c-113.45 146.07-339.71 126.95-427.04-36.09l-17.87-33.37c46.76-61.29 120.57-100.83 203.61-100.83 95.16 0 178.2 51.93 222.32 129 7.49 13.08 13.86 26.89 18.98 41.29z" fill="#92eaff"/><g><path d="m497.29 170.3c-72.68 93.58-191.67 119.35-290.76 82.91 16 3.15 32.55 4.79 49.47 4.79 95.16 0 178.2-51.93 222.32-129 7.49 13.09 13.86 26.9 18.97 41.3z" fill="#63dbfa"/></g><g><path d="m512 256c0 14.91-1.28 29.53-3.73 43.74-1.22 7.12-2.74 14.14-4.55 21.04-1.28 4.91-2.7 9.76-4.26 14.55h-486.93c-1.55-4.79-2.98-9.64-4.26-14.55-1.8-6.9-3.32-13.92-4.54-21.04-1.46-8.42-2.5-16.99-3.1-25.68-.42-5.96-.63-11.99-.63-18.06 0-46.22 12.25-89.57 33.68-127 5.62-9.82 11.87-19.23 18.71-28.17 13.51 4.87 24.91 15.54 30.39 28.85 15.5-16.23 40-15.94 58.67-3.49 8.36-20.41 34.33-33.34 55.49-27.1 21.16 6.23 35.61 29.79 31.58 51.48 8.17-4.39 17.99-6.44 27.48-5.89 4.13.22 8.2.95 12.04 2.19 12.66 4.09 23.5 13.51 29.31 25.48 9.09-11.68 22.46-14.78 37.23-13.73 14.76 1.06 28.75 9.86 36.09 22.72 7.3-10.91 24.41-15.69 37.1-12.36 12.7 3.33 22.65 15.24 23.66 28.33 7.22-12.1 32.07-10.85 41.3-.2 3.1-11.61 13.06-21.47 23.95-26.54.21-.1.41-.19.62-.28 3.74 10.55 6.82 21.43 9.17 32.57 3.46 16.36 5.35 33.28 5.52 50.62.01.84.01 1.68.01 2.52z" fill="#fff"/><path d="m512 256c0 14.91-1.28 29.53-3.73 43.74-1.22 7.12-2.74 14.14-4.55 21.04-1.28 4.91-2.7 9.76-4.26 14.55h-243.46v-190.65c4.13.22 8.2.95 12.04 2.19 12.66 4.09 23.5 13.51 29.31 25.48 9.09-11.68 22.46-14.78 37.23-13.73 14.76 1.06 28.75 9.86 36.09 22.72 7.3-10.91 24.41-15.69 37.1-12.36 12.7 3.33 22.65 15.24 23.66 28.33 7.22-12.1 32.07-10.85 41.3-.2 3.1-11.61 13.06-21.47 23.95-26.54.21-.1.41-.19.62-.28 3.48 9.81 6.38 19.9 8.65 30.22.19.78.35 1.57.52 2.35 3.46 16.36 5.35 33.28 5.52 50.62.01.84.01 1.68.01 2.52z" fill="#dff7fd"/><path d="m512 256c0 14.91-1.28 29.53-3.73 43.74-1.22 7.12-2.74 14.14-4.55 21.04-1.28 4.91-2.7 9.76-4.26 14.55-3.2 9.85-6.99 19.43-11.32 28.71h-464.28c-4.33-9.28-8.12-18.86-11.33-28.71-1.55-4.79-2.98-9.64-4.26-14.55-1.8-6.9-3.32-13.92-4.54-21.04-1.46-8.42-2.5-16.99-3.1-25.68-.42-5.96-.63-11.99-.63-18.06 0-41.15 9.71-80.02 26.97-114.46 17.41 2.57 33.57 12.81 43.29 27.5 9.19-9.32 19.46-14.85 32.55-15.03s26.18 4.98 35.63 14.04c5.35-15.68 21.97-26.55 38.15-22.97 16.18 3.57 28.27 20.39 26.51 36.87 10.8-3.84 22.13 1.12 28.55 10.61 6.76-5.91 15.51-10.35 24.35-11.17 3.76-.36 7.54-.06 11.19 1.06 12.24 3.75 22.23 14.13 25.5 26.5 8.25-14.77 26.56-22.35 43.33-20.07 16.78 2.27 31.52 15.53 35.54 31.97 2.95-9.06 11.59-15.06 21.06-16.13 9.47-1.08 19.11 2.67 26.34 8.89s12.21 14.72 15.53 23.66c3.74-9.12 10.92-16.58 20.51-18.86s20.21.32 27.66 6.78c2.67-11.81 12.17-19.92 23.29-24.68.19.78.35 1.57.52 2.35 3.46 16.36 5.35 33.28 5.52 50.62.01.84.01 1.68.01 2.52z" fill="#dff7fd"/><path d="m512 256c0 14.91-1.28 29.53-3.73 43.74-1.22 7.12-2.74 14.14-4.55 21.04-1.28 4.91-2.7 9.76-4.26 14.55-3.2 9.85-6.99 19.43-11.32 28.71h-232.14v-182.65c3.76-.36 7.54-.06 11.19 1.06 12.24 3.75 22.23 14.13 25.5 26.5 8.25-14.77 26.56-22.35 43.33-20.07 16.78 2.27 31.52 15.53 35.54 31.97 2.95-9.06 11.59-15.06 21.06-16.13 9.47-1.08 19.11 2.67 26.34 8.89s12.21 14.72 15.53 23.66c3.74-9.12 10.92-16.58 20.51-18.86s20.21.32 27.66 6.78c2.67-11.81 12.17-19.92 23.29-24.68.19.78.35 1.57.52 2.35 3.46 16.36 5.35 33.28 5.52 50.62.01.84.01 1.68.01 2.52z" fill="#c5f2f9"/><path d="m512 256c0 11.8-.8 23.41-2.35 34.79-.41 3-.87 5.99-1.38 8.95-1.22 7.12-2.74 14.14-4.55 21.04-1.28 4.91-2.7 9.76-4.26 14.55-1.98 6.11-4.2 12.11-6.62 18.01l-.01-.01c-119.78 38.21-248.47 28.11-359.51-25.88l122.68-76.24 21.45-13.33c5.4-3.36 12.37-2.7 17.05 1.6l24.48 22.52 110.17-70.64c5.35-3.44 12.34-2.88 17.07 1.36l65.74 58.85c.01.64.02 1.27.03 1.91.01.84.01 1.68.01 2.52z" fill="#7e7f92"/><path d="m512 256c0 11.8-.8 23.41-2.35 34.79-.41 3-.87 5.99-1.38 8.95-1.22 7.12-2.74 14.14-4.55 21.04-1.28 4.91-2.7 9.76-4.26 14.55-1.98 6.11-4.2 12.11-6.62 18.01l-.01-.01c-77.61 24.76-158.96 29.23-236.83 14.63v-116.75l21.45-13.33c5.4-3.36 12.37-2.7 17.05 1.6l24.48 22.52 110.17-70.64c5.35-3.44 12.34-2.88 17.07 1.36l65.74 58.85c.01.64.02 1.27.03 1.91.01.84.01 1.68.01 2.52z" fill="#6e6f83"/><path d="m509.65 290.79c-.41 3-.87 5.99-1.38 8.95-1.22 7.12-2.74 14.14-4.55 21.04-1.28 4.91-2.7 9.76-4.26 14.55-1.98 6.11-4.2 12.11-6.62 18.01l-.01-.01c-104.38 33.3-215.54 29.91-315.89-7.25l79.06-50.26 10.41-6.62c8.89-5.65 20.51-4.37 27.96 3.08l22.29 22.29 111.16-69.48c8.04-5.03 18.37-4.47 25.82 1.4 12.47 9.82 33.08 26.08 56.01 44.3z" fill="#6e6f83"/><path d="m509.65 290.79c-.41 3-.87 5.99-1.38 8.95-1.22 7.12-2.74 14.14-4.55 21.04-1.28 4.91-2.7 9.76-4.26 14.55-1.98 6.11-4.2 12.11-6.62 18.01l-.01-.01c-77.61 24.76-158.96 29.23-236.83 14.63v-72.14l10.41-6.62c8.89-5.65 20.51-4.37 27.96 3.08l22.29 22.29 111.16-69.48c8.04-5.03 18.37-4.47 25.82 1.4 12.47 9.82 33.08 26.08 56.01 44.3z" fill="#605f74"/><g><path d="m63.548 278.182h-11.182l.599-18.737.736-23.019h8.512l.737 23.019z" fill="#ec771b"/><path d="m63.548 278.182h-5.377v-41.756h4.042l.737 23.019z" fill="#c55732"/><path d="m58.171 236.426v23.019h-5.206l.736-23.019z" fill="#c55732"/><path d="m62.95 259.445h-4.779v-23.019h4.042z" fill="#a44e3e"/><g><path d="m75.538 243.752c-4.809 4.734-11.088 7.101-17.367 7.101-6.278 0-12.556-2.367-17.367-7.101-7.672-7.551-9.207-18.856-4.604-27.91 4.814-9.468 9.842-18.825 13.933-28.627l8.037-19.257 8.023 19.218c4.098 9.817 9.133 19.189 13.951 28.673 4.601 9.053 3.065 20.354-4.606 27.903z" fill="#43af3e"/><path d="m75.538 243.752c-4.809 4.734-11.088 7.101-17.367 7.101-2.978 0-5.957-2.367-8.24-7.101-3.69-7.654-4.388-19.165-2.093-28.278 3.191-12.673 6.018-25.727 8.638-38.953l1.695-8.563 8.023 19.218c4.098 9.817 9.133 19.189 13.951 28.673 4.6 9.053 3.064 20.354-4.607 27.903z" fill="#00a23e"/><path d="m75.538 243.752c-4.809 4.734-11.088 7.101-17.367 7.101v-82.895l8.023 19.218c4.098 9.817 9.133 19.189 13.951 28.673 4.6 9.053 3.064 20.354-4.607 27.903z" fill="#008839"/></g></g><g><path d="m123.831 303.77h-11.182l.599-18.737.736-23.019h8.512l.737 23.019z" fill="#ec771b"/><path d="m123.831 303.77h-5.377v-41.756h4.042l.737 23.019z" fill="#c55732"/><path d="m118.454 262.014v23.019h-5.206l.736-23.019z" fill="#c55732"/><path d="m123.233 285.033h-4.779v-23.019h4.042z" fill="#a44e3e"/><g><path d="m135.821 269.34c-4.809 4.734-11.088 7.101-17.367 7.101-6.278 0-12.556-2.367-17.367-7.101-7.672-7.551-9.207-18.857-4.604-27.91 4.814-9.468 9.842-18.825 13.933-28.627l8.037-19.257 8.023 19.218c4.098 9.817 9.133 19.189 13.951 28.673 4.601 9.053 3.065 20.354-4.606 27.903z" fill="#43af3e"/><path d="m135.821 269.34c-4.809 4.734-11.088 7.101-17.367 7.101-2.979 0-5.957-2.367-8.24-7.101-3.69-7.654-4.388-19.165-2.093-28.278 3.191-12.674 6.018-25.727 8.638-38.953l1.695-8.563 8.023 19.218c4.098 9.817 9.133 19.189 13.951 28.673 4.6 9.053 3.064 20.354-4.607 27.903z" fill="#00a23e"/><path d="m135.821 269.34c-4.809 4.734-11.088 7.101-17.367 7.101v-82.895l8.023 19.218c4.098 9.817 9.133 19.189 13.951 28.673 4.6 9.053 3.064 20.354-4.607 27.903z" fill="#008839"/></g></g><g><path d="m179.588 324.806h-11.182l.598-18.738.737-23.019h8.512l.736 23.019z" fill="#ec771b"/><path d="m179.588 324.806h-5.377v-41.757h4.042l.736 23.019z" fill="#c55732"/><path d="m174.211 283.049v23.019h-5.207l.737-23.019z" fill="#c55732"/><path d="m178.989 306.068h-4.778v-23.019h4.042z" fill="#a44e3e"/><g><path d="m191.577 290.376c-4.809 4.734-11.088 7.101-17.367 7.101-6.278 0-12.556-2.367-17.367-7.101-7.672-7.551-9.207-18.857-4.604-27.91 4.814-9.468 9.842-18.825 13.933-28.627l8.037-19.257 8.023 19.218c4.098 9.817 9.133 19.189 13.951 28.673 4.601 9.052 3.066 20.354-4.606 27.903z" fill="#43af3e"/><path d="m191.577 290.376c-4.809 4.734-11.088 7.101-17.367 7.101-2.979 0-5.957-2.367-8.24-7.101-3.69-7.654-4.388-19.165-2.093-28.278 3.191-12.673 6.018-25.727 8.638-38.953l1.695-8.563 8.023 19.218c4.098 9.817 9.133 19.189 13.951 28.673 4.6 9.052 3.065 20.354-4.607 27.903z" fill="#00a23e"/><path d="m191.577 290.376c-4.809 4.734-11.088 7.101-17.367 7.101v-82.895l8.023 19.218c4.098 9.817 9.133 19.189 13.951 28.673 4.6 9.052 3.065 20.354-4.607 27.903z" fill="#008839"/></g></g><path d="m492.83 353.33c-5.6 13.63-12.34 26.65-20.1 38.97-8.13 12.91-17.38 25.04-27.62 36.25-46.66 51.1-113.74 83.22-188.32 83.45h-.79c-74.9 0-142.29-32.17-189.11-83.45-14.46-15.84-26.96-33.5-37.1-52.61-4.31-8.1-8.19-16.46-11.61-25.05-3.91-9.75-7.22-19.8-9.91-30.11-1.8-6.9-3.32-13.92-4.54-21.04-1.46-8.42-2.5-16.99-3.1-25.68-.42-5.96-.63-11.99-.63-18.06 0-5.6.18-11.16.54-16.67 78.13 45.58 164.13 79.15 255.46 98.17 56.65 11.8 115.35 18 175.5 18 20.62 0 41.07-.73 61.33-2.17z" fill="#b6e337"/><path d="m492.83 353.33c-5.6 13.63-12.34 26.65-20.1 38.97-8.13 12.91-17.38 25.04-27.62 36.25-46.66 51.1-113.74 83.22-188.32 83.45h-.79v-174.5c56.65 11.8 115.35 18 175.5 18 20.62 0 41.07-.73 61.33-2.17z" fill="#6cdc2d"/><path d="m472.73 392.3c-8.13 12.91-17.38 25.04-27.62 36.25-2.64 2.89-5.34 5.72-8.11 8.48-46.16 46.15-109.85 74.75-180.21 74.97h-.79c-42.27 0-82.14-10.24-117.28-28.4-27.13-14-51.43-32.71-71.83-55.05-14.46-15.84-26.96-33.5-37.1-52.61-4.31-8.1-8.19-16.46-11.61-25.05 75.55 25.59 155.25 42.2 237.82 48.56 25.09 1.93 50.44 2.91 76.02 2.91h3.01c6.64-.02 13.27-.11 19.88-.27 8.59-.19 17.16-.49 25.69-.92 31.11-1.52 61.84-4.5 92.13-8.87z" fill="#6cdc2d"/><path d="m472.73 392.3c-8.13 12.91-17.38 25.04-27.62 36.25-46.66 51.1-113.74 83.22-188.32 83.45h-.79v-112.55c25.09 1.93 50.44 2.91 76.02 2.91h3.01c46.74-.14 92.71-3.57 137.7-10.06z" fill="#50ba4a"/><path d="m437 437.03c-46.16 46.15-109.85 74.75-180.21 74.97h-.79c-42.27 0-82.14-10.24-117.28-28.4 4.55-2.5 9.58-3.12 15.13-2.53 7.95.86 16.45 4.69 22.78-3.52 4.37-5.65 3.03-14.4 7.78-19.75 5.67-6.37 15.94-4.11 24.03-1.38 8.08 2.72 18.45 4.82 23.94-1.7 5.49-6.51 2.16-17.7 8.15-23.75 3.94-3.99 9.84-3.81 15.47-2.09 2.44.75 4.83 1.78 6.99 2.9 7.14 3.69 15.71 7.94 22.73 4.02 10.15-5.66 7.96-23.56 18.52-28.41 10.39-4.77 21.3 8.03 32.68 6.89 7.35-.73 12.69-6.98 17.96-12.16l.03-.03c5.26-5.17 12.82-9.91 19.58-6.96 2.82 1.23 4.7 3.39 6.11 6.04 4.18 7.84 4.2 19.87 12.18 24.27 10.78 5.93 25.13-7.92 35.71-1.64 4.62 2.74 6.32 8.14 8.51 13.23z" fill="#00a23e"/><g fill="#008839"><path d="m437 437.03c-46.16 46.15-109.85 74.75-180.21 74.97h-.79v-83.12c2.44.75 4.83 1.78 6.99 2.9 7.14 3.69 15.71 7.94 22.73 4.02 10.15-5.66 7.96-23.56 18.52-28.41 10.39-4.77 21.3 8.03 32.68 6.89 7.35-.73 12.69-6.98 17.96-12.16 5.26-5.18 12.84-9.95 19.61-6.99 11.18 4.87 7.61 24.43 18.29 30.31 10.78 5.93 25.13-7.92 35.71-1.64 4.62 2.74 6.32 8.14 8.51 13.23z"/><path d="m437 437.03c-46.16 46.15-109.85 74.75-180.21 74.97h-.79v-83.12c2.44.75 4.83 1.78 6.99 2.9 7.14 3.69 15.71 7.94 22.73 4.02 10.15-5.66 7.96-23.56 18.52-28.41 10.39-4.77 21.3 8.03 32.68 6.89 7.35-.73 12.69-6.98 17.96-12.16 5.26-5.18 12.84-9.95 19.61-6.99 11.18 4.87 7.61 24.43 18.29 30.31 10.78 5.93 25.13-7.92 35.71-1.64 4.62 2.74 6.32 8.14 8.51 13.23z"/></g></g><g fill="#00a23e"><ellipse cx="65.268" cy="392.3" rx="9.397" ry="9.397" transform="matrix(.273 -.962 .962 .273 -329.953 348.034)"/><ellipse cx="211.68" cy="437.254" rx="8.021" ry="8.021" transform="matrix(.229 -.973 .973 .229 -262.425 543.195)"/><ellipse cx="97.199" cy="431.445" rx="9.397" ry="9.397" transform="matrix(.231 -.973 .973 .231 -345.032 426.496)"/><path d="m154.253 418.387c0 3.133-2.539 5.672-5.672 5.672-3.132 0-5.672-2.539-5.672-5.672 0-3.132 2.539-5.672 5.672-5.672s5.672 2.539 5.672 5.672z"/><path d="m165.597 457.822c0 3.133-2.539 5.672-5.672 5.672-3.132 0-5.672-2.539-5.672-5.672s2.539-5.672 5.672-5.672 5.672 2.539 5.672 5.672z"/><path d="m281.156 412.715c0 3.132-2.539 5.672-5.672 5.672s-5.672-2.539-5.672-5.672 2.539-5.672 5.672-5.672 5.672 2.539 5.672 5.672z"/><path d="m404.716 412.715c0 3.132-2.539 5.672-5.672 5.672s-5.672-2.539-5.672-5.672 2.539-5.672 5.672-5.672 5.672 2.539 5.672 5.672z"/><circle cx="442.298" cy="410.18" r="8.207"/></g></g></svg>