<svg id="Capa_1" enable-background="new 0 0 512.003 512.003" height="512" viewBox="0 0 512.003 512.003" width="512" xmlns="http://www.w3.org/2000/svg"><g><path d="m506.541 203.222-5.53 6.81c-127.53 157.18-366.31 160.37-498 6.65 4.81-31.26 15.28-60.65 30.34-87.1 43.92-77.19 126.83-129.33 221.99-129.58s178.33 51.47 222.65 128.43c13.04 22.63 22.71 47.46 28.34 73.78.07.34.14.67.21 1.01z" fill="#fff9bb"/><g><path d="m506.541 203.222-5.53 6.81c-127.53 157.18-366.31 160.37-498 6.65 4.81-31.26 15.28-60.65 30.34-87.1 44.32 76.95 127.5 128.67 222.66 128.42 95.15-.25 178.06-52.39 221.98-129.57 13.21 22.93 22.97 48.09 28.55 74.79z" fill="#fff297"/></g><g><path d="m130.338 117.459c.001-.001.002-.002.003-.003.085-9.792-7.828-17.756-17.6-17.756-2.309 0-4.512.449-6.533 1.258-3.903-6.992-11.371-11.723-19.947-11.723-11.137 0-20.407 7.976-22.422 18.526-.601-.086-1.214-.133-1.838-.133-6.055 0-11.129 4.192-12.485 9.831z" fill="#ffeb98"/><path d="m113.165 117.459c.001-.001.001-.001.002-.002.049-5.631-4.501-10.21-10.12-10.21-1.328 0-2.595.258-3.757.723-2.244-4.021-6.538-6.741-11.47-6.741-6.404 0-11.735 4.586-12.893 10.653-.345-.049-.698-.076-1.057-.076-3.482 0-6.399 2.41-7.179 5.653z" fill="#f9e073"/></g><g><path d="m448.54 141.152.005-.005c.123-14.282-11.417-25.898-25.671-25.898-3.368 0-6.582.655-9.529 1.835-5.693-10.198-16.585-17.099-29.094-17.099-16.245 0-29.765 11.633-32.704 27.022-.876-.126-1.771-.194-2.681-.194-8.832 0-16.232 6.114-18.21 14.339z" fill="#ffeb98"/><path d="m423.492 141.152c.001-.001.002-.002.003-.003.071-8.213-6.565-14.892-14.761-14.892-1.937 0-3.785.377-5.479 1.055-3.273-5.864-9.537-9.832-16.73-9.832-9.341 0-17.116 6.689-18.805 15.538-.504-.072-1.018-.112-1.542-.112-5.079 0-9.334 3.516-10.471 8.245h67.785z" fill="#f9e073"/></g><path d="m512.001 255.341c.02 6.02-.18 12-.58 17.92-.58 8.74-1.6 17.35-3.04 25.83-1.2 7.12-2.7 14.14-4.49 21.05-6.86 26.58-17.87 51.48-32.32 73.98l-.01.01-.72.67-4.68 2.56c-128.98 70.58-286.33 64.42-409.4-16.01l-35.57-23.25h-.01c-5.13-11.78-9.4-24.04-12.74-36.68-1.82-6.89-3.36-13.91-4.6-21.03-.89-5.07-1.63-10.2-2.21-15.38-.39-3.41-.7-6.84-.95-10.29-.44-5.96-.66-11.99-.68-18.06-.04-13.6.99-26.96 3.01-39.98l164.58-94.45 24.19-13.88 23.09 15.66 41.13 27.89 45.12 30.6c6.46 4.38 14.69 5.23 21.91 2.26l62.91-25.91 19.08-7.86 18.34 9.44 83.18 42.79c3.37 16.04 5.23 32.62 5.44 49.6.01.841.02 1.681.02 2.52z" fill="#7e7f92"/><path d="m512.001 255.341c.02 6.02-.18 12-.58 17.92-.58 8.74-1.6 17.35-3.04 25.83-1.2 7.12-2.7 14.14-4.49 21.05-6.86 26.58-17.87 51.48-32.32 73.98l-.01.01-.72.67-4.68 2.56c-65.47 35.83-138.26 51.88-210.16 48.48v-293.94l45.12 30.6c6.46 4.38 14.69 5.23 21.91 2.26l62.91-25.91 19.08-7.86 18.34 9.44 83.18 42.79c3.37 16.04 5.23 32.62 5.44 49.6.01.841.02 1.681.02 2.52z" fill="#6e6f83"/><path d="m511.421 273.262c-.58 8.74-1.6 17.35-3.04 25.83-1.2 7.12-2.7 14.14-4.49 21.05-4.56 17.68-10.96 34.62-18.99 50.6 0 .01-.01.01-.01.01-2.08 4.15-4.27 8.23-6.58 12.24l-.01.01c-2.15 3.77-4.39 7.47-6.73 11.12l-.02.02-.71.66-4.68 2.56c-65.47 35.83-138.26 51.88-210.16 48.48-69.74-3.29-138.64-24.88-199.24-64.49l-35.57-23.25h-.01c-5.13-11.78-9.4-24.04-12.74-36.68-1.82-6.89-3.36-13.91-4.6-21.03-.89-5.07-1.63-10.2-2.21-15.38l190.14-109.13 64.23 43.55 45.12 30.6c6.46 4.38 14.69 5.23 21.91 2.26l81.99-33.77z" fill="#6e6f83"/><path d="m511.421 273.262c-.58 8.74-1.6 17.35-3.04 25.83-1.2 7.12-2.7 14.14-4.49 21.05-4.56 17.68-10.96 34.62-18.99 50.6 0 .01-.01.01-.01.01-2.08 4.15-4.27 8.23-6.58 12.24l-.01.01c-2.15 3.77-4.39 7.47-6.73 11.12l-.02.02-.71.66-4.68 2.56c-65.47 35.83-138.26 51.88-210.16 48.48v-226.41l45.12 30.6c6.46 4.38 14.69 5.23 21.91 2.26l81.99-33.77z" fill="#605f74"/><g><path d="m92.393 364.007h-6.143l.329-10.293.404-12.645h4.676l.405 12.645z" fill="#ec771b"/><path d="m92.393 364.007h-2.954v-22.938h2.22l.405 12.645z" fill="#c55732"/><path d="m89.439 341.069v12.645h-2.86l.404-12.645z" fill="#c55732"/><path d="m92.064 353.714h-2.625v-12.645h2.22z" fill="#a44e3e"/><g><path d="m98.979 345.093c-2.642 2.601-6.091 3.901-9.54 3.901s-6.898-1.3-9.54-3.901c-4.215-4.148-5.057-10.358-2.529-15.332 2.645-5.201 5.407-10.341 7.654-15.726l4.415-10.579 4.408 10.557c2.251 5.393 5.017 10.541 7.664 15.751 2.526 4.974 1.682 11.182-2.532 15.329z" fill="#b6e337"/><path d="m98.979 345.093c-2.642 2.601-6.091 3.901-9.54 3.901-1.636 0-3.272-1.3-4.526-3.901-2.027-4.204-2.41-10.528-1.15-15.534 1.753-6.962 3.306-14.133 4.745-21.398l.931-4.704 4.408 10.557c2.251 5.393 5.017 10.541 7.664 15.751 2.526 4.973 1.682 11.181-2.532 15.328z" fill="#6cdc2d"/><path d="m98.979 345.093c-2.642 2.601-6.091 3.901-9.54 3.901v-45.537l4.408 10.557c2.251 5.393 5.017 10.541 7.664 15.751 2.526 4.973 1.682 11.181-2.532 15.328z" fill="#50ba4a"/></g></g><g><path d="m160.275 375.149h-6.142l.328-10.294.405-12.644h4.676l.404 12.644z" fill="#ec771b"/><path d="m160.275 375.149h-2.954v-22.938h2.221l.404 12.644z" fill="#c55732"/><path d="m157.321 352.211v12.644h-2.86l.405-12.644z" fill="#c55732"/><path d="m159.946 364.855h-2.625v-12.644h2.221z" fill="#a44e3e"/><g><path d="m166.861 356.235c-2.642 2.601-6.091 3.901-9.54 3.901s-6.898-1.3-9.54-3.901c-4.215-4.148-5.058-10.358-2.529-15.332 2.645-5.201 5.406-10.341 7.654-15.726l4.415-10.579 4.408 10.557c2.251 5.393 5.017 10.541 7.664 15.751 2.526 4.974 1.683 11.182-2.532 15.329z" fill="#b6e337"/><path d="m166.861 356.235c-2.642 2.601-6.091 3.901-9.54 3.901-1.636 0-3.272-1.3-4.526-3.901-2.027-4.204-2.41-10.528-1.15-15.534 1.753-6.962 3.306-14.133 4.745-21.398l.931-4.704 4.408 10.557c2.251 5.393 5.017 10.541 7.664 15.751 2.526 4.973 1.683 11.181-2.532 15.328z" fill="#6cdc2d"/><path d="m166.861 356.235c-2.642 2.601-6.091 3.901-9.54 3.901v-45.537l4.408 10.557c2.251 5.393 5.017 10.541 7.664 15.751 2.526 4.973 1.683 11.181-2.532 15.328z" fill="#50ba4a"/></g></g><g><path d="m259.966 377.677h-8.176l.437-13.701.539-16.832h6.224l.539 16.832z" fill="#ec771b"/><path d="m259.966 377.677h-3.932v-30.533h2.956l.539 16.832z" fill="#c55732"/><path d="m256.034 347.144v16.832h-3.807l.539-16.832z" fill="#c55732"/><path d="m259.529 363.976h-3.495v-16.832h2.956z" fill="#a44e3e"/><g><path d="m268.733 352.501c-3.517 3.462-8.108 5.193-12.699 5.193-4.59 0-9.182-1.731-12.699-5.193-5.61-5.521-6.732-13.788-3.366-20.408 3.52-6.923 7.197-13.766 10.188-20.933l5.877-14.082 5.867 14.053c2.997 7.178 6.678 14.032 10.201 20.967 3.364 6.619 2.241 14.883-3.369 20.403z" fill="#b6e337"/><path d="m268.733 352.501c-3.517 3.462-8.108 5.193-12.699 5.193-2.178 0-4.356-1.731-6.025-5.193-2.698-5.597-3.209-14.014-1.531-20.678 2.333-9.267 4.401-18.812 6.316-28.484l1.239-6.261 5.867 14.053c2.997 7.178 6.678 14.032 10.201 20.967 3.365 6.619 2.242 14.883-3.368 20.403z" fill="#6cdc2d"/><path d="m268.733 352.501c-3.517 3.462-8.108 5.193-12.699 5.193v-60.616l5.867 14.053c2.997 7.178 6.678 14.032 10.201 20.967 3.364 6.619 2.241 14.883-3.369 20.403z" fill="#50ba4a"/></g></g><g><path d="m348.79 382.91h-8.096l.434-13.567.533-16.666h6.163l.533 16.666z" fill="#ec771b"/><path d="m348.79 382.91h-3.893v-30.233h2.927l.533 16.666z" fill="#c55732"/><path d="m344.897 352.677v16.666h-3.769l.533-16.666z" fill="#c55732"/><path d="m348.357 369.343h-3.46v-16.666h2.927z" fill="#a44e3e"/><g><path d="m357.471 357.982c-3.482 3.428-8.028 5.142-12.574 5.142-4.545 0-9.091-1.714-12.574-5.142-5.555-5.467-6.666-13.652-3.333-20.207 3.486-6.855 7.126-13.63 10.088-20.727l5.819-13.943 5.809 13.915c2.967 7.108 6.612 13.893 10.101 20.76 3.33 6.553 2.218 14.736-3.336 20.202z" fill="#b6e337"/><path d="m357.471 357.982c-3.482 3.428-8.028 5.142-12.574 5.142-2.156 0-4.313-1.714-5.966-5.142-2.671-5.542-3.177-13.876-1.516-20.474 2.31-9.176 4.357-18.627 6.254-28.203l1.227-6.2 5.809 13.915c2.967 7.108 6.612 13.893 10.101 20.76 3.331 6.553 2.219 14.736-3.335 20.202z" fill="#6cdc2d"/><path d="m357.471 357.982c-3.482 3.428-8.028 5.142-12.574 5.142v-60.018l5.809 13.915c2.967 7.108 6.612 13.893 10.101 20.76 3.33 6.552 2.218 14.735-3.336 20.201z" fill="#50ba4a"/></g></g><g><path d="m433.661 386.045h-8.036l.43-13.465.53-16.541h6.116l.529 16.541z" fill="#ec771b"/><path d="m433.661 386.045h-3.864v-30.006h2.904l.529 16.541z" fill="#c55732"/><path d="m429.797 356.039v16.541h-3.742l.53-16.541z" fill="#c55732"/><path d="m433.23 372.58h-3.433v-16.541h2.904z" fill="#a44e3e"/><g><path d="m442.277 361.303c-3.456 3.402-7.968 5.103-12.48 5.103-4.511 0-9.023-1.701-12.48-5.103-5.513-5.426-6.616-13.55-3.308-20.056 3.459-6.804 7.072-13.528 10.012-20.572l5.776-13.839 5.766 13.811c2.945 7.054 6.563 13.79 10.026 20.605 3.304 6.505 2.2 14.627-3.312 20.051z" fill="#b6e337"/><path d="m442.277 361.303c-3.456 3.402-7.968 5.103-12.48 5.103-2.14 0-4.281-1.701-5.921-5.103-2.652-5.5-3.153-13.772-1.504-20.321 2.293-9.107 4.325-18.488 6.207-27.992l1.218-6.153 5.766 13.811c2.945 7.054 6.563 13.79 10.026 20.605 3.304 6.504 2.2 14.626-3.312 20.05z" fill="#6cdc2d"/><path d="m442.277 361.303c-3.456 3.402-7.968 5.103-12.48 5.103v-59.57l5.766 13.811c2.945 7.054 6.563 13.79 10.026 20.605 3.304 6.505 2.2 14.627-3.312 20.051z" fill="#50ba4a"/></g></g><g><path d="m204.303 84.984c-.001-.094-.007-.186-.007-.28 0-17.175 13.923-31.098 31.098-31.098 4.08 0 7.973.794 11.543 2.223 6.896-12.354 20.091-20.714 35.245-20.714 19.679 0 36.058 14.093 39.617 32.734 1.061-.152 2.145-.235 3.248-.235 10.699 0 19.663 7.406 22.059 17.37z" fill="#ffeb98"/><path d="m234.646 84.984c0-.054-.004-.107-.004-.161 0-9.876 8.006-17.882 17.882-17.882 2.346 0 4.585.456 6.638 1.278 3.965-7.104 11.553-11.911 20.267-11.911 11.316 0 20.734 8.104 22.781 18.823.61-.087 1.233-.135 1.868-.135 6.152 0 11.307 4.259 12.685 9.989h-82.117z" fill="#f9e073"/></g><g><g><path d="m218.103 391.118h-7.668c-.651 0-1.171-.545-1.139-1.195l.649-13.517 1.135-23.552h6.38l1.135 23.552.649 13.517c.03.65-.489 1.195-1.141 1.195z" fill="#ec771b"/><path d="m217.458 352.85 1.784 37.072c.031.651-.488 1.196-1.14 1.196h-3.834v-38.268z" fill="#c55732"/><path d="m218.594 376.406h-8.65l1.135-23.552h6.38z" fill="#c55732"/><path d="m218.594 376.406h-4.325v-23.552h3.19z" fill="#b15848"/></g><g><path d="m231.898 355.507c-1.868 9.477-9.747 14.223-17.627 14.211h-.098c-7.855-.033-15.689-4.771-17.553-14.211-.885-4.452-.246-9.276 2.318-13.74l.16-.291c5.938-10.083 10.918-20.428 15.075-30.957.033-.086.066-.16.098-.238 4.169 10.603 9.17 21.034 15.161 31.195l.16.291c2.564 4.464 3.191 9.288 2.306 13.74z" fill="#b6e337"/><path d="m222.618 355.503c-.889 9.514-4.651 14.253-8.398 14.214-3.722-.039-7.43-4.779-8.312-14.214-.418-4.455-.121-9.283 1.096-13.739l.077-.294c2.814-10.082 5.168-20.429 7.14-30.953.014-.078.03-.157.044-.235 1.978 10.602 4.346 21.032 7.181 31.188l.077.294c1.216 4.456 1.513 9.284 1.095 13.739z" fill="#6cdc2d"/><path d="m231.898 355.507c-1.868 9.477-9.747 14.223-17.627 14.211v-59.437c4.169 10.603 9.17 21.034 15.161 31.195l.16.291c2.564 4.464 3.191 9.288 2.306 13.74z" fill="#50ba4a"/></g></g><g><g><path d="m302.348 398.262h-7.668c-.651 0-1.171-.545-1.139-1.195l.649-13.517 1.135-23.552h6.38l1.135 23.552.649 13.517c.03.651-.49 1.195-1.141 1.195z" fill="#ec771b"/><path d="m301.703 359.995 1.784 37.072c.031.651-.488 1.196-1.139 1.196h-3.834v-38.268z" fill="#c55732"/><path d="m302.838 383.55h-8.649l1.135-23.552h6.38z" fill="#c55732"/><path d="m302.838 383.55h-4.324v-23.552h3.19z" fill="#b15848"/></g><g><path d="m316.142 362.651c-1.867 9.477-9.747 14.223-17.627 14.211h-.098c-7.855-.033-15.69-4.771-17.553-14.211-.885-4.452-.246-9.276 2.318-13.74l.16-.291c5.938-10.083 10.918-20.428 15.075-30.957.033-.086.065-.16.098-.238 4.169 10.603 9.17 21.034 15.161 31.195l.16.291c2.564 4.464 3.191 9.289 2.306 13.74z" fill="#b6e337"/><path d="m306.863 362.648c-.889 9.514-4.651 14.254-8.398 14.214-3.722-.039-7.43-4.779-8.312-14.214-.418-4.455-.121-9.283 1.096-13.739l.077-.294c2.814-10.082 5.168-20.429 7.14-30.953.014-.079.03-.157.044-.235 1.978 10.602 4.347 21.032 7.182 31.188l.077.294c1.214 4.455 1.512 9.283 1.094 13.739z" fill="#6cdc2d"/><path d="m316.142 362.651c-1.867 9.477-9.747 14.223-17.627 14.211v-59.437c4.169 10.603 9.17 21.034 15.161 31.195l.16.291c2.564 4.464 3.191 9.289 2.306 13.74z" fill="#50ba4a"/></g></g><path d="m468.841 398.292c-7.03 10.5-14.81 20.45-23.28 29.77-3.53 3.89-7.19 7.67-10.95 11.33l-35.38 14.38c-91.17 37.07-193.8 33.72-282.37-9.21l-61.8-29.95c-9.41-11.88-17.77-24.62-24.96-38.09-3.21-6-6.19-12.14-8.92-18.42h71.57c9.4 0 17.07 5.93 24.7 10.59 6.91 4.22 15.17 5.63 23.16 4.83 6.72-.67 12.74-3.75 19.24-5.3 5.67-1.35 10.54-4.7 16.63-3.03 4.6 1.26 8.5 4.31 11.97 7.58 3.48 3.27 6.7 6.85 10.62 9.57 5.98 4.15 13.48 5.91 20.7 5.23 8.13-.78 12.95-5.18 19.56-9.35 3.91-2.47 7.91-4.97 12.38-6.15 1.04-.27 2.11-.44 3.18-.49 2.79-.13 5.6.46 8.15 1.67 9.19 4.34 18.26 8.91 27.31 13.55 9.14 4.69 16.37 6.21 26.21 1.73 6.5-2.96 12.38-7.43 18.93-10.16 7.1-2.96 15.62-.08 21.2 4.65 6.81 5.79 13.75 10.75 21.28 15.5 7.42 4.68 13.42 7.13 22.29 3.25 15.02-6.57 24.73-30.64 44.12-21.39 2.18 1.05 4.2 2.41 6.07 3.95l8.5 6.98c3.14 2.58 6.45 4.91 9.89 6.98z" fill="#00a23e"/><path d="m468.841 398.292c-7.03 10.5-14.81 20.45-23.28 29.77-3.53 3.89-7.19 7.67-10.95 11.33l-35.38 14.38c-46.27 18.81-95.5 27.22-144.34 25.31v-107.5c2.79-.13 5.6.46 8.15 1.67 9.19 4.34 18.26 8.91 27.31 13.55 9.14 4.69 16.37 6.21 26.21 1.73 6.5-2.96 12.38-7.43 18.93-10.16 7.1-2.96 15.62-.08 21.2 4.65 6.81 5.79 13.75 10.75 21.28 15.5 7.42 4.68 13.42 7.13 22.29 3.25 15.02-6.57 24.73-30.64 44.12-21.39 2.18 1.05 4.2 2.41 6.07 3.95l8.5 6.98c3.14 2.58 6.45 4.91 9.89 6.98z" fill="#008839"/><g><path d="m392.501 410.317h-8.177l.437-13.703.539-16.834h6.225l.538 16.834z" fill="#ec771b"/><path d="m392.501 410.317h-3.932v-30.537h2.956l.538 16.834z" fill="#c55732"/><path d="m388.569 379.78v16.834h-3.808l.539-16.834z" fill="#c55732"/><path d="m392.063 396.614h-3.494v-16.834h2.956z" fill="#a44e3e"/><g><path d="m401.269 385.138c-3.517 3.462-8.109 5.193-12.7 5.193s-9.183-1.731-12.7-5.193c-5.611-5.522-6.733-13.79-3.367-20.41 3.521-6.924 7.198-13.767 10.189-20.936l5.878-14.083 5.868 14.055c2.997 7.179 6.679 14.033 10.203 20.969 3.362 6.619 2.239 14.884-3.371 20.405z" fill="#b6e337"/><path d="m401.269 385.138c-3.517 3.462-8.109 5.193-12.7 5.193-2.178 0-4.357-1.731-6.026-5.193-2.698-5.597-3.209-14.016-1.531-20.68 2.333-9.268 4.401-18.815 6.317-28.487l1.24-6.262 5.868 14.055c2.997 7.179 6.679 14.033 10.203 20.969 3.362 6.619 2.239 14.884-3.371 20.405z" fill="#6cdc2d"/><path d="m401.269 385.138c-3.517 3.462-8.109 5.193-12.7 5.193v-60.622l5.868 14.055c2.997 7.179 6.679 14.033 10.203 20.969 3.362 6.619 2.239 14.884-3.371 20.405z" fill="#50ba4a"/></g></g><path d="m434.611 439.392c-22.73 22.15-49.56 40.09-79.25 52.6-30.13 12.71-63.2 19.81-97.91 20.01h-1.45c-45.63 0-88.48-11.94-125.59-32.88-23.6-13.31-44.88-30.26-63.07-50.08-4.27-4.65-8.37-9.46-12.28-14.43 7.71.44 15.33 2.18 22.41 5.26 15.73 6.83 30.47 22.34 48.02 23.45 21.09 1.33 41.15-9.67 58.34-20.6 17.93-11.41 35.76-24.3 56.6-28.48 4.96-.99 10.23-1.47 15.57-1.39 14.84.19 30.29 4.55 41.43 13.48 10.97 8.8 23.06 16.7 37.38 16.44 14.27-.25 28.61 0 42.87.58 12.49.51 24.68 8.15 36.6 12.02 6.73 2.17 13.51 3.73 20.33 4.02z" fill="#5dbf1d"/><path d="m434.611 439.392c-14.63 14.25-30.96 26.77-48.65 37.2-1.53.92-3.08 1.81-4.64 2.68-36.65 20.61-78.88 32.47-123.87 32.73h-1.45v-119.15c14.84.19 30.29 4.55 41.43 13.48 10.97 8.8 23.06 16.7 37.38 16.44 14.27-.25 28.61 0 42.87.58 12.49.51 24.68 8.15 36.6 12.02 6.73 2.17 13.51 3.73 20.33 4.02z" fill="#43af3e"/><path d="m385.491 476.872c-9.66 5.68-19.72 10.74-30.13 15.12l-27.08 5.45c-47.56 9.58-96.67 8.17-143.6-4.11l-54.27-14.21c-10.6-5.98-20.73-12.69-30.32-20.07 26.12-28.79 59.92-58.56 89.05-60.11 31-1.66 42 23.27 66.25 26.82.21.03.41.06.61.08 23.84 3.19 35.25-13.71 56.27-10.7 14.36 2.05 47.04 32.91 73.22 61.73z" fill="#43af3e"/><path d="m385.491 476.872c-9.66 5.68-19.72 10.74-30.13 15.12l-27.08 5.45c-23.86 4.81-48.11 6.85-72.28 6.13v-77.73c23.84 3.19 35.25-13.71 56.27-10.7 14.36 2.05 47.04 32.91 73.22 61.73z" fill="#00a23e"/><g><path d="m261.658 484.593h-11.756l.629-19.701.774-24.201h8.95l.774 24.201z" fill="#ec771b"/><path d="m261.658 484.593h-5.653v-43.902h4.25l.774 24.201z" fill="#c55732"/><path d="m256.005 440.691v24.201h-5.474l.774-24.201z" fill="#c55732"/><path d="m261.029 464.892h-5.024v-24.201h4.25z" fill="#a44e3e"/><g><path d="m274.264 448.394c-5.056 4.977-11.658 7.466-18.259 7.466-6.6 0-13.202-2.489-18.259-7.466-8.067-7.939-9.68-19.825-4.84-29.344 5.062-9.954 10.348-19.793 14.649-30.098l8.45-20.247 8.436 20.206c4.309 10.321 9.602 20.175 14.668 30.146 4.835 9.517 3.22 21.4-4.845 29.337z" fill="#b6e337"/><path d="m274.264 448.394c-5.056 4.977-11.658 7.466-18.259 7.466-3.132 0-6.263-2.489-8.663-7.466-3.879-8.047-4.613-20.15-2.201-29.732 3.355-13.325 6.328-27.049 9.082-40.955l1.782-9.003 8.436 20.206c4.309 10.321 9.602 20.175 14.668 30.146 4.835 9.518 3.22 21.401-4.845 29.338z" fill="#6cdc2d"/><path d="m274.264 448.394c-5.056 4.977-11.658 7.466-18.259 7.466v-87.155l8.436 20.206c4.309 10.321 9.602 20.175 14.668 30.146 4.835 9.517 3.22 21.4-4.845 29.337z" fill="#50ba4a"/></g></g><g><path d="m83.904 431.231h-6.887l.369-11.54.453-14.176h5.243l.453 14.176z" fill="#ec771b"/><path d="m83.904 431.231h-3.312v-25.716h2.49l.453 14.176z" fill="#c55732"/><path d="m80.592 405.515v14.176h-3.206l.453-14.176z" fill="#c55732"/><path d="m83.535 419.691h-2.943v-14.176h2.49z" fill="#a44e3e"/><g><path d="m91.288 410.027c-2.962 2.916-6.829 4.374-10.696 4.374-3.866 0-7.733-1.458-10.696-4.374-4.725-4.65-5.67-11.613-2.835-17.189 2.965-5.831 6.061-11.594 8.581-17.631l4.95-11.86 4.941 11.836c2.524 6.046 5.625 11.818 8.592 17.659 2.833 5.575 1.888 12.536-2.837 17.185z" fill="#b6e337"/><path d="m91.288 410.027c-2.962 2.916-6.829 4.374-10.696 4.374-1.834 0-3.669-1.458-5.075-4.374-2.272-4.714-2.702-11.803-1.289-17.416 1.965-7.805 3.707-15.845 5.32-23.99l1.044-5.274 4.941 11.836c2.524 6.046 5.625 11.818 8.592 17.659 2.833 5.575 1.888 12.536-2.837 17.185z" fill="#6cdc2d"/><path d="m91.288 410.027c-2.962 2.916-6.829 4.374-10.696 4.374v-51.053l4.941 11.836c2.524 6.046 5.625 11.818 8.592 17.659 2.833 5.574 1.888 12.535-2.837 17.184z" fill="#50ba4a"/></g></g><g><path d="m426.661 446.802c-2.17 1.95-4.38 3.86-6.62 5.72h-1.43l.44-13.8.54-16.95h6.27l.54 16.95z" fill="#ec771b"/><path d="m426.661 446.802c-1.25 1.12-2.51 2.23-3.78 3.31v-28.34h2.98l.54 16.95z" fill="#c55732"/><path d="m422.881 421.769v16.95h-3.834l.543-16.95z" fill="#c55732"/><path d="m426.4 438.719h-3.519v-16.95h2.977z" fill="#a44e3e"/><g><path d="m435.669 427.164c-3.541 3.486-8.165 5.229-12.788 5.229s-9.246-1.743-12.788-5.229c-5.65-5.56-6.78-13.885-3.39-20.552 3.545-6.972 7.247-13.862 10.26-21.08l5.918-14.18 5.908 14.152c3.018 7.229 6.725 14.13 10.273 21.114 3.387 6.665 2.256 14.987-3.393 20.546z" fill="#b6e337"/><path d="m435.669 427.164c-3.541 3.486-8.165 5.229-12.788 5.229-2.193 0-4.386-1.743-6.067-5.229-2.717-5.636-3.231-14.113-1.541-20.823 2.35-9.332 4.432-18.945 6.361-28.684l1.248-6.305 5.908 14.152c3.018 7.229 6.725 14.13 10.273 21.114 3.386 6.665 2.255 14.987-3.394 20.546z" fill="#6cdc2d"/><path d="m435.669 427.164c-3.541 3.486-8.165 5.229-12.788 5.229v-61.042l5.908 14.152c3.018 7.229 6.725 14.13 10.273 21.114 3.387 6.666 2.256 14.988-3.393 20.547z" fill="#50ba4a"/></g></g><g><path d="m190.266 467.153h-11.756l.629-19.701.774-24.201h8.95l.774 24.201z" fill="#ec771b"/><path d="m190.266 467.153h-5.653v-43.902h4.25l.774 24.201z" fill="#c55732"/><path d="m184.613 423.251v24.201h-5.474l.774-24.201z" fill="#c55732"/><path d="m189.637 447.452h-5.024v-24.201h4.25z" fill="#a44e3e"/><g><path d="m202.872 430.954c-5.056 4.978-11.658 7.466-18.259 7.466-6.6 0-13.202-2.489-18.259-7.466-8.067-7.939-9.68-19.825-4.84-29.344 5.062-9.954 10.348-19.793 14.649-30.098l8.45-20.247 8.436 20.206c4.309 10.321 9.602 20.175 14.668 30.147 4.835 9.516 3.22 21.399-4.845 29.336z" fill="#b6e337"/><path d="m202.872 430.954c-5.056 4.978-11.658 7.466-18.259 7.466-3.132 0-6.263-2.489-8.663-7.466-3.879-8.047-4.613-20.15-2.201-29.731 3.355-13.325 6.328-27.049 9.082-40.955l1.782-9.003 8.436 20.206c4.309 10.321 9.602 20.175 14.668 30.147 4.835 9.516 3.22 21.399-4.845 29.336z" fill="#6cdc2d"/><path d="m202.872 430.954c-5.056 4.978-11.658 7.466-18.259 7.466v-87.155l8.436 20.206c4.309 10.321 9.602 20.175 14.668 30.147 4.835 9.516 3.22 21.399-4.845 29.336z" fill="#50ba4a"/></g></g><g><path d="m136.741 482.582c-3.7-1.95-7.35-3.99-10.93-6.12l.12-3.65.78-24.2h8.95l.77 24.2z" fill="#ec771b"/><path d="m136.741 482.582c-1.79-.94-3.57-1.91-5.33-2.89v-31.08h4.25l.77 24.2z" fill="#c55732"/><path d="m131.408 448.61v24.202h-5.474l.774-24.202z" fill="#c55732"/><path d="m136.432 472.812h-5.024v-24.202h4.25z" fill="#a44e3e"/><g><path d="m149.667 456.313c-5.056 4.978-11.658 7.466-18.259 7.466-6.6 0-13.202-2.489-18.259-7.466-8.066-7.939-9.68-19.825-4.84-29.344 5.062-9.954 10.348-19.793 14.649-30.098l8.45-20.247 8.436 20.206c4.309 10.321 9.602 20.175 14.668 30.147 4.835 9.516 3.221 21.399-4.845 29.336z" fill="#b6e337"/><path d="m149.667 456.313c-5.056 4.978-11.658 7.466-18.259 7.466-3.132 0-6.263-2.489-8.663-7.466-3.879-8.047-4.613-20.15-2.201-29.732 3.355-13.325 6.328-27.049 9.082-40.955l1.782-9.003 8.436 20.206c4.309 10.321 9.602 20.175 14.668 30.147 4.835 9.517 3.221 21.4-4.845 29.337z" fill="#6cdc2d"/><path d="m149.667 456.313c-5.056 4.978-11.658 7.466-18.259 7.466v-87.155l8.436 20.206c4.309 10.321 9.602 20.175 14.668 30.147 4.835 9.516 3.221 21.399-4.845 29.336z" fill="#50ba4a"/></g></g><g><path d="m328.499 480.081h-11.757l.63-19.7.774-24.202h8.949l.775 24.202z" fill="#ec771b"/><path d="m328.499 480.081h-5.653v-43.902h4.249l.775 24.202z" fill="#c55732"/><path d="m322.846 436.179v24.202h-5.474l.774-24.202z" fill="#c55732"/><path d="m327.87 460.381h-5.024v-24.202h4.249z" fill="#a44e3e"/><g><path d="m341.105 443.882c-5.056 4.978-11.658 7.466-18.259 7.466-6.6 0-13.202-2.489-18.259-7.466-8.066-7.939-9.68-19.825-4.84-29.344 5.061-9.954 10.348-19.793 14.649-30.098l8.45-20.247 8.436 20.206c4.309 10.321 9.602 20.175 14.668 30.147 4.835 9.516 3.22 21.399-4.845 29.336z" fill="#b6e337"/><path d="m341.105 443.882c-5.056 4.978-11.658 7.466-18.259 7.466-3.132 0-6.263-2.489-8.663-7.466-3.879-8.047-4.613-20.15-2.201-29.732 3.355-13.325 6.328-27.049 9.082-40.955l1.782-9.003 8.436 20.206c4.309 10.321 9.602 20.175 14.668 30.147 4.835 9.517 3.22 21.4-4.845 29.337z" fill="#6cdc2d"/><path d="m341.105 443.882c-5.056 4.978-11.658 7.466-18.259 7.466v-87.155l8.436 20.206c4.309 10.321 9.602 20.175 14.668 30.147 4.835 9.516 3.22 21.399-4.845 29.336z" fill="#50ba4a"/></g></g><g><path d="m385.961 476.591c-3.45 2.05-6.95 4.01-10.51 5.89l.1-3.21.77-24.2h8.95z" fill="#ec771b"/><path d="m385.961 476.591c-1.64.97-3.28 1.92-4.94 2.86v-24.38h4.25z" fill="#c55732"/><path d="m381.023 455.074v24.202h-5.474l.774-24.202z" fill="#c55732"/><path d="m385.961 476.591c-1.53.92-3.08 1.81-4.64 2.68h-.3v-24.2h4.25z" fill="#a44e3e"/><g><path d="m399.282 462.777c-5.056 4.977-11.658 7.466-18.259 7.466-6.6 0-13.202-2.489-18.259-7.466-8.066-7.939-9.68-19.825-4.84-29.344 5.061-9.954 10.348-19.793 14.649-30.098l8.45-20.247 8.436 20.206c4.309 10.321 9.602 20.175 14.668 30.146 4.835 9.517 3.22 21.4-4.845 29.337z" fill="#b6e337"/><path d="m399.282 462.777c-5.056 4.977-11.658 7.466-18.259 7.466-3.132 0-6.263-2.489-8.663-7.466-3.879-8.047-4.613-20.15-2.201-29.732 3.355-13.325 6.328-27.049 9.082-40.955l1.782-9.003 8.436 20.206c4.309 10.321 9.602 20.175 14.668 30.146 4.835 9.518 3.22 21.401-4.845 29.338z" fill="#6cdc2d"/><path d="m399.282 462.777c-5.056 4.977-11.658 7.466-18.259 7.466v-87.155l8.436 20.206c4.309 10.321 9.602 20.175 14.668 30.146 4.835 9.517 3.22 21.4-4.845 29.337z" fill="#50ba4a"/></g></g><path d="m355.361 491.992c-30.13 12.71-63.2 19.81-97.91 20.01h-1.45c-45.63 0-88.48-11.94-125.59-32.88 19.31-12.73 39.99-22.46 58.73-23.23 31-1.27 42 17.88 66.25 20.6.21.02.41.05.61.06 23.84 2.45 35.25-10.53 56.27-8.22 9.11 1 25.58 10.9 43.09 23.66z" fill="#6cdc2d"/><path d="m355.361 491.992c-30.13 12.71-63.2 19.81-97.91 20.01h-1.45v-35.45c23.84 2.45 35.25-10.53 56.27-8.22 9.11 1 25.58 10.9 43.09 23.66z" fill="#43af3e"/><g><path d="m119.114 392.985h-8.178l.438-13.703.539-16.834h6.224l.539 16.834z" fill="#ec771b"/><path d="m119.114 392.985h-3.933v-30.537h2.956l.539 16.834z" fill="#c55732"/><path d="m115.181 362.448v16.834h-3.807l.539-16.834z" fill="#c55732"/><path d="m118.676 379.282h-3.495v-16.834h2.956z" fill="#a44e3e"/><g><path d="m127.882 367.806c-3.517 3.462-8.109 5.193-12.7 5.193s-9.183-1.731-12.7-5.193c-5.611-5.522-6.733-13.79-3.367-20.41 3.521-6.924 7.197-13.767 10.189-20.935l5.878-14.083 5.868 14.055c2.997 7.179 6.679 14.033 10.203 20.969 3.362 6.618 2.239 14.883-3.371 20.404z" fill="#b6e337"/><path d="m127.882 367.806c-3.517 3.462-8.109 5.193-12.7 5.193-2.178 0-4.356-1.731-6.026-5.193-2.698-5.597-3.209-14.016-1.531-20.68 2.333-9.268 4.401-18.814 6.317-28.487l1.24-6.262 5.868 14.055c2.997 7.179 6.679 14.033 10.203 20.969 3.362 6.619 2.239 14.884-3.371 20.405z" fill="#6cdc2d"/><path d="m127.882 367.806c-3.517 3.462-8.109 5.193-12.7 5.193v-60.622l5.868 14.055c2.997 7.179 6.679 14.033 10.203 20.969 3.362 6.619 2.239 14.884-3.371 20.405z" fill="#50ba4a"/></g></g><g><path d="m55.053 391.984h-8.177l.437-13.703.539-16.834h6.225l.538 16.834z" fill="#ec771b"/><path d="m55.053 391.984h-3.932v-30.537h2.956l.538 16.834z" fill="#c55732"/><path d="m51.121 361.447v16.834h-3.808l.539-16.834z" fill="#c55732"/><path d="m54.615 378.281h-3.494v-16.834h2.956z" fill="#a44e3e"/><g><path d="m63.821 366.805c-3.517 3.462-8.109 5.193-12.701 5.193-4.591 0-9.183-1.731-12.7-5.193-5.611-5.522-6.733-13.79-3.367-20.41 3.521-6.924 7.197-13.767 10.189-20.935l5.878-14.083 5.868 14.055c2.997 7.179 6.679 14.033 10.203 20.969 3.364 6.618 2.24 14.883-3.37 20.404z" fill="#b6e337"/><path d="m63.821 366.805c-3.517 3.462-8.109 5.193-12.701 5.193-2.178 0-4.356-1.731-6.026-5.193-2.698-5.597-3.209-14.016-1.531-20.68 2.333-9.268 4.401-18.814 6.317-28.487l1.239-6.262 5.868 14.055c2.997 7.179 6.679 14.033 10.203 20.969 3.365 6.619 2.241 14.884-3.369 20.405z" fill="#6cdc2d"/><path d="m63.821 366.805c-3.517 3.462-8.109 5.193-12.701 5.193v-60.622l5.868 14.055c2.997 7.179 6.679 14.033 10.203 20.969 3.364 6.619 2.24 14.884-3.37 20.405z" fill="#50ba4a"/></g></g><g><path d="m471.571 394.122c-1.17 1.82-2.36 3.62-3.57 5.41-1.39 2.06-2.81 4.09-4.26 6.1l.22-7.08.57-17.87h6.61z" fill="#ec771b"/><path d="m471.571 394.122c-1.17 1.82-2.36 3.62-3.57 5.41v-18.85h3.14z" fill="#c55732"/><path d="m468.003 380.685v17.867h-4.041l.572-17.867z" fill="#c55732"/><path d="m471.571 394.122c-.96 1.49-1.93 2.96-2.91 4.43h-.66v-17.87h3.14z" fill="#a44e3e"/><g><path d="m486.311 367.872c-3.87 7.98-8.16 15.72-12.83 23.21-1.78.54-3.63.8-5.48.8-4.87 0-9.74-1.84-13.48-5.51-5.95-5.86-7.14-14.64-3.57-21.66 3.74-7.35 7.64-14.61 10.81-22.22l6.24-14.95 6.23 14.92c3.18 7.62 7.09 14.89 10.83 22.25.52 1.02.94 2.08 1.25 3.16z" fill="#b6e337"/><path d="m486.311 367.872c-3.87 7.98-8.16 15.72-12.83 23.21-1.78.54-3.63.8-5.48.8-2.31 0-4.62-1.84-6.39-5.51-2.87-5.94-3.41-14.88-1.63-21.95 2.48-9.84 4.67-19.97 6.71-30.23l1.31-6.65 6.23 14.92c3.18 7.62 7.09 14.89 10.83 22.25.52 1.02.94 2.08 1.25 3.16z" fill="#6cdc2d"/><path d="m486.311 367.872c-3.87 7.98-8.16 15.72-12.83 23.21-1.78.54-3.63.8-5.48.8v-64.34l6.23 14.92c3.18 7.62 7.09 14.89 10.83 22.25.52 1.02.94 2.08 1.25 3.16z" fill="#50ba4a"/></g></g></g></svg>