<svg id="Capa_1" enable-background="new 0 0 512 512" height="512" viewBox="0 0 512 512" width="512" xmlns="http://www.w3.org/2000/svg"><g><path d="m512 256c0 2.37-.03 4.73-.1 7.08l-.01.01c-142.45 138.57-369.33 138.56-511.78-.01-.08-2.35-.11-4.71-.11-7.08 0-46.22 12.25-89.57 33.68-127 44.12-77.07 127.16-129 222.32-129s178.2 51.93 222.32 129c12.98 22.67 22.59 47.52 28.15 73.86 3.46 16.36 5.35 33.28 5.52 50.62.01.84.01 1.68.01 2.52z" fill="#92eaff"/><g><path d="m512 256c0 2.37-.03 4.74-.11 7.09-142.45 138.57-369.33 138.56-511.78-.01 0 0 0 0-.01.01-.07-2.36-.1-4.72-.1-7.09 0-46.22 12.25-89.57 33.68-127 44.12 77.07 127.16 129 222.32 129s178.2-51.93 222.32-129c21.43 37.43 33.68 80.78 33.68 127z" fill="#63dbfa"/></g><g><g><path d="m511.9 263.08c-.97 35.85-9.32 69.86-23.59 100.58-.11.25-.22.49-.34.74l-81.3 51.91c-94.45 60.3-211.63 73.04-316.82 34.45l31.69-30.42c103.27-99.12 240.32-155.96 383.45-157.23 2.3-.02 4.6-.03 6.91-.03z" fill="#53af17"/></g><g><path d="m422.15 450.75c-105.12 38.94-221.92 30.79-320.62-22.36l-59.75-32.18c-4.3-6.55-8.3-13.31-11.99-20.27-16.35-30.76-26.61-65.26-29.16-101.88-.26-3.64-.43-7.3-.52-10.98 2.3 0 4.61.01 6.9.03 87.36.78 172.46 22.25 248.99 61.42 48.85 24.99 94.22 57.19 134.46 95.81z" fill="#5dbf1d"/></g><path d="m422.15 450.75c-5.52 4.71-11.24 9.19-17.14 13.42-41.77 29.97-92.94 47.66-148.22 47.83h-.79v-187.47c48.85 24.99 94.22 57.19 134.46 95.81z" fill="#5dbf1d"/><g><g><g><g><path d="m99.795 240.635 2.146 98.097h-14.513l2.147-98.097z" fill="#d0f6ff"/><path d="m99.795 240.635 2.146 98.097h-7.242l-.004-98.097z" fill="#92eaff"/></g><g><path d="m106.694 405.105h-24.019l2.871-95.215c.057-1.874 1.592-3.364 3.467-3.364h11.343c1.875 0 3.41 1.49 3.467 3.364z" fill="#fff"/></g></g><g><path d="m103.309 197.468c0 15.336-3.061 29.936-8.61 43.226-5.578-13.29-8.639-27.89-8.639-43.226 0-12.377 1.987-24.284 5.681-35.396.471-1.413 1.707-2.105 2.958-2.105 1.236 0 2.458.706 2.929 2.12 3.68 11.112 5.681 23.004 5.681 35.381z" fill="#fff"/><path d="m103.309 197.468c0 15.336-3.061 29.936-8.61 43.226v-80.727c1.236 0 2.458.706 2.929 2.12 3.68 11.112 5.681 23.004 5.681 35.381z" fill="#d0f6ff"/><path d="m56.245 219.088c14.586 4.739 27.524 12.164 38.449 21.548-14.363 1.197-29.192-.41-43.777-5.15-11.776-3.826-22.475-9.391-31.901-16.34-2.384-1.758-1.141-5.578 1.821-5.596 11.706-.069 23.633 1.712 35.408 5.538z" fill="#fff"/><path d="m133.144 219.088c-14.586 4.739-27.524 12.164-38.449 21.548 14.363 1.197 29.192-.41 43.777-5.15 11.777-3.826 22.475-9.391 31.901-16.34 2.384-1.758 1.141-5.578-1.821-5.596-11.706-.069-23.633 1.712-35.408 5.538z" fill="#d0f6ff"/><path d="m62.32 270.544c9.014-12.407 20.074-22.418 32.375-29.909-3.3 14.03-9.411 27.636-18.425 40.043-7.278 10.018-15.877 18.473-25.398 25.29-2.409 1.725-5.658-.639-4.759-3.461 3.551-11.153 8.929-21.946 16.207-31.963z" fill="#fff"/><path d="m113.135 280.668c-9.014-12.407-15.118-26.019-18.441-40.032 12.324 7.474 23.375 17.49 32.39 29.898 7.278 10.018 12.662 20.808 16.204 31.97.896 2.824-2.356 5.183-4.762 3.456-9.511-6.825-18.113-15.276-25.391-25.292z" fill="#d0f6ff"/></g><path d="m107.077 240.635c0 6.837-5.54 12.377-12.377 12.377s-12.377-5.54-12.377-12.377 5.54-12.377 12.377-12.377c6.836 0 12.377 5.54 12.377 12.377z" fill="#d0f6ff"/><path d="m107.077 240.635c0 6.837-5.54 12.377-12.377 12.377v-24.755c6.836.001 12.377 5.541 12.377 12.378z" fill="#92eaff"/><path d="m99.788 240.635c0 2.819-2.269 5.088-5.088 5.098h-.01c-2.819 0-5.098-2.279-5.098-5.098s2.279-5.098 5.098-5.098h.01c2.819.01 5.088 2.279 5.088 5.098z" fill="#fff"/><g fill="#d0f6ff"><path d="m99.788 240.635c0 2.819-2.269 5.088-5.088 5.098v-10.197c2.819.011 5.088 2.28 5.088 5.099z"/><path d="m106.694 405.105h-11.98l-.015-98.579h5.657c1.875 0 3.41 1.49 3.467 3.364z"/></g></g><g><g><g><path d="m433.099 238.053 1.827 83.492h-12.352l1.827-83.492z" fill="#d0f6ff"/><path d="m433.099 238.053 1.827 83.492h-6.164l-.003-83.492z" fill="#92eaff"/></g><g><path d="m438.972 378.038h-20.443l2.444-81.04c.048-1.595 1.355-2.863 2.951-2.863h9.654c1.596 0 2.902 1.268 2.951 2.863z" fill="#fff"/></g></g><g><path d="m436.091 201.312c0 13.053-2.605 25.479-7.328 36.791-4.748-11.312-7.353-23.738-7.353-36.791 0-10.535 1.691-20.669 4.835-30.127.401-1.202 1.453-1.791 2.518-1.791 1.052 0 2.092.601 2.493 1.804 3.131 9.458 4.835 19.579 4.835 30.114z" fill="#fff"/><path d="m436.091 201.312c0 13.053-2.605 25.479-7.328 36.791v-68.709c1.052 0 2.092.601 2.493 1.804 3.131 9.458 4.835 19.579 4.835 30.114z" fill="#d0f6ff"/><path d="m396.033 219.713c12.414 4.033 23.427 10.353 32.725 18.34-12.225 1.019-24.846-.349-37.26-4.383-10.023-3.257-19.129-7.993-27.152-13.908-2.029-1.496-.971-4.748 1.55-4.763 9.964-.058 20.115 1.457 30.137 4.714z" fill="#fff"/><path d="m461.484 219.713c-12.414 4.033-23.427 10.353-32.725 18.34 12.225 1.019 24.846-.349 37.26-4.383 10.023-3.257 19.129-7.993 27.152-13.908 2.029-1.496.971-4.748-1.55-4.763-9.964-.058-20.115 1.457-30.137 4.714z" fill="#d0f6ff"/><path d="m401.204 263.509c7.672-10.56 17.085-19.081 27.555-25.456-2.808 11.941-8.01 23.522-15.682 34.082-6.195 8.526-13.513 15.723-21.617 21.525-2.05 1.468-4.815-.544-4.05-2.946 3.022-9.493 7.599-18.68 13.794-27.205z" fill="#fff"/><path d="m444.454 272.125c-7.672-10.56-12.867-22.145-15.695-34.073 10.489 6.361 19.896 14.887 27.568 25.447 6.195 8.526 10.777 17.71 13.792 27.211.762 2.403-2.005 4.412-4.053 2.942-8.096-5.809-15.418-13.001-21.612-21.527z" fill="#d0f6ff"/></g><path d="m439.297 238.053c0 5.819-4.716 10.535-10.535 10.535s-10.535-4.715-10.535-10.535c0-5.819 4.716-10.535 10.535-10.535 5.82 0 10.535 4.716 10.535 10.535z" fill="#d0f6ff"/><path d="m439.297 238.053c0 5.819-4.716 10.535-10.535 10.535v-21.069c5.82-.001 10.535 4.715 10.535 10.534z" fill="#92eaff"/><path d="m433.094 238.053c0 2.4-1.931 4.331-4.331 4.339h-.008c-2.4 0-4.339-1.94-4.339-4.339s1.94-4.339 4.339-4.339h.008c2.399.008 4.331 1.939 4.331 4.339z" fill="#fff"/><g fill="#d0f6ff"><path d="m433.094 238.053c0 2.4-1.931 4.331-4.331 4.339v-8.679c2.399.009 4.331 1.94 4.331 4.34z"/><path d="m438.972 378.038h-10.197l-.013-83.903h4.815c1.596 0 2.902 1.268 2.951 2.863z"/></g></g></g><g><path d="m488.31 363.66c-.11.25-.22.49-.34.74-11.02 23.56-25.53 45.17-42.86 64.15-7.18 7.87-14.85 15.28-22.96 22.2-5.52 4.71-11.24 9.19-17.14 13.42l-39.28 12.61c-70.73 22.7-147.3 18.92-215.46-10.64l-81.19-35.22c-.73-.79-1.46-1.58-2.19-2.37-9.2-10.08-17.6-20.89-25.11-32.34 43.99 1.06 118.78-.09 205.19-13.75 2.79-.44 5.82-.9 9.03-1.37 25.13-3.69 61.48-8.2 83.29-11.47 41.85-6.27 100.39-8.33 149.02-5.96z" fill="#6cdc2d"/></g><path d="m488.31 363.66c-.11.25-.22.49-.34.74-11.02 23.56-25.53 45.17-42.86 64.15-7.18 7.87-14.85 15.28-22.96 22.2-5.52 4.71-11.24 9.19-17.14 13.42l-39.28 12.61c-35.7 11.46-72.88 16.17-109.73 14.22v-109.91c25.13-3.69 61.48-8.2 83.29-11.47 41.85-6.27 100.39-8.33 149.02-5.96z" fill="#5dbf1d"/><g><g><g><path d="m263.845 218.081 3.301 150.887h-22.322l3.301-150.887z" fill="#d0f6ff"/><path d="m263.845 218.081 3.301 150.887h-11.14l-.006-150.887z" fill="#92eaff"/></g><g><path d="m274.457 471.06h-36.945l4.417-146.455c.087-2.882 2.449-5.174 5.332-5.174h17.447c2.884 0 5.245 2.292 5.332 5.174z" fill="#fff"/></g></g><g><path d="m269.251 151.684c0 23.589-4.709 46.046-13.243 66.488-8.58-20.442-13.289-42.899-13.289-66.488 0-19.038 3.056-37.353 8.738-54.444.724-2.173 2.626-3.237 4.55-3.237 1.902 0 3.78 1.087 4.505 3.26 5.66 17.091 8.739 35.382 8.739 54.421z" fill="#fff"/><path d="m269.251 151.684c0 23.589-4.709 46.046-13.243 66.488v-124.17c1.902 0 3.78 1.087 4.505 3.26 5.659 17.092 8.738 35.383 8.738 54.422z" fill="#d0f6ff"/><path d="m196.859 184.938c22.435 7.289 42.337 18.709 59.141 33.143-22.093 1.842-44.901-.631-67.336-7.921-18.114-5.886-34.569-14.445-49.068-25.134-3.668-2.704-1.755-8.58 2.802-8.607 18.004-.105 36.349 2.633 54.461 8.519z" fill="#fff"/><path d="m315.141 184.938c-22.435 7.289-42.336 18.709-59.141 33.143 22.093 1.842 44.901-.631 67.336-7.921 18.114-5.886 34.569-14.445 49.069-25.134 3.668-2.704 1.755-8.58-2.802-8.607-18.005-.105-36.35 2.633-54.462 8.519z" fill="#d0f6ff"/><path d="m206.203 264.085c13.865-19.084 30.876-34.483 49.797-46.004-5.075 21.58-14.476 42.509-28.341 61.593-11.195 15.409-24.421 28.414-39.066 38.9-3.705 2.653-8.702-.983-7.32-5.324 5.463-17.156 13.736-33.758 24.93-49.165z" fill="#fff"/><path d="m284.365 279.657c-13.865-19.084-23.254-40.021-28.365-61.576 18.956 11.496 35.955 26.903 49.82 45.987 11.195 15.409 19.476 32.006 24.924 49.175 1.378 4.343-3.624 7.973-7.325 5.316-14.628-10.497-27.86-23.495-39.054-38.902z" fill="#d0f6ff"/></g><path d="m275.046 218.081c0 10.516-8.522 19.038-19.038 19.038s-19.038-8.522-19.038-19.038 8.522-19.038 19.038-19.038c10.516-.001 19.038 8.522 19.038 19.038z" fill="#d0f6ff"/><path d="m275.046 218.081c0 10.516-8.522 19.038-19.038 19.038v-38.076c10.516-.001 19.038 8.522 19.038 19.038z" fill="#92eaff"/><path d="m263.834 218.081c0 4.336-3.49 7.827-7.827 7.842h-.015c-4.337 0-7.842-3.505-7.842-7.842s3.505-7.842 7.842-7.842h.015c4.337.015 7.827 3.506 7.827 7.842z" fill="#fff"/><g fill="#d0f6ff"><path d="m263.834 218.081c0 4.336-3.49 7.827-7.827 7.842v-15.684c4.337.015 7.827 3.506 7.827 7.842z"/><path d="m274.457 471.06h-18.427l-.023-151.629h8.701c2.884 0 5.245 2.292 5.332 5.174z"/></g></g><path d="m405.01 464.17c-41.77 29.97-92.94 47.66-148.22 47.83h-.79c-73.74 0-140.2-31.18-186.92-81.08 32.98.29 66.12 2.62 94.59 6.88 24.61 3.69 67.69 8.95 92.33 12.84 54.97 8.69 106.67 12.32 149.01 13.53z" fill="#b6e337"/><path d="m405.01 464.17c-41.77 29.97-92.94 47.66-148.22 47.83h-.79v-61.36c54.97 8.69 106.67 12.32 149.01 13.53z" fill="#6cdc2d"/></g><g><path d="m84.867 109.687c0-.055-.004-.109-.004-.165 0-10.101 8.189-18.29 18.29-18.29 2.4 0 4.689.467 6.789 1.307 4.056-7.266 11.816-12.182 20.729-12.182 11.574 0 21.207 8.288 23.3 19.252.624-.09 1.262-.138 1.91-.138 6.292 0 11.565 4.356 12.974 10.216z" fill="#fff"/><path d="m102.713 109.687c0-.032-.002-.063-.002-.095 0-5.808 4.709-10.517 10.517-10.517 1.38 0 2.696.268 3.904.752 2.332-4.178 6.795-7.005 11.919-7.005 6.655 0 12.194 4.766 13.398 11.07.359-.051.725-.079 1.098-.079 3.618 0 6.65 2.505 7.46 5.874z" fill="#dff7fd"/></g><g><path d="m218.23 35.295c0-.045-.003-.088-.003-.133 0-8.145 6.603-14.748 14.748-14.748 1.935 0 3.781.376 5.474 1.054 3.27-5.859 9.528-9.823 16.714-9.823 9.332 0 17.1 6.683 18.788 15.524.503-.072 1.017-.112 1.54-.112 5.074 0 9.325 3.513 10.461 8.238z" fill="#fff"/><path d="m232.62 35.295c0-.026-.002-.051-.002-.076 0-4.684 3.797-8.48 8.48-8.48 1.113 0 2.174.216 3.148.606 1.88-3.369 5.479-5.649 9.611-5.649 5.366 0 9.833 3.843 10.804 8.927.289-.041.585-.064.886-.064 2.918 0 5.362 2.02 6.016 4.737h-38.943z" fill="#dff7fd"/></g><g><path d="m416.108 108.772c0-.045.003-.089.003-.134 0-8.236-6.676-14.912-14.912-14.912-1.957 0-3.823.381-5.535 1.066-3.307-5.924-9.634-9.932-16.9-9.932-9.436 0-17.29 6.758-18.997 15.696-.509-.073-1.029-.113-1.557-.113-5.13 0-9.429 3.551-10.578 8.329z" fill="#fff"/><path d="m401.559 108.772c0-.026.002-.051.002-.077 0-4.736-3.839-8.575-8.575-8.575-1.125 0-2.198.219-3.183.613-1.901-3.407-5.54-5.711-9.718-5.711-5.426 0-9.942 3.886-10.924 9.026-.293-.042-.591-.065-.896-.065-2.95 0-5.422 2.042-6.082 4.79h39.376z" fill="#dff7fd"/></g><g fill="#53af17"><circle cx="160.471" cy="465.622" r="9.463"/><path d="m353.141 480.556c0 3.696-2.996 6.691-6.691 6.691-3.696 0-6.692-2.996-6.692-6.691 0-3.696 2.996-6.692 6.692-6.692 3.696.001 6.691 2.997 6.691 6.692z"/><path d="m237.758 495.49c0 3.021-2.449 5.471-5.471 5.471-3.021 0-5.471-2.449-5.471-5.471s2.449-5.471 5.471-5.471c3.022.001 5.471 2.45 5.471 5.471z"/><path d="m297.251 469.615c0 3.022-2.449 5.471-5.471 5.471-3.021 0-5.471-2.449-5.471-5.471 0-3.021 2.449-5.471 5.471-5.471s5.471 2.449 5.471 5.471z"/><circle cx="297.251" cy="427.945" r="10.168"/><circle cx="86.06" cy="411.345" r="8.367"/><path d="m368.875 396.441c0 3.696-2.996 6.692-6.692 6.692s-6.691-2.996-6.691-6.692 2.996-6.691 6.691-6.691c3.696-.001 6.692 2.995 6.692 6.691z"/><path d="m416.112 427.945c0 2.718-2.203 4.921-4.921 4.921s-4.92-2.203-4.92-4.921c0-2.717 2.203-4.92 4.92-4.92s4.921 2.202 4.921 4.92z"/><path d="m229.446 429.707c0 2.717-2.203 4.921-4.92 4.921s-4.921-2.203-4.921-4.921 2.203-4.92 4.921-4.92 4.92 2.203 4.92 4.92z"/><path d="m456.389 389.749c0 2.717-2.203 4.92-4.92 4.92s-4.921-2.203-4.921-4.92 2.203-4.921 4.921-4.921 4.92 2.204 4.92 4.921z"/><path d="m165.391 406.424c0 2.717-2.203 4.921-4.921 4.921s-4.92-2.203-4.92-4.921 2.203-4.92 4.92-4.92 4.921 2.203 4.921 4.92z"/></g></g></svg>