<svg id="Capa_1" enable-background="new 0 0 512 512" height="512" viewBox="0 0 512 512" width="512" xmlns="http://www.w3.org/2000/svg"><g><path d="m510.51 228.29c-135.87 151.46-373.15 151.46-509.02 0 3.85-35.83 15.1-69.44 32.19-99.29 44.12-77.07 127.16-129 222.32-129s178.2 51.93 222.32 129c12.98 22.67 22.59 47.52 28.15 73.86 1.76 8.34 3.12 16.82 4.04 25.43z" fill="#fff9bb"/><g><path d="m510.51 228.29c-135.87 151.46-373.15 151.46-509.02 0 3.85-35.83 15.1-69.44 32.19-99.29 44.12 77.07 127.16 129 222.32 129s178.2-51.93 222.32-129c17.09 29.85 28.34 63.46 32.19 99.29z" fill="#fff297"/></g><g><g><g><path d="m196.051 281.967h-7.633l.408-12.791.503-15.713h5.811l.502 15.713z" fill="#ec771b"/><path d="m196.051 281.967h-3.671v-28.504h2.76l.502 15.713z" fill="#c55732"/><path d="m192.381 267.552v-14.089h-3.052l-.451 14.089z" fill="#c55732"/><path d="m195.59 267.552-.45-14.089h-2.759v14.089z" fill="#a44e3e"/><g><path d="m204.235 258.464c-3.283 3.232-7.569 4.848-11.855 4.848-4.285 0-8.571-1.616-11.855-4.848-5.309-5.225-6.313-13.083-3.012-19.304 4.591-8.651 8.659-17.562 12.427-26.59l2.439-5.845 2.44 5.845c3.768 9.028 7.836 17.939 12.427 26.59 3.303 6.222 2.299 14.08-3.011 19.304z" fill="#43af3e"/><path d="m204.235 258.464c-3.283 3.232-7.569 4.848-11.855 4.848-2.033 0-4.066-1.616-5.624-4.848-2.519-5.225-2.995-13.083-1.429-19.304 2.178-8.651 4.108-17.562 5.896-26.59l1.157-5.845 2.44 5.845c3.768 9.028 7.836 17.939 12.427 26.59 3.302 6.222 2.298 14.08-3.012 19.304z" fill="#00a23e"/><path d="m204.235 258.464c-3.283 3.232-7.569 4.848-11.855 4.848v-56.587l2.44 5.845c3.768 9.028 7.836 17.939 12.427 26.59 3.302 6.222 2.298 14.08-3.012 19.304z" fill="#008839"/></g></g><g><path d="m90.491 242.037h-9.535l.51-15.978.628-19.628h7.258l.628 19.628z" fill="#ec771b"/><path d="m90.491 242.037h-4.585v-35.606h3.446l.628 19.628z" fill="#c55732"/><path d="m85.906 223.364v-16.933h-3.812l-.542 16.933z" fill="#c55732"/><path d="m89.894 223.364-.542-16.933h-3.446v16.933z" fill="#a44e3e"/><g><path d="m100.714 212.678c-4.101 4.037-9.455 6.055-14.809 6.055-5.353 0-10.707-2.018-14.809-6.055-6.631-6.526-7.885-16.342-3.762-24.113 5.734-10.807 10.817-21.938 15.523-33.215l3.047-7.302 3.048 7.302c4.706 11.278 9.789 22.409 15.523 33.215 4.125 7.771 2.871 17.587-3.761 24.113z" fill="#43af3e"/><path d="m100.714 212.678c-4.101 4.037-9.455 6.055-14.809 6.055-2.54 0-5.08-2.018-7.026-6.055-3.146-6.526-3.742-16.342-1.785-24.113 2.721-10.807 5.132-21.938 7.366-33.215l1.445-7.302 3.048 7.302c4.706 11.278 9.789 22.409 15.523 33.215 4.124 7.771 2.87 17.587-3.762 24.113z" fill="#00a23e"/><path d="m100.714 212.678c-4.101 4.037-9.455 6.055-14.809 6.055v-70.685l3.048 7.302c4.706 11.278 9.789 22.409 15.523 33.215 4.124 7.771 2.87 17.587-3.762 24.113z" fill="#008839"/></g></g><g><path d="m341.436 274.86h-9.307l.498-15.596.613-19.159h7.085l.613 19.159z" fill="#ec771b"/><path d="m341.436 274.86h-4.475v-34.755h3.364l.613 19.159z" fill="#c55732"/><path d="m336.961 240.105v19.159h-4.334l.613-19.159z" fill="#c55732"/><path d="m340.938 259.264h-3.977v-19.159h3.364z" fill="#a44e3e"/><g><path d="m351.415 246.203c-4.003 3.94-9.229 5.911-14.455 5.911-5.225 0-10.451-1.97-14.455-5.911-6.473-6.37-7.697-15.952-3.672-23.537 5.598-10.548 10.559-21.413 15.152-32.422l2.975-7.127 2.975 7.127c4.594 11.008 9.555 21.873 15.152 32.422 4.026 7.585 2.802 17.167-3.672 23.537z" fill="#43af3e"/><path d="m351.415 246.203c-4.003 3.94-9.229 5.911-14.455 5.911-2.479 0-4.958-1.97-6.858-5.911-3.071-6.37-3.652-15.952-1.742-23.537 2.656-10.548 5.009-21.413 7.19-32.422l1.411-7.127 2.975 7.127c4.594 11.008 9.555 21.873 15.152 32.422 4.025 7.585 2.801 17.167-3.673 23.537z" fill="#00a23e"/><path d="m351.415 246.203c-4.003 3.94-9.229 5.911-14.455 5.911v-68.996l2.975 7.127c4.594 11.008 9.555 21.873 15.152 32.422 4.026 7.584 2.802 17.166-3.672 23.536z" fill="#008839"/></g></g><g><path d="m457.502 238.119h-7.633l.409-12.79.502-15.714h5.811l.503 15.714z" fill="#ec771b"/><path d="m457.502 238.119h-3.67v-28.504h2.759l.503 15.714z" fill="#c55732"/><path d="m453.832 209.615v15.714h-3.554l.502-15.714z" fill="#c55732"/><path d="m457.094 225.329h-3.262v-15.714h2.759z" fill="#a44e3e"/><g><path d="m465.687 214.617c-3.283 3.232-7.569 4.848-11.855 4.848-4.285 0-8.571-1.616-11.855-4.848-5.309-5.225-6.313-13.083-3.012-19.304 4.591-8.651 8.659-17.562 12.427-26.59l2.439-5.845 2.44 5.845c3.768 9.028 7.836 17.939 12.427 26.59 3.302 6.221 2.298 14.079-3.011 19.304z" fill="#43af3e"/><path d="m465.687 214.617c-3.283 3.232-7.569 4.848-11.855 4.848-2.033 0-4.066-1.616-5.624-4.848-2.519-5.225-2.995-13.083-1.429-19.304 2.178-8.651 4.108-17.562 5.897-26.59l1.157-5.845 2.44 5.845c3.768 9.028 7.836 17.939 12.427 26.59 3.3 6.221 2.296 14.079-3.013 19.304z" fill="#00a23e"/><path d="m465.687 214.617c-3.283 3.232-7.569 4.848-11.855 4.848v-56.587l2.44 5.845c3.768 9.028 7.836 17.939 12.427 26.59 3.301 6.221 2.297 14.079-3.012 19.304z" fill="#008839"/></g></g><path d="m512 256c0 26.9-4.15 52.82-11.84 77.18-3.45 10.91-7.61 21.52-12.43 31.74-11 23.36-25.42 44.79-42.62 63.63-14.3 15.67-30.53 29.54-48.3 41.27-40.19 26.53-88.3 42.02-140.02 42.18h-.79c-52.02 0-100.41-15.52-140.81-42.18-17.77-11.72-34-25.6-48.3-41.27-14.46-15.84-26.96-33.5-37.1-52.61-1.93-3.62-3.77-7.3-5.51-11.02h80.25c37.15 0 71.65-1.75 102.07-14 30.43-12.25 53.69-29.39 76.2-46.38 39.45-29.78 88.29-64.58 155.06-73.04 23.8-3.01 48.22-3.46 72.65-3.21.9 8.28 1.39 16.69 1.48 25.19.01.84.01 1.68.01 2.52z" fill="#5dbf1d"/><g fill="#53af17"><circle cx="288.49" cy="320.5" r="4.845"/><circle cx="398.353" cy="329.372" r="4.845"/><circle cx="469.406" cy="317.566" r="4.845"/><circle cx="466.865" cy="264.65" r="4.845"/><circle cx="371.933" cy="293.25" r="9.691"/><circle cx="418.326" cy="252.007" r="4.845"/><circle cx="386.354" cy="261.885" r="2.754"/><path d="m499.668 287.488c0 3.666-2.972 6.638-6.639 6.638-3.666 0-6.638-2.972-6.638-6.638s2.972-6.638 6.638-6.638c3.667-.001 6.639 2.972 6.639 6.638z"/><circle cx="486.391" cy="244.24" r="5.578"/></g><g><path d="m344.23 369.355h-9.686l.518-16.232.638-19.94h7.374l.637 19.94z" fill="#ec771b"/><path d="m344.23 369.355h-4.658v-36.172h3.502l.637 19.94z" fill="#c55732"/><path d="m339.572 351.275v-18.092h-3.872l-.579 18.092z" fill="#c55732"/><path d="m343.652 351.275-.578-18.092h-3.502v18.092z" fill="#a44e3e"/><g><path d="m354.616 339.53c-4.166 4.101-9.605 6.151-15.044 6.151-5.438 0-10.877-2.051-15.044-6.151-6.737-6.63-8.011-16.602-3.822-24.496 5.826-10.978 10.989-22.286 15.77-33.743l3.096-7.418 3.097 7.418c4.781 11.457 9.944 22.765 15.77 33.743 4.189 7.893 2.915 17.865-3.823 24.496z" fill="#43af3e"/><path d="m354.616 339.53c-4.166 4.101-9.605 6.151-15.044 6.151-2.58 0-5.16-2.051-7.138-6.151-3.196-6.63-3.801-16.602-1.813-24.496 2.764-10.978 5.213-22.286 7.483-33.743l1.468-7.418 3.097 7.418c4.781 11.457 9.944 22.765 15.77 33.743 4.189 7.893 2.915 17.865-3.823 24.496z" fill="#00a23e"/><path d="m354.616 339.53c-4.166 4.101-9.605 6.151-15.044 6.151v-71.809l3.097 7.418c4.781 11.457 9.944 22.765 15.77 33.743 4.189 7.894 2.915 17.866-3.823 24.497z" fill="#008839"/></g></g><g><path d="m442.867 349.114h-11.143l.596-18.673.734-22.94h8.483l.734 22.94z" fill="#ec771b"/><path d="m442.867 349.114h-5.358v-41.613h4.028l.734 22.94z" fill="#c55732"/><path d="m437.509 327.112v-19.611h-4.455l-.627 19.611z" fill="#c55732"/><path d="m442.165 327.112-.628-19.611h-4.028v19.611z" fill="#a44e3e"/><g><path d="m454.816 314.802c-4.793 4.718-11.05 7.077-17.307 7.077-6.256 0-12.513-2.359-17.307-7.077-7.75-7.628-9.216-19.1-4.397-28.181 6.702-12.63 12.642-25.639 18.142-38.819l3.561-8.533 3.563 8.533c5.5 13.18 11.44 26.189 18.142 38.819 4.82 9.082 3.354 20.554-4.397 28.181z" fill="#43af3e"/><path d="m454.816 314.802c-4.793 4.718-11.05 7.077-17.307 7.077-2.968 0-5.936-2.359-8.211-7.077-3.677-7.628-4.373-19.1-2.086-28.181 3.18-12.63 5.998-25.639 8.608-38.819l1.689-8.533 3.563 8.533c5.5 13.18 11.44 26.189 18.142 38.819 4.819 9.082 3.353 20.554-4.398 28.181z" fill="#00a23e"/><path d="m454.816 314.802c-4.793 4.718-11.05 7.077-17.307 7.077v-82.611l3.563 8.533c5.5 13.18 11.44 26.189 18.142 38.819 4.819 9.083 3.353 20.555-4.398 28.182z" fill="#008839"/></g></g><path d="m487.73 364.92c-11 23.36-25.42 44.79-42.62 63.63-46.66 51.1-113.74 83.22-188.32 83.45h-.79c-74.9 0-142.29-32.17-189.11-83.45-14.46-15.84-26.96-33.5-37.1-52.61-16.35-30.76-26.61-65.26-29.16-101.88-.42-5.96-.63-11.99-.63-18.06 0-9.36.5-18.61 1.49-27.71 24.43-.25 48.85.2 72.65 3.21 66.77 8.46 115.61 43.26 155.06 73.04 8.7 6.57 17.51 13.15 26.8 19.47 14.75 10.03 30.73 19.39 49.4 26.91 30.42 12.25 64.92 14 102.07 14z" fill="#b6e337"/><path d="m487.73 364.92c-11 23.36-25.42 44.79-42.62 63.63-14.3 15.67-30.52 29.53-48.29 41.27h-.01c-40.19 26.53-88.3 42.02-140.02 42.18h-.79v-187.99c14.75 10.03 30.73 19.39 49.4 26.91 30.42 12.25 64.92 14 102.07 14z" fill="#6cdc2d"/><g><path d="m180.371 383.719h-9.648l.516-16.167.636-19.861h7.344l.635 19.861z" fill="#ec771b"/><path d="m180.371 383.719h-4.64v-36.028h3.488l.635 19.861z" fill="#c55732"/><path d="m175.731 363.95v-16.259h-3.856l-.52 16.259z" fill="#c55732"/><path d="m179.739 363.95-.52-16.259h-3.488v16.259z" fill="#a44e3e"/><g><path d="m190.716 354.012c-4.149 4.085-9.567 6.127-14.984 6.127-5.416 0-10.834-2.042-14.984-6.127-6.71-6.604-7.979-16.536-3.807-24.399 5.803-10.935 10.945-22.198 15.707-33.609l3.083-7.388 3.084 7.388c4.762 11.411 9.905 22.674 15.707 33.609 4.173 7.863 2.904 17.795-3.806 24.399z" fill="#43af3e"/><path d="m190.716 354.012c-4.149 4.085-9.567 6.127-14.984 6.127-2.57 0-5.14-2.042-7.109-6.127-3.184-6.604-3.786-16.536-1.806-24.399 2.753-10.935 5.193-22.198 7.453-33.609l1.462-7.388 3.084 7.388c4.762 11.411 9.905 22.674 15.707 33.609 4.172 7.863 2.903 17.795-3.807 24.399z" fill="#00a23e"/><path d="m190.716 354.012c-4.149 4.085-9.567 6.127-14.984 6.127v-71.523l3.084 7.388c4.762 11.411 9.905 22.674 15.707 33.609 4.172 7.863 2.903 17.795-3.807 24.399z" fill="#008839"/></g></g><g><path d="m55.536 343.891h-11.339l.607-19.001.747-23.341h8.631l.747 23.341z" fill="#ec771b"/><path d="m55.536 343.891h-5.453v-42.342h4.099l.747 23.341z" fill="#c55732"/><path d="m50.083 321.283v-19.734h-4.532l-.632 19.734z" fill="#c55732"/><path d="m54.813 321.283-.631-19.734h-4.099v19.734z" fill="#a44e3e"/><g><path d="m67.694 308.978c-4.877 4.801-11.244 7.201-17.61 7.201s-12.733-2.4-17.61-7.201c-7.886-7.761-9.377-19.434-4.474-28.675 6.82-12.851 12.863-26.088 18.46-39.5l3.624-8.683 3.625 8.683c5.597 13.412 11.641 26.648 18.46 39.5 4.903 9.24 3.412 20.913-4.475 28.675z" fill="#43af3e"/><path d="m67.694 308.978c-4.877 4.801-11.244 7.201-17.61 7.201-3.02 0-6.041-2.4-8.355-7.201-3.742-7.761-4.45-19.434-2.123-28.675 3.236-12.851 6.103-26.088 8.759-39.5l1.719-8.683 3.625 8.683c5.597 13.412 11.641 26.648 18.46 39.5 4.903 9.24 3.412 20.913-4.475 28.675z" fill="#00a23e"/><path d="m67.694 308.978c-4.877 4.801-11.244 7.201-17.61 7.201v-84.059l3.625 8.683c5.597 13.412 11.641 26.648 18.46 39.5 4.903 9.24 3.412 20.913-4.475 28.675z" fill="#008839"/></g></g></g><path d="m500.16 333.18c-3.45 10.91-7.61 21.52-12.43 31.74-11 23.36-25.42 44.79-42.62 63.63-14.3 15.67-30.53 29.54-48.3 41.27-40.19 26.53-88.3 42.02-140.02 42.18h-.79c-52.02 0-100.41-15.52-140.81-42.18 33.1-.38 63.92-2.88 91.41-13.95 30.43-12.25 53.69-29.39 76.2-46.38 39.45-29.78 88.29-64.58 155.06-73.03 20.44-2.59 41.34-3.29 62.3-3.28z" fill="#53af17"/><path d="m396.81 469.82c-40.19 26.53-88.3 42.02-140.02 42.18h-.79c-74.9 0-142.29-32.17-189.11-83.45-14.46-15.84-26.96-33.5-37.1-52.61-7.21-13.57-13.24-27.88-17.94-42.76 20.96-.01 41.86.69 62.29 3.28 66.77 8.45 115.61 43.25 155.06 73.03 8.7 6.56 17.51 13.15 26.8 19.47 14.75 10.03 30.73 19.39 49.4 26.91 27.49 11.07 58.31 13.57 91.41 13.95z" fill="#6cdc2d"/><g><path d="m202.907 119.378c.001-.085.006-.168.006-.253 0-15.524-12.585-28.109-28.109-28.109-3.688 0-7.207.717-10.434 2.009-6.233-11.167-18.16-18.722-31.856-18.722-17.787 0-32.591 12.738-35.809 29.587-.959-.138-1.939-.213-2.936-.213-9.671 0-17.773 6.694-19.939 15.701z" fill="#ffeb98"/><path d="m175.481 119.378c0-.049.004-.097.004-.146 0-8.927-7.236-16.163-16.163-16.163-2.121 0-4.144.413-6 1.155-3.584-6.421-10.442-10.766-18.318-10.766-10.228 0-18.741 7.325-20.591 17.013-.551-.079-1.115-.122-1.688-.122-5.561 0-10.22 3.849-11.465 9.028h74.221z" fill="#f9e073"/></g><g><path d="m327.117 143.76c0-.063-.005-.124-.005-.187 0-11.434 9.269-20.703 20.703-20.703 2.716 0 5.308.528 7.685 1.48 4.591-8.225 13.375-13.79 23.463-13.79 13.101 0 24.005 9.382 26.374 21.792.706-.101 1.428-.156 2.162-.156 7.123 0 13.09 4.931 14.686 11.564z" fill="#ffeb98"/><path d="m347.317 143.76c0-.036-.003-.071-.003-.107 0-6.575 5.33-11.905 11.905-11.905 1.562 0 3.052.304 4.419.851 2.64-4.729 7.691-7.929 13.492-7.929 7.533 0 13.803 5.395 15.166 12.531.406-.058.821-.09 1.243-.09 4.096 0 7.527 2.835 8.445 6.65h-54.667z" fill="#f9e073"/></g><g><path d="m295.615 57.435c0-.054.004-.106.004-.16 0-9.817-7.958-17.776-17.776-17.776-2.332 0-4.557.454-6.598 1.27-3.942-7.062-11.484-11.84-20.146-11.84-11.248 0-20.61 8.055-22.645 18.711-.607-.087-1.226-.134-1.857-.134-6.116 0-11.239 4.234-12.609 9.929z" fill="#ffeb98"/><path d="m278.271 57.435c0-.031.002-.061.002-.092 0-5.645-4.576-10.221-10.221-10.221-1.341 0-2.621.261-3.794.73-2.267-4.061-6.604-6.808-11.584-6.808-6.468 0-11.851 4.632-13.021 10.759-.349-.05-.705-.077-1.067-.077-3.517 0-6.463 2.434-7.251 5.709z" fill="#f9e073"/></g><path d="m396.81 469.82c-40.19 26.53-88.3 42.02-140.02 42.18h-.79v-83.04c14.75 10.03 30.73 19.39 49.4 26.91 27.49 11.07 58.31 13.57 91.41 13.95z" fill="#5dbf1d"/></g><circle cx="98.861" cy="360.193" fill="#5dbf1d" r="4.845"/><circle cx="127.163" cy="440.236" fill="#5dbf1d" r="4.845"/><circle cx="190.401" cy="447.196" fill="#5dbf1d" r="4.845"/><circle cx="272.212" cy="456.887" fill="#53af17" r="4.845"/><circle cx="267.366" cy="364.277" fill="#53af17" r="4.845"/><path d="m273.687 398.268c0 2.284-1.852 4.136-4.136 4.136s-4.136-1.852-4.136-4.136 1.852-4.136 4.136-4.136c2.285 0 4.136 1.852 4.136 4.136z" fill="#53af17"/><path d="m301.278 358.275c0 2.284-1.852 4.136-4.136 4.136s-4.136-1.852-4.136-4.136 1.852-4.136 4.136-4.136c2.284.001 4.136 1.852 4.136 4.136z" fill="#53af17"/><circle cx="323.938" cy="369.122" fill="#53af17" r="4.136"/><circle cx="294.408" cy="387.108" fill="#53af17" r="7.024"/><circle cx="275.957" cy="498.475" fill="#53af17" r="4.845"/><circle cx="60.292" cy="383.977" fill="#5dbf1d" r="6.961"/><circle cx="234.181" cy="445.081" fill="#5dbf1d" r="6.961"/><circle cx="313.281" cy="482.793" fill="#53af17" r="6.961"/><g fill="#00a23e"><path d="m329.248 419.81c0 3.481-2.822 6.304-6.304 6.304-3.481 0-6.304-2.822-6.304-6.304 0-3.481 2.822-6.304 6.304-6.304 3.482.001 6.304 2.823 6.304 6.304z"/><path d="m440.874 381.543c0 3.481-2.822 6.304-6.304 6.304-3.481 0-6.304-2.822-6.304-6.304 0-3.481 2.822-6.304 6.304-6.304s6.304 2.822 6.304 6.304z"/><circle cx="360.02" cy="446.868" r="4.517"/><path d="m462.058 347.658c0 2.495-2.022 4.517-4.517 4.517s-4.517-2.022-4.517-4.517 2.022-4.517 4.517-4.517 4.517 2.022 4.517 4.517z"/><path d="m448.141 410.012c0 2.494-2.022 4.517-4.517 4.517s-4.517-2.022-4.517-4.517 2.022-4.517 4.517-4.517 4.517 2.022 4.517 4.517z"/><path d="m489.847 349.069c0 2.495-2.022 4.517-4.517 4.517s-4.517-2.022-4.517-4.517 2.022-4.517 4.517-4.517 4.517 2.022 4.517 4.517z"/><circle cx="400.778" cy="370.722" r="4.517"/><path d="m293.007 426.114c0 2.494-2.022 4.517-4.517 4.517s-4.517-2.022-4.517-4.517 2.022-4.517 4.517-4.517c2.494 0 4.517 2.022 4.517 4.517z"/><circle cx="404.626" cy="438.174" r="8.365"/><circle cx="380.298" cy="401.647" r="8.365"/></g><circle cx="349.296" cy="474.616" fill="#5dbf1d" r="3.48"/><path d="m241.142 486.669c0 3.844-3.116 6.961-6.961 6.961-3.844 0-6.961-3.116-6.961-6.961 0-3.844 3.116-6.961 6.961-6.961s6.961 3.117 6.961 6.961z" fill="#5dbf1d"/><circle cx="154.139" cy="394.686" fill="#5dbf1d" r="6.961"/><circle cx="98.861" cy="293.25" fill="#6cdc2d" r="6.961"/><path d="m234.181 324.527c0 3.844-3.116 6.961-6.961 6.961-3.844 0-6.961-3.116-6.961-6.961 0-3.844 3.116-6.961 6.961-6.961s6.961 3.117 6.961 6.961z" fill="#6cdc2d"/><path d="m80.357 250.65c0 2.955-2.395 5.35-5.35 5.35s-5.35-2.395-5.35-5.35 2.395-5.35 5.35-5.35 5.35 2.395 5.35 5.35z" fill="#6cdc2d"/><path d="m154.139 268.278c0 2.955-2.395 5.35-5.35 5.35s-5.35-2.395-5.35-5.35 2.395-5.35 5.35-5.35 5.35 2.395 5.35 5.35z" fill="#6cdc2d"/><path d="m142.708 331.488c0 2.955-2.395 5.35-5.35 5.35s-5.35-2.395-5.35-5.35 2.395-5.35 5.35-5.35 5.35 2.395 5.35 5.35z" fill="#6cdc2d"/><ellipse cx="218.659" cy="370.094" fill="#6cdc2d" rx="8.562" ry="8.562" transform="matrix(.229 -.973 .973 .229 -191.661 498.228)"/><path d="m20.123 262.928c0 3.826-3.102 6.928-6.928 6.928s-6.928-3.102-6.928-6.928 3.102-6.928 6.928-6.928 6.928 3.102 6.928 6.928z" fill="#6cdc2d"/></g></svg>